<?xml version="1.0" standalone="no"?>
<!DOCTYPE svg PUBLIC "-//W3C//DTD SVG 20010904//EN"
 "http://www.w3.org/TR/2001/REC-SVG-20010904/DTD/svg10.dtd">
<svg version="1.0" xmlns="http://www.w3.org/2000/svg"
 width="700.000000pt" height="700.000000pt" viewBox="0 0 700.000000 700.000000"
 preserveAspectRatio="xMidYMid meet">
<metadata>
Created by potrace 1.11, written by Peter Selinger 2001-2013
</metadata>
<g transform="translate(0.000000,700.000000) scale(0.100000,-0.100000)"
fill="#000000" stroke="none">
<path d="M3495 6548 c-23 -13 -79 -58 -225 -182 -58 -49 -127 -108 -155 -132
-61 -52 -197 -166 -220 -185 -9 -8 -24 -21 -33 -29 -9 -9 -46 -40 -82 -70 -36
-30 -67 -57 -70 -60 -3 -3 -45 -39 -95 -80 -49 -41 -101 -84 -115 -96 -14 -12
-77 -66 -140 -119 -63 -53 -126 -107 -140 -118 -14 -12 -52 -44 -85 -72 -93
-78 -80 -67 -320 -271 -33 -28 -71 -60 -85 -71 -31 -26 -99 -84 -171 -144 -29
-26 -191 -163 -359 -305 -322 -272 -426 -360 -475 -403 -17 -14 -57 -48 -90
-76 -33 -27 -62 -52 -65 -55 -3 -3 -32 -27 -65 -55 -157 -130 -244 -235 -292
-350 -56 -134 -48 -222 35 -379 65 -124 128 -162 194 -118 15 10 49 38 75 63
44 41 305 263 433 368 30 25 62 52 71 60 9 9 25 23 35 31 67 54 180 146 184
151 3 3 151 123 330 268 179 145 334 270 345 279 11 10 76 62 145 117 69 55
127 102 130 105 3 3 52 44 110 90 84 67 422 343 515 421 142 118 470 397 511
434 45 41 155 137 180 158 l30 26 30 -25 c16 -14 45 -40 64 -57 19 -18 69 -61
110 -97 41 -36 77 -67 80 -70 3 -3 59 -50 125 -105 155 -129 132 -111 345
-285 102 -84 203 -167 225 -185 22 -18 56 -46 75 -62 19 -15 37 -30 40 -33 3
-3 73 -59 155 -125 83 -66 152 -122 155 -125 3 -3 93 -75 200 -160 107 -85
202 -160 210 -167 8 -7 123 -99 255 -204 469 -375 510 -409 770 -639 72 -63
152 -133 179 -155 26 -22 53 -45 59 -50 88 -77 98 -75 178 37 36 51 75 115 88
141 41 90 38 192 -10 340 -33 102 -52 125 -234 277 -49 41 -101 85 -115 97
-65 55 -382 322 -425 358 -26 22 -55 47 -64 55 -9 9 -38 33 -66 55 -49 39 -82
67 -154 132 l-36 31 0 764 c-1 831 2 791 -57 845 -44 41 -67 44 -416 43 -357
-1 -362 -2 -409 -52 -46 -49 -49 -80 -49 -461 1 -196 -1 -357 -3 -357 -3 0
-67 52 -131 106 -14 12 -47 41 -75 64 -27 23 -61 52 -75 63 -14 12 -52 44 -85
71 -33 28 -62 52 -65 56 -3 3 -30 25 -60 50 -30 25 -60 49 -66 55 -6 5 -75 64
-154 130 -79 66 -178 149 -220 185 -42 36 -101 85 -130 110 -30 25 -70 59 -90
76 -97 84 -143 101 -195 72z"/>
<path d="M3529 5283 c-13 -9 -26 -19 -29 -23 -3 -3 -25 -21 -50 -40 -25 -19
-117 -93 -206 -165 -89 -71 -178 -143 -199 -160 -21 -16 -43 -34 -49 -40 -6
-5 -27 -22 -46 -36 -19 -15 -45 -35 -57 -45 -31 -27 -48 -41 -153 -124 -52
-41 -97 -77 -100 -80 -3 -3 -117 -95 -255 -205 -137 -110 -252 -202 -255 -205
-3 -3 -115 -94 -250 -201 -468 -375 -625 -501 -667 -537 -24 -20 -48 -39 -55
-43 -10 -6 -12 -268 -12 -1206 0 -1295 -1 -1261 53 -1321 62 -67 3 -63 938
-63 465 0 848 3 851 5 2 3 4 390 4 861 l0 855 554 0 c436 0 554 -3 555 -12 0
-7 1 -394 1 -860 l1 -848 51 -1 c310 -3 1469 1 1496 6 85 15 193 101 243 193
59 108 57 66 57 1272 0 608 -4 1110 -8 1115 -4 6 -27 26 -52 45 -55 43 -566
454 -600 484 -14 11 -41 33 -60 47 -19 15 -45 35 -57 45 -28 25 -21 19 -313
254 -213 171 -491 395 -550 443 -8 7 -107 86 -220 177 -113 90 -207 167 -210
170 -8 9 -304 246 -316 253 -6 3 -22 -1 -35 -10z"/>
</g>
</svg>
