<?xml version="1.0" encoding="utf-8"?>
<!-- Generator: Adobe Illustrator 22.0.1, SVG Export Plug-In . SVG Version: 6.00 Build 0)  -->
<svg version="1.1" id="Capa_1" xmlns="http://www.w3.org/2000/svg" xmlns:xlink="http://www.w3.org/1999/xlink" x="0px" y="0px"
	 viewBox="0 0 374 223.9" style="enable-background:new 0 0 374 223.9;" xml:space="preserve">
<style type="text/css">
	.st0{fill:#FFFFFF;}
	.st1{fill:#F0D121;}
	.st2{fill:#29ABE2;}
</style>
<g>
	<path class="st0" d="M370.1,138.1c0,34.1-71.2,62.2-163.1,66.1l11-7.1l-13.6-7.8c86.1-3.4,153.1-28.9,153.1-59.9
		c0-11.9-9.9-23-27-32.4C355.3,108.2,370.1,122.5,370.1,138.1z"/>
	<path class="st0" d="M203.7,198.1L203.7,198.1l-14.3-8.5c0,0,0,0,0,0l-27.9-16.6l0.3,16.1c-84.2-4-149.1-29.2-149.1-59.7
		c0-11.9,9.9-23,27-32.4C14.8,108.2,0,122.5,0,138.1c0,34,70.8,62,162.1,66l0.1,2.5l0.4,17.3l0,0l30.8-19.3c0,0,0,0,0,0l5.5-3.5
		L203.7,198.1L203.7,198.1z"/>
	<g>
		<path class="st1" d="M76.7,83.3v-15h9.7c5.8,0,10.7-1.3,14.6-3.9c3.9-2.6,5.8-6.4,5.8-11.5c0-5-1.7-8.8-5-11.3
			c-3.3-2.5-7.6-3.8-12.8-3.8c-10.5,0-17.7,5.1-21.4,15.3l-17.5-3c2-8,6.5-14.6,13.7-19.7c7.1-5.1,15.8-7.6,25.9-7.6
			c10,0,18.6,2.6,25.7,7.7c7.1,5.1,10.6,12,10.6,20.6c0,6.4-1.9,11.8-5.7,16.4c-3.8,4.5-8.5,7-14.2,7.4c7,1,12.6,3.9,16.8,8.6
			c4.2,4.7,6.4,10.3,6.4,16.9c0,9.1-3.7,16.5-11,22.4c-7.4,5.8-17.1,8.8-29.4,8.8c-11.3,0-20.6-2.8-28-8.5
			c-7.4-5.7-12-12.2-13.9-19.6l18.2-4.4c3.6,11.7,11.5,17.6,23.6,17.6c6.2,0,11.3-1.6,15.1-4.8c3.8-3.2,5.7-7,5.7-11.5
			c0-4.5-1.7-8.5-5-11.9c-3.3-3.4-8.3-5.1-14.9-5.1H76.7z"/>
		<path class="st1" d="M221.5,48.4l-16.2,3.1c-3-9.9-9.3-14.8-18.7-14.8c-9,0-15.4,3.9-19,11.6c-3.6,7.8-5.4,15.9-5.4,24.5
			c0,1.7,0,3.4,0.1,5.1c5.3-10.6,14.5-15.8,27.4-15.8c10.1,0,18.5,3.2,25.3,9.5c6.8,6.3,10.1,14.3,10.1,23.9
			c0,10.2-3.6,18.7-10.8,25.6c-7.2,6.9-16.3,10.3-27.3,10.3c-13.7,0-24.4-4.8-32.2-14.3c-7.8-9.6-11.7-22.6-11.7-39.3
			c0-16.3,3.8-29.6,11.5-39.8c7.7-10.2,17.9-15.3,30.8-15.3C204.7,22.8,216.8,31.3,221.5,48.4z M186.3,117.5
			c5.7,0,10.5-1.7,14.5-5.1c3.9-3.4,5.9-8.7,5.9-15.7c0-4.8-1.9-9.3-5.6-13.4c-3.7-4.2-8.9-6.3-15.5-6.3c-6,0-10.9,2-14.6,5.9
			c-3.7,4-5.5,8.8-5.5,14.6c0,5.8,1.9,10.6,5.7,14.4C174.9,115.6,180,117.5,186.3,117.5z"/>
		<path class="st1" d="M277,131.5c-13,0-23.1-5-30.2-15c-7.1-10-10.6-22.8-10.6-38.2c0-16.7,3.7-30.1,11.1-40.3
			c7.4-10.1,17.4-15.2,29.8-15.2c9,0,16.6,2.4,22.8,7.1c6.2,4.8,10.8,11.4,13.9,19.9c3,8.5,4.6,16.4,4.6,23.8
			c0,12.4-1.4,22.6-4.3,30.6c-2.9,8-7.4,14.5-13.6,19.6C294.3,128.9,286.5,131.5,277,131.5z M277,116.5c5.4,0,9.8-1.6,13.1-4.9
			c3.3-3.3,5.6-7.9,6.8-13.8c1.2-5.9,1.8-14.1,1.8-24.6c0-8.7-1.5-16.9-4.4-24.6c-2.9-7.8-8.6-11.7-16.9-11.7
			c-14.5,0-21.7,13.2-21.7,39.7c0,12,1.5,21.7,4.6,29C263.3,112.9,268.9,116.5,277,116.5z"/>
		<path class="st2" d="M348.5,0c7.2,0,13.3,2.5,18.2,7.5c4.9,5,7.3,10.9,7.3,17.8c0,6.9-2.5,12.9-7.4,17.8c-5,5-11,7.5-18.1,7.5
			c-7.2,0-13.3-2.5-18.2-7.6c-4.9-5.1-7.3-11-7.3-17.7c0-6.6,2.4-12.5,7.2-17.6C335,2.6,341.1,0,348.5,0z M348.6,12.7
			c-3.6,0-6.6,1.3-9.1,3.8c-2.4,2.5-3.6,5.5-3.6,8.8c0,3.3,1.2,6.2,3.6,8.8c2.4,2.6,5.4,3.8,9.1,3.8c3.5,0,6.5-1.2,9-3.7
			c2.5-2.5,3.7-5.4,3.7-8.9c0-3.4-1.2-6.4-3.6-8.9C355.2,14,352.2,12.7,348.6,12.7z"/>
	</g>
</g>
</svg>
