<?xml version="1.0" encoding="utf-8"?>
<!-- Generator: Adobe Illustrator 22.0.1, SVG Export Plug-In . SVG Version: 6.00 Build 0)  -->
<svg version="1.1" xmlns="http://www.w3.org/2000/svg" xmlns:xlink="http://www.w3.org/1999/xlink" x="0px" y="0px"
	 viewBox="0 0 199 198" style="enable-background:new 0 0 199 198;" xml:space="preserve">
<style type="text/css">
	.st0{display:none;}
	.st1{display:inline;}
	.st2{fill:#FFFFFF;}
	.st3{fill:none;}
	.st4{fill:#FFFF00;stroke:#000000;stroke-miterlimit:10;}
</style>
<g id="Capa_3" class="st0">
	<g class="st1">
		<rect x="0.5" y="0.5" width="198" height="197"/>
		<path d="M198,1v196H1V1H198 M199,0H0v198h199V0L199,0z"/>
	</g>
</g>
<g id="Capa_2">
	<path class="st2" d="M198.2,115.6c0,23.5-37.8,42.9-86.5,45.6l5.8-4.9l-7.2-5.4c45.7-2.3,81.1-20,81.1-41.3
		c0-8.2-5.3-15.9-14.3-22.4C190.4,95,198.2,104.9,198.2,115.6z"/>
	<path class="st2" d="M110,157L110,157l-7.6-5.9c0,0,0,0,0,0l-14.8-11.5l0.2,11.1C43.1,148,8.7,130.6,8.7,109.5
		c0-8.2,5.3-15.9,14.3-22.4C9.9,95,2,104.9,2,115.6c0,23.5,37.5,42.8,86,45.6l0,1.8l0.2,11.9l0,0l16.3-13.3c0,0,0,0,0,0l2.9-2.4
		L110,157L110,157z"/>
	<g>
		<rect x="21.8" y="41" class="st3" width="198.2" height="105.5"/>
		<path class="st4" d="M40,82.4V71.9h5.3c3.1,0,5.8-0.9,7.9-2.7c2.1-1.8,3.2-4.5,3.2-8.1c0-3.5-0.9-6.1-2.7-7.9
			c-1.8-1.8-4.1-2.7-6.9-2.7c-5.7,0-9.5,3.6-11.6,10.7l-9.5-2.1c1.1-5.6,3.5-10.2,7.4-13.8C36.9,41.8,41.5,40,47,40
			c5.4,0,10,1.8,13.8,5.4c3.8,3.6,5.7,8.4,5.7,14.4c0,4.5-1,8.3-3.1,11.5c-2.1,3.2-4.6,4.9-7.6,5.2c3.8,0.7,6.8,2.7,9.1,6
			c2.3,3.3,3.4,7.2,3.4,11.9c0,6.4-2,11.6-5.9,15.7c-4,4.1-9.2,6.2-15.8,6.2c-6.1,0-11.1-2-15.1-6c-4-4-6.5-8.6-7.5-13.7l9.8-3.1
			c2,8.2,6.2,12.4,12.7,12.4c3.4,0,6.1-1.1,8.1-3.3c2.1-2.2,3.1-4.9,3.1-8c0-3.2-0.9-6-2.7-8.4c-1.8-2.4-4.5-3.6-8-3.6H40z"/>
		<path class="st4" d="M118,58l-8.7,2.2c-1.6-6.9-5-10.4-10.1-10.4c-4.9,0-8.3,2.7-10.2,8.2C87,63.3,86,69.1,86,75.1
			c0,1.2,0,2.4,0,3.6c2.9-7.4,7.8-11.1,14.8-11.1c5.4,0,10,2.2,13.6,6.7c3.6,4.4,5.5,10,5.5,16.8c0,7.2-1.9,13.1-5.8,18
			c-3.9,4.8-8.8,7.2-14.7,7.2c-7.4,0-13.2-3.4-17.4-10.1c-4.2-6.7-6.3-15.9-6.3-27.6c0-11.5,2.1-20.8,6.2-27.9
			C86,43.5,91.5,40,98.5,40C108.9,40,115.4,46,118,58z M99,106.4c3.1,0,5.7-1.2,7.8-3.6c2.1-2.4,3.2-6.1,3.2-11c0-3.4-1-6.5-3-9.4
			c-2-2.9-4.8-4.4-8.3-4.4c-3.3,0-5.9,1.4-7.9,4.2c-2,2.8-3,6.2-3,10.2c0,4.1,1,7.4,3.1,10.1C92.9,105.1,95.6,106.4,99,106.4z"/>
		<path class="st4" d="M147.9,116.2c-7,0-12.5-3.5-16.3-10.5c-3.8-7-5.7-16-5.7-26.8c0-11.7,2-21.1,6-28.2c4-7.1,9.3-10.7,16.1-10.7
			c4.8,0,8.9,1.7,12.3,5c3.3,3.3,5.8,8,7.5,13.9c1.6,5.9,2.5,11.5,2.5,16.7c0,8.7-0.8,15.9-2.3,21.4c-1.5,5.6-4,10.2-7.4,13.8
			C157.2,114.4,153,116.2,147.9,116.2z M147.9,105.8c2.9,0,5.3-1.2,7.1-3.5c1.8-2.3,3-5.5,3.7-9.7c0.6-4.2,1-9.9,1-17.2
			c0-6.1-0.8-11.8-2.4-17.3c-1.6-5.5-4.6-8.2-9.1-8.2c-7.8,0-11.7,9.3-11.7,27.9c0,8.4,0.8,15.2,2.5,20.3
			C140.5,103.2,143.5,105.8,147.9,105.8z"/>
		<path class="st4" d="M187.5,39.6c3.2,0,6,1.5,8.2,4.4s3.3,6.4,3.3,10.4c0,4-1.1,7.5-3.3,10.4c-2.2,2.9-4.9,4.4-8.1,4.4
			c-3.2,0-6-1.5-8.2-4.4c-2.2-3-3.3-6.4-3.3-10.4c0-3.9,1.1-7.3,3.2-10.3C181.4,41.1,184.1,39.6,187.5,39.6z M187.5,47
			c-1.6,0-3,0.7-4.1,2.2c-1.1,1.5-1.6,3.2-1.6,5.1c0,1.9,0.5,3.6,1.6,5.1c1.1,1.5,2.4,2.2,4.1,2.2c1.6,0,2.9-0.7,4-2.2
			c1.1-1.4,1.7-3.2,1.7-5.2c0-2-0.5-3.7-1.6-5.2C190.5,47.7,189.1,47,187.5,47z"/>
	</g>
	<g>
	</g>
	<g>
	</g>
	<g>
	</g>
	<g>
	</g>
	<g>
	</g>
	<g>
	</g>
	<g>
	</g>
	<g>
	</g>
	<g>
	</g>
	<g>
	</g>
	<g>
	</g>
	<g>
	</g>
	<g>
	</g>
	<g>
	</g>
	<g>
	</g>
</g>
</svg>
