<?xml version="1.0" encoding="utf-8"?>
<!-- Generator: Adobe Illustrator 22.0.1, SVG Export Plug-In . SVG Version: 6.00 Build 0)  -->
<svg version="1.1" xmlns="http://www.w3.org/2000/svg" xmlns:xlink="http://www.w3.org/1999/xlink" x="0px" y="0px"
	 viewBox="0 0 80 80" style="enable-background:new 0 0 80 80;" xml:space="preserve">
<style type="text/css">
	.st0{display:none;}
	.st1{display:inline;}
	.st2{fill:#E5BF00;}
	.st3{fill:#FFFFFF;}
	.st4{fill:#E5BF00;stroke:#FFFFFF;stroke-width:2;stroke-miterlimit:10;}
	.st5{fill:#289CA2;stroke:#FFFFFF;stroke-miterlimit:10;}
</style>
<g id="Capa_2" class="st0">
	<rect class="st1" width="80" height="80"/>
</g>
<g id="Capa_4">
	<g>
		<g>
			<polygon class="st2" points="65.5,43 59.9,27.5 62.8,16.2 72.4,43 			"/>
			<path class="st3" d="M62.9,19.7L71,42h-4.8L61,27.5L62.9,19.7 M62.6,12.8L61,19.2l-2,7.8l-0.1,0.6l0.2,0.6l5.3,14.5l0.5,1.3h1.4
				H71h2.8l-1-2.7L64.8,19L62.6,12.8L62.6,12.8z"/>
		</g>
		<path class="st4" d="M49.6,14.1V9h-7.5v5.1H25.3h-0.4h-6.5L8.4,42h6.4c0,0,0,0,0,0c12.4,0,24.8,0,37.2,0l2.5-7.3h0L62,14.1H49.6z"
			/>
	</g>
	<g>
		<path class="st3" d="M60.8,55.2c-0.3,0.3-0.5,0.5-0.8,0.8c-2.2,2.1-4,3.7-5.9,5.3c-2.2,1.9-4.5,3.9-7.6,6.9c-2,1.9-4,3.9-5.9,5.9
			c-2-2-4-4-6-5.9c-2.4-2.2-4.2-3.8-5.9-5.2c-2.2-1.9-4.3-3.6-7.6-6.9c-0.3-0.3-0.6-0.5-0.8-0.8c6.6,1.4,13.4,2.2,20.2,2.2
			C47.3,57.3,54.1,56.6,60.8,55.2 M74,47c-13.8,5.4-25.9,6.3-33.5,6.3S20.7,52.4,7,47c1.7,1.9,3.5,3.9,5.4,5.8
			c0.7,0.7,3.1,3.3,5.9,6c6,5.9,8.2,7.2,13.5,12.2c2.1,1.9,5.1,4.9,8.7,8.8c1.8-2,4.8-5.1,8.7-8.8c5.7-5.4,8.5-7.5,13.5-12.2
			C65.4,56.3,69.4,52.3,74,47L74,47z"/>
	</g>
	<path class="st5" d="M44.5,81.5"/>
</g>
</svg>
