<?xml version="1.0" encoding="utf-8"?>
<!-- Generator: Adobe Illustrator 22.0.1, SVG Export Plug-In . SVG Version: 6.00 Build 0)  -->
<svg version="1.1" xmlns="http://www.w3.org/2000/svg" xmlns:xlink="http://www.w3.org/1999/xlink" x="0px" y="0px"
	 viewBox="0 0 80 73.5" style="enable-background:new 0 0 80 73.5;" xml:space="preserve">
<style type="text/css">
	.st0{display:none;}
	.st1{display:inline;}
	.st2{opacity:0.18;}
	.st3{fill:#CCCCCC;}
	.st4{fill:#808080;}
	.st5{fill:#CCCCCC;stroke:#808080;stroke-width:2;stroke-miterlimit:10;}
	.st6{fill:#289CA2;stroke:#FFFFFF;stroke-miterlimit:10;}
</style>
<g id="Capa_2" class="st0">
	<rect class="st1" width="80" height="72"/>
</g>
<g id="Capa_4">
	<g class="st2">
		<g>
			<polygon class="st3" points="66.6,34 61,20.1 61.1,19.7 63.9,11.2 73.5,34 			"/>
			<path class="st4" d="M64,14c2.7,6.3,5.3,12.7,8,19h-4.8c-1.7-4.3-3.5-8.7-5.2-13C62.7,18,63.3,16,64,14 M63.8,8.3l-1.7,5l-1,3
				l-1,3l-0.2,0.7l0.3,0.7l5.2,13l0.5,1.3h1.3H72h3l-1.2-2.8l-4-9.5l-4-9.5L63.8,8.3L63.8,8.3z"/>
		</g>
		<path class="st5" d="M49.6,7V2h-7.5v5H25.3h-0.4h-6.5l-10,27h6.4c0,0,0,0,0,0c12.4,0,24.8,0,37.2,0l2.5-7h0L62,7H49.6z"/>
	</g>
	<g class="st2">
		<path class="st4" d="M60.8,47.2c-0.3,0.3-0.5,0.5-0.8,0.8c-2.2,2.1-4,3.7-5.9,5.3c-2.2,1.9-4.5,3.9-7.6,6.9c-2,1.9-4,3.9-5.9,5.9
			c-2-2-4-4-6-5.9c-2.4-2.2-4.2-3.8-5.9-5.2c-2.2-1.9-4.3-3.6-7.6-6.9c-0.3-0.3-0.6-0.5-0.8-0.8c6.6,1.4,13.4,2.2,20.2,2.2
			C47.3,49.3,54.1,48.6,60.8,47.2 M74,39c-13.8,5.4-25.9,6.3-33.5,6.3S20.7,44.4,7,39c1.7,1.9,3.5,3.9,5.4,5.8
			c0.7,0.7,3.1,3.3,5.9,6c6,5.9,8.2,7.2,13.5,12.2c2.1,1.9,5.1,4.9,8.7,8.8c1.8-2,4.8-5.1,8.7-8.8c5.7-5.4,8.5-7.5,13.5-12.2
			C65.4,48.3,69.4,44.3,74,39L74,39z"/>
	</g>
	<path class="st6" d="M44.5,73.5"/>
</g>
</svg>
