<?xml version="1.0" encoding="utf-8"?>
<!-- Generator: Adobe Illustrator 22.0.1, SVG Export Plug-In . SVG Version: 6.00 Build 0)  -->
<svg version="1.1" xmlns="http://www.w3.org/2000/svg" xmlns:xlink="http://www.w3.org/1999/xlink" x="0px" y="0px"
	 viewBox="0 0 80 80" style="enable-background:new 0 0 80 80;" xml:space="preserve">
<style type="text/css">
	.st0{display:none;}
	.st1{display:inline;}
	.st2{opacity:0.82;}
	.st3{fill:#F2F2F2;}
	.st4{fill:#0071BC;}
	.st5{fill:#E6E6E6;}
	.st6{fill:#F8F100;}
	.st7{fill:#8CC63F;}
	.st8{fill:#B3B3B3;}
	.st9{fill:#FFA500;}
	.st10{opacity:0.61;fill:#FF8C00;}
	.st11{fill:#FFFFFF;}
</style>
<g id="Capa_2" class="st0">
	<rect class="st1" width="80" height="80"/>
</g>
<g id="Capa_3">
</g>
<g id="Capa_4">
	<g class="st2">
		<path d="M6.5,48C4,48,2,46,2,43.5V13.6c0-2.5,2-4.5,4.5-4.5h42c2.5,0,4.5,2,4.5,4.5v29.9c0,2.5-2,4.5-4.5,4.5H6.5z"/>
		<path class="st3" d="M48.5,11.1c1.4,0,2.5,1.1,2.5,2.5v29.9c0,1.4-1.1,2.5-2.5,2.5h-42C5.1,46,4,44.9,4,43.5V13.6
			c0-1.4,1.1-2.5,2.5-2.5H48.5 M48.5,7.1h-42C2.9,7.1,0,10,0,13.6v29.9C0,47.1,2.9,50,6.5,50h42c3.6,0,6.5-2.9,6.5-6.5V13.6
			C55,10,52.1,7.1,48.5,7.1L48.5,7.1z"/>
	</g>
	<g>
		<path class="st4" d="M53,11.4v9.2H1v-9.2c0-2.1,1.9-3.7,4.2-3.7h43.6C51.1,7.6,53,9.3,53,11.4z"/>
	</g>
	<g>
		<path class="st3" d="M48.5,10.2c1.4,0,2.5,1.1,2.5,2.5v30.8c0,1.4-1.1,2.5-2.5,2.5h-42C5.1,46,4,44.9,4,43.5V12.7
			c0-1.4,1.1-2.5,2.5-2.5H48.5 M48.5,6.2h-42C2.9,6.2,0,9.1,0,12.7v30.8C0,47.1,2.9,50,6.5,50h42c3.6,0,6.5-2.9,6.5-6.5V12.7
			C55,9.1,52.1,6.2,48.5,6.2L48.5,6.2z"/>
	</g>
	<g>
		<rect x="8.9" y="23.6" class="st5" width="7.6" height="5.4"/>
	</g>
	<g>
		<rect x="8.9" y="38" class="st6" width="7.6" height="5.4"/>
	</g>
	<g>
		<rect x="8.9" y="30.8" class="st5" width="7.6" height="5.4"/>
	</g>
	<g>
		<rect x="18.6" y="23.6" class="st6" width="7.6" height="5.4"/>
	</g>
	<g>
		<rect x="18.6" y="38" class="st5" width="7.6" height="5.4"/>
	</g>
	<g>
		<rect x="18.6" y="30.8" class="st5" width="7.6" height="5.4"/>
	</g>
	<g>
		<rect x="28.9" y="23.6" class="st5" width="7.6" height="5.4"/>
	</g>
	<g>
		<rect x="28.9" y="38" class="st5" width="7.6" height="5.4"/>
	</g>
	<g>
		<rect x="28.9" y="30.8" class="st6" width="7.6" height="5.4"/>
	</g>
	<g>
		<g>
			<g>
				<rect x="38.5" y="23.6" class="st7" width="7.6" height="5.4"/>
			</g>
			<g>
				<rect x="38.5" y="38" class="st7" width="7.6" height="5.4"/>
			</g>
			<g>
				<rect x="38.5" y="30.8" class="st7" width="7.6" height="5.4"/>
			</g>
		</g>
	</g>
	<path class="st8" d="M15.9,16.4h-0.8c-1.5,0-2.7-1.2-2.7-2.7v-9c0-1.5,1.2-2.7,2.7-2.7h0.8c1.5,0,2.7,1.2,2.7,2.7v9
		C18.6,15.2,17.3,16.4,15.9,16.4z"/>
	<path class="st8" d="M39.9,16.4h-0.8c-1.5,0-2.7-1.2-2.7-2.7v-9c0-1.5,1.2-2.7,2.7-2.7h0.8c1.5,0,2.7,1.2,2.7,2.7v9
		C42.6,15.2,41.4,16.4,39.9,16.4z"/>
</g>
<g id="Capa_5">
	<g>
		<path class="st9" d="M20.1,54.1c0.4-0.6,0.9-1.1,1.3-1.5c9.1-7.4,18.1-14.8,27.2-22.3c0.3-0.3,0.7-0.5,1.1-0.5
			c0.3,0,0.6,0.2,0.8,0.4c9.2,7.5,18.4,15,27.6,22.5c0.5,0.4,1,0.8,1.2,1.5c0.2,0.7,0.6,1.7,0.4,2.5c-0.2,0.9-0.9,1.8-1.4,2.4
			c-0.1,0.1-0.2,0.2-0.3,0.2c-0.2,0.1-0.4-0.1-0.5-0.2c-1.9-1.5-3.6-3.1-5.5-4.6c-2.2-1.8-4.5-3.5-6.7-5.3
			c-4.4-3.5-8.9-6.9-13.3-10.5c-0.2-0.2-2.4-2.1-2.4-2c-8,6.9-16.5,13-24.7,19.7c-1,0.8-1.9,1.6-2.9,2.4c-0.2,0.1-0.3,0.3-0.5,0.3
			c-0.3,0.1-0.5-0.1-0.7-0.3c-0.6-0.5-1.1-1.5-1.2-2.3C19.1,56,19.5,55,20.1,54.1z"/>
		<path class="st9" d="M69.4,46.5L61.1,45V33c0-0.8,0.6-1.5,1.4-1.5H68c0.8,0,1.4,0.7,1.4,1.5V46.5z"/>
		<path class="st9" d="M49.5,40.8L28,57.7v20.6c0,1,0.7,1.9,1.7,1.9h14.9v-15h9.9v15h13.2c1.8,0,3.3-1.7,3.3-3.7V57.7L49.5,40.8z"/>
		<path class="st10" d="M79.2,54.3c-0.2-0.6-0.7-1.1-1.2-1.5c-2.9-2.4-5.8-4.7-8.7-7.1V33c0-0.8-0.6-1.5-1.4-1.5h-5.5
			c-0.8,0-1.4,0.7-1.4,1.5v6.1c-3.6-2.9-7.1-5.8-10.7-8.7c-0.3-0.2-0.5-0.4-0.8-0.4h-0.1v7.2c0.4,0.3,2.2,1.8,2.4,2
			c4.4,3.6,8.8,7,13.2,10.5c2.3,1.7,4.5,3.5,6.7,5.3c1.9,1.5,3.6,3.1,5.5,4.6c0.1,0.1,0.3,0.2,0.5,0.2c0.1,0,0.2-0.1,0.3-0.2
			c0.6-0.7,1.3-1.5,1.4-2.4C79.8,56.1,79.5,55.1,79.2,54.3z"/>
		<path class="st10" d="M49.5,40.8v16.8v7.5h5v15h13.2c1.8,0,3.3-1.7,3.3-3.7V57.7L49.5,40.8z"/>
		<ellipse class="st11" cx="52.5" cy="73.3" rx="0.7" ry="0.9"/>
	</g>
</g>
</svg>
