<?xml version="1.0" encoding="utf-8"?>
<!-- Generator: Adobe Illustrator 24.0.2, SVG Export Plug-In . SVG Version: 6.00 Build 0)  -->
<svg version="1.1" xmlns="http://www.w3.org/2000/svg" xmlns:xlink="http://www.w3.org/1999/xlink" x="0px" y="0px"
	 viewBox="0 0 80 80" style="enable-background:new 0 0 80 80;" xml:space="preserve">
<style type="text/css">
	.st0{display:none;}
	.st1{display:inline;}
	.st2{fill:#E5BF00;}
	.st3{fill:#FFFFFF;}
	.st4{fill:#E5BF00;stroke:#FFFFFF;stroke-width:1.3;stroke-miterlimit:10;}
	.st5{fill:#289CA2;stroke:#FFFFFF;stroke-width:1.3;stroke-miterlimit:10;}
	.st6{fill:#289CA2;stroke:#FFFFFF;stroke-miterlimit:10;}
	.st7{fill:#F1F10F;}
	.st8{opacity:0.61;fill:#F1C40F;}
	.st9{fill:#F1C40F;stroke:#FFFFFF;stroke-linecap:round;stroke-miterlimit:10;}
</style>
<g id="Capa_2" class="st0">
	<rect class="st1" width="80" height="80"/>
</g>
<g id="Capa_4">
	<g>
		<g>
			<polygon class="st2" points="54.8,29.7 49.9,17.2 52.1,9 60.1,29.7 			"/>
			<path class="st3" d="M52.2,10.7l7.1,18.5h-4.2l-4.6-12L52.2,10.7 M52,7.2l-0.9,3.3l-1.7,6.5l-0.1,0.3l0.1,0.3l4.6,12l0.3,0.7h0.8
				h4.2h1.6l-0.6-1.5l-7.1-18.5L52,7.2L52,7.2z"/>
		</g>
		<path class="st4" d="M40.5,6.2V1.9h-6.6v4.3H19.1h-0.4H13l-8.8,23h5.6c0,0,0,0,0,0c10.9,0,21.8,0,32.7,0l2.2-6h0l6.5-17H40.5z"/>
	</g>
	<path class="st5" d="M32.4,38.9c-6.3,0-16.3-0.8-27.7-5.5c1.4,1.7,2.9,3.4,4.5,5.1c0.6,0.6,2.6,2.9,4.9,5.3
		c5,5.2,6.8,6.3,11.2,10.7c1.7,1.7,4.2,4.3,7.2,7.8c1.5-1.7,4-4.5,7.2-7.8c4.7-4.8,7.1-6.6,11.2-10.7c2.3-2.3,5.6-5.7,9.4-10.4
		C48.7,38.1,38.7,38.9,32.4,38.9z"/>
	<path class="st6" d="M31.6,81.9"/>
	<path class="st7" d="M68.5,31.7c-6.8-0.5-12.7,4.2-13.2,10.5c-0.1,1.3,0,2.6,0.4,3.8c1.3,4.6,5.6,8.1,10.9,8.5c0.5,0,1,0,1.4,0
		c6.1-0.2,11.2-4.7,11.7-10.6C80.3,37.7,75.3,32.2,68.5,31.7z M69,44c-2.1-0.2-3.7-1.9-3.5-3.8c0.2-2,2-3.4,4.1-3.3s3.7,1.9,3.5,3.8
		S71.1,44.1,69,44z"/>
	<polygon class="st7" points="56.5,45 69.2,53.1 64.8,59 52.2,50.9 	"/>
	<polygon class="st7" points="63.9,57.3 49.1,77.4 39,70.9 40.7,68.6 46.3,68.6 44.2,63.8 45.1,62.7 50.6,62.7 48.5,57.9 49.4,56.8 
		54.9,56.8 52.8,52.1 52.8,52.1 52.8,52.1 52.9,52 53.7,50.8 	"/>
	<path class="st8" d="M74.2,33.6l-2.9,3.9c1.2,0.7,2,2,1.9,3.4c-0.2,2-2,3.5-4.1,3.3c-0.8-0.1-1.5-0.3-2.1-0.8l-4.3,5.7l-2.5,3.4
		l-1.4,1.8l-0.5,0.7L43.9,74.5l0,0l-3.3,4.4l0,0.1l8.1-1.4l0.3,0.2l14.3-19.5l1.5,1l3.2-4.4c6.2-0.2,11.3-4.7,11.8-10.6
		C80.3,39.8,78,35.8,74.2,33.6z"/>
	<path class="st9" d="M64,51.9C63.8,51.5,47.6,74,47.6,74"/>
</g>
</svg>
