<?xml version="1.0" encoding="utf-8"?>
<!-- Generator: Adobe Illustrator 22.0.1, SVG Export Plug-In . SVG Version: 6.00 Build 0)  -->
<svg version="1.1" xmlns="http://www.w3.org/2000/svg" xmlns:xlink="http://www.w3.org/1999/xlink" x="0px" y="0px"
	 viewBox="0 0 199 198" style="enable-background:new 0 0 199 198;" xml:space="preserve">
<style type="text/css">
	.st0{display:none;}
	.st1{display:inline;}
	.st2{fill:#339966;}
	.st3{fill:none;}
	.st4{fill:#FFFFFF;}
	.st5{fill:#66FF33;}
</style>
<g id="Capa_3" class="st0">
	<g class="st1">
		<rect x="0.5" y="0.5" width="198" height="197"/>
		<path d="M198,1v196H1V1H198 M199,0H0v198h199V0L199,0z"/>
	</g>
</g>
<g id="Capa_2">
	<circle class="st2" cx="98.1" cy="93" r="87.5"/>
	<g>
		<rect x="34.7" y="49.3" class="st3" width="140.3" height="95.5"/>
		<path class="st4" d="M34.3,55.5H49L60,95c2.5,8.9,4.3,16.6,6.9,25.5h0.5c2.6-8.9,4.4-16.6,6.9-25.5l10.9-39.5h14.2L75.1,134H58.6
			L34.3,55.5z"/>
		<path class="st4" d="M105.3,55.5h26.4c16.3,0,28.9,5.8,28.9,23.3c0,16.9-12.6,24.5-28.9,24.5h-12.5V134h-13.9V55.5z M130.3,92.2
			c10.8,0,16.6-4.5,16.6-13.4c0-9-5.9-12.1-16.6-12.1h-11.1v25.5H130.3z M129.1,99.6l10.1-8.3l24.5,42.7H148L129.1,99.6z"/>
	</g>
	<path class="st5" d="M199,164.3c0,2-1.8,3.7-4.2,3.7l-26.6,0.2v26.1c0,2.1-1.9,3.7-4.2,3.7h-16.1c-2.3,0-4.2-1.7-4.2-3.7v-26
		l-26.4,0.2c-2.3,0-4.2-1.6-4.2-3.7l-0.1-14.2c0-2,1.8-3.7,4.2-3.7l26.6-0.2v-26.1c0-2.1,1.9-3.7,4.2-3.7H164c2.3,0,4.2,1.7,4.2,3.7
		v26l26.4-0.2c2.3,0,4.2,1.6,4.2,3.7L199,164.3z"/>
	<g>
	</g>
	<g>
	</g>
	<g>
	</g>
	<g>
	</g>
	<g>
	</g>
	<g>
	</g>
	<g>
	</g>
	<g>
	</g>
	<g>
	</g>
	<g>
	</g>
	<g>
	</g>
	<g>
	</g>
	<g>
	</g>
	<g>
	</g>
	<g>
	</g>
</g>
</svg>
