<?xml version="1.0" encoding="utf-8"?>
<!-- Generator: Adobe Illustrator 22.0.1, SVG Export Plug-In . SVG Version: 6.00 Build 0)  -->
<svg version="1.1" xmlns="http://www.w3.org/2000/svg" xmlns:xlink="http://www.w3.org/1999/xlink" x="0px" y="0px"
	 viewBox="0 0 80 80" style="enable-background:new 0 0 80 80;" xml:space="preserve">
<style type="text/css">
	.st0{display:none;}
	.st1{display:inline;}
	.st2{fill:#E5BF00;}
	.st3{fill:#FFFFFF;}
	.st4{fill:#E5BF00;stroke:#FFFFFF;stroke-width:2;stroke-miterlimit:10;}
	.st5{fill:#289CA2;stroke:#FFFFFF;stroke-width:2;stroke-miterlimit:10;}
	.st6{fill:#289CA2;stroke:#FFFFFF;stroke-miterlimit:10;}
	.st7{fill:#66FF33;}
	.st8{fill:url(#SVGID_1_);}
	.st9{opacity:0.97;fill:#FFFFFF;}
</style>
<g id="Capa_2" class="st0">
	<rect class="st1" width="80" height="80"/>
</g>
<g id="Capa_4">
	<g>
		<g>
			<polygon class="st2" points="67.3,37 61.3,21.5 64.3,10.4 74.5,37 			"/>
			<path class="st3" d="M64.4,13.7L73,36h-5.1l-5.6-14.5L64.4,13.7 M64.1,7.2l-1.6,6L60.4,21l-0.2,0.6l0.2,0.6l5.6,14.5l0.5,1.3h1.4
				H73h2.9l-1-2.7l-8.6-22.3L64.1,7.2L64.1,7.2z"/>
		</g>
		<path class="st4" d="M50.3,8.1V3h-8v5.1H24.4h-0.5H17L6.4,36h6.8c0,0,0,0,0,0c13.2,0,26.4,0,39.6,0l2.7-7.3h0l7.9-20.6H50.3z"/>
	</g>
	<path class="st5" d="M40.5,47.7c-7.6,0-19.7-1-33.5-6.7c1.7,2,3.5,4.1,5.4,6.2c0.7,0.7,3.1,3.5,5.9,6.4c6,6.2,8.2,7.6,13.5,12.9
		c2.1,2.1,5.1,5.2,8.7,9.4c1.8-2.1,4.8-5.4,8.7-9.4c5.7-5.8,8.5-7.9,13.5-12.9c2.7-2.7,6.8-7,11.3-12.6
		C60.2,46.7,48.1,47.7,40.5,47.7z"/>
	<path class="st6" d="M44.5,81.5"/>
	<path class="st7" d="M80,65.9c0,0.9-0.7,1.6-1.7,1.6l-10.8,0.1v10.9c0,0.9-0.8,1.6-1.7,1.6h-6.5c-0.9,0-1.7-0.7-1.7-1.6V67.6
		l-10.7,0.1c-0.9,0-1.7-0.7-1.7-1.5l0-6c0-0.8,0.7-1.6,1.7-1.6l10.8-0.1V47.6c0-0.9,0.8-1.6,1.7-1.6h6.5c0.9,0,1.7,0.7,1.7,1.6v10.9
		l10.7-0.1c0.9,0,1.7,0.7,1.7,1.5L80,65.9z"/>
	<linearGradient id="SVGID_1_" gradientUnits="userSpaceOnUse" x1="3" y1="39.5" x2="39.946" y2="39.5">
		<stop  offset="0.2308" style="stop-color:#000000;stop-opacity:0.95"/>
		<stop  offset="0.3794" style="stop-color:#030303;stop-opacity:0.7664"/>
		<stop  offset="0.4823" style="stop-color:#0C0C0C;stop-opacity:0.6394"/>
		<stop  offset="0.5714" style="stop-color:#1B1B1B;stop-opacity:0.5293"/>
		<stop  offset="0.6527" style="stop-color:#313131;stop-opacity:0.429"/>
		<stop  offset="0.7286" style="stop-color:#4D4D4D;stop-opacity:0.3352"/>
		<stop  offset="0.8006" style="stop-color:#707070;stop-opacity:0.2462"/>
		<stop  offset="0.8695" style="stop-color:#999999;stop-opacity:0.1611"/>
		<stop  offset="0.9348" style="stop-color:#C8C8C8;stop-opacity:8.052498e-02"/>
		<stop  offset="0.9972" style="stop-color:#FCFCFC;stop-opacity:3.491104e-03"/>
		<stop  offset="1" style="stop-color:#FFFFFF;stop-opacity:0"/>
	</linearGradient>
	<path class="st8" d="M16,7c6.7,0,13.5,0,20.2,0c1.9,7.9,3.5,18,3.7,29.8C40.2,51,38.2,63,36,72c-6.2-5.5-12.5-11.4-19-18
		c-5-5.1-9.7-10.1-14-15C7.3,28.3,11.7,17.7,16,7z"/>
	<path class="st9" d="M29,23H3c-1.6,0-3-1.3-3-3v0c0-1.6,1.3-3,3-3h26c1.6,0,3,1.3,3,3v0C32,21.7,30.7,23,29,23z"/>
	<path class="st9" d="M39,37H11c-1.6,0-3-1.3-3-3v0c0-1.6,1.3-3,3-3h28c1.6,0,3,1.3,3,3v0C42,35.7,40.7,37,39,37z"/>
	<path class="st9" d="M29,52H3c-1.6,0-3-1.3-3-3v0c0-1.6,1.3-3,3-3h26c1.6,0,3,1.3,3,3v0C32,50.7,30.7,52,29,52z"/>
</g>
</svg>
