<?xml version="1.0" encoding="utf-8"?>
<!-- Generator: Adobe Illustrator 22.0.1, SVG Export Plug-In . SVG Version: 6.00 Build 0)  -->
<svg version="1.1" xmlns="http://www.w3.org/2000/svg" xmlns:xlink="http://www.w3.org/1999/xlink" x="0px" y="0px"
	 viewBox="0 0 80 80" style="enable-background:new 0 0 80 80;" xml:space="preserve">
<style type="text/css">
	.st0{display:none;}
	.st1{display:inline;}
	.st2{fill:#FFA500;}
	.st3{opacity:0.61;fill:#FF8C00;}
	.st4{fill:#FFFFFF;}
	.st5{fill:#66CCCC;}
	.st6{fill:#99FFFF;}
	.st7{fill:#FFFF00;}
	.st8{fill:#808080;}
	.st9{fill:#999999;}
	.st10{fill:#00CC66;}
	.st11{fill:#339966;}
	.st12{fill:#66FF33;}
</style>
<g id="Capa_2" class="st0">
	<rect class="st1" width="80" height="80"/>
</g>
<g id="Capa_4">
	<g>
		<path class="st2" d="M9.8,26.6c0.4-0.6,0.9-1.2,1.4-1.6C21.1,16.8,31,8.7,40.9,0.6C41.3,0.3,41.7,0,42.1,0c0.3,0,0.6,0.3,0.9,0.5
			c10.1,8.2,20.1,16.5,30.2,24.7c0.5,0.4,1.1,0.9,1.3,1.6c0.3,0.8,0.6,1.9,0.5,2.8c-0.2,1-1,1.9-1.6,2.7c-0.1,0.1-0.2,0.2-0.3,0.3
			c-0.2,0.1-0.4-0.1-0.6-0.2c-2-1.6-4-3.4-6-5c-2.4-1.9-4.9-3.9-7.3-5.8C54.3,17.7,49.4,14,44.6,10C44.4,9.9,42,7.8,42,7.8
			c-8.8,7.5-18.1,14.2-27,21.6c-1.1,0.9-2.1,1.8-3.2,2.7c-0.2,0.1-0.3,0.3-0.6,0.3c-0.3,0.1-0.6-0.1-0.8-0.3
			c-0.6-0.6-1.1-1.6-1.4-2.5C8.8,28.6,9.2,27.5,9.8,26.6z"/>
		<path class="st2" d="M63.7,18.1l-9-1.6V3.4c0-0.9,0.7-1.6,1.5-1.6h6c0.8,0,1.5,0.7,1.5,1.6V18.1z"/>
		<path class="st2" d="M42,12L18.5,30.4V53c0,1.1,0.8,2,1.8,2h16.3V38.6h10.9V55h14.5c2,0,3.6-1.8,3.6-4.1V30.4L42,12z"/>
		<path class="st3" d="M74.5,26.8c-0.2-0.7-0.8-1.2-1.3-1.6c-3.2-2.6-6.3-5.2-9.5-7.7v-14c0-0.9-0.7-1.6-1.5-1.6h-6
			c-0.8,0-1.5,0.7-1.5,1.6V10C50.8,6.9,46.9,3.7,43,0.5C42.7,0.3,42.4,0,42.1,0H42v7.9c0.4,0.3,2.4,2,2.6,2.2
			c4.8,3.9,9.6,7.7,14.5,11.5c2.5,1.9,4.9,3.8,7.3,5.8c2,1.6,4,3.4,6,5c0.2,0.1,0.4,0.3,0.6,0.2c0.1,0,0.2-0.2,0.3-0.3
			c0.6-0.7,1.4-1.7,1.6-2.7C75.1,28.7,74.8,27.6,74.5,26.8z"/>
		<path class="st3" d="M42,12v18.4v8.2h5.4V55h14.5c2,0,3.6-1.8,3.6-4.1V30.4L42,12z"/>
		<ellipse class="st4" cx="45.2" cy="47.5" rx="0.8" ry="0.9"/>
	</g>
	<g id="Capa_2_2_">
		<g>
			<path class="st4" d="M38.6,41.4l5,23.7c0.2,1-0.4,2-1.4,2.3L7.3,75.6c-1,0.2-1.9-0.4-2.1-1.4l-5-23.6c-0.2-1,0.4-2,1.4-2.3
				l35-8.3C37.4,39.8,38.4,40.4,38.6,41.4z"/>
		</g>
		<g>
			<path class="st5" d="M37.7,42.6l4.6,21.9c0.1,0.3,0,0.7-0.1,1c-0.2,0.5-0.6,0.9-1.1,1L7.9,74.3C7,74.5,6.2,73.9,6,73L1.4,51.2
				c-0.2-0.9,0.4-1.8,1.2-2l33.2-7.9C36.7,41.2,37.6,41.7,37.7,42.6z"/>
		</g>
		<g>
			<path class="st4" d="M44,50.9v24.2c0,1-0.8,1.9-1.8,1.9H6.4c-1,0-1.8-0.8-1.8-1.9V51c0-1,0.8-1.9,1.8-1.9h35.9
				C43.2,49.1,44,49.9,44,50.9z"/>
		</g>
		<g>
			<path class="st6" d="M42.9,51.8v22.4c0,0.4-0.1,0.7-0.3,1c-0.3,0.4-0.8,0.7-1.3,0.7H7.3c-0.9,0-1.6-0.8-1.6-1.6V51.8
				c0-0.9,0.7-1.6,1.6-1.6h34.1C42.2,50.2,42.9,50.9,42.9,51.8z"/>
		</g>
		<path class="st7" d="M16.6,50.7c0,5.9-4.5,10.6-10,10.6c-0.3,0-0.6,0-0.9,0v-9.5c0-0.9,0.7-1.6,1.6-1.6h9.3
			C16.6,50.4,16.6,50.6,16.6,50.7z"/>
		<path class="st8" d="M42.9,60.8v13.4c0,0.4-0.1,0.7-0.3,1c-0.3,0.2-0.6,0.3-1,0.3h-1.6l-15.3-3.6c-2.7-0.6-3.6-4.1-1.6-6.1
			l9.2-9.3l2.5-2.6c0.5-0.5,1.4-0.5,1.9,0l2.4,2.6L42.9,60.8z"/>
		<path class="st9" d="M42.9,73.3v0.9c0,0.4-0.1,0.7-0.3,1c-0.3,0.4-0.8,0.7-1.3,0.7H10.2c-0.3-0.2-0.4-0.7-0.1-1l12.2-14.4l2.1-2.5
			c0.6-0.7,1.7-0.8,2.3-0.1l2.5,2.4L42.9,73.3z"/>
		<path class="st10" d="M24.5,75.9H7.3c-0.9,0-1.6-0.8-1.6-1.6v-6c1.7-0.6,3.6-0.9,5.6-0.9C18,67.3,23.6,71,24.5,75.9z"/>
		<path class="st11" d="M42.9,64.9v9.4c0,0.9-0.7,1.6-1.6,1.6H18.7C19.5,69.2,27.1,64,36.4,64C38.7,64,40.9,64.3,42.9,64.9z"/>
		<path class="st4" d="M29.3,60.3c-0.2,0.3-0.5,0.6-0.9,0.6c-0.5,0.1-0.8-0.3-1.1-0.2c-0.5,0.1-0.7,0.6-1.2,0.6
			c-0.6,0-0.9-0.7-1.5-0.4c-0.3,0.2-0.6,0.4-1,0.4c-0.4,0-1.3-0.5-1.2-1c0.1-0.3,0.6-0.6,0.7-0.9c0.4-0.5,0.8-1,1.2-1.5
			c0.6-0.7,1.7-0.8,2.3-0.1C27.6,58.7,28.5,59.5,29.3,60.3z"/>
		<path class="st4" d="M39.1,56.6c-0.2,0.1-0.4,0.2-0.6,0.3c-0.5,0.1-0.8-0.3-1.2-0.2c-0.5,0.1-0.7,0.6-1.3,0.6
			c-0.6,0-1-0.7-1.5-0.4c-0.3,0.2-0.6,0.4-1,0.4c-0.4,0-1.1-0.4-1.2-0.7l2.5-2.6c0.5-0.5,1.4-0.5,1.9,0L39.1,56.6z"/>
	</g>
	<path class="st12" d="M80,65.9c0,0.9-0.7,1.6-1.7,1.6l-10.8,0.1v10.9c0,0.9-0.8,1.6-1.7,1.6h-6.5c-0.9,0-1.7-0.7-1.7-1.6V67.6
		l-10.7,0.1c-0.9,0-1.7-0.7-1.7-1.5l0-6c0-0.8,0.7-1.6,1.7-1.6l10.8-0.1V47.6c0-0.9,0.8-1.6,1.7-1.6h6.5c0.9,0,1.7,0.7,1.7,1.6v10.9
		l10.7-0.1c0.9,0,1.7,0.7,1.7,1.5L80,65.9z"/>
</g>
</svg>
