<?xml version="1.0" encoding="utf-8"?>
<!-- Generator: Adobe Illustrator 22.0.1, SVG Export Plug-In . SVG Version: 6.00 Build 0)  -->
<svg version="1.1" xmlns="http://www.w3.org/2000/svg" xmlns:xlink="http://www.w3.org/1999/xlink" x="0px" y="0px"
	 viewBox="0 0 80 80" style="enable-background:new 0 0 80 80;" xml:space="preserve">
<style type="text/css">
	.st0{display:none;}
	.st1{display:inline;}
	.st2{fill:#FFFFFF;}
	.st3{fill:#F1F10F;}
	.st4{opacity:0.61;fill:#F1C40F;}
	.st5{fill:#F1C40F;stroke:#FFFFFF;stroke-linecap:round;stroke-miterlimit:10;}
</style>
<g id="Capa_2" class="st0">
	<rect class="st1" width="80" height="80"/>
</g>
<g id="Capa_5">
	<g>
		<path class="st2" d="M64.7,78.3c-1.3-1.5-2.7-3-4.4-4c-2.2-1.4-5-2-8.8-2c-0.4,0-0.9,0-1.3,0c-0.8,0-1.5,0.1-2.3,0.1
			c-1.2,0.1-2.4,0.1-3.6,0.1c-1.6,0-2.9-0.1-4.1-0.3c-2.4-0.5-4.8-1.5-7-2.6c-4.5-2.3-8-4.4-11-6.8c-0.7-0.6-1.5-1.4-1.3-2.1
			c0.2-0.6,0.6-1.3,2-1.3c1.6,0,3.7,0.9,4.5,1.3c0.8,0.4,1.7,0.9,2.5,1.3c2.4,1.3,4.9,2.6,7.5,3.4c1.9,0.6,3.8,0.9,5.6,0.9
			c2,0,3.9-0.4,5.5-1.2l0.9-0.5l-0.9-0.4c-1.3-0.6-2.8-0.9-4.1-1.2c-0.9-0.2-1.8-0.4-2.7-0.7c-2.1-0.7-4.1-2.3-4.2-4.4
			c0-0.2,0-0.7,0.3-0.9c0.2-0.2,0.4-0.2,0.7-0.3c0.6-0.1,1.2-0.2,1.8-0.2c1.6,0,3.3,0.3,4.9,0.7l1,0.2c3.1,0.6,6.3,1,9.4,1.1
			c0.4,0,0.8,0,1.2,0c2.8,0.1,5.6,0.1,8,1.4c1.8,0.9,3.3,2.5,4.6,4.1c1.3,1.5,2.5,2.9,3.7,4.4c0.4,0.4,0.7,0.9,0.7,1.3
			c0,0.4-0.4,0.8-0.8,1.2L64.7,78.3z"/>
		<path class="st2" d="M40.3,57c1.6,0,3.2,0.3,4.8,0.7c0.3,0.1,0.7,0.1,1,0.2c3.1,0.6,6.3,1,9.5,1.1c0.4,0,0.8,0,1.2,0
			c2.7,0.1,5.5,0.1,7.8,1.3c1.7,0.9,3.2,2.4,4.5,3.9c1.3,1.4,2.5,2.9,3.7,4.4c0.2,0.2,0.6,0.7,0.6,1c0,0.3-0.5,0.7-0.7,0.9l-7.9,7.1
			c-1.2-1.3-2.6-2.8-4.2-3.8c-2.3-1.4-5.2-2.1-9.1-2.1c-0.4,0-0.9,0-1.3,0c-0.8,0-1.5,0.1-2.3,0.1C46.7,72,45.5,72,44.3,72
			c-1.6,0-2.9-0.1-4-0.3c-2.4-0.5-4.7-1.5-6.9-2.6c-4.5-2.2-8-4.4-10.9-6.8c-0.8-0.7-1.2-1.2-1.1-1.6c0.1-0.5,0.4-1,1.6-1
			c1.6,0,3.6,1,4.2,1.3c0.8,0.4,1.7,0.9,2.5,1.3c2.4,1.3,4.9,2.6,7.6,3.5c2,0.6,3.9,1,5.8,1c2.1,0,4.1-0.4,5.7-1.3l1.8-0.9l-1.8-0.9
			c-1.4-0.7-2.8-1-4.3-1.3c-0.9-0.2-1.8-0.4-2.7-0.7c-1.9-0.6-3.8-2.1-3.8-3.9c0-0.3,0.1-0.5,0.1-0.5c0,0,0.2-0.1,0.5-0.2
			C39.1,57.1,39.7,57,40.3,57 M40.3,56c-0.6,0-1.3,0-1.9,0.2c-0.4,0.1-0.7,0.2-1,0.4c-0.3,0.3-0.4,0.8-0.4,1.3
			c0,2.4,2.3,4.1,4.5,4.8c2.2,0.7,4.7,0.9,6.8,1.9c-1.6,0.8-3.5,1.2-5.3,1.2c-1.8,0-3.7-0.3-5.5-0.9c-3.5-1.1-6.7-3-10-4.7
			c-1-0.5-3-1.4-4.7-1.4c-1.2,0-2.1,0.4-2.5,1.7c-0.3,1,0.6,2,1.4,2.7c3.4,2.7,7.2,4.9,11.1,6.9c2.3,1.1,4.6,2.2,7.1,2.7
			c1.4,0.3,2.8,0.4,4.2,0.4c2,0,3.9-0.2,5.9-0.2c0.4,0,0.9,0,1.3,0c3,0,6,0.4,8.5,1.9c1.8,1.1,3.2,2.7,4.6,4.3c0,0,0,0,0,0
			c2.9-2.6,5.7-5.2,8.6-7.8c0.5-0.4,1-0.9,1-1.5c0-0.6-0.4-1.2-0.8-1.7c-1.2-1.5-2.5-2.9-3.7-4.4c-1.4-1.6-2.9-3.2-4.8-4.2
			c-2.9-1.5-6.2-1.4-9.4-1.5c-3.1-0.1-6.2-0.5-9.3-1.1C44.3,56.5,42.3,56,40.3,56L40.3,56z"/>
	</g>
</g>
<g id="Capa_3">
	<path class="st3" d="M39.6,26.8c-3.4,0-6.2,2.8-6.2,6.2c0,0.7,0.1,1.4,0.3,2c0.8,2.4,3.1,4.2,5.9,4.2c0.2,0,0.5,0,0.7,0
		c3.1-0.4,5.5-3,5.5-6.2C45.8,29.6,43,26.8,39.6,26.8z M40.4,33.4c-1.1,0-1.9-0.9-1.9-1.9c0-1.1,0.9-1.9,1.9-1.9
		c1.1,0,1.9,0.9,1.9,1.9C42.3,32.5,41.4,33.4,40.4,33.4z"/>
	
		<rect x="34.5" y="34.2" transform="matrix(0.4978 -0.8673 0.8673 0.4978 -14.6959 50.7662)" class="st3" width="3.9" height="7.8"/>
	<polygon class="st3" points="38.3,40.8 31.7,52.3 26.3,49.2 27.1,47.8 29.9,47.6 28.7,45.1 29,44.4 31.8,44.3 30.6,41.8 31,41.1 
		33.8,40.9 32.5,38.4 32.5,38.4 32.5,38.4 32.5,38.4 32.9,37.7 	"/>
	<polygon class="st3" points="27.5,53.4 26.3,49.2 31.7,52.3 	"/>
	<path class="st4" d="M42.6,27.6l-1.3,2.2c0.6,0.3,1.1,1,1.1,1.8c0,1.1-0.9,2-2,2c-0.4,0-0.8-0.1-1.1-0.3l-1.9,3.3l-1.1,1.9l-0.6,1
		l-0.2,0.4L29,50.9l0,0l-1.5,2.5l0,0.1l4-1.1l0.1,0.1l6.4-11.1l0.8,0.5l1.4-2.5c3.1-0.4,5.5-3,5.5-6.2
		C45.9,30.7,44.6,28.6,42.6,27.6z"/>
	<path class="st5" d="M38.1,37.9c-0.1-0.2-7.4,12.6-7.4,12.6"/>
	<g>
		<path class="st2" d="M32.8,29.7c-3-1.8-6.1-3.3-9.5-4.5c-0.5-0.2-1-0.3-1.5-0.5c-1.5-0.5-3-1-4.3-1.7c-0.7-0.4-1.5-0.8-2.2-1.2
			c-1-0.6-2-1.2-3.1-1.7c-1.5-0.6-3.1-1-4.8-1c-0.5,0-1,0-1.4,0.1v-8.4c0-0.1,0-0.2,0-0.3c0-0.1,0-0.3,0-0.4c0,0,0-0.1,0-0.1
			c0,0,0,0,0.1,0c0.3-0.1,0.6-0.1,1-0.1c0.4,0,0.9,0,1.3,0.1C8.8,10,9.2,10,9.5,10l16.7,0c1.8,0,3.8,0,5.7,0.3
			c3.2,0.4,6.4,1.6,9.4,2.6l0.1,0c5.5,2,11.2,4,16.3,7.2c0.5,0.3,1.1,0.8,1.1,1.3c0,0.4-0.5,0.8-1,0.9c-0.1,0-0.2,0-0.3,0
			c-0.5,0-1.1-0.2-1.6-0.3c-4.7-1.5-9.4-3.1-14-4.6c-0.1,0-0.1,0-0.2,0c-0.2,0-0.3,0.1-0.4,0.2c-0.1,0.2-0.1,0.4,0,0.6
			c1.8,2.4,2.8,5.7,2.8,10c0,0.3,0,0.7-0.1,1c0,0,0,0,0,0.1c-0.1,0.1-0.1,0.2-0.2,0.3c-0.1,0.1-0.2,0.1-0.3,0.1
			c-0.2,0-0.4-0.1-0.6-0.1c-0.7-0.2-1.2-0.4-1.7-0.7c-0.3-0.2-0.6-0.5-0.8-0.8c-0.3-0.4-0.5-0.8-0.6-1.3c-0.2-0.6-0.3-1.2-0.3-1.8
			c-0.1-0.7-0.2-1.5-0.4-2.2c-0.8-2.3-2.9-4.1-5.4-4.4c-0.1,0-0.3,0-0.5,0c-1.5,0-3,0.8-3.1,2.2c-0.1,0.8,0.3,1.6,1.2,2.4
			c0.9,0.8,2,1.4,3,2c1,0.6,2,1.1,2.7,1.8c-1.6,0.6-2.8,1.8-3.5,3.3C33.3,30,32.8,29.7,32.8,29.7z"/>
		<path class="st2" d="M7.1,10.4c0.4,0,0.8,0,1.3,0.1c0.4,0,0.8,0.1,1.2,0.1l7.3,0l7.3,0l1.2,0l1,0c1.8,0,3.8,0,5.6,0.3
			c3.2,0.4,6.3,1.6,9.3,2.6l0.1,0c5.5,2,11.2,4,16.2,7.1c0.8,0.5,0.9,0.7,0.9,0.8c0,0.1-0.2,0.3-0.5,0.4c-0.1,0-0.1,0-0.2,0
			c-0.4,0-0.9-0.2-1.4-0.3c-4.7-1.5-9.3-3.1-14-4.6c-0.1,0-0.2-0.1-0.3-0.1c-0.3,0-0.6,0.2-0.8,0.4c-0.3,0.4-0.2,0.8,0,1.2
			c1.8,2.3,2.7,5.5,2.7,9.7c0,0.4,0,0.6-0.1,0.7c0,0,0,0.1,0,0.1c0,0,0,0,0,0c0,0,0,0-0.1,0c-0.2,0-0.4-0.1-0.4-0.1
			c-0.6-0.2-1.1-0.4-1.6-0.7c-0.3-0.2-0.5-0.4-0.7-0.6c-0.2-0.3-0.4-0.7-0.6-1.2c-0.2-0.5-0.2-1.1-0.3-1.7c-0.1-0.7-0.2-1.5-0.5-2.2
			c-0.8-2.5-3.2-4.4-5.8-4.7c-0.2,0-0.3,0-0.5,0c-1.7,0-3.5,0.9-3.6,2.7c-0.1,0.7,0.1,1.7,1.3,2.8c0.9,0.9,2,1.5,3.1,2.1
			c0.7,0.4,1.4,0.8,2.1,1.3c-1.2,0.6-2.2,1.6-2.8,2.8l-0.2-0.1c-3-1.8-6.2-3.4-9.6-4.5c-0.5-0.2-1-0.3-1.5-0.5
			c-1.5-0.5-2.9-1-4.3-1.7c-0.7-0.4-1.4-0.8-2.2-1.2c-1-0.6-2.1-1.2-3.2-1.7c-1.5-0.6-3.3-1-5-1c-0.3,0-0.6,0-0.9,0v-7.9
			c0-0.1,0-0.2,0-0.4c0,0,0,0,0,0C6.6,10.4,6.8,10.4,7.1,10.4 M7.1,9.4c-0.4,0-0.8,0-1.2,0.1C5.7,9.6,5.6,9.6,5.6,9.6
			c0,0,0,0.1-0.1,0.3c-0.1,0.2,0,0.6,0,0.9v9c0.6-0.1,1.3-0.2,1.9-0.2c1.6,0,3.1,0.3,4.6,0.9c1.9,0.8,3.5,2,5.3,2.9
			c1.9,0.9,3.9,1.5,5.9,2.2c3.3,1.2,6.4,2.6,9.4,4.5c0.4,0.2,0.7,0.5,1.1,0.7c0.7-1.9,2.2-3.3,4.2-3.8c-1.6-1.9-4.4-2.7-6.3-4.5
			c-0.6-0.5-1.1-1.2-1-2c0.1-1.2,1.4-1.8,2.6-1.8c0.1,0,0.3,0,0.4,0c2.2,0.3,4.3,1.9,5,4.1c0.4,1.3,0.4,2.7,0.8,3.9
			c0.2,0.5,0.4,1.1,0.7,1.5c0.3,0.3,0.6,0.6,1,0.9c0.6,0.4,1.2,0.6,1.8,0.8c0.2,0.1,0.5,0.1,0.7,0.1c0.2,0,0.4,0,0.6-0.2
			c0.2-0.1,0.3-0.3,0.4-0.5c0,0,0,0,0,0c0.2-0.4,0.2-0.8,0.2-1.2c0-3.6-0.7-7.5-2.9-10.3c4.7,1.5,9.3,3.1,14,4.6
			c0.6,0.2,1.1,0.4,1.7,0.4c0.1,0,0.2,0,0.4,0c0.7-0.1,1.4-0.7,1.4-1.4c0-0.8-0.7-1.3-1.3-1.7c-5.1-3.1-10.8-5.2-16.4-7.2
			c-3.1-1.1-6.3-2.3-9.6-2.7c-1.9-0.3-3.8-0.3-5.7-0.3c-0.3,0-0.7,0-1,0h-1.2c-4.8,0-9.7,0-14.5,0C8.8,9.5,7.9,9.4,7.1,9.4L7.1,9.4z
			"/>
	</g>
</g>
</svg>
