<?xml version="1.0" encoding="utf-8"?>
<!-- Generator: Adobe Illustrator 22.0.1, SVG Export Plug-In . SVG Version: 6.00 Build 0)  -->
<svg version="1.1" xmlns="http://www.w3.org/2000/svg" xmlns:xlink="http://www.w3.org/1999/xlink" x="0px" y="0px"
	 viewBox="0 0 80 80" style="enable-background:new 0 0 80 80;" xml:space="preserve">
<style type="text/css">
	.st0{display:none;}
	.st1{display:inline;}
	.st2{fill:#FFFFFF;stroke:#FFFFFF;stroke-width:0.25;stroke-miterlimit:10;}
	.st3{fill:#FFFFFF;stroke:#FFFFFF;stroke-miterlimit:10;}
	.st4{fill:none;stroke:#FFFFFF;stroke-width:3;stroke-linecap:round;stroke-linejoin:round;stroke-miterlimit:10;}
	.st5{fill:#F1F10F;}
	.st6{opacity:0.61;fill:#F1C40F;}
	.st7{display:inline;fill:#F1F10F;}
	.st8{display:inline;opacity:0.61;fill:#F1C40F;}
	.st9{display:inline;fill:#F1C40F;stroke:#FFFFFF;stroke-linecap:round;stroke-miterlimit:10;}
</style>
<g id="Capa_2" class="st0">
	<rect class="st1" width="80" height="80"/>
</g>
<g id="Capa_5">
	<path class="st2" d="M77.4,16.4l-0.8-0.8c-0.4-0.4-0.9-0.6-1.4-0.6H4.8c-0.9,0-1.8,0.2-2.6,0.6C0.5,16.4,0.3,17,1,18
		c0.1,0.2,0.2,0.3,0.3,0.5c0.7,1,1.4,1.9,2.1,2.8C3.8,21.7,4.4,22,5,22H73c0.6,0,1.2-0.3,1.6-0.8l2.8-3.5
		C77.8,17.3,77.7,16.7,77.4,16.4z M13,20c-1.1,0-2-0.9-2-2c0-1.1,0.9-2,2-2s2,0.9,2,2C15,19.1,14.1,20,13,20z"/>
	<path class="st2" d="M9,15v-3.2c0-0.5,0.2-1,0.6-1.4l2.7-2.7c0.4-0.4,1-0.4,1.4,0l2.7,2.7c0.4,0.4,0.6,0.9,0.6,1.4V15H9z"/>
	<path class="st2" d="M9,22v50c0,1.1,0.9,2,2,2h4c1.1,0,2-0.9,2-2V22H9z"/>
	<rect x="28" y="21" class="st3" width="7" height="4"/>
	<rect x="58" y="21" class="st3" width="7" height="4"/>
	<rect x="22" y="27" class="st4" width="50" height="37"/>
	<path class="st5" d="M29.2,45.1c0.2-0.3,0.5-0.6,0.8-0.8c5.5-4,10.9-7.9,16.4-11.9c0.2-0.1,0.4-0.3,0.7-0.3c0.2,0,0.3,0.1,0.5,0.2
		c5.6,4,11.1,8,16.7,12.1c0.3,0.2,0.6,0.4,0.7,0.8c0.1,0.4,0.3,0.9,0.2,1.4c-0.1,0.5-0.5,0.9-0.9,1.3c-0.1,0.1-0.1,0.1-0.2,0.1
		c-0.1,0-0.2,0-0.3-0.1c-1.1-0.8-2.2-1.7-3.3-2.4c-1.3-0.9-2.7-1.9-4.1-2.8c-2.7-1.8-5.4-3.7-8-5.6C48.3,37,47,35.9,47,36
		c-4.9,3.7-10,7-14.9,10.5c-0.6,0.4-1.2,0.9-1.8,1.3c-0.1,0.1-0.2,0.1-0.3,0.2c-0.2,0-0.3,0-0.5-0.1c-0.3-0.3-0.6-0.8-0.8-1.2
		C28.6,46.1,28.9,45.6,29.2,45.1z"/>
	<path class="st5" d="M59,41l-5-0.8v-6.4c0-0.4,0.4-0.8,0.8-0.8h3.3c0.5,0,0.8,0.4,0.8,0.8V41z"/>
	<path class="st5" d="M47,38l-13,9v11c0,0.5,0.5,1,1,1h9v-8h6v8h8c1.1,0,2-0.9,2-2V47L47,38z"/>
	<path class="st6" d="M65,45.2c-0.1-0.3-0.4-0.6-0.7-0.8c-1.8-1.3-3.5-2.5-5.2-3.8v-6.9c0-0.4-0.4-0.8-0.8-0.8h-3.3
		c-0.5,0-0.8,0.4-0.8,0.8V37c-2.2-1.6-4.3-3.1-6.5-4.7c-0.2-0.1-0.3-0.2-0.5-0.2h0V36c0.2,0.1,1.3,1,1.4,1.1c2.6,1.9,5.3,3.8,8,5.6
		c1.4,0.9,2.7,1.9,4.1,2.8c1.1,0.8,2.2,1.7,3.3,2.4C63.9,48,64,48,64.1,48c0.1,0,0.1-0.1,0.2-0.1c0.3-0.4,0.8-0.8,0.9-1.3
		C65.3,46.1,65.1,45.6,65,45.2z"/>
	<path class="st6" d="M47,38v9v4h3v8h8c1.1,0,2-0.9,2-2V47L47,38z"/>
</g>
<g id="Capa_3" class="st0">
	<path class="st7" d="M50,14c-4.4,0-8,3.6-8,8c0,0.9,0.2,1.8,0.5,2.6c1.1,3.1,4,5.4,7.5,5.4c0.3,0,0.6,0,0.9,0c4-0.5,7.1-3.9,7.1-8
		C58,17.6,54.4,14,50,14z M51,22.5c-1.4,0-2.5-1.1-2.5-2.5s1.1-2.5,2.5-2.5s2.5,1.1,2.5,2.5S52.4,22.5,51,22.5z"/>
	<rect x="43.5" y="23.5" transform="matrix(0.4978 -0.8673 0.8673 0.4978 -1.6175 54.2064)" class="st7" width="5" height="10"/>
	<polygon class="st7" points="48.3,32 39.8,46.8 32.9,42.8 33.9,41 37.5,40.8 35.9,37.6 36.4,36.7 40,36.5 38.4,33.2 38.9,32.4 
		42.5,32.1 40.9,28.9 40.9,28.9 40.9,28.9 40.9,28.9 41.4,28 	"/>
	<polygon class="st7" points="34.4,48.2 32.9,42.8 39.8,46.8 	"/>
	<path class="st8" d="M53.8,15l-1.7,2.8c0.8,0.4,1.4,1.3,1.4,2.3c0,1.4-1.1,2.5-2.5,2.5c-0.5,0-1-0.2-1.4-0.4l-2.5,4.2l-1.4,2.5
		l-0.8,1.3l-0.3,0.5L36.3,45l0,0l-1.9,3.2l0,0.1l5.2-1.4l0.2,0.1l8.2-14.3l1.1,0.6l1.9-3.2c4-0.5,7.1-3.9,7.1-8
		C58.1,19,56.4,16.3,53.8,15z"/>
	<path class="st9" d="M48.1,28.3C48,28,38.7,44.5,38.7,44.5"/>
</g>
</svg>
