<?xml version="1.0" encoding="utf-8"?>
<!-- Generator: Adobe Illustrator 22.0.1, SVG Export Plug-In . SVG Version: 6.00 Build 0)  -->
<svg version="1.1" id="Capa_1" xmlns="http://www.w3.org/2000/svg" xmlns:xlink="http://www.w3.org/1999/xlink" x="0px" y="0px"
	 viewBox="0 0 110 110" style="enable-background:new 0 0 110 110;" xml:space="preserve">
<style type="text/css">
	.st0{display:none;opacity:0.86;}
	.st1{display:inline;fill:#808080;stroke:#000000;stroke-miterlimit:10;}
	.st2{opacity:0.82;}
	.st3{fill:#1FBAEC;}
	.st4{fill:#FFFFFF;}
	.st5{fill:#3D320C;}
	.st6{fill:#FA9200;}
	.st7{fill:#FFE9A1;}
	.st8{fill:#FFAA00;}
	.st9{opacity:0.96;fill:#FFFFFF;stroke:#1E1E1E;stroke-width:3;stroke-miterlimit:10;}
	.st10{fill:none;stroke:#1E1E1E;stroke-width:4;stroke-linecap:round;stroke-miterlimit:10;}
</style>
<g id="Artboard" class="st0">
	<rect x="-817.5" y="-560.5" class="st1" width="1351" height="718"/>
</g>
<g id="R-Green">
	<g class="st2">
		<circle class="st3" cx="55" cy="55" r="55"/>
	</g>
</g>
<g id="Yellow">
	<g>
		<g>
			<ellipse class="st4" cx="49.4" cy="16.8" rx="6.8" ry="6.8"/>
		</g>
		<g>
			<path class="st5" d="M26.1,45.4l22.2-30.5c0.4-0.5,1.1-0.6,1.6-0.2l27.1,22.3l3-0.5L51.3,13c-1.5-1.1-3.6-0.9-4.8,0.6L22.9,45.9
				L26.1,45.4z"/>
		</g>
		<g>
			<polygon class="st6" points="81.9,40.8 86.4,67.6 28.1,77.1 23.6,50.4 			"/>
		</g>
		<g>
			<path class="st4" d="M81.9,40.8l4.4,26.8l-58.3,9.5l-4.4-26.8L81.9,40.8 M83.8,36c-0.3,0-62.9,10.3-63.2,10.3
				c-1.2,0.2-2.1,1.4-1.9,2.6L24,80.1c0.2,1.1,1.1,1.9,2.2,1.9c0.3,0,62.9-10.3,63.2-10.3c1.2-0.2,2.1-1.4,1.9-2.6L86,37.9
				C85.9,36.8,84.9,36,83.8,36L83.8,36z"/>
		</g>
		<g>
			<ellipse class="st7" cx="49.4" cy="16.8" rx="2.3" ry="2.3"/>
		</g>
		<g>
			<polygon class="st8" points="28.1,77.1 28.2,77.1 61.3,44.2 23.6,50.4 			"/>
		</g>
		<g>
			<g>
				<path class="st4" d="M29.1,63.7L29.1,63.7c-0.6-3.6,1.7-7,5.6-7.6c3.9-0.6,7.1,1.8,7.7,5.3l0,0c0.5,3.7-1.9,7.1-5.6,7.6
					C33,69.6,29.7,67.3,29.1,63.7z M39.6,62L39.6,62c-0.4-2.2-2.2-3.7-4.5-3.3C32.9,59,31.7,61,32,63.2l0,0c0.4,2.1,2.2,3.7,4.5,3.3
					C38.7,66.1,40,64.1,39.6,62z"/>
			</g>
			<g>
				<path class="st4" d="M44.1,56.2c-0.1-0.8,0.4-1.5,1.2-1.6l3.8-0.6c3-0.5,5.1,1,5.5,3.5l0,0c0.5,2.9-1.5,4.8-4.4,5.2l-2.1,0.3
					l0.4,2.5c0.1,0.8-0.4,1.5-1.2,1.6c-0.8,0.1-1.5-0.4-1.6-1.2L44.1,56.2z M49.9,60.3c1.4-0.2,2.1-1.2,1.9-2.3l0,0
					c-0.2-1.2-1.2-1.8-2.6-1.5l-2.1,0.4l0.6,3.8L49.9,60.3z"/>
			</g>
			<g>
				<path class="st4" d="M57.8,64l-1.6-9.8c-0.1-0.8,0.4-1.5,1.2-1.6l7-1.1c0.7-0.1,1.3,0.4,1.4,1c0.1,0.7-0.4,1.3-1,1.4l-5.6,0.9
					l0.4,2.5l4.8-0.8c0.7-0.1,1.3,0.4,1.4,1c0.1,0.7-0.4,1.3-1,1.4l-4.8,0.8l0.4,2.6l5.7-0.9c0.7-0.1,1.3,0.4,1.4,1
					c0.1,0.7-0.4,1.3-1,1.4l-7.1,1.2C58.6,65.3,57.9,64.8,57.8,64z"/>
			</g>
			<g>
				<path class="st4" d="M68.2,52.2c-0.1-0.8,0.4-1.5,1.2-1.6l0.3,0c0.7-0.1,1.1,0.1,1.6,0.6l6.5,6.1l-1.1-6.5
					c-0.1-0.8,0.4-1.5,1.1-1.6c0.8-0.1,1.5,0.4,1.6,1.1l1.6,10c0.1,0.8-0.4,1.5-1.2,1.6l-0.1,0c-0.7,0.1-1.1-0.1-1.6-0.6L71.5,55
					l1.1,6.7c0.1,0.8-0.4,1.5-1.1,1.6c-0.8,0.1-1.5-0.4-1.6-1.1L68.2,52.2z"/>
			</g>
		</g>
	</g>
</g>
<g>
	<ellipse class="st9" cx="88.8" cy="89.5" rx="17.1" ry="17.2"/>
	<line class="st10" x1="88.8" y1="90.4" x2="88.8" y2="77.6"/>
	<line class="st10" x1="88.8" y1="90.4" x2="98.7" y2="87.8"/>
</g>
</svg>
