<?xml version="1.0" encoding="utf-8"?>
<!-- Generator: Adobe Illustrator 24.0.2, SVG Export Plug-In . SVG Version: 6.00 Build 0)  -->
<svg version="1.1" xmlns="http://www.w3.org/2000/svg" xmlns:xlink="http://www.w3.org/1999/xlink" x="0px" y="0px"
	 viewBox="0 0 80 80" style="enable-background:new 0 0 80 80;" xml:space="preserve">
<style type="text/css">
	.st0{display:none;}
	.st1{display:inline;}
	.st2{fill:#915F2E;}
	.st3{fill:#42210B;}
	.st4{fill:#8C6239;}
	.st5{fill:#A47037;}
	.st6{fill:#FFFFFF;}
	.st7{fill:#616164;}
	.st8{fill:none;stroke:#636264;stroke-width:2;stroke-linecap:round;stroke-miterlimit:10;}
	.st9{fill:#E5BF00;}
	.st10{fill:#E5BF00;stroke:#FFFFFF;stroke-width:0.5;stroke-miterlimit:10;}
	.st11{fill:#7AC943;}
</style>
<g id="Capa_2" class="st0">
	<rect class="st1" width="80" height="80"/>
</g>
<g id="Capa_4">
	<g>
		<g>
			<path class="st2" d="M1.8,9l43.1-3.2c4,1.6,8.6,3.3,13,4.9c4.3,1.5,8.6,3.1,12.6,4.7c-7.1,0.8-14.8,1.6-22.2,2.4
				c-7.5,0.8-15.3,1.6-22.6,2.4L1.8,9z"/>
			<path class="st3" d="M44.8,5.9c4.1,1.6,8.6,3.3,13,4.9c4.1,1.5,8.3,3,12.1,4.5c-7,0.8-14.4,1.6-21.6,2.3
				c-7.5,0.8-15.3,1.6-22.6,2.4l-12.1-5.7L2.2,9.1l20.8-1.6L44.8,5.9 M44.8,5.7c-14.5,1.1-29,2.2-43.5,3.3
				c8.1,3.8,16.3,7.6,24.4,11.4c14.5-1.6,30.8-3.3,45.3-4.9C62.8,12.2,52.9,8.9,44.8,5.7L44.8,5.7z"/>
		</g>
		<g>
			<polygon class="st4" points="25.9,28.7 67.2,25.5 67.2,47.7 25.9,52.6 			"/>
			<g>
				<path class="st3" d="M67,25.7v21.8l-40.8,4.8V28.9l20.4-1.6L67,25.7 M67.5,25.2c-13.9,1.1-27.9,2.2-41.8,3.3
					c0,8.1,0,16.3,0,24.4c13.9-1.6,27.9-3.3,41.8-4.9C67.5,40.4,67.5,32.8,67.5,25.2L67.5,25.2z"/>
			</g>
		</g>
		<g>
			<polygon class="st4" points="25.9,20.6 70.7,15.7 70.7,26.6 25.9,31.4 			"/>
			<g>
				<path class="st3" d="M70.4,16v10.4l-20.5,2.2l-23.8,2.6V20.8L50,18.2L70.4,16 M70.9,15.4c-15.1,1.6-30.2,3.3-45.3,4.9
					c0,3.8,0,7.6,0,11.4c15.1-1.6,30.2-3.3,45.3-4.9C70.9,23,70.9,19.2,70.9,15.4L70.9,15.4z"/>
			</g>
		</g>
		<g>
			<polygon class="st5" points="3.3,41.3 3.3,19.1 25.4,30.2 25.4,52.4 			"/>
			<g>
				<path class="st3" d="M3.5,19.5l6.8,3.4l14.8,7.4V52l-14.4-7.2l-7.3-3.7V22V19.5 M3,18.7c0,1.1,0,2.2,0,3.3c0,6.5,0,13,0,19.5
					c7.5,3.8,15.1,7.6,22.6,11.4c0-7.6,0-15.2,0-22.8C18.1,26.3,10.6,22.5,3,18.7L3,18.7z"/>
			</g>
		</g>
		<g>
			<polygon class="st5" points="1.5,20.2 1.5,9.3 25.4,20.5 25.4,31.3 			"/>
			<g>
				<path class="st3" d="M1.8,9.7l11.5,5.4l11.9,5.6v10.3l-9-4.2L1.8,20V9.7 M1.3,8.9c0,3.8,0,7.6,0,11.4
					c8.1,3.8,16.3,7.6,24.4,11.4c0-3.8,0-7.6,0-11.4C17.5,16.5,9.4,12.7,1.3,8.9L1.3,8.9z"/>
			</g>
		</g>
	</g>
	<g>
		<g>
			<path class="st6" d="M48.5,77.4c-2.1,0-3.9-1.7-3.9-3.9V40.4c0-2.1,1.7-3.9,3.9-3.9h24.7c2.1,0,3.9,1.7,3.9,3.9v33.1
				c0,2.1-1.7,3.9-3.9,3.9H48.5z"/>
			<path class="st7" d="M73.1,37.6c1.6,0,2.9,1.3,2.9,2.9v33.1c0,1.6-1.3,2.9-2.9,2.9H48.5c-1.6,0-2.9-1.3-2.9-2.9V40.4
				c0-1.6,1.3-2.9,2.9-2.9H73.1 M73.1,35.6H48.5c-2.7,0-4.9,2.2-4.9,4.9v33.1c0,2.7,2.2,4.9,4.9,4.9h24.7c2.7,0,4.9-2.2,4.9-4.9
				V40.4C78,37.8,75.8,35.6,73.1,35.6L73.1,35.6z"/>
		</g>
		<line class="st8" x1="50.2" y1="58.7" x2="71.4" y2="58.9"/>
		<g>
			<g>
				<polygon class="st9" points="69.1,52.2 67.2,46.4 68.1,42.4 71.2,52.2 				"/>
				<path class="st6" d="M68.1,43.3l2.7,8.6h-1.6l-1.8-5.6L68.1,43.3 M68.1,41.4l-0.4,1.8l-0.7,3l0,0.1l0,0.1l1.8,5.6l0.1,0.3h0.4
					h1.6h0.7l-0.2-0.6l-2.7-8.6L68.1,41.4L68.1,41.4z"/>
			</g>
			<path class="st10" d="M63.7,41.2v-2h-2.5l0,2l-5.6,0h-0.1h-2.2l-3.3,10.7H52c0,0,0,0,0,0c4.1,0,8.3,0,12.4,0l0.9-2.8h0l2.5-7.9
				L63.7,41.2z"/>
		</g>
		<line class="st8" x1="67.4" y1="63.9" x2="50.2" y2="63.7"/>
		<line class="st8" x1="66.2" y1="68.9" x2="50.2" y2="68.8"/>
		<g>
			<g>
				<path class="st11" d="M68.6,73c-0.5,0-0.9-0.1-1.4-0.2l-0.4-0.1L66.7,70l0.7,0.2c0.3,0.1,0.6,0.2,1,0.2c0.2,0,0.3,0.1,0.5,0.1
					l0.1-1.7c-0.2-0.1-0.4-0.1-0.5-0.2c-0.3-0.1-0.6-0.3-0.9-0.5c-0.3-0.2-0.5-0.5-0.7-0.8c-0.2-0.3-0.3-0.7-0.3-1.2
					c0-0.4,0-0.8,0.1-1.1c0.1-0.4,0.3-0.7,0.6-1c0.3-0.3,0.6-0.5,1.1-0.7c0.3-0.1,0.7-0.3,1.1-0.3l0.1-1.5l2.2-0.1l-0.1,1.6
					c0.1,0,0.1,0,0.2,0c0.2,0,0.5,0.1,0.7,0.1l0.4,0.1l0.2,2.6l-0.7-0.2c-0.2-0.1-0.5-0.1-0.7-0.2c-0.1,0-0.2,0-0.3,0l-0.1,1.4
					c0.2,0.1,0.4,0.1,0.6,0.2c0.3,0.1,0.7,0.3,1,0.5c0.3,0.2,0.6,0.5,0.8,0.8c0.2,0.3,0.3,0.8,0.4,1.2c0,0.5,0,1-0.2,1.4
					c-0.2,0.4-0.4,0.8-0.8,1.1c-0.3,0.3-0.7,0.5-1.2,0.7c-0.3,0.1-0.6,0.2-1,0.3l-0.1,1.8l-2.2,0.1L68.6,73z M71,70.2
					C71,70.2,71.1,70.2,71,70.2c0.1-0.1,0.2-0.2,0.2-0.2c0-0.1,0-0.1,0-0.2c0-0.2-0.1-0.2-0.1-0.3c0,0,0,0,0,0L71,70.2z M69.2,65.6
					c0,0,0,0.1,0,0.2c0,0,0,0,0,0L69.2,65.6z"/>
				<path class="st6" d="M71.2,61.8l-0.1,1.5c0.2,0,0.5,0,0.7,0.1c0.2,0,0.4,0.1,0.7,0.1l0.1,1.5c-0.2-0.1-0.5-0.1-0.8-0.2
					c-0.3,0-0.5-0.1-0.8-0.1L70.8,67c0.3,0.1,0.6,0.2,0.9,0.3c0.3,0.1,0.6,0.3,0.8,0.4c0.3,0.2,0.5,0.4,0.6,0.7
					c0.2,0.3,0.3,0.6,0.3,1c0,0.5,0,0.9-0.2,1.2s-0.4,0.6-0.6,0.9c-0.3,0.2-0.6,0.4-1,0.6c-0.4,0.1-0.8,0.3-1.3,0.3l-0.1,1.8
					L69,74.3l0.1-1.8c-0.6,0-1.2-0.1-1.8-0.2l-0.1-1.6c0.3,0.1,0.7,0.2,1,0.2c0.4,0.1,0.7,0.1,1,0.1l0.2-2.6
					c-0.3-0.1-0.6-0.2-0.9-0.3c-0.3-0.1-0.5-0.3-0.8-0.4c-0.2-0.2-0.4-0.4-0.6-0.7c-0.2-0.3-0.2-0.6-0.3-1c0-0.3,0-0.6,0.1-0.9
					c0.1-0.3,0.3-0.6,0.5-0.8c0.2-0.2,0.5-0.5,0.9-0.6c0.4-0.2,0.8-0.3,1.4-0.3l0.1-1.4L71.2,61.8 M69.8,64.8
					c-0.4,0.1-0.7,0.2-0.9,0.4c-0.2,0.2-0.2,0.4-0.2,0.7c0,0.2,0.1,0.4,0.3,0.5c0.2,0.1,0.4,0.3,0.7,0.4L69.8,64.8 M70.4,71
					c0.2,0,0.4-0.1,0.6-0.2c0.2-0.1,0.3-0.2,0.4-0.3c0.1-0.1,0.2-0.2,0.2-0.3c0-0.1,0.1-0.2,0.1-0.4c0-0.3-0.1-0.5-0.3-0.6
					c-0.2-0.2-0.4-0.3-0.8-0.4L70.4,71 M72.3,60.7l-1.1,0.1L70,60.9l-0.9,0.1L69,61.8L69,62.5c-0.3,0.1-0.6,0.2-0.8,0.3
					c-0.5,0.2-0.9,0.5-1.2,0.8c-0.3,0.4-0.6,0.8-0.7,1.2C66,65.2,66,65.7,66,66.1c0,0.5,0.2,1,0.4,1.4c0.2,0.4,0.5,0.7,0.8,1
					c0.3,0.2,0.6,0.4,1,0.6c0.1,0,0.1,0,0.2,0.1l-0.1,0.7c-0.3-0.1-0.6-0.1-0.8-0.2l-1.3-0.4l0.1,1.4l0.1,1.6l0,0.8l0.7,0.2
					c0.3,0.1,0.6,0.1,1,0.2L68,74.2l-0.1,1.1l1.1-0.1l1.2-0.1l0.9-0.1l0.1-0.9l0.1-1c0.2-0.1,0.5-0.1,0.7-0.2
					c0.5-0.2,0.9-0.5,1.3-0.8c0.4-0.3,0.7-0.8,0.9-1.3c0.2-0.5,0.3-1,0.3-1.6c0-0.6-0.2-1.1-0.4-1.5c-0.2-0.4-0.5-0.7-0.9-1
					c-0.3-0.2-0.7-0.4-1.1-0.6c-0.1,0-0.1-0.1-0.2-0.1l0-0.5c0.1,0,0.3,0.1,0.4,0.1l1.3,0.4l-0.1-1.4l-0.1-1.5l0-0.8l-0.8-0.1
					c-0.1,0-0.3-0.1-0.5-0.1l0-0.5L72.3,60.7L72.3,60.7z"/>
			</g>
		</g>
	</g>
</g>
</svg>
