<?xml version="1.0" encoding="utf-8"?>
<!-- Generator: Adobe Illustrator 22.0.1, SVG Export Plug-In . SVG Version: 6.00 Build 0)  -->
<svg version="1.1" xmlns="http://www.w3.org/2000/svg" xmlns:xlink="http://www.w3.org/1999/xlink" x="0px" y="0px"
	 viewBox="0 0 80 80" style="enable-background:new 0 0 80 80;" xml:space="preserve">
<style type="text/css">
	.st0{display:none;}
	.st1{display:inline;}
	.st2{fill:#EBBA16;}
	.st3{fill:#B8B8B8;}
	.st4{fill:#CCCCCC;}
	.st5{fill:#FFFFFF;}
	.st6{fill:#BFBAA5;}
	.st7{fill:#EFC940;}
	.st8{fill:#BD360C;}
	.st9{fill:#D74214;}
	.st10{fill:#CDD7DB;}
	.st11{fill:#EBEDEF;}
	.st12{fill:#F9BF2C;}
	.st13{fill:#FBEA15;}
	.st14{fill:#F5A557;}
	.st15{fill:#F5B673;}
	.st16{fill:#36464E;}
	.st17{fill:#445A64;}
	.st18{fill:#66FF33;}
</style>
<g id="Capa_2" class="st0">
	<rect class="st1" width="80" height="80"/>
</g>
<g id="Capa_4">
	<g>
		<path class="st2" d="M30.5,8.4l3.2,38.7c0.1,1.4-0.9,2.7-2.4,2.8L9.3,51.9c-1.4,0.1-2.7-1-2.8-2.4L3,8.1C2.9,6.7,4,5.4,5.4,5.2
			l17.3-1.4c0.7,0,2.6,0,4.5,1.1C29.2,6.1,30.2,7.8,30.5,8.4z"/>
		
			<rect x="8.4" y="7.8" transform="matrix(0.9965 -8.333492e-02 8.333492e-02 0.9965 -1.4215 2.5811)" class="st3" width="43.6" height="21.1"/>
		<path class="st4" d="M12.4,14.1l0.5,5.7L7,20.3l0-0.2C8.8,18.1,10.6,16.1,12.4,14.1z"/>
		<polygon class="st5" points="52.9,10.4 55,35 54.2,38.3 8.8,42.1 7,20.3 12.9,19.8 12.4,13.7 		"/>
		<g>
			
				<rect x="18.2" y="17" transform="matrix(0.9965 -8.333492e-02 8.333492e-02 0.9965 -1.7283 1.6562)" class="st6" width="1.5" height="9.1"/>
			
				<rect x="24.9" y="16.4" transform="matrix(0.9965 -8.333492e-02 8.333492e-02 0.9965 -1.659 2.2069)" class="st6" width="1.5" height="9.1"/>
			
				<rect x="31.5" y="15.9" transform="matrix(0.9965 -8.333492e-02 8.333492e-02 0.9965 -1.5897 2.7576)" class="st6" width="1.5" height="9.1"/>
			
				<rect x="38.1" y="15.3" transform="matrix(0.9965 -8.333492e-02 8.333492e-02 0.9965 -1.5204 3.3084)" class="st6" width="1.5" height="9.1"/>
			
				<rect x="44.8" y="14.8" transform="matrix(0.9965 -8.333492e-02 8.333492e-02 0.9965 -1.4511 3.8591)" class="st6" width="1.5" height="9.1"/>
		</g>
		<path class="st7" d="M58.7,19.4L55,35l-0.8,3.3l-1.8,7.3c-0.4,1.5-1.8,2.9-3.3,3L8.5,51.9c-1.4,0.1-2.3-1-1.9-2.5l2.1-8.7L13,23.2
			c0.4-1.5,1.8-2.9,3.3-3l40.6-3.4C58.2,16.7,59.1,17.9,58.7,19.4z"/>
	</g>
	<g>
		<path class="st8" d="M54.3,55.6l-15.9-8.7L63.5,1.2c0.4-0.7,1.3-1,2-0.6l13.2,7.3c0.8,0.4,1.1,1.4,0.6,2.2L54.3,55.6z"/>
		<path class="st9" d="M72.1,4.3l-25.8,47l-8-4.4l24.7-45c0.6-1.1,2.2-1.4,3.5-0.7L72.1,4.3z"/>
		
			<rect x="47.6" y="11" transform="matrix(0.8763 0.4817 -0.4817 0.8763 22.6359 -23.2712)" class="st10" width="18.2" height="42.9"/>
		
			<rect x="31.2" y="25.7" transform="matrix(0.4817 -0.8763 0.8763 0.4817 0.774 61.8381)" class="st11" width="42.9" height="9.1"/>
		
			<rect x="46.5" y="15.3" transform="matrix(0.8763 0.4817 -0.4817 0.8763 23.4689 -22.4891)" class="st12" width="18.2" height="38.3"/>
		
			<rect x="32.4" y="27.7" transform="matrix(0.4817 -0.8763 0.8763 0.4817 -1.5641 61.9119)" class="st13" width="38.3" height="9.1"/>
		<path class="st14" d="M36.6,64.2L38.3,47c0-0.1,0.1-0.1,0.1-0.1l15.7,8.6c0.1,0,0.1,0.1,0,0.2L40.6,66.4
			C39.1,67.6,36.4,66.1,36.6,64.2z"/>
		<path class="st15" d="M46.3,51.2l-8.4,15.2c-0.8-0.5-1.5-1.3-1.3-2.3L38.3,47c0-0.1,0.1-0.1,0.1-0.1L46.3,51.2z"/>
		<path class="st16" d="M43.8,63.9l-3.2,2.5c-0.8,0.6-1.8,0.5-2.7,0.1c-0.8-0.5-1.5-1.3-1.3-2.3l0.4-4.1L43.8,63.9z"/>
		<path class="st17" d="M40.4,62l-2.5,4.5c-0.8-0.5-1.5-1.3-1.3-2.3l0.4-4.1L40.4,62z"/>
	</g>
	<path class="st18" d="M41,67.3c0,0,7.7,9,9.2,12.7h6.6c2.8-8.8,13.5-29.9,22.7-37.3c1.9-2.6-2.9-3.6-6.8-1.9
		C67,43.4,56,62.9,53.9,67.6c-2.9,0.8-6-5.1-6-5.1L41,67.3z"/>
</g>
</svg>
