<?xml version="1.0" encoding="utf-8"?>
<!-- Generator: Adobe Illustrator 22.0.1, SVG Export Plug-In . SVG Version: 6.00 Build 0)  -->
<svg version="1.1" xmlns="http://www.w3.org/2000/svg" xmlns:xlink="http://www.w3.org/1999/xlink" x="0px" y="0px"
	 viewBox="0 0 80 80" style="enable-background:new 0 0 80 80;" xml:space="preserve">
<style type="text/css">
	.st0{display:none;}
	.st1{display:inline;}
	.st2{fill:#FFA500;}
	.st3{opacity:0.61;fill:#FF8C00;}
	.st4{fill:#FFFFFF;}
	.st5{fill:#66CCCC;}
	.st6{fill:#99FFFF;}
	.st7{fill:#FFFF00;}
	.st8{fill:#808080;}
	.st9{fill:#999999;}
	.st10{fill:#00CC66;}
	.st11{fill:#339966;}
	.st12{fill:#BD360C;}
	.st13{fill:#D74214;}
	.st14{fill:#CDD7DB;}
	.st15{fill:#EBEDEF;}
	.st16{fill:#F9BF2C;}
	.st17{fill:#FBD734;}
	.st18{fill:#F5A557;}
	.st19{fill:#F5B673;}
	.st20{fill:#36464E;}
	.st21{fill:#445A64;}
	.st22{fill:#66FF33;}
</style>
<g id="Capa_2" class="st0">
	<rect class="st1" width="80" height="80"/>
</g>
<g id="Capa_4">
	<g>
		<path class="st2" d="M9.5,15.5c0.2-0.4,0.5-0.7,0.8-0.9c5.5-4.4,11.1-8.9,16.6-13.3C27.1,1.1,27.3,1,27.6,1c0.2,0,0.4,0.1,0.5,0.3
			c5.6,4.5,11.3,9,16.9,13.5c0.3,0.2,0.6,0.5,0.7,0.9c0.1,0.4,0.3,1,0.3,1.5c-0.1,0.6-0.5,1.1-0.9,1.5c-0.1,0.1-0.1,0.1-0.2,0.1
			c-0.1,0-0.2,0-0.3-0.1c-1.1-0.9-2.2-1.8-3.4-2.7c-1.4-1.1-2.7-2.1-4.1-3.1c-2.7-2.1-5.4-4.1-8.1-6.3c-0.1-0.1-1.5-1.2-1.5-1.2
			C22.6,9.4,17.4,13,12.4,17c-0.6,0.5-1.2,1-1.8,1.4c-0.1,0.1-0.2,0.2-0.3,0.2c-0.2,0-0.3,0-0.5-0.2c-0.3-0.3-0.6-0.9-0.8-1.4
			C8.9,16.6,9.1,16,9.5,15.5z"/>
		<path class="st2" d="M39.7,10.9L34.6,10V2.8C34.6,2.4,35,2,35.5,2h3.4c0.5,0,0.8,0.4,0.8,0.9V10.9z"/>
		<path class="st2" d="M27.5,7.5L14.3,17.6v12.3c0,0.6,0.5,1.1,1,1.1h9.1v-8.9h6.1V31h8.1c1.1,0,2-1,2-2.2V17.6L27.5,7.5z"/>
		<path class="st3" d="M45.7,15.6c-0.1-0.4-0.4-0.6-0.7-0.9c-1.8-1.4-3.5-2.8-5.3-4.2V2.8c0-0.5-0.4-0.9-0.8-0.9h-3.4
			c-0.5,0-0.8,0.4-0.8,0.9v3.6c-2.2-1.7-4.4-3.5-6.5-5.2C27.9,1.1,27.7,1,27.6,1h0v4.3c0.2,0.2,1.3,1.1,1.4,1.2
			c2.7,2.1,5.4,4.2,8.1,6.3c1.4,1,2.7,2.1,4.1,3.2c1.1,0.9,2.2,1.9,3.4,2.7c0.1,0.1,0.2,0.1,0.3,0.1c0.1,0,0.1-0.1,0.2-0.1
			c0.3-0.4,0.8-0.9,0.9-1.5C46.1,16.6,45.9,16.1,45.7,15.6z"/>
		<path class="st3" d="M27.5,7.5v10.1v4.5h3V31h8.1c1.1,0,2-1,2-2.2V17.6L27.5,7.5z"/>
		<ellipse class="st4" cx="29.3" cy="26.9" rx="0.5" ry="0.5"/>
	</g>
	<g id="Capa_2_2_">
		<g>
			<path class="st4" d="M31.2,27l3.5,17.3c0.2,0.7-0.3,1.5-1,1.7L9.1,52c-0.7,0.2-1.3-0.3-1.5-1.1L4.1,33.7c-0.2-0.7,0.3-1.5,1-1.7
				l24.7-6C30.4,25.9,31,26.3,31.2,27z"/>
		</g>
		<g>
			<path class="st5" d="M30.6,27.9l3.2,15.9c0,0.2,0,0.5-0.1,0.7c-0.1,0.4-0.4,0.6-0.8,0.7L9.6,51c-0.6,0.1-1.2-0.3-1.3-0.9L5,34.2
				c-0.1-0.6,0.3-1.3,0.9-1.4L29.2,27C29.8,26.8,30.5,27.2,30.6,27.9z"/>
		</g>
		<g>
			<path class="st4" d="M35,33.9v17.7c0,0.8-0.6,1.4-1.3,1.4H8.5c-0.7,0-1.3-0.6-1.3-1.4V34c0-0.8,0.6-1.4,1.3-1.4h25.3
				C34.5,32.6,35,33.2,35,33.9z"/>
		</g>
		<g>
			<path class="st6" d="M34.3,34.6V51c0,0.3-0.1,0.5-0.2,0.7c-0.2,0.3-0.5,0.5-0.9,0.5h-24C8.5,52.2,8,51.6,8,51V34.6
				c0-0.7,0.5-1.2,1.1-1.2h24C33.7,33.4,34.3,34,34.3,34.6z"/>
		</g>
		<path class="st7" d="M15.7,33.8c0,4.3-3.2,7.7-7.1,7.7c-0.2,0-0.4,0-0.6,0v-6.9c0-0.7,0.5-1.2,1.1-1.2h6.5
			C15.7,33.6,15.7,33.7,15.7,33.8z"/>
		<path class="st8" d="M34.3,41.2V51c0,0.3-0.1,0.5-0.2,0.7c-0.2,0.2-0.4,0.2-0.7,0.2h-1.1l-10.8-2.6c-1.9-0.5-2.5-3-1.1-4.5
			l6.5-6.8l1.8-1.9c0.4-0.4,1-0.4,1.3,0l1.7,1.9L34.3,41.2z"/>
		<path class="st9" d="M34.3,50.3V51c0,0.3-0.1,0.5-0.2,0.7c-0.2,0.3-0.5,0.5-0.9,0.5H11.2c-0.2-0.1-0.3-0.5-0.1-0.7L19.7,41
			l1.5-1.8c0.4-0.5,1.2-0.6,1.6-0.1l1.8,1.8L34.3,50.3z"/>
		<path class="st10" d="M21.3,52.2H9.2C8.5,52.2,8,51.6,8,51v-4.4c1.2-0.4,2.5-0.7,4-0.7C16.7,45.9,20.6,48.7,21.3,52.2z"/>
		<path class="st11" d="M34.3,44.2V51c0,0.6-0.5,1.2-1.1,1.2H17.2c0.5-4.9,5.9-8.7,12.4-8.7C31.3,43.5,32.8,43.7,34.3,44.2z"/>
		<path class="st4" d="M24.7,40.8c-0.1,0.2-0.4,0.4-0.6,0.5c-0.3,0-0.6-0.2-0.8-0.1c-0.3,0.1-0.5,0.4-0.9,0.4c-0.4,0-0.7-0.5-1-0.3
			c-0.2,0.1-0.4,0.3-0.7,0.3c-0.3,0-0.9-0.4-0.8-0.7c0-0.2,0.4-0.5,0.5-0.6c0.3-0.4,0.6-0.7,0.9-1.1c0.4-0.5,1.2-0.6,1.6-0.1
			C23.5,39.7,24.1,40.2,24.7,40.8z"/>
		<path class="st4" d="M31.6,38.1c-0.1,0.1-0.3,0.2-0.4,0.2c-0.3,0-0.6-0.2-0.8-0.1c-0.3,0.1-0.5,0.4-0.9,0.4
			c-0.4,0-0.7-0.5-1.1-0.3c-0.2,0.1-0.4,0.3-0.7,0.3c-0.3,0-0.7-0.3-0.9-0.5l1.8-1.9c0.4-0.4,1-0.4,1.3,0L31.6,38.1z"/>
	</g>
	<g>
		<path class="st12" d="M54.3,55.6l-15.9-8.7L63.5,1.2c0.4-0.7,1.3-1,2-0.6l13.2,7.3c0.8,0.4,1.1,1.4,0.6,2.2L54.3,55.6z"/>
		<path class="st13" d="M72.1,4.3l-25.8,47l-8-4.4l24.7-45c0.6-1.1,2.2-1.4,3.5-0.7L72.1,4.3z"/>
		
			<rect x="47.6" y="11" transform="matrix(0.8763 0.4817 -0.4817 0.8763 22.6359 -23.2712)" class="st14" width="18.2" height="42.9"/>
		
			<rect x="31.2" y="25.7" transform="matrix(0.4817 -0.8763 0.8763 0.4817 0.774 61.8381)" class="st15" width="42.9" height="9.1"/>
		
			<rect x="46.5" y="15.3" transform="matrix(0.8763 0.4817 -0.4817 0.8763 23.4689 -22.4891)" class="st16" width="18.2" height="38.3"/>
		
			<rect x="32.4" y="27.7" transform="matrix(0.4817 -0.8763 0.8763 0.4817 -1.5641 61.9119)" class="st17" width="38.3" height="9.1"/>
		<path class="st18" d="M36.6,64.2L38.3,47c0-0.1,0.1-0.1,0.1-0.1l15.7,8.6c0.1,0,0.1,0.1,0,0.2L40.6,66.4
			C39.1,67.6,36.4,66.1,36.6,64.2z"/>
		<path class="st19" d="M46.3,51.2l-8.4,15.2c-0.8-0.5-1.5-1.3-1.3-2.3L38.3,47c0-0.1,0.1-0.1,0.1-0.1L46.3,51.2z"/>
		<path class="st20" d="M43.8,63.9l-3.2,2.5c-0.8,0.6-1.8,0.5-2.7,0.1c-0.8-0.5-1.5-1.3-1.3-2.3l0.4-4.1L43.8,63.9z"/>
		<path class="st21" d="M40.4,62l-2.5,4.5c-0.8-0.5-1.5-1.3-1.3-2.3l0.4-4.1L40.4,62z"/>
	</g>
	<path class="st22" d="M41,67.3c0,0,7.7,9,9.2,12.7h6.6c2.8-8.8,13.5-29.9,22.7-37.3c1.9-2.6-2.9-3.6-6.8-1.9
		C67,43.4,56,62.9,53.9,67.6c-2.9,0.8-6-5.1-6-5.1L41,67.3z"/>
	<g>
		<ellipse class="st11" cx="14.6" cy="64" rx="14.4" ry="14"/>
		<g>
			<g>
				<path class="st4" d="M4,58h2.4l1.8,6.3C8.7,65.7,9,67,9.4,68.4h0.1c0.4-1.4,0.7-2.7,1.1-4.1l1.8-6.3h2.3l-4,12.6H8.1L4,58z"/>
				<path class="st4" d="M15.9,58h4.4c2.7,0,4.8,0.9,4.8,3.7c0,2.7-2.1,3.9-4.8,3.9h-2.1v4.9h-2.3V58z M20,63.9
					c1.8,0,2.7-0.7,2.7-2.1c0-1.4-1-1.9-2.7-1.9h-1.8v4.1H20z M19.8,65.1l1.7-1.3l4,6.8h-2.6L19.8,65.1z"/>
			</g>
		</g>
	</g>
</g>
</svg>
