<?xml version="1.0" encoding="utf-8"?>
<!-- Generator: Adobe Illustrator 22.0.1, SVG Export Plug-In . SVG Version: 6.00 Build 0)  -->
<svg version="1.1" xmlns="http://www.w3.org/2000/svg" xmlns:xlink="http://www.w3.org/1999/xlink" x="0px" y="0px"
	 viewBox="0 0 80 80" style="enable-background:new 0 0 80 80;" xml:space="preserve">
<style type="text/css">
	.st0{display:none;}
	.st1{display:inline;}
	.st2{display:inline;fill:#FFA500;}
	.st3{display:inline;opacity:0.61;fill:#FF8C00;}
	.st4{display:inline;fill:#FFFFFF;}
	.st5{fill:#29ABE2;}
	.st6{fill:#66FF33;}
</style>
<g id="Capa_2" class="st0">
	<rect class="st1" width="80" height="80"/>
</g>
<g id="Capa_4">
	<g class="st0">
		<path class="st2" d="M3,30.9c0.5-0.8,1.1-1.4,1.6-1.9c11.5-9.5,23.1-18.9,34.6-28.4C39.7,0.3,40.1,0,40.6,0c0.4,0,0.7,0.3,1.1,0.6
			c11.7,9.6,23.5,19.1,35.2,28.7c0.6,0.5,1.3,1.1,1.5,1.9c0.3,1,0.7,2.2,0.5,3.2c-0.2,1.2-1.1,2.3-1.8,3.1c-0.1,0.1-0.2,0.3-0.4,0.3
			c-0.2,0.1-0.5-0.1-0.7-0.3c-2.4-1.9-4.6-3.9-7-5.8c-2.8-2.3-5.7-4.5-8.6-6.7c-5.7-4.4-11.3-8.8-16.9-13.3c-0.3-0.2-3-2.6-3.1-2.6
			C30.2,17.9,19.4,25.7,9,34.2c-1.2,1-2.5,2-3.7,3.1c-0.2,0.2-0.4,0.3-0.6,0.4c-0.3,0.1-0.7-0.1-1-0.3c-0.7-0.7-1.3-1.9-1.6-2.9
			C1.8,33.3,2.3,32,3,30.9z"/>
		<path class="st2" d="M65.9,21.1l-10.5-1.9V3.9c0-1.1,0.8-1.9,1.8-1.9h7c1,0,1.8,0.9,1.8,1.9V21.1z"/>
		<path class="st2" d="M40.6,14L13.1,35.4v26.2c0,1.3,0.9,2.4,2.1,2.4h19V44.9h12.7V64h16.9c2.3,0,4.2-2.1,4.2-4.8V35.4L40.6,14z"/>
		<path class="st3" d="M78.4,31.2c-0.3-0.8-0.9-1.4-1.5-1.9c-3.7-3-7.4-6-11-9V3.9c0-1.1-0.8-1.9-1.8-1.9h-7c-1,0-1.8,0.9-1.8,1.9
			v7.7C50.8,8,46.2,4.3,41.7,0.6C41.4,0.3,41,0,40.6,0h-0.1v9.2c0.5,0.3,2.8,2.3,3,2.5c5.5,4.6,11.2,8.9,16.9,13.3
			c2.9,2.2,5.7,4.5,8.6,6.7c2.4,1.9,4.6,4,7,5.8c0.2,0.2,0.4,0.3,0.7,0.3c0.1,0,0.3-0.2,0.4-0.3c0.7-0.9,1.6-1.9,1.8-3.1
			C79.1,33.4,78.7,32.1,78.4,31.2z"/>
		<path class="st3" d="M40.6,14v21.4v9.5h6.3V64h16.9c2.3,0,4.2-2.1,4.2-4.8V35.4L40.6,14z"/>
		<ellipse class="st4" cx="44.3" cy="55.3" rx="0.9" ry="1.1"/>
	</g>
	<g>
		<path class="st5" d="M43.2,8.9v9.6c8.8,2.7,15.2,10.8,15.2,20.2c0,11.7-9.8,21.3-21.8,21.3s-21.9-9.5-21.9-21.3
			c0-9.5,6.4-17.5,15.2-20.2V8.9c-14.1,3-24.7,15.2-24.7,29.8c0,16.8,14,30.5,31.4,30.5s31.3-13.7,31.3-30.5
			C67.8,24.1,57.3,11.9,43.2,8.9z"/>
		<path class="st5" d="M38.8,39h-4.5c-1.4,0-2.5-1.1-2.5-2.5V3.3c0-1.4,1.1-2.5,2.5-2.5h4.5c1.4,0,2.5,1.1,2.5,2.5v33.2
			C41.3,37.9,40.1,39,38.8,39z"/>
	</g>
	<path class="st6" d="M41,66.3c0,0,7.7,9,9.2,12.7h6.6c2.8-8.8,13.5-29.9,22.7-37.3c1.9-2.6-2.9-3.6-6.8-1.9
		C67,42.4,56,61.9,53.9,66.6c-2.9,0.8-6-5.1-6-5.1L41,66.3z"/>
</g>
</svg>
