<?xml version="1.0" encoding="utf-8"?>
<!-- Generator: Adobe Illustrator 22.0.1, SVG Export Plug-In . SVG Version: 6.00 Build 0)  -->
<svg version="1.1" id="Capa_1" xmlns="http://www.w3.org/2000/svg" xmlns:xlink="http://www.w3.org/1999/xlink" x="0px" y="0px"
	 viewBox="0 0 568 568" style="enable-background:new 0 0 568 568;" xml:space="preserve">
<style type="text/css">
	.st0{fill:#1A1A1A;}
	.st1{fill:#FFFFFF;}
	.st2{fill:#999999;}
	.st3{fill:#B3B3B3;}
	.st4{fill:#CCCCCC;}
	.st5{fill:none;stroke:#666666;stroke-width:12;stroke-linecap:round;stroke-miterlimit:10;}
	.st6{opacity:0.24;}
	.st7{fill:#E5BF00;}
	.st8{fill:#E5BF00;stroke:#FFFFFF;stroke-width:0.5;stroke-miterlimit:10;}
	.st9{fill:#29ABE2;}
</style>
<g>
	<path class="st0" d="M16.3,329.3l91-161.6c1.2-2.2,3.5-3.5,6-3.5l341.2,2.3c2.4,0,4.7,1.3,5.9,3.5l89.9,159.4H16.3z"/>
	<path class="st1" d="M113.6,171.6l340.4,2.3l83.4,147.9H29.1l36-64L113.6,171.6 M113.3,156.6c-5.2,0-10,2.8-12.6,7.4
		C68.3,221.6,35.9,279.2,3.4,336.8h559.7C531.1,279.9,499,223,466.9,166.2c-2.5-4.5-7.2-7.2-12.4-7.3
		C340.8,158.1,227.1,157.4,113.3,156.6C113.4,156.6,113.3,156.6,113.3,156.6L113.3,156.6z"/>
</g>
<g>
	<path class="st2" d="M149.2,132V85.6c0-20.7,13-37.6,29-37.6h214.9c16,0,29,16.9,29,37.6V132H149.2z"/>
	<path class="st1" d="M393.1,54c12.5,0,23,14.5,23,31.6V126H155.2V85.6c0-17.1,10.5-31.6,23-31.6H393.1 M393.1,42H178.2
		c-19.3,0-35,19.5-35,43.6v52.6c1.2-0.2,2.5-0.3,3.7-0.3h277.4c1.3,0,2.5,0.1,3.7,0.3V85.6C428.1,61.5,412.4,42,393.1,42L393.1,42z"
		/>
</g>
<g>
	<path class="st3" d="M118,232.5v-68.7c0-20.7,13-37.6,29-37.6h277.4c16,0,29,16.9,29,37.6v68.7H118z"/>
	<path class="st1" d="M424.4,132.1c12.5,0,23,14.5,23,31.6v62.7H124v-62.7c0-17.1,10.5-31.6,23-31.6H424.4 M424.4,120.1H147
		c-19.3,0-35,19.5-35,43.6v74.7h347.4v-74.7C459.4,139.6,443.7,120.1,424.4,120.1L424.4,120.1z"/>
</g>
<g>
	<path class="st4" d="M220.9,381.1c-2.6,0-5.2-1.6-7-4.5l-22.8-36c-3.4-5.4-8.9-8.6-14.7-8.6H79.8v-67.8c0-20.7,13-37.6,29-37.6
		h353.7c16,0,29,16.9,29,37.6V332h-95.6c-5,0-9.8,2.4-13.2,6.5c-10.2,12.4-20.4,24.9-30.5,37.3l-1.6,1.9c-1.7,2.1-3.9,3.3-6.1,3.3
		H220.9z"/>
	<path class="st1" d="M462.5,232.6c12.5,0,23,14.5,23,31.6V326h-89.6c-6.8,0-13.3,3.2-17.9,8.8c-10.6,13-21.3,26-31.9,38.9l-0.2,0.3
		c-0.6,0.7-1.2,1.1-1.5,1.1H220.9c-0.3,0-1.1-0.4-1.9-1.7c-7.6-12-15.2-24-22.8-36c-4.5-7.1-11.9-11.4-19.7-11.4H85.8v-61.8
		c0-17.1,10.5-31.6,23-31.6H462.5 M462.5,220.6H108.8c-19.3,0-35,19.5-35,43.6V338h102.7c3.7,0,7.3,2.1,9.6,5.8
		c7.6,12,15.2,24,22.8,36c2.9,4.6,7.3,7.3,12,7.3h123.5c4,0,7.9-2,10.8-5.5c10.7-13.1,21.4-26.1,32.1-39.2c2.3-2.8,5.4-4.4,8.6-4.4
		h101.6v-73.8C497.5,240.1,481.8,220.6,462.5,220.6L462.5,220.6z"/>
</g>
<g>
	<g>
		<line class="st5" x1="119.2" y1="269.7" x2="355.5" y2="269.7"/>
	</g>
	<g>
		<line class="st5" x1="119.2" y1="310.3" x2="256.4" y2="310.3"/>
	</g>
</g>
<g class="st6">
	<path d="M30.9,550.6c-11.8,0-21.4-9.6-21.4-21.4V341.8h167.1c1.9,0,3.7,0.9,4.9,2.4l22.8,28.9c4.1,5.2,10.2,8.1,16.7,8.1h123.5
		c5.6,0,11-2.2,15-6.1l32.1-31.5c1.2-1.2,2.7-1.8,4.4-1.8h162.7c2.1,12.8,1.1,50.5,0.1,90.2c-0.7,29.7-1.6,63.3-1.6,97.1
		c0,11.8-9.6,21.4-21.4,21.4H30.9z"/>
	<path class="st1" d="M553.2,347.8c0.3,4.4,0.6,11.3,0.7,22.2c0,16.5-0.5,37.5-1.1,61.9c-0.7,29.7-1.6,63.4-1.6,97.3
		c0,4.1-1.6,8-4.5,10.9c-2.9,2.9-6.8,4.5-10.9,4.5H30.9c-8.5,0-15.4-6.9-15.4-15.4V347.8h161.1c0.1,0,0.1,0,0.2,0.1l11.4,14.4
		l11.4,14.4c5.2,6.6,13,10.4,21.5,10.4h123.5c7.2,0,14-2.8,19.2-7.8l32.1-31.5c0,0,0.1-0.1,0.2-0.1H553.2 M563.1,335.8
		c-55.7,0-111.5,0-167.2,0c-3.2,0-6.3,1.3-8.6,3.5c-10.7,10.5-21.4,21-32.1,31.5c-2.9,2.8-6.7,4.4-10.8,4.4H220.9
		c-4.7,0-9.1-2.2-12-5.8c-7.6-9.6-15.2-19.3-22.8-28.9c-2.3-2.9-5.9-4.7-9.6-4.7H3.4v193.3c0,15.2,12.3,27.4,27.4,27.4h504.8
		c15.2,0,27.4-12.3,27.4-27.4C563.1,438.8,569.2,349.1,563.1,335.8L563.1,335.8z"/>
</g>
<g>
	<path class="st1" d="M543.7,357.8c0.1,3.8,0.2,8.5,0.2,14.3c0,16-0.5,36.2-1.1,59.5c-0.7,29.8-1.6,63.5-1.6,97.5
		c0,1.9-0.9,3.1-1.6,3.8c-0.7,0.7-2,1.6-3.9,1.6H30.9c-3,0-5.4-2.4-5.4-5.4V357.8h146.3l8.4,10.7l11.4,14.4
		c7.1,9,17.8,14.2,29.3,14.2h123.5c9.8,0,19.1-3.8,26.2-10.7l29.3-28.7H543.7 M563.1,335.8c-55.7,0-111.5,0-167.2,0
		c-3.2,0-6.3,1.3-8.6,3.5c-10.7,10.5-21.4,21-32.1,31.5c-2.9,2.8-6.7,4.4-10.8,4.4H220.9c-4.7,0-9.1-2.2-12-5.8
		c-7.6-9.6-15.2-19.3-22.8-28.9c-2.3-2.9-5.9-4.7-9.6-4.7H3.4v193.3c0,15.2,12.3,27.4,27.4,27.4h504.8c15.2,0,27.4-12.3,27.4-27.4
		C563.1,438.8,569.2,349.1,563.1,335.8L563.1,335.8z"/>
</g>
<g>
	<g>
		<polygon class="st7" points="356.2,521.6 339.7,470.1 346.2,441.5 371.7,521.7 		"/>
		<path class="st1" d="M346.2,442.5l25.2,79l-15,0L340,470.1L346.2,442.5 M346.1,440.6l-0.4,1.8l-6.3,27.6l0,0.1l0,0.1l16.4,51.3
			l0.1,0.3l0.4,0l15,0l0.7,0l-0.2-0.7l-25.2-79L346.1,440.6L346.1,440.6z"/>
	</g>
	<path class="st8" d="M304.2,422.9l0.1-18.2l-23.7-0.1l-0.1,18.2l-53.1-0.2l-1.4,0l-20.5-0.1l-31.8,98.3l20.1,0.1c0,0,0,0,0,0.1
		c39.2,0.1,78.3,0.2,117.5,0.3l8.1-25.6l0.1,0l23.6-72.6L304.2,422.9z"/>
</g>
<g>
	<ellipse class="st9" cx="470" cy="92" rx="90" ry="84"/>
	<path class="st1" d="M470,14c46.3,0,84,35,84,78s-37.7,78-84,78s-84-35-84-78S423.7,14,470,14 M470,2c-53,0-96,40.3-96,90
		s43,90,96,90s96-40.3,96-90S523,2,470,2L470,2z"/>
</g>
</svg>
