<?xml version="1.0" encoding="utf-8"?>
<!-- Generator: Adobe Illustrator 22.0.1, SVG Export Plug-In . SVG Version: 6.00 Build 0)  -->
<svg version="1.1" id="Capa_1" xmlns="http://www.w3.org/2000/svg" xmlns:xlink="http://www.w3.org/1999/xlink" x="0px" y="0px"
	 viewBox="0 0 1776.7 448.6" style="enable-background:new 0 0 1776.7 448.6;" xml:space="preserve">
<style type="text/css">
	.st0{fill:#333333;}
	.st1{fill:#22B573;}
	.st2{fill:#008338;}
</style>
<g>
	<rect y="1" class="st0" width="1776.7" height="447.5"/>
	<path class="st1" d="M850.7,1c62.7,149,125.4,298,188.1,447c-82.7-0.5-165.3-0.9-248-1.4H556.7c41.9-71.8,83.8-143.7,125.7-215.5
		C629,154.4,575.6,77.7,522.2,1H850.7z"/>
	<path class="st2" d="M682.4,231.1C801.2,303.4,920,375.7,1038.8,448c-202.3,0.2-404.6,0.4-606.9,0.6
		C515.4,376.1,598.9,303.6,682.4,231.1z"/>
	<path class="st1" d="M312.8,0c-87.7,34.3-175.3,68.7-263,103L0,248V1C104.3,0.7,208.5,0.3,312.8,0z"/>
	<polygon class="st2" points="49.8,103 0,1 0,248 	"/>
</g>
</svg>
