<?xml version="1.0" encoding="utf-8"?>
<!-- Generator: Adobe Illustrator 22.0.1, SVG Export Plug-In . SVG Version: 6.00 Build 0)  -->
<svg version="1.1" id="Capa_1" xmlns="http://www.w3.org/2000/svg" xmlns:xlink="http://www.w3.org/1999/xlink" x="0px" y="0px"
	 viewBox="0 0 568 568" style="enable-background:new 0 0 568 568;" xml:space="preserve">
<style type="text/css">
	.st0{display:none;fill:#808080;}
	.st1{fill:#FFFFFF;}
	.st2{fill:#FBC93B;}
	.st3{fill:#FF424F;}
</style>
<rect x="-14" y="-9" class="st0" width="591" height="592"/>
<g>
	<path class="st1" d="M165.1,480.8h-110c-5.5,0-10-4.5-10-10V274c0-5.5,4.5-10,10-10h110c5.5,0,10,4.5,10,10v196.8
		C175.1,476.4,170.7,480.8,165.1,480.8z"/>
	<path class="st2" d="M340.1,480.8h-110c-5.5,0-10-4.5-10-10V76c0-5.5,4.5-10,10-10h110c5.5,0,10,4.5,10,10v394.8
		C350.1,476.4,345.7,480.8,340.1,480.8z"/>
	<path class="st1" d="M561.3,548.4H6.7c-2.8,0-5-2.2-5-5v-26.8c0-2.8,2.2-5,5-5h554.7c2.8,0,5,2.2,5,5v26.8
		C566.3,546.1,564.1,548.4,561.3,548.4z"/>
	<path class="st3" d="M513.1,480.8h-110c-5.5,0-10-4.5-10-10V368c0-5.5,4.5-10,10-10h110c5.5,0,10,4.5,10,10v102.8
		C523.1,476.4,518.7,480.8,513.1,480.8z"/>
</g>
</svg>
