<?xml version="1.0" encoding="utf-8"?>
<!-- Generator: Adobe Illustrator 22.0.1, SVG Export Plug-In . SVG Version: 6.00 Build 0)  -->
<svg version="1.1" id="Capa_1" xmlns="http://www.w3.org/2000/svg" xmlns:xlink="http://www.w3.org/1999/xlink" x="0px" y="0px"
	 viewBox="0 0 568 568" style="enable-background:new 0 0 568 568;" xml:space="preserve">
<style type="text/css">
	.st0{display:none;fill:#808080;}
	.st1{fill:#FFFFFF;}
	.st2{fill:#FBC93B;}
	.st3{fill:#FF424F;}
</style>
<rect x="-14" y="-9" class="st0" width="591" height="592"/>
<g>
	<path class="st1" d="M64.3,170.3v-110c0-5.5,4.5-10,10-10H533c5.5,0,10,4.5,10,10v110c0,5.5-4.5,10-10,10H74.3
		C68.8,180.3,64.3,175.8,64.3,170.3z"/>
	<path class="st2" d="M64.3,348.3v-110c0-5.5,4.5-10,10-10H371c5.5,0,10,4.5,10,10v110c0,5.5-4.5,10-10,10H74.3
		C68.8,358.3,64.3,353.8,64.3,348.3z"/>
	<path class="st1" d="M41.6,6.8v554.7c0,2.8-2.2,5-5,5H9.8c-2.8,0-5-2.2-5-5V6.8c0-2.8,2.2-5,5-5h26.8C39.4,1.8,41.6,4.1,41.6,6.8z"
		/>
	<path class="st3" d="M64.3,518.3v-110c0-5.5,4.5-10,10-10h102.8c5.5,0,10,4.5,10,10v110c0,5.5-4.5,10-10,10H74.3
		C68.8,528.3,64.3,523.8,64.3,518.3z"/>
</g>
</svg>
