<?xml version="1.0" encoding="utf-8"?>
<!-- Generator: Adobe Illustrator 22.0.1, SVG Export Plug-In . SVG Version: 6.00 Build 0)  -->
<svg version="1.1" id="Capa_1" xmlns="http://www.w3.org/2000/svg" xmlns:xlink="http://www.w3.org/1999/xlink" x="0px" y="0px"
	 viewBox="0 0 568 568" style="enable-background:new 0 0 568 568;" xml:space="preserve">
<style type="text/css">
	.st0{display:none;fill:#808080;}
	.st1{fill:#FFFFFF;}
	.st2{fill:#FBC93B;}
	.st3{fill:url(#SVGID_1_);}
	.st4{fill:none;stroke:#1A1A1A;stroke-width:18;stroke-miterlimit:10;}
</style>
<rect x="-14" y="-9" class="st0" width="591" height="592"/>
<g>
	<path class="st1" d="M229.1,480.8h-140c-5.5,0-10-4.5-10-10V274c0-5.5,4.5-10,10-10h140c5.5,0,10,4.5,10,10v196.8
		C239.1,476.4,234.7,480.8,229.1,480.8z"/>
	<path class="st2" d="M485.1,480.8h-140c-5.5,0-10-4.5-10-10V76c0-5.5,4.5-10,10-10h140c5.5,0,10,4.5,10,10v394.8
		C495.1,476.4,490.7,480.8,485.1,480.8z"/>
	<path class="st1" d="M561.3,548.4H6.7c-2.8,0-5-2.2-5-5v-26.8c0-2.8,2.2-5,5-5h554.7c2.8,0,5,2.2,5,5v26.8
		C566.3,546.1,564.1,548.4,561.3,548.4z"/>
</g>
<radialGradient id="SVGID_1_" cx="284.5" cy="178" r="204.0934" gradientTransform="matrix(6.123234e-17 -0.8155 4 1.997482e-16 -427.5 410.0194)" gradientUnits="userSpaceOnUse">
	<stop  offset="0" style="stop-color:#FF0645;stop-opacity:0.8"/>
	<stop  offset="7.400185e-02" style="stop-color:#FF3468;stop-opacity:0.8"/>
	<stop  offset="0.1612" style="stop-color:#FF638B;stop-opacity:0.8"/>
	<stop  offset="0.2537" style="stop-color:#FF8DAA;stop-opacity:0.8"/>
	<stop  offset="0.3502" style="stop-color:#FFB0C4;stop-opacity:0.8"/>
	<stop  offset="0.4515" style="stop-color:#FFCDDA;stop-opacity:0.8"/>
	<stop  offset="0.5593" style="stop-color:#FFE3EA;stop-opacity:0.8"/>
	<stop  offset="0.6769" style="stop-color:#FFF3F6;stop-opacity:0.8"/>
	<stop  offset="0.8112" style="stop-color:#FFFCFD;stop-opacity:0.8"/>
	<stop  offset="1" style="stop-color:#FFFFFF;stop-opacity:0.8"/>
</radialGradient>
<path class="st3" d="M553.7,220H15.3c-8.2,0-14.8-6.6-14.8-14.8v-54.5c0-8.2,6.6-14.8,14.8-14.8h538.5c8.2,0,14.8,6.6,14.8,14.8
	v54.5C568.5,213.4,561.9,220,553.7,220z"/>
<line class="st4" x1="0.5" y1="175.5" x2="568.5" y2="173.5"/>
</svg>
