<?xml version="1.0" encoding="utf-8"?>
<!-- Generator: Adobe Illustrator 22.0.1, SVG Export Plug-In . SVG Version: 6.00 Build 0)  -->
<svg version="1.1" xmlns="http://www.w3.org/2000/svg" xmlns:xlink="http://www.w3.org/1999/xlink" x="0px" y="0px"
	 viewBox="0 0 80 80" style="enable-background:new 0 0 80 80;" xml:space="preserve">
<style type="text/css">
	.st0{display:none;}
	.st1{display:inline;}
	.st2{fill:#00A5CB;}
	.st3{fill:#FFFFFF;}
	.st4{fill:#0290B1;}
	.st5{fill:#00A5CB;stroke:#FFFFFF;}
	.st6{fill:none;stroke:#FFFFFF;stroke-width:3.5;stroke-linecap:round;}
</style>
<g id="Capa_2" class="st0">
	<rect class="st1" width="80" height="80"/>
</g>
<g id="Capa_4">
	<circle class="st2" cx="40" cy="40" r="39"/>
	<g>
		<path class="st3" d="M19.5,29.8c-2.8,0-5-2.2-5-5v-0.3c0-2.8,2.2-5,5-5h34c2.8,0,5,2.2,5,5v0.3c0,2.8-2.2,5-5,5H19.5z"/>
		<path class="st3" d="M53.5,20c2.5,0,4.5,2,4.5,4.5v0.3c0,2.5-2,4.5-4.5,4.5h-34c-2.5,0-4.5-2-4.5-4.5v-0.3c0-2.5,2-4.5,4.5-4.5
			H53.5 M53.5,19h-34c-3,0-5.5,2.5-5.5,5.5v0.3c0,3,2.5,5.5,5.5,5.5h34c3,0,5.5-2.5,5.5-5.5v-0.3C59,21.5,56.5,19,53.5,19L53.5,19z"
			/>
	</g>
	<g>
		<path class="st3" d="M19.5,44.8c-2.8,0-5-2.2-5-5v-0.3c0-2.8,2.2-5,5-5h34c2.8,0,5,2.2,5,5v0.3c0,2.8-2.2,5-5,5H19.5z"/>
		<path class="st3" d="M53.5,35c2.5,0,4.5,2,4.5,4.5v0.3c0,2.5-2,4.5-4.5,4.5h-34c-2.5,0-4.5-2-4.5-4.5v-0.3c0-2.5,2-4.5,4.5-4.5
			H53.5 M53.5,34h-34c-3,0-5.5,2.5-5.5,5.5v0.3c0,3,2.5,5.5,5.5,5.5h34c3,0,5.5-2.5,5.5-5.5v-0.3C59,36.5,56.5,34,53.5,34L53.5,34z"
			/>
	</g>
	<path class="st4" d="M79,40c0,21.5-17.5,39-39,39V1C61.5,1,79,18.5,79,40z"/>
	<g>
		<path class="st3" d="M19.5,59.8c-2.8,0-5-2.2-5-5v-0.3c0-2.8,2.2-5,5-5h34c2.8,0,5,2.2,5,5v0.3c0,2.8-2.2,5-5,5H19.5z"/>
		<path class="st3" d="M53.5,50c2.5,0,4.5,2,4.5,4.5v0.3c0,2.5-2,4.5-4.5,4.5h-34c-2.5,0-4.5-2-4.5-4.5v-0.3c0-2.5,2-4.5,4.5-4.5
			H53.5 M53.5,49h-34c-3,0-5.5,2.5-5.5,5.5v0.3c0,3,2.5,5.5,5.5,5.5h34c3,0,5.5-2.5,5.5-5.5v-0.3C59,51.5,56.5,49,53.5,49L53.5,49z"
			/>
	</g>
	<g>
		<circle class="st3" cx="45.5" cy="32.5" r="12.5"/>
		<path class="st2" d="M45.5,22C51.3,22,56,26.7,56,32.5S51.3,43,45.5,43S35,38.3,35,32.5S39.7,22,45.5,22 M45.5,18
			c-8,0-14.5,6.5-14.5,14.5S37.5,47,45.5,47S60,40.5,60,32.5S53.5,18,45.5,18L45.5,18z"/>
	</g>
	<circle class="st5" cx="45.5" cy="32.5" r="7.5"/>
	<g>
		<line class="st6" x1="53" y1="39" x2="67" y2="51"/>
	</g>
</g>
</svg>
