<?xml version="1.0" encoding="utf-8"?>
<!-- Generator: Adobe Illustrator 22.0.1, SVG Export Plug-In . SVG Version: 6.00 Build 0)  -->
<svg version="1.1" id="Capa_1" xmlns="http://www.w3.org/2000/svg" xmlns:xlink="http://www.w3.org/1999/xlink" x="0px" y="0px"
	 viewBox="0 0 50 40" style="enable-background:new 0 0 50 40;" xml:space="preserve">
<style type="text/css">
	.st0{fill:#37BEFF;}
	.st1{fill:#FFFFFF;}
	.st2{fill:#37BEFF;stroke:#00A6D6;stroke-miterlimit:10;}
	.st3{fill:#FFFFFF;stroke:#00A1D1;stroke-miterlimit:10;}
</style>
<title>Page 1</title>
<desc>Created with Sketch.</desc>
<g id="Pages">
	<g id="_x30_3---Fiche-de-bien" transform="translate(-306.000000, -1280.000000)">
		<g id="Section-2---Content" transform="translate(0.000000, 271.000000)">
			<g id="Icons-description" transform="translate(95.000000, 980.000000)">
				<g id="chambres" transform="translate(193.000000, 29.000000)">
					<path id="Page-1" class="st0" d="M20.9,37.4h44.2v-6.5H20.9V37.4z M27.2,16.8l-5.6,11.3h43l-5.9-11.3h-0.1h-0.1
						c-0.1,0-0.3,0-0.4,0c-0.1,0-0.3,0-0.4,0H28.2c-0.2,0-0.3,0-0.4,0.1c-0.1,0-0.2,0-0.4,0c0,0-0.1,0-0.1,0.1
						C27.3,16.8,27.2,16.8,27.2,16.8z M30.6,14h8.9V9.6h-8.9V14z M45.5,14h9.4V9.6h-9.4V14z M28.2,2.6c-0.3,0-0.5,0.1-0.6,0.2
						S27.5,3,27.5,3v11c0,0,0,0.1,0.1,0.1s0.2,0,0.3,0c0.1,0,0.2,0,0.4,0H28V8.8c0-0.6,0.3-1,0.8-1.3c0.4-0.3,1-0.5,1.6-0.5h10.2
						c0.6,0,1,0.2,1.2,0.5s0.4,0.8,0.4,1.3V14H43V8.8c0-0.6,0.3-1,0.8-1.3c0.4-0.3,1-0.5,1.5-0.5h10.2c0.6,0,1.1,0.2,1.5,0.5
						s0.6,0.8,0.6,1.3V14h0.2H58h0.2h-0.1V3c0,0,0-0.1,0-0.2c0-0.1-0.1-0.2-0.4-0.2H28.2z M67.8,29.1c0.1,0.1,0.1,0.3,0.2,0.6
						c0,0.3,0.1,0.4,0.1,0.5v8c0,0.5-0.1,1-0.4,1.3C67.4,39.9,67,40,66.4,40H20.1c-0.6,0-1.1-0.2-1.5-0.5c-0.4-0.4-0.6-0.8-0.6-1.3
						v-8c0-0.1,0-0.2,0.1-0.5c0-0.2,0.1-0.4,0.2-0.6l6.5-13.4v-0.1c0-0.1-0.1-0.1-0.1-0.2c0-0.1-0.1-0.1-0.1-0.2V3
						c0-0.8,0.4-1.6,1.1-2.1C26.4,0.3,27.2,0,28.2,0h29.5c1,0,1.8,0.3,2.4,0.9C60.7,1.5,61,2.2,61,3v12.8L67.8,29.1z"/>
				</g>
			</g>
		</g>
	</g>
</g>
<path class="st0" d="M40.6,14.4H9c-0.1,0-0.2-0.1-0.2-0.2V2.4c0-0.1,0.1-0.2,0.2-0.2h31.6c0.1,0,0.2,0.1,0.2,0.2v11.8
	C40.8,14.3,40.7,14.4,40.6,14.4z"/>
<g>
	<path class="st1" d="M8.7,17C7,20.7,5.1,24.3,3.4,27.9c-0.1,0.3,0.1,0.6,0.3,0.6h42.7c0.3,0,0.5-0.3,0.3-0.6L41.1,17
		c-0.1-0.1-0.2-0.1-0.3-0.2c-10.6,0-21.1-0.2-31.7,0C8.9,16.8,8.7,16.9,8.7,17z"/>
</g>
<g>
	<rect x="2.9" y="30.9" class="st2" width="44.2" height="6.6"/>
</g>
<path class="st0" d="M3.4,9.8"/>
<path class="st1" d="M55.8,14.6"/>
<path class="st3" d="M22,15.3H11.8c-0.8,0-1.4-0.6-1.4-1.4V9c0-0.8,0.6-1.4,1.4-1.4H22c0.8,0,1.4,0.6,1.4,1.4v5
	C23.4,14.7,22.7,15.3,22,15.3z"/>
<path class="st3" d="M38.4,15.3H28.3c-0.8,0-1.4-0.6-1.4-1.4V9c0-0.8,0.6-1.4,1.4-1.4h10.1c0.8,0,1.4,0.6,1.4,1.4v5
	C39.8,14.7,39.2,15.3,38.4,15.3z"/>
</svg>
