<?xml version="1.0" encoding="utf-8"?>
<!-- Generator: Adobe Illustrator 22.0.1, SVG Export Plug-In . SVG Version: 6.00 Build 0)  -->
<svg version="1.1" id="Capa_1" xmlns="http://www.w3.org/2000/svg" xmlns:xlink="http://www.w3.org/1999/xlink" x="0px" y="0px"
	 viewBox="0 0 199 198" style="enable-background:new 0 0 199 198;" xml:space="preserve">
<style type="text/css">
	.st0{display:none;}
	.st1{display:inline;}
	.st2{fill:#D92F29;}
</style>
<g id="Capa_3" class="st0">
	<g class="st1">
		<rect x="0.5" y="0.5" width="198" height="197"/>
		<path d="M198,1v196H1V1H198 M199,0H0v198h199V0L199,0z"/>
	</g>
</g>
<g id="Capa_2_1_">
	<path class="st2" d="M147.5,166.7c-3,2.7-7.9,2.5-11.3-0.7l-36.1-35.9l-38.7,35.3c-3,2.9-8.1,2.5-11.3-0.7L28.3,143
		c-3.2-3.2-3.2-8.1-0.2-10.8l38.5-35.2L30.8,61.4c-3.2-3.2-3.3-7.9-0.4-10.8l20.9-19.4c3-2.7,7.9-2.5,11.3,0.7l36.3,36l38.7-35.3
		c3-2.9,8.1-2.5,11.3,0.7l21.8,21.9c3.2,3.2,3.2,8.1,0.2,10.8l-38.5,35l35.9,35.7c3.2,3.2,3.3,7.9,0.4,10.8L147.5,166.7z"/>
</g>
</svg>
