<?xml version="1.0" encoding="utf-8"?>
<!-- Generator: Adobe Illustrator 24.0.2, SVG Export Plug-In . SVG Version: 6.00 Build 0)  -->
<svg version="1.1" id="Capa_1" xmlns="http://www.w3.org/2000/svg" xmlns:xlink="http://www.w3.org/1999/xlink" x="0px" y="0px"
	 viewBox="0 0 80 80" style="enable-background:new 0 0 80 80;" xml:space="preserve">
<style type="text/css">
	.st0{display:none;}
	.st1{display:inline;}
	.st2{fill:#FFFFFF;}
	.st3{fill:#616164;}
	.st4{fill:none;stroke:#636264;stroke-width:2;stroke-linecap:round;stroke-miterlimit:10;}
	.st5{fill:#E5BF00;}
	.st6{fill:#E5BF00;stroke:#FFFFFF;stroke-width:0.5;stroke-miterlimit:10;}
	.st7{fill:#D92F29;}
</style>
<g id="Capa_2_1_" class="st0">
	<rect class="st1" width="80" height="80"/>
</g>
<g id="Capa_4">
	<g>
		<path class="st2" d="M22.3,76.5c-5.8,0-10.5-4.7-10.5-10.5V14c0-5.8,4.7-10.5,10.5-10.5h37c5.8,0,10.5,4.7,10.5,10.5v52
			c0,5.8-4.7,10.5-10.5,10.5H22.3z"/>
		<path class="st3" d="M59.3,5c5,0,9,4,9,9v52c0,5-4,9-9,9h-37c-5,0-9-4-9-9V14c0-5,4-9,9-9H59.3 M59.3,2h-37c-6.6,0-12,5.4-12,12
			v52c0,6.6,5.4,12,12,12h37c6.6,0,12-5.4,12-12V14C71.3,7.4,65.9,2,59.3,2L59.3,2z"/>
	</g>
	<line class="st4" x1="21.9" y1="39.7" x2="59.7" y2="40"/>
	<path class="st4" d="M21.9,45.7C32.3,45.8,42.6,45.9,53,46"/>
	<line class="st4" x1="50.3" y1="52" x2="22" y2="51.7"/>
	<g>
		<g>
			<polygon class="st5" points="55.6,31.2 52.4,21.1 53.8,14.8 58.9,31.2 			"/>
			<path class="st2" d="M53.8,15.8L58.6,31h-2.8l-3.1-9.9L53.8,15.8 M53.7,13.8l-0.4,1.8L52.2,21v0.1v0.1l3.1,9.9l0.1,0.3h0.4h2.8
				h0.7l-0.2-0.6l-4.8-15.2L53.7,13.8L53.7,13.8z"/>
		</g>
		<path class="st6" d="M45.9,12V8.5h-4.4V12h-10h-0.3h-3.9l-5.9,19h3.8l0,0c7.4,0,14.7,0,22.1,0l1.5-5l0,0l4.4-14H45.9z"/>
	</g>
	<line class="st4" x1="52.5" y1="58" x2="22" y2="57.7"/>
	<line class="st4" x1="50.3" y1="64" x2="22" y2="63.7"/>
</g>
<path class="st7" d="M74.4,78.1c-0.7,0.7-1.8,0.6-2.6-0.2l-8.3-8.7l-8.8,8.4c-0.7,0.7-1.9,0.6-2.6-0.2l-5-5.2
	c-0.8-0.8-0.8-1.9-0.1-2.6l8.8-8.4l-8.3-8.6c-0.8-0.8-0.8-1.9-0.1-2.6l4.8-4.6c0.7-0.7,1.8-0.6,2.6,0.2l8.3,8.7l8.8-8.4
	c0.7-0.7,1.9-0.6,2.6,0.2l5,5.2c0.8,0.8,0.8,1.9,0.1,2.6l-8.8,8.4l8.3,8.6c0.8,0.8,0.8,1.9,0.1,2.6L74.4,78.1z"/>
</svg>
