<?xml version="1.0" encoding="utf-8"?>
<!-- Generator: Adobe Illustrator 22.0.1, SVG Export Plug-In . SVG Version: 6.00 Build 0)  -->
<svg version="1.1" id="Capa_1" xmlns="http://www.w3.org/2000/svg" xmlns:xlink="http://www.w3.org/1999/xlink" x="0px" y="0px"
	 viewBox="0 0 568 568" style="enable-background:new 0 0 568 568;" xml:space="preserve">
<style type="text/css">
	.st0{display:none;fill:#808080;}
	.st1{fill:#FFFFFF;}
	.st2{fill:#FBC93B;}
	.st3{fill:#FF424F;}
	.st4{fill:none;stroke:#333333;stroke-width:17;stroke-miterlimit:10;}
	.st5{fill:none;stroke:#333333;stroke-width:17;stroke-linecap:round;stroke-miterlimit:10;}
</style>
<rect x="-14" y="-9" class="st0" width="591" height="592"/>
<g>
	<path class="st1" d="M165.5,374.8h-110c-5.5,0-10-4.5-10-10V149c0-5.5,4.5-10,10-10h110c5.5,0,10,4.5,10,10v215.8
		C175.5,370.4,171.1,374.8,165.5,374.8z"/>
	<path class="st2" d="M352.5,429h-110c-5.5,0-10-4.5-10-10V256.8c0-5.5,4.5-10,10-10h110c5.5,0,10,4.5,10,10V419
		C362.5,424.5,358.1,429,352.5,429z"/>
	<path class="st1" d="M12.1,531.9h554.7c2.8,0,5,2.2,5,5v26.8c0,2.8-2.2,5-5,5H12.1c-2.8,0-5-2.2-5-5v-26.8
		C7.1,534.2,9.3,531.9,12.1,531.9z"/>
	<path class="st3" d="M520.5,242.3h-110c-5.5,0-10-4.5-10-10V129.4c0-5.5,4.5-10,10-10h110c5.5,0,10,4.5,10,10v102.8
		C530.5,237.8,526.1,242.3,520.5,242.3z"/>
	<g>
		<line class="st4" x1="111.5" y1="25" x2="111.5" y2="138"/>
		<line class="st5" x1="84.5" y1="25" x2="138.5" y2="25"/>
	</g>
	<g>
		<line class="st4" x1="297.5" y1="138" x2="297.5" y2="246"/>
		<line class="st5" x1="270.5" y1="138" x2="324.5" y2="138"/>
	</g>
	<g>
		<line class="st4" x1="465.5" y1="70" x2="465.5" y2="119"/>
		<line class="st5" x1="438.5" y1="70" x2="492.5" y2="70"/>
	</g>
	<g>
		<line class="st4" x1="111.5" y1="430" x2="111.5" y2="376"/>
		<line class="st5" x1="138.5" y1="430" x2="84.5" y2="430"/>
	</g>
	<g>
		<line class="st4" x1="297.5" y1="507" x2="297.5" y2="430"/>
		<line class="st5" x1="324.5" y1="507" x2="270.5" y2="507"/>
	</g>
	<g>
		<line class="st4" x1="465.5" y1="312" x2="465.5" y2="242"/>
		<line class="st5" x1="492.5" y1="312" x2="438.5" y2="312"/>
	</g>
</g>
</svg>
