<?xml version="1.0" encoding="utf-8"?>
<!-- Generator: Adobe Illustrator 22.0.1, SVG Export Plug-In . SVG Version: 6.00 Build 0)  -->
<svg version="1.1" id="Capa_1" xmlns="http://www.w3.org/2000/svg" xmlns:xlink="http://www.w3.org/1999/xlink" x="0px" y="0px"
	 viewBox="0 0 981.2 764.9" style="enable-background:new 0 0 981.2 764.9;" xml:space="preserve">
<style type="text/css">
	.st0{fill:#323232;}
	.st1{fill:#154F68;}
	.st2{fill:#1F2020;}
	.st3{fill:#CD8E00;}
	.st4{fill:#FFFFFF;}
	.st5{fill:#2C2C2C;}
</style>
<path class="st0" d="M139.5,736h-15c-6.6,0-12-5.4-12-12V275.5c0-6.6,5.4-12,12-12h15c6.6,0,12,5.4,12,12V724
	C151.5,730.6,146.1,736,139.5,736z"/>
<path class="st0" d="M216.6,752.5H43c-6.7,0-12.2-5.5-12.2-12.2v-16.2c0-6.7,5.5-12.2,12.2-12.2h173.7c6.7,0,12.2,5.5,12.2,12.2
	v16.2C228.8,747,223.3,752.5,216.6,752.5z"/>
<path class="st1" d="M199,401H65.1c-15.6,0-28.3-12.7-28.3-28.3V156.3c0-15.6,12.7-28.3,28.3-28.3H199c15.6,0,28.3,12.7,28.3,28.3
	v216.4C227.3,388.3,214.5,401,199,401z"/>
<path class="st2" d="M826.2,742.9h-86c-6,0-11-5-11-11v-67c0-6,5-11,11-11h86c6,0,11,5,11,11v67
	C837.2,737.9,832.2,742.9,826.2,742.9z"/>
<path class="st2" d="M491.2,742.9h-86c-6.1,0-11-5-11-11v-67c0-6,4.9-11,11-11h86c6,0,11,5,11,11v67
	C502.2,737.9,497.2,742.9,491.2,742.9z"/>
<path class="st3" d="M822,676H408c-43.3,0-78.7-35.4-78.7-78.7V127.7c0-43.3,35.4-78.7,78.7-78.7h414c43.3,0,78.7,35.4,78.7,78.7
	v469.5C900.7,640.5,865.3,676,822,676z"/>
<path class="st4" d="M474.9,471.6c-74-8.7-95.9-8.5-97.6-23.6c-8.9-80.2-1.5-164.6-1.5-245.2c0-26.8,21.9-48.7,48.7-48.7H804
	c26.8,0,48.7,21.9,48.7,48.7c-0.5,81.2-1,162.5-1.5,243.7c-0.1,12.2-19.8,12.5-54.3,20.2C723.1,483,635.9,490.4,474.9,471.6z"/>
<path class="st4" d="M709.4,133H520.9c-11.2,0-20.4-9.2-20.4-20.4v-8.7c0-11.2,9.2-20.4,20.4-20.4h188.5c11.2,0,20.4,9.2,20.4,20.4
	v8.7C729.8,123.8,720.7,133,709.4,133z"/>
<path class="st4" d="M837.8,535.1c2.8,1.4,6.9,3.8,10.7,8c8.7,9.7,12.2,24.6,9.8,37.4c-3.2,16.6-16.1,23.1-31.3,27.1
	c-17.5,4.6-35.3,7.8-53.3,9.7c-13.5,1.4-32.9,5-43.6-6c-8-8.2-4.9-20.5-1.5-30.1C742.9,539.7,806.3,519.5,837.8,535.1z"/>
<path class="st4" d="M392.5,535.1c-2.8,1.4-6.9,3.8-10.7,8c-8.7,9.7-12.2,24.6-9.8,37.4c3.2,16.6,16.1,23.1,31.3,27.1
	c17.5,4.6,35.3,7.8,53.3,9.7c13.5,1.4,32.9,5,43.6-6c8-8.2,4.9-20.5,1.5-30.1C487.4,539.7,424.1,519.5,392.5,535.1z"/>
<path class="st5" d="M305.2,355.4H278c-12.6,0-22.8-10.3-22.8-22.8V232.2c0-12.6,10.3-22.8,22.8-22.8h27.2V355.4z"/>
<path class="st5" d="M925.2,355.4h27.2c12.6,0,22.8-10.3,22.8-22.8V232.2c0-12.6-10.3-22.8-22.8-22.8h-27.2V355.4z"/>
<g>
	<path class="st4" d="M101.8,203.9c8.1-1.4,18.7-2.5,32.2-2.5c16.6,0,28.8,3.9,36.5,10.8c7.1,6.2,11.4,15.6,11.4,27.2
		c0,11.8-3.5,21-10,27.8c-8.9,9.5-23.4,14.3-39.8,14.3c-5,0-9.6-0.2-13.5-1.2v52.1h-16.8V203.9z M118.6,266.6
		c3.7,1,8.3,1.4,13.9,1.4c20.3,0,32.6-9.8,32.6-27.8c0-17.2-12.2-25.5-30.7-25.5c-7.3,0-12.9,0.6-15.8,1.4V266.6z"/>
</g>
</svg>
