<?xml version="1.0" encoding="utf-8"?>
<!-- Generator: Adobe Illustrator 22.0.1, SVG Export Plug-In . SVG Version: 6.00 Build 0)  -->
<svg version="1.1" xmlns="http://www.w3.org/2000/svg" xmlns:xlink="http://www.w3.org/1999/xlink" x="0px" y="0px"
	 viewBox="0 0 80 80" style="enable-background:new 0 0 80 80;" xml:space="preserve">
<style type="text/css">
	.st0{display:none;}
	.st1{display:inline;}
	.st2{fill:#FFA500;}
	.st3{opacity:0.61;fill:#FF8C00;}
	.st4{fill:#FFFFFF;}
	.st5{fill:none;stroke:#00A5CB;stroke-width:8;stroke-linecap:round;}
	.st6{fill-rule:evenodd;clip-rule:evenodd;fill:#FFFFFF;}
	.st7{fill:#00A5CB;}
	.st8{fill:none;stroke:#00A5CB;stroke-width:4;}
	.st9{opacity:0.23;fill:#00A5CB;stroke:#FFFFFF;}
	.st10{fill:#00A99D;}
	.st11{fill:#22B573;}
</style>
<g id="Capa_2" class="st0">
	<rect class="st1" width="80" height="80"/>
</g>
<g id="Capa_4">
	<g>
		<path class="st2" d="M5.8,29.2c0.5-0.7,1-1.3,1.5-1.7c10.7-8.6,21.3-17.3,32-25.9C39.7,1.3,40.1,1,40.6,1c0.4,0,0.7,0.3,1,0.5
			C52.4,10.3,63.2,19,74.1,27.7c0.6,0.5,1.2,1,1.4,1.7c0.3,0.9,0.7,2,0.5,3c-0.2,1.1-1,2.1-1.7,2.8c-0.1,0.1-0.2,0.2-0.4,0.3
			c-0.2,0.1-0.4-0.1-0.6-0.2c-2.2-1.7-4.3-3.6-6.5-5.3c-2.6-2.1-5.3-4.1-7.9-6.1c-5.2-4-10.5-8-15.6-12.2c-0.2-0.2-2.8-2.4-2.8-2.3
			C31,17.3,21,24.4,11.4,32.2c-1.1,0.9-2.3,1.9-3.4,2.8c-0.2,0.2-0.4,0.3-0.6,0.4c-0.3,0.1-0.6-0.1-0.9-0.3
			c-0.7-0.6-1.2-1.7-1.5-2.6C4.7,31.4,5.2,30.2,5.8,29.2z"/>
		<path class="st2" d="M63.9,20.3l-9.7-1.7V4.6c0-1,0.7-1.7,1.6-1.7h6.5c0.9,0,1.6,0.8,1.6,1.7V20.3z"/>
		<path class="st2" d="M40.5,13.7L15.2,33.3v23.9c0,1.2,0.9,2.2,1.9,2.2h17.5V42h11.7v17.4h15.6c2.1,0,3.9-2,3.9-4.3V33.3L40.5,13.7
			z"/>
		<path class="st3" d="M75.5,29.4c-0.2-0.7-0.8-1.2-1.4-1.7c-3.4-2.7-6.8-5.5-10.2-8.2V4.6c0-1-0.7-1.7-1.6-1.7h-6.5
			c-0.9,0-1.6,0.8-1.6,1.7v7.1c-4.2-3.4-8.4-6.8-12.6-10.2c-0.3-0.2-0.6-0.5-1-0.5h-0.1v8.4c0.4,0.3,2.6,2.1,2.8,2.3
			c5.1,4.2,10.4,8.2,15.6,12.2c2.6,2,5.3,4.1,7.9,6.1c2.2,1.7,4.3,3.6,6.5,5.3c0.2,0.2,0.4,0.3,0.6,0.2c0.1,0,0.3-0.2,0.4-0.3
			c0.7-0.8,1.5-1.8,1.7-2.8C76.1,31.5,75.7,30.3,75.5,29.4z"/>
		<path class="st3" d="M40.5,13.7v19.6V42h5.8v17.4h15.6c2.1,0,3.9-2,3.9-4.3V33.3L40.5,13.7z"/>
		<ellipse class="st4" cx="43.9" cy="51.5" rx="0.9" ry="1"/>
	</g>
	<g>
		<g>
			<line class="st5" x1="66" y1="65.1" x2="75.8" y2="75.2"/>
			<line class="st6" x1="66" y1="65.1" x2="75.8" y2="75.2"/>
		</g>
		<g>
			<path d="M51.8,67.2C42,67.2,34,59.3,34,49.6C34,39.9,42,32,51.8,32s17.8,7.9,17.8,17.6C69.6,59.3,61.6,67.2,51.8,67.2z
				 M51.8,34.1c-8.6,0-15.7,7-15.7,15.5s7,15.5,15.7,15.5c8.6,0,15.7-7,15.7-15.5S60.4,34.1,51.8,34.1z"/>
			<path class="st7" d="M51.8,30C40.9,30,32,38.8,32,49.6s8.9,19.6,19.8,19.6s19.8-8.8,19.8-19.6S62.7,30,51.8,30L51.8,30z
				 M51.8,63.1c-7.5,0-13.7-6.1-13.7-13.5c0-7.5,6.1-13.5,13.7-13.5s13.7,6.1,13.7,13.5C65.5,57.1,59.3,63.1,51.8,63.1L51.8,63.1z"
				/>
		</g>
		<g>
			<line class="st8" x1="63.5" y1="62.7" x2="75.8" y2="75.2"/>
		</g>
		<ellipse class="st9" cx="51.8" cy="49.6" rx="13.7" ry="13.5"/>
	</g>
	<g>
		<path class="st10" d="M17,66c-6.9,0-15,3.2-15,6.5c0,3.3,8.1,6.5,15,6.5s15-3.2,15-6.5C32,69.2,23.9,66,17,66z M17,75
			c-5,0-11-1.5-11-3s6-3,11-3s11,1.5,11,3S22,75,17,75z"/>
		<path class="st11" d="M30,49c0-6-4-11-9.5-12.5C19.4,36.2,18.2,36,17,36s-2.4,0.2-3.5,0.5C8,38,4,43,4,49c0,0.2,0,0.4,0,0.6
			c0.1,1.9,0.6,3.8,1.4,5.4H5.3c3.9,6.7,7.8,13.3,11.7,20c3.9-6.7,7.8-13.3,11.7-20h-0.1c0.8-1.6,1.4-3.5,1.4-5.4
			C30,49.4,30,49.2,30,49z M17,53.5c-3,0-5.5-2.5-5.5-5.5c0-3,2.5-5.5,5.5-5.5s5.5,2.5,5.5,5.5C22.5,51,20,53.5,17,53.5z"/>
		<circle class="st4" cx="17" cy="48" r="6"/>
	</g>
</g>
</svg>
