<?xml version="1.0" encoding="utf-8"?>
<!-- Generator: Adobe Illustrator 22.0.1, SVG Export Plug-In . SVG Version: 6.00 Build 0)  -->
<svg version="1.1" xmlns="http://www.w3.org/2000/svg" xmlns:xlink="http://www.w3.org/1999/xlink" x="0px" y="0px"
	 viewBox="0 0 80 80" style="enable-background:new 0 0 80 80;" xml:space="preserve">
<style type="text/css">
	.st0{display:none;}
	.st1{display:inline;}
	.st2{fill:#FFA500;}
	.st3{opacity:0.61;fill:#FF8C00;}
	.st4{fill:#FFFFFF;}
	.st5{fill:#999999;}
	.st6{fill:none;stroke:#00A5CB;stroke-width:8;stroke-linecap:round;}
	.st7{fill-rule:evenodd;clip-rule:evenodd;fill:#FFFFFF;}
	.st8{fill:#00A5CB;}
	.st9{fill:none;stroke:#00A5CB;stroke-width:4;}
	.st10{opacity:0.23;fill:#00A5CB;stroke:#FFFFFF;}
</style>
<g id="Capa_2" class="st0">
	<rect class="st1" width="80" height="80"/>
</g>
<g id="Capa_4">
	<g>
		<path class="st2" d="M5.8,29.2c0.5-0.7,1-1.3,1.5-1.7c10.7-8.6,21.3-17.3,32-25.9C39.7,1.3,40.1,1,40.6,1c0.4,0,0.7,0.3,1,0.5
			C52.4,10.3,63.2,19,74.1,27.7c0.6,0.5,1.2,1,1.4,1.7c0.3,0.9,0.7,2,0.5,3c-0.2,1.1-1,2.1-1.7,2.8c-0.1,0.1-0.2,0.2-0.4,0.3
			c-0.2,0.1-0.4-0.1-0.6-0.2c-2.2-1.7-4.3-3.6-6.5-5.3c-2.6-2.1-5.3-4.1-7.9-6.1c-5.2-4-10.5-8-15.6-12.2c-0.2-0.2-2.8-2.4-2.8-2.3
			C31,17.3,21,24.4,11.4,32.2c-1.1,0.9-2.3,1.9-3.4,2.8c-0.2,0.2-0.4,0.3-0.6,0.4c-0.3,0.1-0.6-0.1-0.9-0.3
			c-0.7-0.6-1.2-1.7-1.5-2.6C4.7,31.4,5.2,30.2,5.8,29.2z"/>
		<path class="st2" d="M63.9,20.3l-9.7-1.7V4.6c0-1,0.7-1.7,1.6-1.7h6.5c0.9,0,1.6,0.8,1.6,1.7V20.3z"/>
		<path class="st2" d="M40.5,13.7L15.2,33.3v23.9c0,1.2,0.9,2.2,1.9,2.2h17.5V42h11.7v17.4h15.6c2.1,0,3.9-2,3.9-4.3V33.3L40.5,13.7
			z"/>
		<path class="st3" d="M75.5,29.4c-0.2-0.7-0.8-1.2-1.4-1.7c-3.4-2.7-6.8-5.5-10.2-8.2V4.6c0-1-0.7-1.7-1.6-1.7h-6.5
			c-0.9,0-1.6,0.8-1.6,1.7v7.1c-4.2-3.4-8.4-6.8-12.6-10.2c-0.3-0.2-0.6-0.5-1-0.5h-0.1v8.4c0.4,0.3,2.6,2.1,2.8,2.3
			c5.1,4.2,10.4,8.2,15.6,12.2c2.6,2,5.3,4.1,7.9,6.1c2.2,1.7,4.3,3.6,6.5,5.3c0.2,0.2,0.4,0.3,0.6,0.2c0.1,0,0.3-0.2,0.4-0.3
			c0.7-0.8,1.5-1.8,1.7-2.8C76.1,31.5,75.7,30.3,75.5,29.4z"/>
		<path class="st3" d="M40.5,13.7v19.6V42h5.8v17.4h15.6c2.1,0,3.9-2,3.9-4.3V33.3L40.5,13.7z"/>
		<ellipse class="st4" cx="43.9" cy="51.5" rx="0.9" ry="1"/>
	</g>
	<g>
		<title>Layer 1</title>
		<g id="svg_1">
			<g id="a">
				<path class="st5" d="M16,79.5l-0.7-4L15,75.4c-1.1-0.3-2.1-0.7-3.2-1.3L11.5,74l-3.5,2.4l-4.3-4.2l2.5-3.4l-0.2-0.3
					c-0.6-1.2-1-2.1-1.3-3.1l-0.1-0.3l-4.2-0.7v-5.9L4.7,58l0.1-0.3c0.3-1,0.7-2,1.3-3.1l0.2-0.3l-2.5-3.3l4.4-4.2l3.4,2.3l0.3-0.1
					c0.9-0.4,1.9-0.9,3.1-1.3l0.3-0.1l0.7-4.1h6.1l0.7,4l0.3,0.1c1,0.3,2.1,0.7,3.1,1.3l0.3,0.1l3.5-2.3l4.3,4.3l-2.5,3.3l0.2,0.3
					c0.6,0.9,1,2,1.3,3l0.1,0.3l4.2,0.7v5.9l-4.1,0.6l-0.1,0.3c-0.3,1.2-0.8,2.2-1.3,3.1l-0.2,0.3l2.5,3.4L30,76.3l-3.5-2.4
					l-0.3,0.1c-1.1,0.6-2.1,1-3.1,1.3l-0.3,0.1l-0.7,4.1H16z M19,53.9c-4.3,0-7.8,3.4-7.8,7.6s3.5,7.6,7.8,7.6h0.5v0
					c4.1-0.3,7.3-3.6,7.3-7.6C26.8,57.3,23.3,53.9,19,53.9z"/>
				<path class="st4" d="M21.6,44l0.6,3.3l0.1,0.6l0.6,0.2c1,0.3,2,0.7,3.1,1.2l0.5,0.3l0.5-0.3l2.9-1.9l3.7,3.7l-2,2.7l-0.4,0.5
					l0.3,0.6c0.5,0.9,1,1.9,1.2,2.9l0.2,0.6l0.6,0.1L37,59v5.1l-3.3,0.5L33,64.7l-0.2,0.6c-0.3,1.1-0.8,2.1-1.3,2.9l-0.3,0.6
					l0.4,0.5l2,2.8L30,75.7l-2.9-2l-0.5-0.3l-0.5,0.3c-1,0.5-2.1,1-3.1,1.2L22.4,75l-0.1,0.6L21.7,79h-5.3l-0.6-3.3l-0.1-0.6
					l-0.6-0.2c-1-0.3-2-0.7-3.1-1.2l-0.5-0.3L11,73.8l-2.9,2l-3.7-3.6l2-2.8l0.4-0.5l-0.3-0.6c-0.6-1.1-1-2-1.3-2.9l-0.2-0.6
					l-0.6-0.1L1,64.1V59l3.4-0.5l0.6-0.1l0.2-0.6c0.3-1,0.7-2,1.3-3l0.3-0.6l-0.4-0.5l-2-2.7l3.8-3.6l2.8,1.9l0.5,0.3l0.5-0.3
					c0.8-0.4,1.8-0.9,3-1.2l0.6-0.2l0.1-0.6l0.6-3.3H21.6 M19,69.7l1,0v-0.1c4.1-0.5,7.3-3.9,7.3-8c0-4.5-3.7-8.1-8.3-8.1
					s-8.3,3.6-8.3,8.1C10.7,66,14.4,69.7,19,69.7 M22.5,43h-7l-0.7,4.2c-1.2,0.3-2.2,0.8-3.2,1.3l-3.5-2.4l-5,4.8l2.5,3.4
					c-0.5,1-1,2.1-1.3,3.2L0,58.1v6.8l4.3,0.7c0.3,1.2,0.8,2.2,1.3,3.2l-2.5,3.5L8,77.1l3.6-2.5c1,0.5,2.1,1,3.3,1.3l0.7,4.1h7
					l0.7-4.2c1.1-0.3,2.2-0.8,3.2-1.3l3.6,2.5l4.9-4.8l-2.5-3.5c0.6-1,1-2,1.3-3.2l4.2-0.6v0v-6.8l-4.3-0.7
					c-0.3-1.2-0.8-2.2-1.3-3.2l2.5-3.4L30,46l-3.6,2.4c-1-0.5-2.1-1-3.2-1.3L22.5,43L22.5,43z M19,68.7c-4,0-7.3-3.2-7.3-7.1
					s3.3-7.1,7.3-7.1s7.3,3.2,7.3,7.1C26.3,65.5,23,68.6,19,68.7L19,68.7L19,68.7z"/>
			</g>
		</g>
	</g>
	<g>
		<g>
			<line class="st6" x1="66" y1="65.1" x2="75.8" y2="75.2"/>
			<line class="st7" x1="66" y1="65.1" x2="75.8" y2="75.2"/>
		</g>
		<g>
			<path d="M51.8,67.2C42,67.2,34,59.3,34,49.6C34,39.9,42,32,51.8,32s17.8,7.9,17.8,17.6C69.6,59.3,61.6,67.2,51.8,67.2z
				 M51.8,34.1c-8.6,0-15.7,7-15.7,15.5s7,15.5,15.7,15.5c8.6,0,15.7-7,15.7-15.5S60.4,34.1,51.8,34.1z"/>
			<path class="st8" d="M51.8,30C40.9,30,32,38.8,32,49.6s8.9,19.6,19.8,19.6s19.8-8.8,19.8-19.6S62.7,30,51.8,30L51.8,30z
				 M51.8,63.1c-7.5,0-13.7-6.1-13.7-13.5c0-7.5,6.1-13.5,13.7-13.5s13.7,6.1,13.7,13.5C65.5,57.1,59.3,63.1,51.8,63.1L51.8,63.1z"
				/>
		</g>
		<g>
			<line class="st9" x1="63.5" y1="62.7" x2="75.8" y2="75.2"/>
		</g>
		<ellipse class="st10" cx="51.8" cy="49.6" rx="13.7" ry="13.5"/>
	</g>
</g>
</svg>
