<?xml version="1.0" encoding="utf-8"?>
<!-- Generator: Adobe Illustrator 22.0.1, SVG Export Plug-In . SVG Version: 6.00 Build 0)  -->
<svg version="1.1" xmlns="http://www.w3.org/2000/svg" xmlns:xlink="http://www.w3.org/1999/xlink" x="0px" y="0px"
	 viewBox="0 0 80 80" style="enable-background:new 0 0 80 80;" xml:space="preserve">
<style type="text/css">
	.st0{display:none;}
	.st1{display:inline;}
	.st2{fill:none;stroke:#FFFFFF;stroke-width:5;stroke-miterlimit:10;}
	.st3{fill:#FFFFFF;stroke:#FFFFFF;stroke-width:3;stroke-miterlimit:10;}
	.st4{fill:#F1F10F;}
	.st5{opacity:0.61;fill:#F1C40F;}
	.st6{display:none;fill:#F1C40F;stroke:#FFFFFF;stroke-linecap:round;stroke-miterlimit:10;}
</style>
<g id="Capa_2" class="st0">
	<rect class="st1" width="80" height="80"/>
</g>
<g id="Capa_1">
	<path class="st2" d="M62.5,37.3c-0.9,5.2-1.2,10.7-2.7,15.8c-1.2,3.9-4.5,5.7-8.4,5.8c-7.3,0.2-14.7,0-22-0.1
		c-2.9,0-6.1-1.1-7.7-3.6c-3.1-5-2.7-10.8-3-16.4C18.4,34,18.8,28.3,16.3,24c-2.2-3.7-7.1-3.1-10.8-2.9"/>
	<circle class="st3" cx="30.5" cy="70.5" r="5"/>
	<circle class="st3" cx="49.5" cy="70.5" r="5"/>
</g>
<g id="Capa_3">
	<path class="st4" d="M50,14c-4.4,0-8,3.6-8,8c0,0.9,0.2,1.8,0.5,2.6c1.1,3.1,4,5.4,7.5,5.4c0.3,0,0.6,0,0.9,0c4-0.5,7.1-3.9,7.1-8
		C58,17.6,54.4,14,50,14z M51,22.5c-1.4,0-2.5-1.1-2.5-2.5s1.1-2.5,2.5-2.5s2.5,1.1,2.5,2.5S52.4,22.5,51,22.5z"/>
	<rect x="43.5" y="23.5" transform="matrix(0.4978 -0.8673 0.8673 0.4978 -1.6175 54.2064)" class="st4" width="5" height="10"/>
	<polygon class="st4" points="48.3,32 39.8,46.8 32.9,42.8 33.9,41 37.5,40.8 35.9,37.6 36.4,36.7 40,36.5 38.4,33.2 38.9,32.4 
		42.5,32.1 40.9,28.9 40.9,28.9 40.9,28.9 40.9,28.9 41.4,28 	"/>
	<polygon class="st4" points="34.4,48.2 32.9,42.8 39.8,46.8 	"/>
	<path class="st5" d="M53.8,15l-1.7,2.8c0.8,0.4,1.4,1.3,1.4,2.3c0,1.4-1.1,2.5-2.5,2.5c-0.5,0-1-0.2-1.4-0.4l-2.5,4.2l-1.4,2.5
		l-0.8,1.3l-0.3,0.5L36.3,45l0,0l-1.9,3.2l0,0.1l5.2-1.4l0.2,0.1l8.2-14.3l1.1,0.6l1.9-3.2c4-0.5,7.1-3.9,7.1-8
		C58.1,19,56.4,16.3,53.8,15z"/>
	<path class="st6" d="M48.1,28.3C48,28,38.7,44.5,38.7,44.5"/>
</g>
<g id="Capa_4">
</g>
</svg>
