<?xml version="1.0" encoding="utf-8"?>
<!-- Generator: Adobe Illustrator 22.0.1, SVG Export Plug-In . SVG Version: 6.00 Build 0)  -->
<svg version="1.1" id="Capa_1" xmlns="http://www.w3.org/2000/svg" xmlns:xlink="http://www.w3.org/1999/xlink" x="0px" y="0px"
	 viewBox="0 0 1000 1000" style="enable-background:new 0 0 1000 1000;" xml:space="preserve">
<style type="text/css">
	.st0{clip-path:url(#XMLID_3_);fill:#00B849;stroke:#37BEFF;stroke-miterlimit:10;}
	.st1{clip-path:url(#XMLID_3_);fill:#37BEFF;}
	.st2{fill:#FFFFFF;stroke:#009FC6;stroke-width:11;stroke-miterlimit:10;}
	.st3{fill:#FFFFFF;stroke:#009FC6;stroke-width:6;stroke-miterlimit:10;}
	.st4{fill:#FFFFFF;stroke:#009FC6;stroke-width:7;stroke-miterlimit:10;}
</style>
<g>
	<g transform="translate(0.000000,511.000000) scale(0.100000,-0.100000)">
		<g>
			<defs>
				<path id="XMLID_1_" d="M3925,3948.8c-907.8-56.9-1393.4-183.8-1653.7-433.1c-140-135.6-332.5-428.8-509.7-780.9
					c-185.9-365.3-297.5-673.7-437.5-1211.9l-24.1-94.1l-107.2,161.9c-115.9,177.2-249.4,299.7-398.1,367.5
					c-133.4,61.2-459.4,61.2-555.6,2.2c-111.6-67.8-146.6-192.5-137.8-476.9c8.7-258.1,32.8-321.6,144.4-393.7
					c50.3-32.8,124.7-39.4,503.1-45.9c245-4.4,444.1-10.9,444.1-15.3s-48.1-59.1-109.4-120.3C718.1,534.1,503.8,92.2,449.1-397.8
					c-35-332.5,32.8-1314.7,122.5-1747.8c45.9-229.7,153.1-514.1,229.7-621.2c37.2-52.5,107.2-107.2,168.4-137.8l102.8-48.1
					l10.9-339.1c13.1-395.9,35-459.4,181.6-527.2c78.8-35,144.4-41.6,463.8-41.6c317.2,0,385,6.6,463.8,41.6
					c146.6,67.8,168.4,122.5,179.4,437.5l6.6,271.2l245-13.1c133.4-8.8,455-26.3,713.1-41.6c608.1-32.8,2716.9-32.8,3325,0
					c258.1,15.3,581.9,32.8,717.5,41.6l245,13.1v-249.4c0-304.1,28.4-378.4,175-450.6c89.7-45.9,126.9-50.3,470.3-50.3
					c317.2,0,385,6.6,463.8,41.6c146.6,67.8,168.4,131.3,181.6,527.2l10.9,339.1l102.8,48.1c126.9,59,192.5,146.5,280,363.1
					c126.9,317.2,192.5,732.8,240.6,1533.4c28.4,455,6.6,732.8-80.9,1006.3c-100.6,321.6-297.5,647.5-553.4,910
					c-61.3,61.2-109.4,115.9-109.4,120.3s199.1,10.9,444.1,15.3c483.4,6.6,516.3,15.3,599.4,142.2c59.1,87.5,70,498.7,17.5,632.2
					c-56.9,148.7-129.1,183.7-371.9,183.7c-310.6-2.2-490-107.2-686.9-406.9l-109.4-166.3l-24.1,94.1
					C8492.6,2211.9,8333,2610,8057.3,3060.6c-220.9,363.1-325.9,483.4-531.6,601.6c-214.4,124.7-570.9,205.6-1159.4,264.7
					C6062.2,3957.5,4321,3972.8,3925,3948.8z M6256.9,3314.4c638.8-63.4,1087.2-172.8,1194.4-286.6
					c80.9-87.5,389.4-717.5,498.8-1017.2c98.4-273.4,229.7-743.7,212.2-770c-4.4-8.8-155.3-4.4-334.7,8.8
					c-1450.3,115.9-2946.5,140-4458.1,72.2c-520.6-21.9-1382.5-78.8-1485.3-96.2c-61.3-10.9-61.3-8.8-45.9,70
					c30.6,170.6,170.6,619.1,264.7,859.7c122.5,306.2,371.9,794.1,448.4,875c100.6,109.4,570.9,223.1,1190,286.6
					C4310,3373.5,5679.4,3373.5,6256.9,3314.4z M2297.5,177.5c253.8-113.8,385-310.6,400.3-595c8.8-157.5,2.2-192.5-50.3-312.8
					c-70-153.1-203.4-288.8-356.6-358.7c-159.7-74.4-413.4-67.8-577.5,13.1C1291.3-868.1,1192.8-305.9,1521,31
					C1726.6,243.1,2026.3,300,2297.5,177.5z M8273.7,175.3C8689.4-12.8,8805.3-566.2,8496.9-914c-48.1-56.9-142.2-126.9-212.2-161.9
					c-164.1-80.9-417.8-87.5-577.5-13.1c-135.6,63.4-280,199.1-345.6,328.1c-80.9,159.7-89.7,422.2-17.5,579.7
					c70,150.9,150.9,245,275.6,317.2C7831.9,260.6,8052.8,273.8,8273.7,175.3z M6543.4-1165.6c161.9-129.1,124.7-273.4-137.8-544.7
					c-210-214.4-129-203.4-1406.5-203.4s-1196.6-10.9-1406.6,203.4c-225.3,231.9-273.4,343.4-203.4,472.5
					c61.3,111.6,26.3,109.4,1620.9,109.4C6388.1-1126.2,6501.9-1130.6,6543.4-1165.6z"/>
			</defs>
			<use xlink:href="#XMLID_1_"  style="overflow:visible;fill:#37BEFF;"/>
			<clipPath id="XMLID_3_">
				<use xlink:href="#XMLID_1_"  style="overflow:visible;"/>
			</clipPath>
			<polygon class="st0" points="2110,4670 3350,4670 2590,4270 			"/>
			<polygon class="st0" points="2590,4510 1550,4610 1370,4210 			"/>
			<path class="st1" d="M3311.4,1066.7c568.6,56.8,1938,56.8,2515.5-2.3c638.8-63.4,1087.2-172.8,1194.4-286.6"/>
			<path class="st1" d="M7397.6-1000.6c-1450.3,115.9-2946.5,140-4458.1,72.2"/>
			<path class="st1" d="M3411.4,206.7c568.6,56.8,1938,56.8,2515.5-2.3C6565.7,141,7014.1,31.6,7121.3-82.2"/>
		</g>
	</g>
</g>
<path class="st2" d="M625.7,180.6c63.9,6.3,108.7,17.3,119.4,28.7c8.1,8.8,38.9,71.7,49.9,101.7c9.8,27.3,23,74.4,21.2,77
	c-0.4,0.9-15.5,0.4-33.5-0.9c-145-11.6-294.6-14-445.8-7.2c-52.1,2.2-138.3,7.9-148.5,9.6c-6.1,1.1-6.1,0.9-4.6-7
	c3.1-17.1,17.1-61.9,26.5-86c12.3-30.6,37.2-79.4,44.8-87.5c10.1-10.9,57.1-22.3,119-28.7C431,174.6,567.9,174.6,625.7,180.6z"/>
<g>
	<path class="st3" d="M230.8,494.3c25.4,11.4,38.5,31.1,40,59.5c0.9,15.8,0.2,19.3-5,31.3c-7,15.3-20.3,28.9-35.7,35.9
		c-16,7.4-41.3,6.8-57.8-1.3c-42.2-20.8-52.1-77-19.2-110.7C173.7,487.7,203.6,482,230.8,494.3z"/>
	<path class="st3" d="M828.4,494.5c41.6,18.8,53.2,74.1,22.3,108.9c-4.8,5.7-14.2,12.7-21.2,16.2c-16.4,8.1-41.8,8.8-57.8,1.3
		c-13.6-6.3-28-19.9-34.6-32.8c-8.1-16-9-42.2-1.8-58c7-15.1,15.1-24.5,27.6-31.7C784.2,485.9,806.3,484.6,828.4,494.5z"/>
</g>
<g>
	<path class="st4" d="M654.3,628.6c16.2,12.9,12.5,27.3-13.8,54.5c-21,21.4-12.9,20.3-140.6,20.3s-119.7,1.1-140.7-20.3
		c-22.5-23.2-27.3-34.3-20.3-47.3c6.1-11.2,2.6-10.9,162.1-10.9C638.8,624.6,650.2,625.1,654.3,628.6z"/>
</g>
</svg>
