<?xml version="1.0" encoding="utf-8"?>
<!-- Generator: Adobe Illustrator 22.0.1, SVG Export Plug-In . SVG Version: 6.00 Build 0)  -->
<svg version="1.1" xmlns="http://www.w3.org/2000/svg" xmlns:xlink="http://www.w3.org/1999/xlink" x="0px" y="0px"
	 viewBox="0 0 80 80" style="enable-background:new 0 0 80 80;" xml:space="preserve">
<style type="text/css">
	.st0{display:none;}
	.st1{display:inline;}
	.st2{fill:#EBBA16;}
	.st3{fill:#B8B8B8;}
	.st4{fill:#CCCCCC;}
	.st5{fill:#FFFFFF;}
	.st6{fill:#BFBAA5;}
	.st7{fill:#EFC940;}
</style>
<g id="Capa_2" class="st0">
	<rect class="st1" width="80" height="80"/>
</g>
<g id="Capa_4">
	<g>
		<path class="st2" d="M41,14.3v54c0,2-1.6,3.7-3.6,3.7H6.6c-2,0-3.6-1.7-3.6-3.7V10.7C3,8.7,4.6,7,6.6,7h24.1c1,0,3.6,0.3,6.2,2.1
			C39.5,11,40.6,13.4,41,14.3z"/>
		<rect x="9.2" y="13.3" class="st3" width="60.6" height="29.4"/>
		<path class="st4" d="M15.3,20.1V28H7.1v-0.3C9.9,25.1,12.6,22.6,15.3,20.1z"/>
		<polygon class="st5" points="71.8,19.6 71.8,53.9 70.3,58.4 7.1,58.4 7.1,28 15.3,28 15.3,19.6 		"/>
		<g>
			<rect x="22.5" y="24.8" class="st6" width="2.1" height="12.6"/>
			<rect x="31.8" y="24.8" class="st6" width="2.1" height="12.6"/>
			<rect x="41" y="24.8" class="st6" width="2.1" height="12.6"/>
			<rect x="50.2" y="24.8" class="st6" width="2.1" height="12.6"/>
			<rect x="59.5" y="24.8" class="st6" width="2.1" height="12.6"/>
		</g>
		<path class="st7" d="M78.8,32.8l-7,21.1l-1.5,4.5L67,68.2c-0.7,2.1-2.9,3.8-4.9,3.8H5.6c-2,0-3.1-1.7-2.4-3.8l3.9-11.7L15,32.8
			c0.7-2.1,2.9-3.8,4.9-3.8h56.6C78.4,29,79.5,30.7,78.8,32.8z"/>
	</g>
</g>
</svg>
