<?xml version="1.0" encoding="utf-8"?>
<!-- Generator: Adobe Illustrator 22.0.1, SVG Export Plug-In . SVG Version: 6.00 Build 0)  -->
<svg version="1.1" xmlns="http://www.w3.org/2000/svg" xmlns:xlink="http://www.w3.org/1999/xlink" x="0px" y="0px"
	 viewBox="0 0 80 80" style="enable-background:new 0 0 80 80;" xml:space="preserve">
<style type="text/css">
	.st0{display:none;}
	.st1{display:inline;}
	.st2{fill:#FFA500;}
	.st3{opacity:0.61;fill:#FF8C00;}
	.st4{fill:#FFFFFF;}
	.st5{fill:#11649A;}
	.st6{fill:#666666;}
	.st7{fill:#1C86C0;}
	.st8{opacity:0.87;fill:#FFFFFF;}
	.st9{opacity:0.76;fill:#11649A;}
	.st10{fill:#333333;}
	.st11{fill:#FFFFFF;stroke:#FFFFFF;stroke-width:0.5;stroke-miterlimit:10;}
	.st12{opacity:0.84;fill:#003366;}
	.st13{opacity:0.81;fill:#11649A;}
	.st14{fill:#66FF33;}
</style>
<g id="Capa_2" class="st0">
	<rect class="st1" width="80" height="80"/>
</g>
<g id="Capa_4">
	<g>
		<path class="st2" d="M3,30.9c0.5-0.8,1.1-1.4,1.6-1.9c11.5-9.5,23.1-18.9,34.6-28.4C39.7,0.3,40.1,0,40.6,0c0.4,0,0.7,0.3,1.1,0.6
			c11.7,9.6,23.5,19.1,35.2,28.7c0.6,0.5,1.3,1.1,1.5,1.9c0.3,1,0.7,2.2,0.5,3.2c-0.2,1.2-1.1,2.3-1.8,3.1c-0.1,0.1-0.2,0.3-0.4,0.3
			c-0.2,0.1-0.5-0.1-0.7-0.3c-2.4-1.9-4.6-3.9-7-5.8c-2.8-2.3-5.7-4.5-8.6-6.7c-5.7-4.4-11.3-8.8-16.9-13.3c-0.3-0.2-3-2.6-3.1-2.6
			C30.2,17.9,19.4,25.7,9,34.2c-1.2,1-2.5,2-3.7,3.1c-0.2,0.2-0.4,0.3-0.6,0.4c-0.3,0.1-0.7-0.1-1-0.3c-0.7-0.7-1.3-1.9-1.6-2.9
			C1.8,33.3,2.3,32,3,30.9z"/>
		<path class="st2" d="M65.9,21.1l-10.5-1.9V3.9c0-1.1,0.8-1.9,1.8-1.9h7c1,0,1.8,0.9,1.8,1.9V21.1z"/>
		<path class="st2" d="M40.6,14L13.1,35.4v26.2c0,1.3,0.9,2.4,2.1,2.4h19V44.9h12.7V64h16.9c2.3,0,4.2-2.1,4.2-4.8V35.4L40.6,14z"/>
		<path class="st3" d="M78.4,31.2c-0.3-0.8-0.9-1.4-1.5-1.9c-3.7-3-7.4-6-11-9V3.9c0-1.1-0.8-1.9-1.8-1.9h-7c-1,0-1.8,0.9-1.8,1.9
			v7.7C50.8,8,46.2,4.3,41.7,0.6C41.4,0.3,41,0,40.6,0h-0.1v9.2c0.5,0.3,2.8,2.3,3,2.5c5.5,4.6,11.2,8.9,16.9,13.3
			c2.9,2.2,5.7,4.5,8.6,6.7c2.4,1.9,4.6,4,7,5.8c0.2,0.2,0.4,0.3,0.7,0.3c0.1,0,0.3-0.2,0.4-0.3c0.7-0.9,1.6-1.9,1.8-3.1
			C79.1,33.4,78.7,32.1,78.4,31.2z"/>
		<path class="st3" d="M40.6,14v21.4v9.5h6.3V64h16.9c2.3,0,4.2-2.1,4.2-4.8V35.4L40.6,14z"/>
		<ellipse class="st4" cx="44.3" cy="55.3" rx="0.9" ry="1.1"/>
	</g>
	<g>
		<path class="st5" d="M5.8,57.9H2.3c-0.7,0-1.3-0.6-1.3-1.3v-1.2c0-0.7,0.6-1.3,1.3-1.3h3.6c0.7,0,1.3,0.6,1.3,1.3v1.2
			C7.1,57.3,6.5,57.9,5.8,57.9z"/>
		<path class="st5" d="M36.8,57.9h-3.2c-0.7,0-1.3-0.6-1.3-1.3v-1.2c0-0.7,0.6-1.3,1.3-1.3h3.2c0.7,0,1.3,0.6,1.3,1.3v1.2
			C38,57.3,37.4,57.9,36.8,57.9z"/>
		<path class="st6" d="M9.1,80H5.5C4.7,80,4,79.4,4,78.6v-2.7c0-0.8,0.6-1.4,1.4-1.4h3.7c0.8,0,1.4,0.6,1.4,1.4v2.7
			C10.6,79.4,9.9,80,9.1,80z"/>
		<path class="st6" d="M34.4,80h-3.7c-0.8,0-1.4-0.6-1.4-1.4v-2.7c0-0.8,0.6-1.4,1.4-1.4h3.7c0.8,0,1.4,0.6,1.4,1.4v2.7
			C35.8,79.4,35.2,80,34.4,80z"/>
		<path class="st7" d="M32.8,75.9h-27c0,0-3.5,0-3.5-3.7v-5.5c0-0.3,0-0.6,0.1-0.9l0.9-5.6c0.2-1.5,0.6-3,1.1-4.4l2.3-7
			c0,0,0.9-3.7,6.1-3.7h13.9c0,0,4.8,0,5.7,3.7l2.5,7.6c0.3,1,0.6,2.1,0.9,3.2l1.2,5.6c0.1,0.4,0.1,0.8,0.1,1.3v6.3
			C37.1,72.6,37.1,75.9,32.8,75.9z"/>
		<path class="st8" d="M31.5,55.6H8c0,0-1.7,0-1.3-1.8L8,50.1c0,0,0.9-3.2,3.5-3.2h16.1c0,0,2.6-0.5,3.5,2.8l1.5,3.9
			C32.6,53.5,33.4,55.4,31.5,55.6z"/>
		<path class="st9" d="M2.3,67.8c0,0.4,0.7,1,1,1.2c0.9,0.8,2.2,1,3.3,1c1.8,0,3.7-0.1,5.5-0.1c2.5,0,5,0,7.5,0c2.7,0,5.5,0,8.2,0
			c1.8,0,3.6,0.2,5.3,0.1c1.8-0.1,2.9-0.6,4-2.1c-0.1,0.2,0,1.1,0,1.3c0,0.5,0,1,0,1.6c0,0.6,0,1.3,0,1.9c0,0,0.4,3.2-5,3.2H6.6
			c0,0-4.3,0.3-4.3-3.3C2.3,72.5,2.3,67.8,2.3,67.8z"/>
		<path class="st10" d="M9.7,72.2h19.6c0,0,0.4,1.8-0.9,1.8H10.6C10.6,74,9.3,74,9.7,72.2z"/>
		<path class="st6" d="M23.3,72.6h-7.2c-0.7,0-1.2-0.5-1.2-1.2v-0.8c0-0.7,0.5-1.2,1.2-1.2h7.2c0.7,0,1.2,0.5,1.2,1.2v0.8
			C24.5,72.1,24,72.6,23.3,72.6z"/>
		<ellipse class="st11" cx="6.2" cy="72.6" rx="1.1" ry="1.2"/>
		<ellipse class="st11" cx="32.8" cy="72.6" rx="1.1" ry="1.2"/>
		<path class="st11" d="M6.2,68.3H11c0,0,1.1,0.2,0.9-1.8c0,0-0.4-1.8-2.6-1.8h-3c0,0-2-0.2-1.7,1.8C4.5,66.4,4.3,68.5,6.2,68.3z"/>
		<path class="st11" d="M33.2,68.3h-4.8c0,0-1.1,0.2-0.9-1.8c0,0,0.4-1.8,2.6-1.8h3c0,0,2-0.2,1.7,1.8C35,66.4,35.2,68.5,33.2,68.3z
			"/>
		<path class="st12" d="M25.6,64.8H13.9c-0.4,0-0.7,0.3-0.7,0.7v2.2c0,0.4,0.3,0.7,0.7,0.7h11.7c0.4,0,0.7-0.3,0.7-0.7v-2.2
			C26.2,65.1,25.9,64.8,25.6,64.8z M14.9,67.7c0,0.2-0.1,0.3-0.3,0.3h-0.3c-0.2,0-0.3-0.1-0.3-0.3v-2.1c0-0.2,0.1-0.3,0.3-0.3h0.3
			c0.2,0,0.3,0.1,0.3,0.3V67.7z M16.7,67.7c0,0.2-0.1,0.3-0.3,0.3h-0.3c-0.2,0-0.3-0.1-0.3-0.3v-2.1c0-0.2,0.1-0.3,0.3-0.3h0.3
			c0.2,0,0.3,0.1,0.3,0.3V67.7z M18.4,67.7c0,0.2-0.1,0.3-0.3,0.3h-0.3c-0.2,0-0.3-0.1-0.3-0.3v-2.1c0-0.2,0.1-0.3,0.3-0.3h0.3
			c0.2,0,0.3,0.1,0.3,0.3V67.7z M20.2,67.7c0,0.2-0.1,0.3-0.3,0.3h-0.3c-0.2,0-0.3-0.1-0.3-0.3v-2.1c0-0.2,0.1-0.3,0.3-0.3h0.3
			c0.2,0,0.3,0.1,0.3,0.3V67.7z M21.9,67.7c0,0.2-0.1,0.3-0.3,0.3h-0.3c-0.2,0-0.3-0.1-0.3-0.3v-2.1c0-0.2,0.1-0.3,0.3-0.3h0.3
			c0.2,0,0.3,0.1,0.3,0.3V67.7z M23.6,67.7c0,0.2-0.1,0.3-0.3,0.3h-0.3c-0.2,0-0.3-0.1-0.3-0.3v-2.1c0-0.2,0.1-0.3,0.3-0.3h0.3
			c0.2,0,0.3,0.1,0.3,0.3V67.7z M25.4,67.7c0,0.2-0.1,0.3-0.3,0.3h-0.3c-0.2,0-0.3-0.1-0.3-0.3v-2.1c0-0.2,0.1-0.3,0.3-0.3h0.3
			c0.2,0,0.3,0.1,0.3,0.3V67.7z"/>
		<path class="st13" d="M32.5,58.2c-0.4-0.2-0.9-0.3-1.3-0.3H19.5H7.8c-0.5,0-0.9,0.1-1.3,0.3C6,58.5,5.6,58.9,6,59.7
			c1.1,2.1,1.3,3.2,5.2,3.2s8.3,0,8.3,0s4.4,0,8.3,0s4.1-1.2,5.2-3.2C33.4,58.9,33,58.5,32.5,58.2z"/>
		<path class="st10" d="M30.1,55.6c-0.7-1.6-2.3-2.6-4.2-2.6c-1.9,0-3.5,1.1-4.2,2.6h0.8c0.7-1.1,1.9-1.8,3.4-1.8
			c1.4,0,2.7,0.7,3.4,1.8H30.1z"/>
	</g>
	<path class="st14" d="M41,66.3c0,0,7.7,9,9.2,12.7h6.6c2.8-8.8,13.5-29.9,22.7-37.3c1.9-2.6-2.9-3.6-6.8-1.9
		C67,42.4,56,61.9,53.9,66.6c-2.9,0.8-6-5.1-6-5.1L41,66.3z"/>
</g>
</svg>
