<?xml version="1.0" encoding="utf-8"?>
<!-- Generator: Adobe Illustrator 24.0.2, SVG Export Plug-In . SVG Version: 6.00 Build 0)  -->
<svg version="1.1" xmlns="http://www.w3.org/2000/svg" xmlns:xlink="http://www.w3.org/1999/xlink" x="0px" y="0px"
	 viewBox="0 0 80 80" style="enable-background:new 0 0 80 80;" xml:space="preserve">
<style type="text/css">
	.st0{display:none;}
	.st1{display:inline;}
	.st2{fill:#EBBA16;}
	.st3{fill:#B8B8B8;}
	.st4{fill:#CCCCCC;}
	.st5{fill:#FFFFFF;}
	.st6{fill:#BFBAA5;}
	.st7{fill:#EFC940;}
	.st8{fill:#333333;}
	.st9{fill:#FBC93B;}
	.st10{fill:#FFFFFF;stroke:#333333;stroke-width:1.5;stroke-linecap:round;stroke-linejoin:round;stroke-miterlimit:10;}
</style>
<g id="Capa_2" class="st0">
	<rect class="st1" width="80" height="80"/>
</g>
<g id="Capa_4">
	<g>
		<path class="st2" d="M40,11.3v54c0,2-1.6,3.7-3.6,3.7H5.6c-2,0-3.6-1.7-3.6-3.7V7.7C2,5.7,3.6,4,5.6,4h24.1c1,0,3.6,0.3,6.2,2.1
			C38.5,8,39.6,10.4,40,11.3z"/>
		<rect x="8.2" y="10.3" class="st3" width="60.6" height="29.4"/>
		<path class="st4" d="M14.3,17.1V25H6.1v-0.3C8.9,22.1,11.6,19.6,14.3,17.1z"/>
		<polygon class="st5" points="70.8,16.6 70.8,50.9 69.3,55.4 6.1,55.4 6.1,25 14.3,25 14.3,16.6 		"/>
		<g>
			<rect x="21.5" y="21.8" class="st6" width="2.1" height="12.6"/>
			<rect x="30.8" y="21.8" class="st6" width="2.1" height="12.6"/>
			<rect x="40" y="21.8" class="st6" width="2.1" height="12.6"/>
			<rect x="49.2" y="21.8" class="st6" width="2.1" height="12.6"/>
			<rect x="58.5" y="21.8" class="st6" width="2.1" height="12.6"/>
		</g>
		<path class="st7" d="M77.8,29.8l-7,21.1l-1.5,4.5L66,65.2c-0.7,2.1-2.9,3.8-4.9,3.8H4.6c-2,0-3.1-1.7-2.4-3.8l3.9-11.7L14,29.8
			c0.7-2.1,2.9-3.8,4.9-3.8h56.6C77.4,26,78.5,27.7,77.8,29.8z"/>
	</g>
	<g>
		<g>
			<path class="st5" d="M24.8,68.9c-1.2,0-2.3-0.5-3.1-1.4c-0.8-0.9-1.2-2-1.2-3.2l0.3-9.9c0.1-2.4,2.1-4.3,4.4-4.3l3.1,0.1
				c0.2,0,0.4,0.1,0.5,0.2c0.1,0.1,0.2,0.3,0.2,0.5l-0.5,17.3c0,0.2-0.1,0.4-0.2,0.5c-0.1,0.1-0.3,0.2-0.5,0.2
				C27.7,69,24.8,68.9,24.8,68.9z"/>
			<path class="st8" d="M25.2,50.9c0,0,0.1,0,0.1,0l2.9,0.1l-0.5,17.3l-2.9-0.1c-2-0.1-3.6-1.8-3.6-3.8l0.3-9.9
				C21.6,52.5,23.2,50.9,25.2,50.9 M25.2,49.4C25.2,49.4,25.2,49.4,25.2,49.4c-2.8,0-5.1,2.3-5.2,5l-0.3,9.9c0,1.4,0.5,2.7,1.4,3.7
				c0.9,1,2.2,1.6,3.6,1.6l2.9,0.1c0,0,0,0,0,0c0.8,0,1.5-0.6,1.5-1.5L29.7,51c0-0.4-0.1-0.8-0.4-1.1c-0.3-0.3-0.6-0.5-1-0.5
				l-2.9-0.1L25.2,49.4L25.2,49.4z"/>
		</g>
		<g>
			<path class="st9" d="M71.8,71.9c-0.4,0-0.7-0.3-0.8-0.7L71,53.9c0-0.2,0.1-0.4,0.2-0.5s0.3-0.2,0.5-0.2l2.9,0
				c2.5,0,4.4,2,4.5,4.4l0.1,9.9c0,2.4-2,4.4-4.4,4.5C74.8,71.9,71.8,71.9,71.8,71.9z"/>
			<path class="st8" d="M74.7,53.9c2,0,3.7,1.6,3.7,3.6l0.1,9.9c0,2-1.6,3.7-3.6,3.7l-2.9,0l-0.1-17.3L74.7,53.9
				C74.7,53.9,74.7,53.9,74.7,53.9 M74.7,52.4C74.7,52.4,74.7,52.4,74.7,52.4l-3,0c-0.8,0-1.5,0.7-1.5,1.5l0.1,17.3
				c0,0.4,0.2,0.8,0.4,1.1c0.3,0.3,0.7,0.4,1.1,0.4c0,0,0,0,0,0l2.9,0c2.9,0,5.2-2.4,5.1-5.2l-0.1-9.9
				C79.8,54.7,77.5,52.4,74.7,52.4L74.7,52.4z"/>
		</g>
		<g>
			<path class="st5" d="M49.8,79.2c-4.1,0-8-2.9-12.9-6.5c-2-1.5-4-3.1-5.9-4.9c-0.2-0.1-0.3-0.4-0.2-0.6L31.4,51
				c0-0.3,0.2-0.6,0.5-0.7c0.6-0.2,1.6-0.5,2.7-0.9c1-0.4,1.8-0.6,2.5-0.9c1.5-0.5,2.3-0.8,3.5-1.2c2.4-0.7,3.6-0.9,4-0.9
				c1-0.1,2-0.2,3-0.2h0.1c2.2,0,4,0.3,5.2,1c0.4,0.2,0.7,0.4,1.1,0.7c1.4,1.4,1.1,3.6,1,4c-0.3,1.8-1.8,3.3-3.9,4.1
				c1.8,1.2,3.5,2.4,5.3,3.6c3.2,2.2,6.5,4.4,9.7,6.5c0.5,0.2,1.3,0.7,1.8,1.7c0.9,1.8-0.2,3.4-0.3,3.5c-0.6,0.9-1.6,1.3-2.2,1.5
				c-0.8,0.3-1.4,0.4-1.9,0.4l-0.3,0c-0.9,0.1-1.3,0.4-2.4,1.2c-0.4,0.3-0.9,0.7-1.6,1.1c-1,0.7-2.5,1.7-4.6,2.6
				c-0.1,0-2,0.7-3.8,0.9C50.5,79.2,50.2,79.2,49.8,79.2z"/>
			<g>
				<path class="st8" d="M47.7,47c3.1,0,4.4,0.7,4.8,0.9c0.3,0.2,0.6,0.3,0.9,0.6c1.2,1.2,0.9,3.1,0.8,3.4c-0.4,1.9-2.3,3.4-4.9,3.9
					c2.2,1.5,4.4,3,6.6,4.5c3.3,2.2,6.5,4.4,9.7,6.5c0.2,0.1,1,0.5,1.5,1.3c0.7,1.4-0.2,2.7-0.2,2.7c-0.5,0.7-1.3,1-1.8,1.3
					c-0.9,0.3-1.5,0.3-2,0.4c-1.5,0.2-2.1,1-4.3,2.5c-1,0.7-2.4,1.7-4.4,2.5c0,0-1.8,0.7-3.6,0.9c-0.3,0-0.6,0-0.9,0
					c-3.8,0-7.4-2.6-12.5-6.4c-1.5-1.1-3.5-2.7-5.9-4.8c0.2-5.4,0.4-10.8,0.6-16.2c0.6-0.2,1.6-0.5,2.7-0.9c3.4-1.2,4.2-1.5,5.9-2
					c2.2-0.6,3.4-0.8,3.9-0.9c1.1-0.2,2.1-0.2,2.9-0.2C47.6,47,47.7,47,47.7,47 M47.7,45.5l-0.1,0c-1,0-2,0.1-3.1,0.2
					c-0.4,0.1-1.7,0.2-4.1,0.9c-1.3,0.4-2,0.6-3.5,1.2c-0.6,0.2-1.4,0.5-2.5,0.9c-1.2,0.4-2.1,0.7-2.7,0.9c-0.6,0.2-1,0.7-1,1.4
					L30,67.2c0,0.4,0.2,0.9,0.5,1.2c1.9,1.7,3.9,3.4,6,4.9c5,3.7,9,6.7,13.4,6.7c0.4,0,0.7,0,1.1-0.1c0.9-0.1,3-0.5,4-1l0,0
					c2.1-0.9,3.7-1.9,4.7-2.6c0.7-0.5,1.2-0.9,1.6-1.2c1-0.8,1.3-1,2-1.1c0.1,0,0.2,0,0.3,0c0.5,0,1.2-0.1,2.1-0.4
					c0.7-0.3,1.8-0.7,2.5-1.8c0.1-0.2,1.4-2.1,0.3-4.3c-0.6-1.1-1.5-1.7-2.1-2c-3.2-2.1-6.4-4.3-9.6-6.4c-1.4-1-2.8-1.9-4.2-2.9
					c1.7-1,2.8-2.4,3.2-4c0.1-0.7,0.4-3-1.2-4.7c-0.4-0.4-0.9-0.7-1.2-0.9C51.9,45.9,50,45.5,47.7,45.5L47.7,45.5z"/>
			</g>
		</g>
		<g>
			<path class="st9" d="M67.2,70.5c-1.6,0-4.1-2.2-7.5-5.3c-1.1-1-2.2-2-2.8-2.4c0,0-0.4-0.3-0.8-0.6c-0.3-0.2-0.6-0.4-0.9-0.7
				c-0.7-0.5-1.6-1.2-3.7-2.7c-1.1-0.8-2-1.5-2.7-2c-2.4,1.1-4.5,1.6-6.6,1.6c-0.4,0-0.9,0-1.3-0.1c-2.2-0.2-3.8-1.2-5.2-3.2
				c-0.1-0.2-0.2-0.4-0.1-0.6c0.1-0.2,0.2-0.4,0.4-0.5c1.4-0.7,2.8-1.3,4.2-1.7c4.9-1.7,8.9-2.4,12.7-2.4c0.8,0,1.6,0,2.4,0.1
				c1.7,0.2,3.2,0.6,4.8,1.1c0.4,0.1,0.5,0.2,0.8,0.3c0.3,0.1,0.9,0.3,2.3,0.7c1.4,0.4,2.2,0.7,2.7,0.8c0.9,0.3,1.7,0.5,2.2,0.7
				c0.7,0.2,0.7,0.5,0.5,4c0,0.3,0,0.5,0,0.5l0,0.2c0,0.5,0,1.7,0,3.7c0,2.7,0.1,4.5,0.2,5.6c0.1,1.6,0.2,2.3-0.6,2.7
				C67.7,70.4,67.4,70.5,67.2,70.5z"/>
			<path class="st8" d="M52.6,50.6c0.8,0,1.5,0,2.3,0.1c1.6,0.2,3.1,0.6,4.7,1.1c0.8,0.2,0.5,0.2,3.1,1c1.4,0.4,2.2,0.7,2.7,0.8
				c0.9,0.3,1.7,0.5,2.2,0.7c0.1,0,0,3.4,0,3.8c0,0.2,0,1.5,0,4c0,6.2,0.6,7.3-0.1,7.6c-0.1,0.1-0.2,0.1-0.4,0.1
				c-2.1,0-7.9-6.1-9.9-7.6c0,0-0.4-0.3-0.8-0.6c-0.9-0.6-1.4-1.1-4.6-3.4c-1.3-0.9-2.4-1.7-3.1-2.2c-2.1,1-4.3,1.7-6.7,1.7
				c-0.4,0-0.8,0-1.2-0.1c-2.2-0.2-3.5-1.2-4.7-2.9c1.6-0.8,3.1-1.3,4.1-1.7C44.2,51.6,48.4,50.6,52.6,50.6 M52.6,49.1
				C52.6,49.1,52.6,49.1,52.6,49.1c-3.8,0-7.9,0.8-12.9,2.5c-1.4,0.5-2.9,1.1-4.3,1.8c-0.4,0.2-0.7,0.6-0.8,1
				c-0.1,0.4,0,0.9,0.2,1.2c1.6,2.2,3.3,3.2,5.8,3.5c0.5,0,0.9,0.1,1.4,0.1c2.1,0,4.1-0.5,6.5-1.5c0.6,0.5,1.5,1,2.4,1.7
				c2.1,1.5,3,2.2,3.7,2.7c0.3,0.3,0.6,0.5,0.9,0.7c0.4,0.3,0.7,0.5,0.8,0.6c0.6,0.4,1.7,1.4,2.8,2.4c3.6,3.3,6.2,5.5,8.1,5.5
				c0.4,0,0.8-0.1,1.1-0.3c1.2-0.7,1.1-1.8,1-3.4c-0.1-1.1-0.2-2.8-0.2-5.5c0-2,0-3.2,0-3.7l0-0.2c0-0.1,0-0.3,0-0.5
				c0-0.5,0.1-1.3,0.1-2c0-1.3,0-2.4-1.1-2.7c-0.5-0.2-1.3-0.4-2.2-0.7c-0.4-0.1-1.3-0.4-2.7-0.8c-1.4-0.5-2-0.6-2.3-0.7
				c-0.3-0.1-0.4-0.1-0.8-0.3c-1.7-0.5-3.2-0.9-5-1.1C54.3,49.1,53.5,49.1,52.6,49.1L52.6,49.1z"/>
		</g>
		<path class="st10" d="M62.3,73.2c-1.6-0.2-4.4-0.8-7.3-2.8c-1.5-1-2.6-2.2-3.4-3.1"/>
		<path class="st10" d="M56.7,76.9c-1.3-0.3-3.3-0.8-5.5-2.3c-1.7-1.1-2.8-2.4-3.5-3.3"/>
	</g>
</g>
</svg>
