<?xml version="1.0" encoding="utf-8"?>
<!-- Generator: Adobe Illustrator 22.0.1, SVG Export Plug-In . SVG Version: 6.00 Build 0)  -->
<svg version="1.1" id="Capa_1" xmlns="http://www.w3.org/2000/svg" xmlns:xlink="http://www.w3.org/1999/xlink" x="0px" y="0px"
	 viewBox="0 0 981.2 764.9" style="enable-background:new 0 0 981.2 764.9;" xml:space="preserve">
<style type="text/css">
	.st0{fill:#E6BC90;}
	.st1{fill:#23A859;}
	.st2{fill:#D89048;}
	.st3{fill:#FFFFFF;}
	.st4{fill:#FF7058;}
	.st5{fill:#B8B9BD;}
	.st6{fill:#5A5C5D;}
	.st7{fill:#E2B746;}
	.st8{fill:#558FFF;stroke:#E6E6E6;stroke-width:7;stroke-miterlimit:10;}
	.st9{fill:#005B94;stroke:#E6E6E6;stroke-width:7;stroke-miterlimit:10;}
	.st10{fill:#019245;}
	.st11{fill:#FE0000;}
</style>
<g>
	<g>
		<path class="st0" d="M811.3,403h-634c-19.5,0-35.5-16-35.5-35.5V53.4c0-19.5,16-35.5,35.5-35.5h634c19.5,0,35.5,16,35.5,35.5
			v314.1C846.7,387,830.8,403,811.3,403z"/>
		<path class="st1" d="M788.5,381.9h-590c-16.5,0-30-13.5-30-30v-280c0-16.5,13.5-30,30-30h590c16.5,0,30,13.5,30,30v280
			C818.5,368.4,805,381.9,788.5,381.9z"/>
		<path class="st2" d="M613.8,27.9H373.3c-6.6,0-12-5.4-12-12v0c0-6.6,5.4-12,12-12h240.5c6.6,0,12,5.4,12,12v0
			C625.8,22.5,620.4,27.9,613.8,27.9z"/>
		<path class="st2" d="M536.9,415.9h-86.8c-6.5,0-11.9-5.3-11.9-11.9v0c0-6.5,5.3-11.9,11.9-11.9h86.8c6.5,0,11.9,5.3,11.9,11.9v0
			C548.8,410.6,543.4,415.9,536.9,415.9z"/>
	</g>
	<g>
		<path class="st3" d="M342.2,212.3c-1,0.1-2.4,0-4.5-0.3c-2-0.2-3.5-0.3-4.3-0.3l-16.8,0.9c-1.4,0.1-3.6,0.4-6.5,1
			c-2.9,0.6-5.1,0.9-6.6,1c-0.4,0-1,0-1.8-0.1c-0.8-0.1-1.4-0.2-1.8-0.1c-3.4,0.2-5.8-1.2-7.2-4.1c-0.9-1.9-1.4-4.8-1.7-8.7
			c-0.4-7.7,0.8-14.3,3.6-19.7c2.2-4.2,5.9-8.4,11.1-12.7c4.9-4,9.8-7.9,14.7-11.9c5.7-5.1,8.4-10.7,8.1-16.7
			c-0.1-1.6-1.4-3.1-3.9-4.5c-2.5-1.4-4.9-2.1-7.2-1.9c-4,0.2-8.2,2.4-12.5,6.6c-4.3,4.2-7.3,6.3-8.9,6.4c-2,0.1-3.8-0.3-5.4-1.3
			c-2-1.2-3-3-3.2-5.4c-0.1-2.5,0.7-4.7,2.5-6.7c4.3-4.7,8.2-8.1,11.5-10.4c4.8-3.2,9.8-5,15.1-5.3c6.6-0.4,12.6,1.2,18.1,4.6
			c6.3,4,9.7,9.4,10.1,16.3c0.4,7-0.7,13.1-3.4,18.2c-2.1,4.1-5.5,8.1-10.4,12.1c-4.6,3.5-9.1,7.1-13.7,10.6
			c-6.9,5.5-10.5,11.6-10.6,18.2c2.1-0.4,5.1-0.9,9.2-1.5c8.1-0.9,13.9-1.5,17.4-1.7c3.3-0.2,6.6,0.4,9.8,1.7c4.1,1.7,6.2,4,6.4,7
			c0.1,2.2-0.5,4.1-1.8,5.8C346.2,211.2,344.4,212.1,342.2,212.3z"/>
		<path class="st3" d="M410.3,176c-0.5,0-1.1,0-2.1-0.1c-0.9-0.1-1.6-0.1-2.1-0.1c-1,0.1-2.6,0.2-4.6,0.4c-2,0.2-3.6,0.3-4.6,0.4
			c0.1,1.4,0.2,3.2,0.3,5.4c0.1,2.8,0.2,4.6,0.3,5.4c0.1,2.1-0.5,3.8-1.8,5.3c-1.3,1.4-3,2.2-5.1,2.3c-2.1,0.1-3.8-0.5-5.3-1.8
			c-1.5-1.3-2.3-3-2.4-5.1c0,0.5-0.2-3-0.7-10.7c-2.8,0.3-5.3,0.6-7.5,0.7c-2.7,0.2-5.1-0.2-7.3-1.2c-2.7-1.2-4.1-3.1-4.3-5.6
			c-0.2-3.2,0.9-5.4,3.3-6.5c1.3-0.6,3.8-1,7.4-1.2c2.2-0.1,4.7-0.4,7.5-0.7c0-0.4-0.1-1.2-0.2-2.5c-0.1-1.2-0.2-2.2-0.2-3
			c-0.5-8.3,1.8-12.6,7-12.9c2-0.1,3.8,0.5,5.4,1.7c1.6,1.3,2.4,2.9,2.5,5c0,0.7,0,1.7,0,3.1c-0.1,1.4-0.1,2.4,0,3.1l0.3,4.3
			c0.9,0,1.5,0,2-0.1c0.8,0,1.9-0.2,3.4-0.3c1.5-0.2,2.7-0.3,3.5-0.3c7.8-0.5,11.8,1.9,12.1,7c0.1,2-0.4,3.8-1.7,5.4
			C414.2,175,412.5,175.8,410.3,176z"/>
		<path class="st3" d="M459.6,209.3c-11.6,0.7-20.5-3.3-26.5-12c-1-1.5-1.6-3-1.7-4.4c-0.1-2.2,0.6-4.2,2.1-5.8
			c1.5-1.7,3.4-2.6,5.5-2.7c2.1-0.1,4,0.6,5.6,2.3c2.8,2.9,4.4,4.4,4.6,4.6c2.3,1.6,5.5,2.3,9.5,2.1c5.9-0.3,10.6-3,14.3-7.9
			c3.5-4.7,5.1-10.3,4.7-16.7c-0.4-6.2-1.6-10.7-3.6-13.7c-2.1-3-5-4.3-8.8-4.1c-6.7,0.4-11.9,3.1-15.7,8c-1.5,2.1-3,4.1-4.5,6.2
			c-1.9,2.2-4.1,3.4-6.4,3.5c-2.2,0.1-4.1-0.6-5.6-2.1c-1.6-1.5-2.5-3.4-2.6-5.6c-0.1-1,0.1-4.6,0.3-10.8
			c0.6-12.2,0.7-20.3,0.5-24.3c-0.1-1-0.5-2.3-1.2-4s-1.2-3-1.2-4c-0.1-2.1,0.8-3.7,2.6-4.9c1.5-0.9,3.2-1.4,5.3-1.6
			c0.8,0,1.9,0,3.5,0c1.6,0.1,2.7,0.1,3.5,0l27.5-1.5c0.7,0,2.1-0.2,4.4-0.6c2.2-0.4,3.7-0.6,4.4-0.6c2.1-0.1,3.8,0.5,5.2,1.8
			c1.4,1.3,2.2,3.1,2.3,5.4c0.4,6.2-5.2,9.6-16.8,10.2c-0.9,0.1-2.1,0.1-3.5,0.1c-1.4,0-2.3,0.1-2.8,0.1l-17,1
			c0,2.5-0.2,6.7-0.7,12.6c4.8-2.9,10.7-4.6,17.6-5c9.2-0.5,16.5,2.8,21.7,10c4.4,5.9,6.8,13.6,7.3,22.9c0.7,11.2-2,20.7-8,28.5
			C479.2,204.3,470.6,208.6,459.6,209.3z"/>
		<path class="st3" d="M598.6,149.6l-25.9,1.5c-0.9,0-2.1,0.2-3.8,0.3c-1.7,0.2-2.9,0.3-3.8,0.3c-2.1,0.1-3.8-0.5-5.2-1.8
			c-1.4-1.3-2.2-3-2.3-5c-0.3-5,3.2-7.7,10.5-8.1c0.4,0,1.1,0,2-0.1l1.7-0.1l25.9-1.4c2.1-0.1,3.8,0.5,5.2,1.7s2.2,3,2.3,5
			c0.1,2.1-0.5,3.8-1.7,5.3C602.4,148.7,600.7,149.5,598.6,149.6z M600.2,179.9c-2.5,0.1-6.3,0.3-11.3,0.5c-5,0.2-8.8,0.4-11.3,0.5
			c-1.1,0.1-2.8,0.2-5.1,0.5c-2.3,0.3-4,0.4-5.1,0.5c-2.2,0.1-4-0.4-5.5-1.7c-1.5-1.2-2.3-2.9-2.4-5.1c-0.3-4.5,1.9-7,6.6-7.6
			c4-0.5,7.5-0.9,10.7-1.1c2.5-0.1,6.3-0.3,11.3-0.5c5-0.2,8.8-0.4,11.3-0.5c2.1-0.1,3.9,0.5,5.4,1.7c1.5,1.3,2.3,3,2.4,5
			c0.1,2.1-0.5,3.8-1.8,5.3C604,179,602.3,179.8,600.2,179.9z"/>
		<path class="st3" d="M713.1,113.8c-4.3,0.2-12.2,0.5-23.8,0.8c-2.9,0.2-7.2,0.3-13,0.3c-5.1-0.2-7.8-2.7-8.1-7.6
			c-0.1-2.3,0.5-4.2,2-5.8c1.4-1.6,3.3-2.5,5.5-2.6c4.8-0.3,12-0.5,21.6-0.8c9.6-0.2,16.8-0.5,21.6-0.8l10.4-0.6
			c2.1-0.1,3.9,0.2,5.5,1c2,1,3.1,2.5,3.2,4.6c0.1,2.3-0.9,5-3,8.3c-1.8,2.4-3.6,4.9-5.4,7.3c-4.5,6.1-8.6,13.5-12.2,22.2
			c-1.1,2.7-4.1,10.7-8.9,23.9c-0.6,1.7-2,6.5-4,14.2c-1.6,5.8-3.3,10.4-5,13.7c-1.4,2.4-3.4,3.7-6.1,3.9c-2.1,0.1-4-0.5-5.7-2
			c-1.7-1.4-2.7-3.3-2.8-5.6c-0.1-1.8,0.9-6,3.1-12.6c3.5-10.7,7-21.3,10.5-32C703,131.3,707.9,121.3,713.1,113.8z"/>
	</g>
	
		<rect x="479.2" y="378.9" transform="matrix(0.9902 0.1399 -0.1399 0.9902 58.9492 -68.4493)" class="st3" width="74.5" height="12.5"/>
</g>
<g>
	<g>
		<path class="st4" d="M360.9,526.1c-0.2-29.4-0.4-58.9-0.6-88.3c-5.8-36.3-11.7-72.6-17.5-108.8c-0.3-2.5-2-16.3-14-26
			c-11.3-9.1-23.6-8.1-26.3-7.9c-20.4,0-40.8,0-61.2,0c-0.6,0-1.3,0-1.9,0c-20.4,0-40.8,0-61.2,0c-2.7-0.3-15-1.2-26.3,7.9
			c-12,9.7-13.8,23.5-14,26c-5.8,36.3-11.7,72.6-17.5,108.8c-0.2,29.4-0.4,58.9-0.6,88.3c40.2,0.3,80.4,0.7,120.6,1
			c0-3.7,0-7.4,0-11.1c0,3.7,0,7.4,0,11.1C280.6,526.8,320.7,526.5,360.9,526.1z"/>
		<path class="st3" d="M298.1,493.5H19.5c-1.1,0-2-0.9-2-2v-63h286.2c6.5,0,11.7,5.2,11.7,11.7v36
			C315.4,485.7,307.7,493.5,298.1,493.5z"/>
		<path class="st5" d="M121.2,571.9H61.8c-17.4,0-31.5-14.1-31.5-31.5v-57.1h90.9V571.9z"/>
		<path class="st3" d="M124.3,556.8H65.4c-10.7,0-19.5-8.7-19.5-19.5v-53.9h78.3V556.8z"/>
		<path class="st6" d="M132.7,760.5h-7.7c-2.2,0-3.9-1.8-3.9-3.9v-153h15.5v153C136.7,758.7,134.9,760.5,132.7,760.5z"/>
		<path class="st6" d="M359,760.5h-7.7c-2.2,0-3.9-1.8-3.9-3.9v-153h15.5v153C362.9,758.7,361.1,760.5,359,760.5z"/>
		<path class="st6" d="M163.7,731.1h-7.7c-2.2,0-3.9-1.8-3.9-3.9v-153h15.5v153C167.6,729.4,165.9,731.1,163.7,731.1z"/>
		<path class="st6" d="M328.6,731.1h-7.7c-2.2,0-3.9-1.8-3.9-3.9v-153h15.5v153C332.5,729.4,330.7,731.1,328.6,731.1z"/>
		<rect x="121.2" y="571.3" class="st6" width="241.6" height="41.9"/>
		<path class="st4" d="M375.3,584.2H110.6c-9.6,0-17.5-7.9-17.5-17.5v-7.3c0-9.6,7.9-17.5,17.5-17.5h264.7c9.6,0,17.5,7.9,17.5,17.5
			v7.3C392.8,576.3,384.9,584.2,375.3,584.2z"/>
		<path class="st7" d="M287,483H31c-7.4,0-13.5-6.1-13.5-13.5v-29.6h284.9v27.8C302.4,476.1,295.5,483,287,483z"/>
	</g>
	<path class="st8" d="M176.7,434.6H53.8c-6.6,0-12-5.4-12-12v-2.3c0-6.6,5.4-12,12-12h122.9V434.6z"/>
	<path class="st9" d="M177.2,405.2H54.3c-6.6,0-12-5.4-12-12v-2.3c0-6.6,5.4-12,12-12h122.9V405.2z"/>
</g>
<g>
	<g>
		<path class="st4" d="M897.4,526.1c-0.2-29.4-0.4-58.9-0.6-88.3c-5.8-36.3-11.7-72.6-17.5-108.8c-0.3-2.5-2-16.3-14-26
			c-11.3-9.1-23.6-8.1-26.3-7.9c-20.4,0-40.8,0-61.2,0c-0.6,0-1.3,0-1.9,0c-20.4,0-40.8,0-61.2,0c-2.7-0.3-15-1.2-26.3,7.9
			c-12,9.7-13.8,23.5-14,26c-5.8,36.3-11.7,72.6-17.5,108.8c-0.2,29.4-0.4,58.9-0.6,88.3c40.2,0.3,80.4,0.7,120.6,1
			c0-3.7,0-7.4,0-11.1c0,3.7,0,7.4,0,11.1C817,526.8,857.2,526.5,897.4,526.1z"/>
		<path class="st3" d="M834.6,493.5H555.9c-1.1,0-2-0.9-2-2v-63h286.2c6.5,0,11.7,5.2,11.7,11.7v36
			C851.9,485.7,844.1,493.5,834.6,493.5z"/>
		<path class="st5" d="M657.6,571.9h-59.4c-17.4,0-31.5-14.1-31.5-31.5v-57.1h90.9V571.9z"/>
		<path class="st3" d="M660.7,556.8h-58.9c-10.7,0-19.5-8.7-19.5-19.5v-53.9h78.3V556.8z"/>
		<path class="st6" d="M669.2,760.5h-7.7c-2.2,0-3.9-1.8-3.9-3.9v-153h15.5v153C673.1,758.7,671.4,760.5,669.2,760.5z"/>
		<path class="st6" d="M895.4,760.5h-7.7c-2.2,0-3.9-1.8-3.9-3.9v-153h15.5v153C899.3,758.7,897.6,760.5,895.4,760.5z"/>
		<path class="st6" d="M700.2,731.1h-7.7c-2.2,0-3.9-1.8-3.9-3.9v-153h15.5v153C704.1,729.4,702.3,731.1,700.2,731.1z"/>
		<path class="st6" d="M865,731.1h-7.7c-2.2,0-3.9-1.8-3.9-3.9v-153h15.5v153C868.9,729.4,867.2,731.1,865,731.1z"/>
		<rect x="657.6" y="571.3" class="st6" width="241.6" height="41.9"/>
		<path class="st4" d="M911.7,584.2H647.1c-9.6,0-17.5-7.9-17.5-17.5v-7.3c0-9.6,7.9-17.5,17.5-17.5h264.7c9.6,0,17.5,7.9,17.5,17.5
			v7.3C929.2,576.3,921.4,584.2,911.7,584.2z"/>
		<path class="st7" d="M823.5,483h-256c-7.4,0-13.5-6.1-13.5-13.5v-29.6h284.9v27.8C838.8,476.1,831.9,483,823.5,483z"/>
	</g>
	<g>
		<path class="st10" d="M747.4,376.8c2-2,1.4-2.5,4.5-6.5c1.7-2.2,3.2-3.7,3.9-4.4c0.9-0.9,2.3-2.2,4.3-3.7c1-0.8,2.2-1.6,4-2.5
			c1.3-0.6,2.3-1.2,3.9-1.6c2-0.6,2.7-0.3,3.9-1.1c0.4-0.2,1.5-1,1.7-2.3c0-0.2,0.2-1.2-0.5-2c-0.5-0.5-1.1-0.7-2.5-1.1
			c-0.9-0.2-1.5-0.4-2.3-0.4c-1.1,0-1.9,0.3-2.9,0.7c-0.4,0.1-1.3,0.5-2.8,1.3c-1.2,0.7-1.9,1.2-3.1,2.1c-0.8,0.6-2,1.5-3.4,2.8
			c-1.5,1.4-2.6,2.5-2.9,2.9c-0.4,0.5-0.4,0.5-2.6,3.2c-1.8,2.3-2,2.4-2.3,2.9c-0.6,0.9-0.4,0.8-1.7,3.1c-0.9,1.6-1,1.7-1.9,3.2
			c-0.8,1.4-0.7,1.5-1.2,2.3c-0.6,1-0.9,1.3-1.7,2.5c-0.9,1.4-1.4,2.1-1.2,2.3C740.9,381,744.7,379.5,747.4,376.8z"/>
		<path class="st11" d="M744.7,371.6c6.3,1.1,8.3-1.7,16.9-2.8c5-0.7,10.4-1.4,15.8,1.3c5.1,2.5,7.7,6.6,8.7,8.3
			c3.6,5.9,3.6,11.7,3.6,16c-0.1,10.8-4.4,18.6-5.6,20.7c-5.1,8.6-11.8,12.6-14.8,14.5c-4.8,2.9-7.3,3.1-8.2,3.1
			c-2.6,0.1-3.5-0.7-8.3-1c-0.7,0-3-0.2-6,0c-4.6,0.3-5.5,1-8.7,1c-3.5,0.1-6.1-0.6-7.5-1c-5-1.4-8.3-3.9-11.2-6.2
			c-6.2-4.9-9.6-10.1-10.6-11.6c-3.9-6.3-5.2-11.8-5.5-13.2c-0.6-2.9-1.6-7.6-0.5-13.4c0.5-2.7,1.2-6.4,4-9.9
			c3.3-4.2,7.4-5.8,10.1-6.8c5.2-2,9.7-1.9,11.8-1.8c2.8,0.1,5,0.6,9.2,1.4C742.1,370.8,742.7,371.2,744.7,371.6z"/>
		<path class="st3" d="M726.5,371.5C726.5,371.5,726.5,371.5,726.5,371.5c-0.5-0.1-2.6,1.2-3.1,1.4c-1.2,0.5-2.3,1.1-3.3,1.8
			c-2.1,1.4-4,3.2-5.5,5.2c-2.5,3.5-3.9,7.7-4.5,11.9c-0.4,3-0.5,6.1-0.3,9.1c0.2,2.7,0.2,5.2,1.1,7.8c-1.8-1.5-3.3-3.5-4-5.8
			c-0.9-2.6-1.2-5.4-1.3-8.2c-0.2-4.2,0.1-8.6,1.9-12.4C710.5,375.6,719,370.2,726.5,371.5z"/>
	</g>
</g>
</svg>
