<?xml version="1.0" encoding="utf-8"?>
<!-- Generator: Adobe Illustrator 22.0.1, SVG Export Plug-In . SVG Version: 6.00 Build 0)  -->
<svg version="1.1" id="Capa_1" xmlns="http://www.w3.org/2000/svg" xmlns:xlink="http://www.w3.org/1999/xlink" x="0px" y="0px"
	 viewBox="0 0 568 568" style="enable-background:new 0 0 568 568;" xml:space="preserve">
<style type="text/css">
	.st0{display:none;fill:#808080;}
	.st1{display:none;fill:#FF424F;}
	.st2{display:none;fill:#FBC93B;}
	.st3{fill:#FFFFFF;}
	.st4{fill:#333333;}
	.st5{fill:#FBC93B;}
	.st6{fill:#FFFFFF;stroke:#333333;stroke-width:8;stroke-linecap:round;stroke-linejoin:round;stroke-miterlimit:10;}
</style>
<rect x="-14" y="-9" class="st0" width="591" height="592"/>
<circle class="st1" cx="756" cy="-28" r="30"/>
<circle class="st2" cx="660" cy="-28" r="30"/>
<path class="st3" d="M-414,279L-414,279c-0.1,0-0.1,0-0.2,0C-414.1,279-414.1,279-414,279z"/>
<path class="st3" d="M-414.2,279c-0.1,0-0.1,0-0.2,0v0C-414.3,279-414.3,279-414.2,279z"/>
<image style="display:none;overflow:visible;" width="256" height="256" xlink:href="99FD0A74.jpg"  transform="matrix(2.0859 0 0 2.0273 0 24)">
</image>
<g>
	<g>
		<path class="st3" d="M31.8,351.2c-6.8,0-12.4-5.6-12.4-12.4V195.6c0-6.8,5.6-12.4,12.4-12.4h52.8c2.2,0,4,1.8,4,4v159.9
			c0,2.2-1.8,4-4,4H31.8z"/>
		<path class="st4" d="M84.6,187.2v159.9H31.8c-4.6,0-8.4-3.8-8.4-8.4V195.6c0-4.6,3.8-8.4,8.4-8.4H84.6 M84.6,179.2H31.8
			c-9.1,0-16.4,7.4-16.4,16.4v143.1c0,9.1,7.4,16.4,16.4,16.4h52.8c4.4,0,8-3.6,8-8V187.2C92.6,182.8,89,179.2,84.6,179.2
			L84.6,179.2z"/>
	</g>
	<g>
		<path class="st5" d="M490.8,365.2c-2.2,0-4-1.8-4-4V201.2c0-2.2,1.8-4,4-4h52.8c6.8,0,12.4,5.6,12.4,12.4v143.1
			c0,6.8-5.6,12.4-12.4,12.4H490.8z"/>
		<path class="st4" d="M543.6,201.2c4.6,0,8.4,3.8,8.4,8.4v143.1c0,4.6-3.8,8.4-8.4,8.4h-52.8V201.2H543.6 M543.6,193.2h-52.8
			c-4.4,0-8,3.6-8,8v159.9c0,4.4,3.6,8,8,8h52.8c9.1,0,16.4-7.4,16.4-16.4V209.7C560,200.6,552.6,193.2,543.6,193.2L543.6,193.2z"/>
	</g>
	<g>
		<path class="st3" d="M289.8,439.6c-36.4,0-72-24.9-117-56.3c-19.1-13.4-38-27.9-55.9-43.2c-0.9-0.8-1.4-1.9-1.4-3.1
			c0.5-50.1,0.9-100.2,1.4-150.3c0-1.7,1.1-3.1,2.6-3.7c8.3-3.1,16.7-6.2,25-9.4c9.4-3.6,16.6-6.3,22.5-8.6
			c13.7-5.3,20.6-7.9,32-11.6c22-7.1,33.1-8.9,36.7-9.5c9-1.5,18-2.4,27-2.7c2.3-0.1,4.6-0.1,6.8-0.1c17.3,0,31.5,2.5,41,7.2
			c3.3,1.7,6.2,3.1,9.3,6.1c12.5,11.9,10.1,30.8,9.5,34.4c-2.7,16.6-17.9,31.3-38.8,38.4c18.3,11.8,36.8,23.7,55.1,35.4
			c30.2,19.3,61,38.6,91.5,57.5c4.1,1.7,11.3,5.6,15.6,13.8c7.8,14.6-1.2,28.9-1.6,29.5c-5.2,8.1-12.9,11.3-18.5,13.6
			c-6.8,2.8-12.1,3.5-16.4,4c-0.9,0.1-1.8,0.2-2.6,0.3c-8.9,1.3-13.6,5-22.9,12.5c-4,3.2-8.5,6.7-14.3,11c-9,6.5-22.5,16.3-41,24.6
			c0,0-0.1,0-0.1,0c-0.7,0.3-17.3,7.2-34.2,9.5C297.3,439.3,293.5,439.6,289.8,439.6C289.8,439.6,289.8,439.6,289.8,439.6z"/>
		<g>
			<path class="st4" d="M269.3,145c24.7,0,36,5.2,39.2,6.8c3.3,1.6,5.7,2.9,8.3,5.4c11.4,10.8,8.7,28.5,8.3,30.9
				c-2.9,17.4-20.6,32.4-44.5,37.6c20.7,13.4,41.5,26.8,62.6,40.3c30.8,19.6,61.4,38.8,91.8,57.7c2.3,0.9,9.7,4.1,13.9,12.1
				c6.6,12.5-1,24.8-1.4,25.5c-4.5,7-11.3,9.8-16.7,12.1c-7.8,3.2-13.6,3.4-18.1,4c-14,2-18.9,9.7-38.9,24.2
				c-9,6.5-22.2,16-40.3,24.2c0,0-16.7,6.9-33.2,9.2c-3.6,0.5-7.1,0.7-10.6,0.7c-34.4,0-67.8-22.8-114.7-55.6
				c-14.2-9.9-33.6-24.2-55.6-42.9c0.5-50.1,0.9-100.2,1.4-150.3c5.6-2.1,14.3-5.3,25-9.4c31.2-11.9,38.2-15,54.3-20.1
				c20.6-6.6,31.4-8.6,36.2-9.4c10.3-1.7,19.3-2.4,26.4-2.7C265,145,267.2,145,269.3,145 M269.3,137c-2.3,0-4.6,0-6.9,0.1
				c-9.1,0.3-18.3,1.3-27.5,2.8c-3.7,0.6-15,2.5-37.3,9.7c-11.5,3.7-18.4,6.3-32.2,11.7c-5.8,2.2-13.1,5-22.5,8.6
				c-8.3,3.2-16.7,6.3-25,9.4c-3.1,1.2-5.2,4.1-5.2,7.4l0,0.1c-0.5,50.1-0.9,100.2-1.4,150.3c0,2.4,1,4.6,2.8,6.2
				c18.1,15.4,37,30,56.2,43.4c45.6,31.9,81.6,57,119.3,57c3.9,0,7.8-0.3,11.7-0.8c16.7-2.3,32.9-8.9,35.4-9.9l0,0
				c18.9-8.5,32.7-18.4,41.8-25c5.9-4.3,10.7-8.1,14.5-11.1c9-7.2,13.2-10.5,21-11.6c0.8-0.1,1.6-0.2,2.5-0.3
				c4.3-0.5,10.1-1.2,17.5-4.2c5.8-2.4,14.5-6,20.4-15.2c4-6.2,8.8-20.2,1.7-33.6c-4.8-9.1-12.6-13.5-17.3-15.5
				c-30.4-18.8-61-38.1-91.2-57.3c-16.1-10.3-32.4-20.7-48.5-31.1c6.3-2.8,12-6.3,16.9-10.5c9.5-8,15.4-17.7,17.1-28.2
				c0.7-4,3.2-24.7-10.7-38c-3.6-3.4-6.8-5-10.3-6.7C302,139.7,287.2,137,269.3,137L269.3,137z"/>
		</g>
	</g>
	<g>
		<path class="st5" d="M449.6,354.2c-13.9,0-38.3-20-68.9-46.2c-11.3-9.7-21-18-27.1-22l-0.2-0.2c-1-0.6-3.9-2.5-7.8-5.2
			c-2.9-1.9-5.4-3.7-8.7-6c-6.1-4.2-15.3-10.6-34.9-23.8c-11.3-7.7-20.8-14-27.3-18.4c-23.6,11.4-44,16.7-64.1,16.7
			c-2.8,0-5.7-0.1-8.5-0.3c-19.9-1.5-33.6-9.3-47.1-27c-0.7-0.9-1-2.1-0.7-3.3s1-2.1,2-2.7c12.4-6.5,25.2-12.2,38-17
			c47.5-17.8,86.5-26,122.7-26c5,0,9.9,0.2,14.7,0.5c15.2,1,29.1,4.5,44.5,8.6c3.6,1,4.8,1.3,7.5,2.1c3.1,0.9,8.3,2.5,21.8,6.3
			c12.9,3.7,20.5,5.8,25,7c6.9,1.9,13.9,3.8,20.8,5.6c3.6,0.9,3.7,4.2,3.8,15c0.1,6.2,0,13.6-0.1,18.5c0,2.6-0.1,4.6,0,5.2
			c0,0.4,0,1.1,0,2.1c0.1,4.7,0.2,15.7,0.7,34.6c0.6,25.4,2.2,41.3,3.2,51.8c1.4,14,1.9,19.3-3.5,22.5
			C453.8,353.7,451.8,354.2,449.6,354.2z"/>
		<path class="st4" d="M317.2,176.9c4.8,0,9.7,0.2,14.5,0.5c15.1,1,29.1,4.6,43.7,8.5c7.8,2.1,4.3,1.3,29.2,8.4
			c13.2,3.8,20.8,5.9,25,7c8.5,2.3,15.6,4.2,20.9,5.6c1.3,0.3,0.6,31.8,0.7,34.9c0,2.1,0.1,13.6,0.7,36.7
			c1.5,57.1,7.4,67.3,1.6,70.8c-1.1,0.6-2.4,0.9-3.9,0.9c-20,0-74.2-54.8-93.7-67.6c-0.4-0.3-3.6-2.4-7.9-5.3
			c-8.3-5.6-13.7-9.6-43.5-29.8c-12.4-8.4-22.6-15.2-29.2-19.6c-20.6,10.1-41.7,17.3-64.4,17.3c-2.7,0-5.4-0.1-8.2-0.3
			c-20-1.5-32.3-9.9-44.2-25.4c15-7.9,28-13.3,37.6-16.8C234.4,188.2,275.8,176.9,317.2,176.9 M317.2,168.9
			C317.2,168.9,317.2,168.9,317.2,168.9c-36.7,0-76.1,8.3-124.1,26.3c-13,4.9-25.9,10.7-38.5,17.2c-2.1,1.1-3.6,3.1-4.1,5.4
			c-0.5,2.3,0,4.7,1.5,6.6c14.1,18.4,29.1,26.9,50,28.5c2.9,0.2,5.9,0.3,8.8,0.3c20.1,0,40.5-5.1,63.8-16.1
			c6.4,4.3,15.1,10.2,25.4,17.1c19.6,13.2,28.8,19.6,34.8,23.8c3.2,2.2,5.8,4,8.7,6c2.6,1.8,5.2,3.5,7.8,5.2l0.2,0.1
			c5.9,3.9,16,12.5,26.7,21.7c32.2,27.6,56.2,47.2,71.5,47.2c3,0,5.6-0.7,8-2.1c5.9-3.5,6.2-9.7,6.4-11.7c0.2-3.4-0.2-7.9-0.9-14.6
			c-1-10.5-2.5-26.3-3.2-51.6c-0.5-18.9-0.6-29.9-0.7-34.5c0-1,0-1.7,0-2.1c0-0.6,0-2.7,0-5.1c0.1-4.9,0.1-12.4,0.1-18.6
			c0-3.6-0.1-6.3-0.2-8.3c-0.2-2.9-0.6-9.1-6.5-10.6c-6.9-1.8-13.9-3.7-20.8-5.6c-4.5-1.2-12-3.3-25-7c-13.5-3.8-18.7-5.4-21.7-6.3
			c-2.6-0.8-3.9-1.2-7.6-2.2c-15.5-4.1-29.6-7.7-45.2-8.7C327.3,169,322.2,168.9,317.2,168.9L317.2,168.9z"/>
	</g>
	<path class="st6" d="M405.9,383.6c-15.1-1.5-41.4-6.4-68.2-23.9c-14.2-9.3-24.6-19.5-32-28.1"/>
	<path class="st6" d="M354.9,419.1c-12-2-31.2-6.9-51.5-19.6c-15.6-9.9-26.5-21.1-33.4-29.5"/>
</g>
</svg>
