<?xml version="1.0" encoding="utf-8"?>
<!-- Generator: Adobe Illustrator 22.0.1, SVG Export Plug-In . SVG Version: 6.00 Build 0)  -->
<svg version="1.1" xmlns="http://www.w3.org/2000/svg" xmlns:xlink="http://www.w3.org/1999/xlink" x="0px" y="0px"
	 viewBox="0 0 80 80" style="enable-background:new 0 0 80 80;" xml:space="preserve">
<style type="text/css">
	.st0{display:none;}
	.st1{display:inline;}
	.st2{fill:#FFFFFF;}
	.st3{fill:#F67773;}
	.st4{fill:#8AA800;}
	.st5{fill:#F4A354;}
	.st6{fill:#0071BC;}
	.st7{fill:#0F79B8;}
	.st8{fill:#FFFFFF;stroke:#FFFFFF;stroke-miterlimit:10;}
</style>
<g id="Capa_2" class="st0">
	<rect class="st1" width="80" height="80"/>
</g>
<g id="Capa_3">
	<path class="st2" d="M11.5,21h-5C4,21,2,19,2,16.5v0C2,14,4,12,6.5,12h5c2.5,0,4.5,2,4.5,4.5v0C16,19,14,21,11.5,21z"/>
	<path class="st2" d="M11.5,36h-5C4,36,2,34,2,31.5v0C2,29,4,27,6.5,27h5c2.5,0,4.5,2,4.5,4.5v0C16,34,14,36,11.5,36z"/>
	<path class="st2" d="M11.5,52h-5C4,52,2,50,2,47.5v0C2,45,4,43,6.5,43h5c2.5,0,4.5,2,4.5,4.5v0C16,50,14,52,11.5,52z"/>
	<path class="st2" d="M11.5,67h-5C4,67,2,65,2,62.5v0C2,60,4,58,6.5,58h5c2.5,0,4.5,2,4.5,4.5v0C16,65,14,67,11.5,67z"/>
	<path class="st3" d="M73.3,25h-2.5c-1.5,0-2.8-1.2-2.8-2.8v-8.5c0-1.5,1.2-2.8,2.8-2.8h2.5c1.5,0,2.8,1.2,2.8,2.8v8.5
		C76,23.8,74.8,25,73.3,25z"/>
	<path class="st4" d="M73.1,43h-2.3c-1.6,0-2.9-1.3-2.9-2.9v-8.3c0-1.6,1.3-2.9,2.9-2.9h2.3c1.6,0,2.9,1.3,2.9,2.9v8.3
		C76,41.7,74.7,43,73.1,43z"/>
	<path class="st5" d="M73.1,60h-2.3c-1.6,0-2.9-1.3-2.9-2.9v-8.3c0-1.6,1.3-2.9,2.9-2.9h2.3c1.6,0,2.9,1.3,2.9,2.9v8.3
		C76,58.7,74.7,60,73.1,60z"/>
	<path class="st6" d="M61.1,79H16.9C12,79,8,75,8,70.1V9.9C8,5,12,1,16.9,1h44.3C66,1,70,5,70,9.9v60.3C70,75,66,79,61.1,79z"/>
	<path class="st7" d="M68.2,4.6L11.5,77.2C9.4,75.6,8,73,8,70.1V9.9C8,5,12,1,16.9,1h44.2C64,1,66.6,2.4,68.2,4.6z"/>
	<path class="st8" d="M46.6,48.4c0.1-0.3,0,0,5.9,4c1.4,1,2.8,1.9,4.1,2.9c0.4,0.3,1,0.5,1.4,0.9c0.7,0.6-1.2,2.4-1.7,2.8
		c-1,0.8-2.1,1.4-3.3,1.5c-1.7,0.1-5.1-0.9-6.6-1.6c-3.6-1.4-5.4-2.5-8.8-4.5c-3.3-1.9-6.4-4.7-9-7.5c-1.1-1.2-2-2.3-3-3.6
		c-3.1-4.5-5.7-8.9-7.3-14.4c-0.4-1.4-1.2-2.9-0.9-4.3c0.4-1.6,1-2.4,2-3.6c1-1.2,1.8-2,3.1-2.8c1.9,3.5,3.7,6.9,5.6,10.4
		c0.3,0.5,0.5,0.9,0.7,1.3c-0.5,0.4-1,0.5-1.5,1c-0.9,1,0.6,2.7,1.1,3.6c1,1.6,2.2,3,3.3,4.4c1.7,2,3.5,4,5.4,5.8
		c1.4,1.3,3,2.4,4.5,3.4C43,48.9,46,51,46.6,48.4z"/>
	<g>
		<path class="st2" d="M30.9,29.1c-0.1,0-0.1,0-0.2,0c-0.1,0-0.2-0.1-0.2-0.2l-6.1-11.3c-0.1-0.2,0-0.4,0.1-0.6l3.1-2
			c0.1,0,0.1-0.1,0.1-0.1c0.1,0,0.1,0,0.2,0s0.2,0.1,0.2,0.2l6.2,11.4c0.1,0.2,0,0.4-0.1,0.6l-3.1,2C31,29.1,30.9,29.1,30.9,29.1z"
			/>
		<path class="st2" d="M27.8,15.4L34,26.8l-3.1,2l-6.3-11.4L27.8,15.4 M27.7,14.6c-0.2,0-0.2,0-0.4,0.1l-3.1,2
			c-0.4,0.3-0.5,0.8-0.2,1.1l6.2,11.4c0.1,0.2,0.2,0.3,0.5,0.4c0.1,0,0.2,0,0.2,0c0.2,0,0.2,0,0.4-0.1l3.1-2
			c0.4-0.3,0.5-0.8,0.2-1.1L28.5,15c-0.1-0.2-0.2-0.3-0.5-0.4C27.9,14.6,27.8,14.6,27.7,14.6L27.7,14.6z"/>
	</g>
	<g>
		<path class="st2" d="M60.1,54.4c-0.1,0-0.2,0-0.2-0.1l-11.8-7.9c-0.2-0.2-0.3-0.4-0.1-0.6l1.9-3.3c0.1-0.1,0.1-0.2,0.2-0.2l0.1,0
			c0.1,0,0.2,0,0.2,0.1l11.7,7.9c0.2,0.2,0.3,0.4,0.1,0.6l-1.9,3.3C60.3,54.3,60.3,54.3,60.1,54.4L60.1,54.4z"/>
		<path class="st2" d="M50.2,42.7L62,50.7L60,54L48.3,46L50.2,42.7 M50.1,41.9c-0.1,0-0.1,0-0.2,0c-0.2,0-0.4,0.2-0.4,0.3l-1.9,3.3
			c-0.2,0.3-0.1,0.9,0.2,1.1l11.8,7.9c0.2,0.1,0.3,0.1,0.5,0.1c0.1,0,0.1,0,0.2,0c0.2,0,0.4-0.2,0.4-0.3l1.9-3.3
			c0.2-0.3,0.1-0.9-0.2-1.1l-11.8-7.9C50.4,42,50.3,41.9,50.1,41.9L50.1,41.9z"/>
	</g>
</g>
</svg>
