<?xml version="1.0" encoding="utf-8"?>
<!-- Generator: Adobe Illustrator 22.0.1, SVG Export Plug-In . SVG Version: 6.00 Build 0)  -->
<svg version="1.1" xmlns="http://www.w3.org/2000/svg" xmlns:xlink="http://www.w3.org/1999/xlink" x="0px" y="0px"
	 viewBox="0 0 80 80" style="enable-background:new 0 0 80 80;" xml:space="preserve">
<style type="text/css">
	.st0{display:none;}
	.st1{display:inline;}
	.st2{fill:#FFFFFF;stroke:#FFFFFF;stroke-miterlimit:10;}
	.st3{fill:#FFFFFF;}
	.st4{fill:none;stroke:#FFFFFF;stroke-width:2;stroke-linejoin:round;stroke-miterlimit:10;}
	.st5{fill:#F1F10F;}
	.st6{opacity:0.61;fill:#F1C40F;}
	.st7{display:inline;fill:#F1F10F;}
	.st8{display:inline;opacity:0.61;fill:#F1C40F;}
</style>
<g id="Capa_2" class="st0">
	<rect class="st1" width="80" height="80"/>
</g>
<g id="Capa_5">
	<path class="st2" d="M37.5,59.5c0.1-0.4,0,0,7.4,5.3c1.7,1.3,3.5,2.5,5.2,3.8c0.5,0.4,1.3,0.7,1.8,1.2c0.9,0.8-1.7,2.9-2.4,3.3
		c-1.4,0.9-2.9,1.6-4.5,1.6c-2.2,0-6.6-1.5-8.6-2.4c-4.6-2-6.9-3.5-11.2-6.2c-4.2-2.6-8-6.2-11.2-9.9c-1.4-1.5-2.5-3-3.7-4.7
		c-3.8-5.7-6.8-11.4-8.5-18.2c-0.4-1.7-1.3-3.6-0.8-5.3c0.6-1.9,1.5-2.9,2.9-4.3c1.4-1.4,2.5-2.3,4.3-3.2c2.2,4.4,4.4,8.8,6.6,13.2
		c0.3,0.6,0.6,1.1,0.8,1.7c-0.7,0.4-1.4,0.5-2.1,1.1c-1.2,1.2,0.6,3.4,1.2,4.5c1.2,2,2.6,3.8,4,5.6c2.1,2.6,4.3,5.2,6.7,7.5
		c1.8,1.7,3.7,3.1,5.7,4.5C32.8,59.9,36.5,62.7,37.5,59.5z"/>
	<g>
		<path class="st3" d="M18.3,34.7c-0.1,0-0.1,0-0.2,0c-0.1,0-0.2-0.1-0.3-0.3L10.6,20c-0.1-0.2,0-0.5,0.2-0.7l4.2-2.2
			c0.1,0,0.1-0.1,0.2-0.1c0.1,0,0.1,0,0.2,0c0.1,0,0.2,0.1,0.3,0.3L23,31.8c0.1,0.2,0,0.5-0.2,0.7l-4.2,2.2
			C18.5,34.7,18.4,34.7,18.3,34.7z"/>
		<path class="st3" d="M15.3,17.6L22.6,32l-4.2,2.2L11,19.7L15.3,17.6 M15.3,16.6c-0.2,0-0.3,0-0.5,0.1l-4.2,2.2
			c-0.5,0.3-0.7,0.9-0.4,1.3l7.3,14.5c0.1,0.2,0.3,0.4,0.6,0.5c0.1,0,0.2,0,0.3,0c0.2,0,0.3,0,0.5-0.1l4.2-2.2
			c0.5-0.3,0.7-0.9,0.4-1.3l-7.3-14.5c-0.1-0.2-0.3-0.4-0.6-0.5C15.5,16.6,15.4,16.6,15.3,16.6L15.3,16.6z"/>
	</g>
	<g>
		<path class="st3" d="M54.8,67.8c-0.1,0-0.2,0-0.3-0.1L39.6,57.1c-0.2-0.2-0.3-0.5-0.1-0.7l2.8-3.9c0.1-0.1,0.2-0.2,0.3-0.2
			c0,0,0.1,0,0.1,0c0.1,0,0.2,0,0.3,0.1L57.8,63c0.2,0.2,0.3,0.5,0.1,0.7l-2.8,3.9C55.1,67.7,55,67.8,54.8,67.8
			C54.8,67.8,54.8,67.8,54.8,67.8z"/>
		<path class="st3" d="M42.6,52.8l14.9,10.6l-2.8,3.9L39.9,56.7L42.6,52.8 M42.6,51.8c-0.1,0-0.1,0-0.2,0c-0.3,0-0.5,0.2-0.6,0.4
			L39,56.1c-0.3,0.4-0.2,1.1,0.2,1.4l14.9,10.6c0.2,0.1,0.4,0.2,0.6,0.2c0.1,0,0.1,0,0.2,0c0.3,0,0.5-0.2,0.6-0.4l2.8-3.9
			c0.3-0.4,0.2-1.1-0.2-1.4L43.2,52C43,51.9,42.8,51.8,42.6,51.8L42.6,51.8z"/>
	</g>
	<path class="st4" d="M59.3,12c-10.6,0-19.1,6.5-19.1,14.4c0,2.9,1.2,5.6,3.1,7.9c-0.1,0.8-0.2,1.8-0.3,2.4
		c-0.2,1.3-0.6,2.5-1.1,3.7c-0.4,1-0.8,2-1.2,2.9c-0.4,0.9-1.1,1.8-1.4,2.8c1-0.1,2.1-0.6,3.1-0.9c0.5-0.2,1.1-0.3,1.6-0.5
		c1.7-0.5,3.4-1.1,5.1-1.7c2.4-0.8,4.8-1.6,7.1-2.4c1,0.1,2.1,0.2,3.1,0.2c10.6,0,19.1-6.5,19.1-14.4C78.5,18.5,69.9,12,59.3,12z"/>
	<ellipse class="st5" cx="59.9" cy="26.4" rx="2.7" ry="2.7"/>
	<ellipse class="st5" cx="69.4" cy="26.4" rx="2.7" ry="2.7"/>
	<ellipse class="st5" cx="50.3" cy="26.4" rx="2.7" ry="2.7"/>
	<path class="st6" d="M53,26.4c0,1.5-1.2,2.7-2.7,2.7c-0.7,0-1.4-0.3-1.9-0.8l3.8-3.8C52.7,25,53,25.7,53,26.4z"/>
	<path class="st6" d="M62.5,26.4c0,1.5-1.2,2.7-2.7,2.7c-0.7,0-1.4-0.3-1.9-0.8l3.8-3.8C62.2,25,62.5,25.7,62.5,26.4z"/>
	<path class="st6" d="M72.1,26.4c0,1.5-1.2,2.7-2.7,2.7c-0.7,0-1.4-0.3-1.9-0.8l3.8-3.8C71.8,25,72.1,25.7,72.1,26.4z"/>
</g>
<g id="Capa_3" class="st0">
	<path class="st7" d="M39.6,26.8c-3.4,0-6.2,2.8-6.2,6.2c0,0.7,0.1,1.4,0.3,2c0.8,2.4,3.1,4.2,5.9,4.2c0.2,0,0.5,0,0.7,0
		c3.1-0.4,5.5-3,5.5-6.2C45.8,29.6,43,26.8,39.6,26.8z M40.4,33.4c-1.1,0-1.9-0.9-1.9-1.9c0-1.1,0.9-1.9,1.9-1.9
		c1.1,0,1.9,0.9,1.9,1.9C42.3,32.5,41.4,33.4,40.4,33.4z"/>
	
		<rect x="34.5" y="34.2" transform="matrix(0.4978 -0.8673 0.8673 0.4978 -14.6959 50.7662)" class="st7" width="3.9" height="7.8"/>
	<polygon class="st7" points="38.3,40.8 31.7,52.3 26.3,49.2 27.1,47.8 29.9,47.6 28.7,45.1 29,44.4 31.8,44.3 30.6,41.8 31,41.1 
		33.8,40.9 32.5,38.4 32.5,38.4 32.5,38.4 32.5,38.4 32.9,37.7 	"/>
	<polygon class="st7" points="27.5,53.4 26.3,49.2 31.7,52.3 	"/>
	<path class="st8" d="M42.6,27.6l-1.3,2.2c0.6,0.3,1.1,1,1.1,1.8c0,1.1-0.9,2-2,2c-0.4,0-0.8-0.1-1.1-0.3l-1.9,3.3l-1.1,1.9l-0.6,1
		l-0.2,0.4L29,50.9l0,0l-1.5,2.5l0,0.1l4-1.1l0.1,0.1l6.4-11.1l0.8,0.5l1.4-2.5c3.1-0.4,5.5-3,5.5-6.2
		C45.9,30.7,44.6,28.6,42.6,27.6z"/>
</g>
</svg>
