<?xml version="1.0" encoding="utf-8"?>
<!-- Generator: Adobe Illustrator 22.0.1, SVG Export Plug-In . SVG Version: 6.00 Build 0)  -->
<svg version="1.1" xmlns="http://www.w3.org/2000/svg" xmlns:xlink="http://www.w3.org/1999/xlink" x="0px" y="0px"
	 viewBox="0 0 80 80" style="enable-background:new 0 0 80 80;" xml:space="preserve">
<style type="text/css">
	.st0{display:none;}
	.st1{display:inline;}
	.st2{fill:#FFFFFF;}
	.st3{fill:#1434A8;}
	.st4{fill:#8AA800;}
	.st5{fill:#FFA93D;}
	.st6{fill:#29A2F2;}
	.st7{fill:#1A96E8;}
</style>
<g id="Capa_2" class="st0">
	<rect class="st1" width="80" height="80"/>
</g>
<g id="Capa_3">
	<circle id="circle" class="st2" cx="54" cy="54" r="26"/>
	<path class="st3" d="M57.2,55.9l-2-2c0.4-0.7,0.8-1.6,1-2.4H59v-5.6h-2.8c-0.2-0.8-0.6-1.7-1-2.4l2-2l-4-4l-2,2
		c-0.8-0.4-1.6-0.8-2.4-1v-2.8h-5.7v2.8c-0.9,0.2-1.7,0.6-2.4,1l-2-2l-4,4l2,2c-0.4,0.7-0.8,1.6-1,2.4h-2.8v5.6h2.8
		c0.2,0.8,0.6,1.7,1,2.4l-2,2l4,4l2-2c0.8,0.4,1.6,0.8,2.4,1v2.8h5.7v-2.8c0.9-0.2,1.7-0.6,2.4-1l2,2L57.2,55.9z M45.8,53.6
		c-2.7,0-4.9-2.2-4.9-4.8c0-2.7,2.2-4.8,4.9-4.8s4.9,2.2,4.9,4.8C50.7,51.4,48.5,53.6,45.8,53.6z"/>
	<path class="st4" d="M76,60.8l0.5-4l-2-0.2c-0.1-0.6-0.3-1.2-0.5-1.8l1.6-1.2l-2.5-3.1l-1.6,1.2c-0.5-0.4-1.1-0.7-1.6-0.9l0.2-2
		l-4-0.5l-0.2,2c-0.6,0.1-1.2,0.3-1.8,0.5l-1.3-1.6l-3.2,2.5l1.3,1.6c-0.4,0.5-0.7,1-0.9,1.6l-2-0.2l-0.5,4l2,0.2
		c0.1,0.6,0.3,1.2,0.5,1.8l-1.6,1.2l2.5,3.1l1.6-1.2c0.5,0.4,1.1,0.7,1.6,0.9l-0.2,2l4,0.5l0.2-2c0.6-0.1,1.2-0.3,1.8-0.5l1.3,1.6
		l3.2-2.5l-1.3-1.6c0.4-0.5,0.7-1,0.9-1.6L76,60.8z M70.4,58.1c-0.2,1.9-2,3.2-3.9,3c-1.9-0.2-3.3-1.9-3.1-3.8c0.2-1.9,2-3.2,3.9-3
		C69.3,54.6,70.6,56.3,70.4,58.1z"/>
	<path class="st5" d="M62,70.6l-0.8-3.2l-1.6,0.4c-0.2-0.4-0.5-0.9-0.9-1.2l0.8-1.4l-2.8-1.7l-0.8,1.4c-0.5-0.1-1-0.2-1.5-0.2L54,63
		l-3.2,0.8l0.4,1.6c-0.4,0.2-0.9,0.6-1.2,0.9l-1.4-0.9l-1.7,2.8l1.4,0.9c-0.1,0.5-0.2,1-0.2,1.5L46.5,71l0.8,3.2l1.6-0.4
		c0.2,0.4,0.5,0.9,0.9,1.2l-0.8,1.4l2.8,1.7l0.8-1.4c0.5,0.1,1,0.2,1.5,0.2l0.4,1.6l3.2-0.8l-0.4-1.6c0.4-0.2,0.9-0.6,1.2-0.9
		l1.4,0.9l1.7-2.8l-1.4-0.9c0.1-0.5,0.2-1,0.2-1.5L62,70.6z M56.6,72.3c-0.8,1.3-2.5,1.8-3.9,1c-1.3-0.8-1.8-2.6-0.9-3.9
		c0.8-1.3,2.5-1.8,3.9-1C57,69.2,57.4,71,56.6,72.3z"/>
	<g>
		<path class="st6" d="M67,22.4c0,11.3-13,20.4-29,20.4c-3.2,0-6.7-1.3-9.7-0.9c-2.9,0.3-5.9,1.9-8.8,2.6c-3.2,0.8-6.6,1.3-9.9,1.5
			c-0.3,0-2.3-0.2-1.7-0.7c1-0.7,1.6-1.6,2.3-2.6c0.5-0.7,1-1.4,1.3-2.2c1.1-3,1.3-6.2,0.3-9.3c-1.8-2.7-2.9-5.7-2.9-8.8
			C9.1,11.1,22,2,38,2S67,11.1,67,22.4z"/>
	</g>
	<path class="st7" d="M67,22.4c0,11.3-13,20.4-29,20.4c-3.2,0-6.7-1.3-9.7-0.9c-2.9,0.3-6,1.9-8.8,2.6c-3.3,0.8-6.5,1.3-9.9,1.5
		c-0.6,0-1.2-0.1-1.7-0.4l54.6-34.1C65.4,14.7,67,18.4,67,22.4z"/>
	<ellipse class="st2" cx="24.3" cy="21.5" rx="3.3" ry="3.5"/>
	<ellipse class="st2" cx="38.5" cy="21.5" rx="3.3" ry="3.5"/>
	<ellipse class="st2" cx="52.7" cy="21.5" rx="3.3" ry="3.5"/>
</g>
</svg>
