<?xml version="1.0" encoding="utf-8"?>
<!-- Generator: Adobe Illustrator 22.0.1, SVG Export Plug-In . SVG Version: 6.00 Build 0)  -->
<svg version="1.1" xmlns="http://www.w3.org/2000/svg" xmlns:xlink="http://www.w3.org/1999/xlink" x="0px" y="0px"
	 viewBox="0 0 80 80" style="enable-background:new 0 0 80 80;" xml:space="preserve">
<style type="text/css">
	.st0{display:none;}
	.st1{display:inline;}
	.st2{fill:#289CA2;stroke:#FFFFFF;stroke-miterlimit:10;}
	.st3{fill:#FFFFFF;}
	.st4{fill:#3C9239;}
	.st5{fill:#444442;}
	.st6{fill:#E5BF00;}
	.st7{fill:#E5BF00;stroke:#FFFFFF;stroke-miterlimit:10;}
	.st8{fill:#1A1617;}
	.st9{fill:#3D3D3D;}
	.st10{fill:#F6D5B8;}
	.st11{fill:#E6C6AA;}
	.st12{fill:#383032;}
	.st13{fill:#F23034;}
	.st14{fill:#E6E6E6;}
</style>
<g id="Capa_2" class="st0">
	<rect class="st1" width="80" height="80"/>
</g>
<g id="Capa_4">
	<path class="st2" d="M42.5,81.5"/>
	<polygon class="st3" points="65.5,15.5 65.5,75.5 10.5,75.5 10.5,3 53,3 	"/>
	<path class="st4" d="M30.6,13H18.4c-0.8,0-1.4-0.6-1.4-1.4v-0.2c0-0.8,0.6-1.4,1.4-1.4h12.2c0.8,0,1.4,0.6,1.4,1.4v0.2
		C32,12.4,31.4,13,30.6,13z"/>
	<g>
		<path class="st5" d="M58.5,18h-41c-0.3,0-0.5-0.2-0.5-0.5l0,0c0-0.3,0.2-0.5,0.5-0.5h41c0.3,0,0.5,0.2,0.5,0.5l0,0
			C59,17.8,58.8,18,58.5,18z"/>
		<path class="st5" d="M58.5,23h-41c-0.3,0-0.5-0.2-0.5-0.5l0,0c0-0.3,0.2-0.5,0.5-0.5h41c0.3,0,0.5,0.2,0.5,0.5l0,0
			C59,22.8,58.8,23,58.5,23z"/>
		<path class="st5" d="M58.5,28h-41c-0.3,0-0.5-0.2-0.5-0.5l0,0c0-0.3,0.2-0.5,0.5-0.5h41c0.3,0,0.5,0.2,0.5,0.5l0,0
			C59,27.8,58.8,28,58.5,28z"/>
		<path class="st5" d="M58.5,33h-41c-0.3,0-0.5-0.2-0.5-0.5l0,0c0-0.3,0.2-0.5,0.5-0.5h41c0.3,0,0.5,0.2,0.5,0.5l0,0
			C59,32.8,58.8,33,58.5,33z"/>
		<path class="st5" d="M58.5,38h-41c-0.3,0-0.5-0.2-0.5-0.5l0,0c0-0.3,0.2-0.5,0.5-0.5h41c0.3,0,0.5,0.2,0.5,0.5l0,0
			C59,37.8,58.8,38,58.5,38z"/>
		<path class="st5" d="M58.5,43h-41c-0.3,0-0.5-0.2-0.5-0.5l0,0c0-0.3,0.2-0.5,0.5-0.5h41c0.3,0,0.5,0.2,0.5,0.5l0,0
			C59,42.8,58.8,43,58.5,43z"/>
		<path class="st5" d="M58.5,48h-41c-0.3,0-0.5-0.2-0.5-0.5l0,0c0-0.3,0.2-0.5,0.5-0.5h41c0.3,0,0.5,0.2,0.5,0.5l0,0
			C59,47.8,58.8,48,58.5,48z"/>
		<path class="st5" d="M58.5,53h-41c-0.3,0-0.5-0.2-0.5-0.5l0,0c0-0.3,0.2-0.5,0.5-0.5h41c0.3,0,0.5,0.2,0.5,0.5l0,0
			C59,52.8,58.8,53,58.5,53z"/>
	</g>
	<path class="st4" d="M58,58H46c-0.5,0-1-0.5-1-1l0,0c0-0.5,0.5-1,1-1h12c0.5,0,1,0.5,1,1l0,0C59,57.5,58.5,58,58,58z"/>
	<g>
		<g>
			<polygon class="st6" points="36,70.9 34.1,65 35.2,60.1 38.7,70.9 			"/>
			<path class="st3" d="M35.3,62l2.7,8.4h-1.6L34.6,65L35.3,62 M35.1,58.2l-0.8,3.6l-0.7,3L33.6,65l0.1,0.3l1.8,5.5l0.2,0.7h0.7H38
				h1.4L39,70.1l-2.7-8.4L35.1,58.2L35.1,58.2z"/>
		</g>
		<path class="st7" d="M30.7,59.9V58h-2.6v1.9h-5.7h-0.2h-2.2l-3.4,10.5h2.2c0,0,0,0,0,0c4.2,0,8.4,0,12.7,0l0.9-2.7h0l2.5-7.8H30.7
			z"/>
	</g>
	<g>
		<path class="st8" d="M70,50.7c0.3,0.5,0.3,1.3,0,2.3c-0.3,1.2-1.1,2-1.9,2.1c-0.4,1.7-1.2,3.2-2.2,4.4c1.4,1,2.5,2.2,3.3,3.5
			c2,0.6,4,1.6,6,2.5c0.5,0.2,0.4,0.1,0.6,0.6c0.9,2,1.6,4.1,2.4,6.1c-4,4.9-10.2,8-17.2,8c-7,0-13.3-3.1-17.3-8
			c0.9-1.9,1.5-4.1,2.5-6.1c0.3-0.5,0.2-0.4,0.7-0.7c1.9-0.8,3.7-1.7,5.8-2.3c0.9-1.5,2.1-2.7,3.5-3.5c-1.1-1.2-1.9-2.7-2.3-4.5
			c-0.8,0-1.7-0.9-2-2.1c-0.3-1-0.3-1.8,0-2.3c0.2-0.3,0.4-0.4,0.6-0.4c-1.2-4.1,0.2-6.9,3.3-8.6c4.3-3.1,9.7-2.8,13,1.5
			C70.4,45.2,70.7,48.2,70,50.7z"/>
		<path class="st9" d="M60.9,39.7c-1.7,0.2-3.5,0.9-5.1,2c-3.1,1.7-4.5,4.5-3.3,8.6c0.5-0.1,1,0.3,1.3,0.8c0.1,0.1,0.1,0.3,0.1,0.4
			c0,0.5,0.1,1.1,0.2,1.6c0,0.2,0.4,0.3,0.3,0.1c-0.1-0.9,0-1.9-0.2-2.8l-0.1-0.8c0.5-2,1.6-3.7,3-4.8c1.2,1.3,2.7,2.4,4.7,2.6
			c3.3,0.3,5.3,1.4,6.3,3c-0.2,0.8,0,1.9-0.2,2.8c0,0.2,0.3,0.1,0.3-0.1c0.1-0.5,0.1-1,0.1-1.6c-0.1-0.2-0.1-0.4,0-0.6
			c0.4-0.6,1.2-0.9,1.7-0.1c0.7-2.6,0.4-5.5-1.1-7.6c-1.6-2.1-3.7-3.2-6-3.5H60.9z"/>
		<path class="st10" d="M52.3,50.4c-0.1,0.1-0.2,0.2-0.3,0.3c-0.3,0.5-0.3,1.3,0,2.3c0.2,0.9,0.7,1.5,1.3,1.9
			c0.3,0.2,0.5,0.2,0.8,0.2c0.4,1.8,1.2,3.3,2.3,4.5C56.2,60,56.1,60.5,56,61c1.4,2.1,3.2,3.4,5,3.4c2,0,3.8-1.4,5.3-3.7
			c-0.1-0.5-0.3-0.9-0.4-1.1c1-1.1,1.8-2.7,2.2-4.4c0.2,0,0.4-0.1,0.6-0.2c0.5-0.3,1-1,1.3-1.9c0.3-1,0.3-1.8,0-2.3
			c-0.1-0.1-0.2-0.2-0.3-0.3c-0.5-0.4-1.1,0-1.4,0.4c-0.1,0.2-0.1,0.4,0,0.6c0,0.5,0,1.1-0.1,1.6c0,0.2-0.4,0.3-0.3,0.1
			c0.1-0.9,0-1.9,0.2-2.8c-1-1.7-2.9-2.7-6.3-3c-1.9-0.2-3.4-1.3-4.7-2.6c-1.4,1.1-2.5,2.8-3,4.8l0.1,0.8c0.2,0.8,0,1.9,0.2,2.8
			c0,0.2-0.3,0.1-0.3-0.1c-0.1-0.5-0.2-1-0.2-1.6c0-0.1,0-0.3-0.1-0.4c-0.3-0.5-0.8-0.9-1.3-0.8C52.5,50.3,52.4,50.3,52.3,50.4z"/>
		<path class="st11" d="M54,54.8c-0.2-0.7-0.3-1.4-0.3-2.1c0-0.5,0-0.9,0-1.4c0-0.1-0.1-0.1-0.1-0.2c-0.2-0.2-0.4-0.4-0.7-0.3
			c-0.2,0-0.3,0.2-0.4,0.3c-0.3,0.5-0.1,1.4,0.1,2c0.1,0.5,0.4,1,0.8,1.3C53.5,54.5,53.7,54.7,54,54.8z M68.2,54.8
			c0.2-0.7,0.3-1.4,0.3-2.1c0-0.5,0-0.9,0-1.4c0-0.1,0.1-0.1,0.1-0.2c0.2-0.2,0.4-0.4,0.7-0.3c0.2,0,0.3,0.2,0.4,0.3
			c0.3,0.5,0.1,1.4-0.1,2c-0.1,0.5-0.4,1-0.8,1.3C68.6,54.5,68.4,54.7,68.2,54.8z"/>
		<path class="st12" d="M56.3,59.7c-2.7,7.2,3.1,14,4.4,20.5c-0.2,0-0.4,0-0.7,0l-8.8-10.4l2.5-1.9c-0.5-0.7-1.6-1.1-2-1.8
			c0.4-0.9,0.4-2,1-2.9C53.7,61.7,54.9,60.5,56.3,59.7z M66.4,59.9c1.2,0.9,2.1,2,2.8,3.1c0.1,0,0.2,0.1,0.3,0.1l0,0
			c0.6,0.9,0.6,2,1,2.9c-0.5,0.7-1.5,1.1-2,1.8l2.5,1.9l-8.8,10.4c-0.2,0-0.4,0-0.7,0c1.3-6.5,7.2-13.3,4.4-20.5
			C66.1,59.8,66.3,59.8,66.4,59.9z"/>
		<path class="st11" d="M65.9,59.6c0,0-1.9,2.1-4.8,2.1c-2,0-4.8-1.9-4.8-1.9L56.3,60c0.5,0.6,1.1,1,1.7,1.4c0.9,0.5,2,0.9,3.2,1
			c1.1,0.2,2.3,0.2,3.6,0.2c0.5-0.5,1-1.2,1.5-1.9C66.2,60.2,66,59.8,65.9,59.6z"/>
		<path class="st3" d="M61,64.4c-1.9,0-3.6-1.2-5-3.4c0.1-0.5,0.2-1,0.4-1.4c-1.8,4.7,0.1,9.2,1.9,13.5c1,2.4,2.1,4.7,2.5,7H61
			c0.2,0,0.4,0,0.6,0c0.4-2.1,1.4-4.3,2.3-6.5c1.9-4.5,4-9.2,2.2-14.1c0.1,0.1,0.2,0.1,0.3,0.2c-0.1-0.1-0.2-0.2-0.4-0.3
			c0.1,0.2,0.2,0.6,0.4,1.1c-0.5,0.7-1,1.4-1.5,1.9C63.6,63.8,62.3,64.4,61,64.4z"/>
		<path class="st13" d="M61,64.8l-2.3,3.5l0.8,1.1l-1.2,3.9c1,2.4,2.1,4.7,2.5,7H61c0.2,0,0.4,0,0.6,0c0.4-2.1,1.3-4.3,2.3-6.5
			c0.1-0.3-1.3-4.4-1.3-4.4l0.8-1.3L61,64.8z"/>
		<path class="st14" d="M61,64.9l-3.6,4.7l-1.6-3.4c0.4,2.4,1.4,4.8,2.4,7.1l1.2-3.8l-0.8-1.1L61,64.9z M64.7,69.6L61,64.9l2.3,3.3
			l-0.8,1.3c0,0,1.3,3.5,1.3,4.3c1.1-2.6,2.2-5.2,2.7-7.8L64.7,69.6z"/>
		<path class="st11" d="M61.8,47.3c-1.9-0.2-3.4-1.3-4.7-2.6c-1.4,1.1-2.5,2.8-3,4.8c1-1.4,1.6-3.3,3-4.3c1.8,3.5,8.1,2.2,10.9,5
			C67,48.6,65.1,47.6,61.8,47.3z"/>
	</g>
</g>
</svg>
