<?xml version="1.0" encoding="utf-8"?>
<!-- Generator: Adobe Illustrator 22.0.1, SVG Export Plug-In . SVG Version: 6.00 Build 0)  -->
<svg version="1.1" xmlns="http://www.w3.org/2000/svg" xmlns:xlink="http://www.w3.org/1999/xlink" x="0px" y="0px"
	 viewBox="0 0 80 80" style="enable-background:new 0 0 80 80;" xml:space="preserve">
<style type="text/css">
	.st0{display:none;}
	.st1{display:inline;}
	.st2{fill:#FFFFFF;}
	.st3{fill:#662D91;}
	.st4{fill:#444442;}
	.st5{fill:none;stroke:#29ABE2;stroke-width:1.5;stroke-linecap:round;stroke-miterlimit:10;}
	.st6{fill:#FAC13C;stroke:#0071BC;stroke-width:2;stroke-miterlimit:10;}
	.st7{fill:none;stroke:#0071BC;stroke-width:2;stroke-linecap:round;stroke-miterlimit:10;}
</style>
<g id="Capa_2" class="st0">
	<rect class="st1" width="80" height="80"/>
</g>
<g id="Capa_4">
	<polygon class="st2" points="65.5,15.5 65.5,75.5 10.5,75.5 10.5,3 53,3 	"/>
	<path class="st3" d="M30.6,13H18.4c-0.8,0-1.4-0.6-1.4-1.4v-0.2c0-0.8,0.6-1.4,1.4-1.4h12.2c0.8,0,1.4,0.6,1.4,1.4v0.2
		C32,12.4,31.4,13,30.6,13z"/>
	<g>
		<path class="st4" d="M58.5,18h-41c-0.3,0-0.5-0.2-0.5-0.5l0,0c0-0.3,0.2-0.5,0.5-0.5h41c0.3,0,0.5,0.2,0.5,0.5l0,0
			C59,17.8,58.8,18,58.5,18z"/>
		<path class="st4" d="M58.5,23h-41c-0.3,0-0.5-0.2-0.5-0.5l0,0c0-0.3,0.2-0.5,0.5-0.5h41c0.3,0,0.5,0.2,0.5,0.5l0,0
			C59,22.8,58.8,23,58.5,23z"/>
		<path class="st4" d="M58.5,28h-41c-0.3,0-0.5-0.2-0.5-0.5l0,0c0-0.3,0.2-0.5,0.5-0.5h41c0.3,0,0.5,0.2,0.5,0.5l0,0
			C59,27.8,58.8,28,58.5,28z"/>
		<path class="st4" d="M58.5,33h-41c-0.3,0-0.5-0.2-0.5-0.5l0,0c0-0.3,0.2-0.5,0.5-0.5h41c0.3,0,0.5,0.2,0.5,0.5l0,0
			C59,32.8,58.8,33,58.5,33z"/>
		<path class="st4" d="M58.5,38h-41c-0.3,0-0.5-0.2-0.5-0.5l0,0c0-0.3,0.2-0.5,0.5-0.5h41c0.3,0,0.5,0.2,0.5,0.5l0,0
			C59,37.8,58.8,38,58.5,38z"/>
		<path class="st4" d="M58.5,43h-41c-0.3,0-0.5-0.2-0.5-0.5l0,0c0-0.3,0.2-0.5,0.5-0.5h41c0.3,0,0.5,0.2,0.5,0.5l0,0
			C59,42.8,58.8,43,58.5,43z"/>
		<path class="st4" d="M58.5,48h-41c-0.3,0-0.5-0.2-0.5-0.5l0,0c0-0.3,0.2-0.5,0.5-0.5h41c0.3,0,0.5,0.2,0.5,0.5l0,0
			C59,47.8,58.8,48,58.5,48z"/>
		<path class="st4" d="M58.5,53h-41c-0.3,0-0.5-0.2-0.5-0.5l0,0c0-0.3,0.2-0.5,0.5-0.5h41c0.3,0,0.5,0.2,0.5,0.5l0,0
			C59,52.8,58.8,53,58.5,53z"/>
	</g>
	<path class="st3" d="M58,58H46c-0.5,0-1-0.5-1-1l0,0c0-0.5,0.5-1,1-1h12c0.5,0,1,0.5,1,1l0,0C59,57.5,58.5,58,58,58z"/>
	<path class="st5" d="M23,66c0.2,2.1-1.3,3.9-3,4c-1.9,0.2-3.3-1.9-3.5-3.5c-0.3-2,1.1-4.1,2-4c0.8,0.1,0.6,1.7,2,4
		c0.9,1.6,3.2,4.5,5,4c1.1-0.3,1.9-1.7,2-3c0.2-2.6-2.5-4.2-2-5c0.6-1.1,5.8,0.3,6,2c0.1,0.8-0.9,1-2,3c-0.7,1.2-1.3,2.3-1,3
		c0.9,1.6,7.9,0.9,9-2c0.6-1.6-0.9-2.8,0-5c0.1-0.2,0.8-1.9,2-2c0.9-0.1,1.6,0.6,2,1c1.7,1.7,4.1,4.1,7,7"/>
	<g>
		<path class="st6" d="M70.2,21.9c-6.3,12.3-12.6,24.6-19,37c-1.6,2.7-2.2,5-2.4,6.7c-0.2,1.4-0.5,3.3,0.3,3.7
			c1.1,0.5,3.8-2.2,4.7-3.2c1.8-1.8,2.9-3.6,3.6-5c7-11.8,14.1-23.5,21.1-35.3c1.6-2.3,0.7-5.2-1.5-6.4
			C74.6,18.3,71.3,19.3,70.2,21.9z"/>
		<path class="st7" d="M51.9,44c1.2,0,2.8-0.2,3.9-1.3c1.3-1.2,1.3-2.7,1.6-4.8c0.3-2.3,0.9-6.1,3.2-9.6c0.8-1.2,2.4-3.6,5.6-5.1
			c1.5-0.8,2.9-1.1,3.9-1.3c2.8,1.3,5.6,2.6,8.4,4"/>
		<path class="st7" d="M66,31.6c2.4,1,4.9,2.1,7.3,3.1"/>
		<path class="st7" d="M64.2,34.5c2.4,1,4.9,2.1,7.3,3.1"/>
		<path class="st7" d="M51.2,58.9c1.7,0.8,3.5,1.6,5.2,2.4"/>
		<path class="st7" d="M62.4,37.5c2.4,1,4.9,2.1,7.3,3.1"/>
	</g>
</g>
</svg>
