<?xml version="1.0" encoding="utf-8"?>
<!-- Generator: Adobe Illustrator 22.0.1, SVG Export Plug-In . SVG Version: 6.00 Build 0)  -->
<svg version="1.1" id="Capa_1" xmlns="http://www.w3.org/2000/svg" xmlns:xlink="http://www.w3.org/1999/xlink" x="0px" y="0px"
	 viewBox="0 0 568 568" style="enable-background:new 0 0 568 568;" xml:space="preserve">
<style type="text/css">
	.st0{display:none;fill:#808080;}
	.st1{fill:#FFFFFF;}
	.st2{fill:none;stroke:#FF424F;stroke-width:30;stroke-linecap:round;stroke-miterlimit:10;}
	.st3{fill:none;stroke:#FBC93B;stroke-width:30;stroke-linecap:round;stroke-miterlimit:10;}
	.st4{fill:none;stroke:#FFFFFF;stroke-width:30;stroke-linecap:round;stroke-miterlimit:10;}
</style>
<rect x="-14" y="-9" class="st0" width="591" height="592"/>
<g>
	<path class="st1" d="M8.1,531.9h554.7c2.8,0,5,2.2,5,5v26.8c0,2.8-2.2,5-5,5H8.1c-2.8,0-5-2.2-5-5v-26.8
		C3.1,534.2,5.3,531.9,8.1,531.9z"/>
</g>
<g>
	<path class="st1" d="M2,561.7L2,7c0-2.8,2.2-5,5-5h26.8c2.8,0,5,2.2,5,5v554.7c0,2.8-2.2,5-5,5H7C4.2,566.7,2,564.5,2,561.7z"/>
</g>
<path class="st2" d="M56.4,274.1c13.3-14.2,28-27.4,48.1-29.7c18.9-2.2,37.8,5.9,52.5,17.9c55.9,45.5,73.6,124.6,132.7,166.8
	c80.8,57.6,192.1-11.1,244.3-77"/>
<path class="st3" d="M53,190.5c28.1-18.8,57.6-37.4,90.8-43.8s71.4,1.9,92,28.7c13.3,17.3,17.8,39.8,29.4,58.3
	c25.7,40.5,82.9,52.3,128.3,36.8c55.8-19.1,94.9-71.9,152.4-86.5"/>
<path class="st4" d="M65.7,375.3c33.3,43.9,76,73.7,133.7,54.5c42.8-14.3,75.4-49.7,99.4-87.9c32-51.2,51.4-111.6,91.5-157.3
	c37-42.1,87.1-72.8,141.7-85.6"/>
</svg>
