<?xml version="1.0" encoding="utf-8"?>
<!-- Generator: Adobe Illustrator 22.0.1, SVG Export Plug-In . SVG Version: 6.00 Build 0)  -->
<svg version="1.1" id="Capa_1" xmlns="http://www.w3.org/2000/svg" xmlns:xlink="http://www.w3.org/1999/xlink" x="0px" y="0px"
	 viewBox="0 0 568 568" style="enable-background:new 0 0 568 568;" xml:space="preserve">
<style type="text/css">
	.st0{display:none;fill:#808080;}
	.st1{fill:#FFFFFF;}
	.st2{fill:none;stroke:#FBC93B;stroke-width:40;stroke-linecap:round;stroke-linejoin:round;stroke-miterlimit:10;}
	.st3{fill:none;stroke:#FFFFFF;stroke-width:13;stroke-linecap:round;stroke-linejoin:round;stroke-miterlimit:10;}
</style>
<rect x="-14" y="-9" class="st0" width="591" height="592"/>
<g>
	<path class="st1" d="M8.1,531.9h554.7c2.8,0,5,2.2,5,5v26.8c0,2.8-2.2,5-5,5H8.1c-2.8,0-5-2.2-5-5v-26.8
		C3.1,534.2,5.3,531.9,8.1,531.9z"/>
</g>
<g>
	<path class="st1" d="M2,561.7L2,7c0-2.8,2.2-5,5-5h26.8c2.8,0,5,2.2,5,5v554.7c0,2.8-2.2,5-5,5H7C4.2,566.7,2,564.5,2,561.7z"/>
</g>
<path class="st2" d="M54,423c16.7-18,33.3-36,50-54c22,26,44,52,66,78c17-27.7,34-55.3,51-83c23-3,46-6,69-9
	c13.3-29.3,26.7-58.7,40-88c25-2.7,50-5.3,75-8c13-20,26-40,39-60"/>
<g>
	<line class="st3" x1="462" y1="141" x2="491" y2="166"/>
	<line class="st3" x1="464" y1="168" x2="489" y2="139"/>
</g>
<g>
	<line class="st3" x1="493" y1="77" x2="522" y2="102"/>
	<line class="st3" x1="495" y1="104" x2="520" y2="75"/>
</g>
<g>
	<line class="st3" x1="524" y1="16" x2="553" y2="41"/>
	<line class="st3" x1="526" y1="43" x2="551" y2="14"/>
</g>
</svg>
