<?xml version="1.0" encoding="utf-8"?>
<!-- Generator: Adobe Illustrator 22.0.1, SVG Export Plug-In . SVG Version: 6.00 Build 0)  -->
<svg version="1.1" id="Capa_1" xmlns="http://www.w3.org/2000/svg" xmlns:xlink="http://www.w3.org/1999/xlink" x="0px" y="0px"
	 viewBox="0 0 568 568" style="enable-background:new 0 0 568 568;" xml:space="preserve">
<style type="text/css">
	.st0{display:none;fill:#808080;}
	.st1{fill:#FFFFFF;}
	.st2{fill:none;stroke:#FBC93B;stroke-width:28;stroke-linecap:round;stroke-linejoin:round;stroke-miterlimit:10;}
</style>
<rect x="-14" y="-9" class="st0" width="591" height="592"/>
<g>
	<path class="st1" d="M8.1,531.9h554.7c2.8,0,5,2.2,5,5v26.8c0,2.8-2.2,5-5,5H8.1c-2.8,0-5-2.2-5-5v-26.8
		C3.1,534.2,5.3,531.9,8.1,531.9z"/>
</g>
<g>
	<path class="st1" d="M2,561.7V7c0-2.8,2.2-5,5-5h26.8c2.8,0,5,2.2,5,5c0,116,0,232.1,0,348.1c0,68.9,0,137.7,0,206.6
		c0,0.3,0,2.1-1.5,3.5c-0.9,0.9-2.2,1.5-3.5,1.5H7C4.2,566.7,2,564.5,2,561.7z"/>
</g>
<path class="st2" d="M54.4,349.7c13.8-43.5,27.5-87,41.3-130.4c26.6,24,53.1,48,79.7,72c23.9-25.6,47.9-51.1,71.8-76.7
	c7.7,80,15.5,159.9,23.2,239.9c19-55.6,38-111.3,57-166.9c12.7,18.2,25.4,36.4,38.1,54.6c19.2-83.5,38.4-167,57.6-250.6
	c10.6,61.8,21.1,123.5,31.7,185.3c19.2,22.1,38.4,44.2,57.6,66.2c13.5-36.5,27-72.9,40.5-109.4"/>
</svg>
