<?xml version="1.0" encoding="utf-8"?>
<!-- Generator: Adobe Illustrator 22.0.1, SVG Export Plug-In . SVG Version: 6.00 Build 0)  -->
<svg version="1.1" id="Capa_1" xmlns="http://www.w3.org/2000/svg" xmlns:xlink="http://www.w3.org/1999/xlink" x="0px" y="0px"
	 viewBox="0 0 568 568" style="enable-background:new 0 0 568 568;" xml:space="preserve">
<style type="text/css">
	.st0{display:none;fill:#808080;}
	.st1{fill:#FFFFFF;}
	.st2{fill:none;stroke:#FBC93B;stroke-width:30;stroke-linecap:round;stroke-linejoin:round;stroke-miterlimit:10;}
	.st3{fill:none;stroke:#FBC93B;stroke-width:30;stroke-linecap:round;stroke-miterlimit:10;}
</style>
<rect x="-14" y="-9" class="st0" width="591" height="592"/>
<g>
	<path class="st1" d="M8.1,531.9h554.7c2.8,0,5,2.2,5,5v26.8c0,2.8-2.2,5-5,5H8.1c-2.8,0-5-2.2-5-5v-26.8
		C3.1,534.2,5.3,531.9,8.1,531.9z"/>
</g>
<g>
	<path class="st1" d="M2,561.7L2,7c0-2.8,2.2-5,5-5h26.8c2.8,0,5,2.2,5,5v554.7c0,2.8-2.2,5-5,5H7C4.2,566.7,2,564.5,2,561.7z"/>
</g>
<path class="st2" d="M72,496c9.3-26,18.7-52,28-78c24-1.3,48-2.7,72-4c10-20.7,20-41.3,30-62c30-2,60-4,90-6c12.7-34,25.3-68,38-102
	c33.3-15.3,66.7-30.7,100-46c18.7-36.7,37.3-73.3,56-110"/>
<path class="st3" d="M429,84c24-7.3,48-14.7,72-22c6.7,21.3,13.3,42.7,20,64"/>
</svg>
