<?xml version="1.0" encoding="utf-8"?>
<!-- Generator: Adobe Illustrator 22.0.1, SVG Export Plug-In . SVG Version: 6.00 Build 0)  -->
<svg version="1.1" xmlns="http://www.w3.org/2000/svg" xmlns:xlink="http://www.w3.org/1999/xlink" x="0px" y="0px"
	 viewBox="0 0 80 80" style="enable-background:new 0 0 80 80;" xml:space="preserve">
<style type="text/css">
	.st0{display:none;}
	.st1{display:inline;}
	.st2{fill:#FFFFFF;}
	.st3{fill:#616164;}
	.st4{fill:none;stroke:#636264;stroke-width:2;stroke-linecap:round;stroke-miterlimit:10;}
	.st5{fill:#F67773;}
	.st6{fill:#0F79B8;}
	.st7{fill:#FFA93D;}
	.st8{fill:#8AA800;}
	.st9{fill:#A67C52;}
	.st10{fill:#343434;}
	.st11{fill:#B3B3B3;}
	.st12{fill:#CCCCCC;}
	.st13{fill:#373737;}
</style>
<g id="Capa_2" class="st0">
	<rect class="st1" width="80" height="80"/>
</g>
<g id="Capa_4">
	<g>
		<path class="st2" d="M22.3,76.5c-5.8,0-10.5-4.7-10.5-10.5V14c0-5.8,4.7-10.5,10.5-10.5h37c5.8,0,10.5,4.7,10.5,10.5v52
			c0,5.8-4.7,10.5-10.5,10.5H22.3z"/>
		<path class="st3" d="M59.3,5c5,0,9,4,9,9v52c0,5-4,9-9,9h-37c-5,0-9-4-9-9V14c0-5,4-9,9-9H59.3 M59.3,2h-37c-6.6,0-12,5.4-12,12
			v52c0,6.6,5.4,12,12,12h37c6.6,0,12-5.4,12-12V14C71.3,7.4,65.9,2,59.3,2L59.3,2z"/>
	</g>
	<line class="st4" x1="59.7" y1="47" x2="21.9" y2="46.8"/>
	<line class="st4" x1="59.7" y1="53" x2="21.9" y2="52.8"/>
	<line class="st4" x1="59.7" y1="59" x2="21.9" y2="58.8"/>
	<g id="Capa_3">
		<rect x="19" y="28.7" class="st5" width="9" height="11.3"/>
		<rect x="31.4" y="22.9" class="st6" width="9" height="17.1"/>
		<rect x="54.8" y="27.1" class="st7" width="9" height="12.9"/>
		<rect x="43.2" y="9" class="st8" width="9" height="31"/>
	</g>
	<line class="st4" x1="59.7" y1="65" x2="21.9" y2="64.8"/>
	<g>
		<g>
			<path class="st9" d="M49.2,79.3c-0.3,0-0.7-0.1-1-0.2c-1.2-0.7-1.5-2.6-0.6-4.2l16.9-31.1c0.6-1.2,1.8-2,2.9-2
				c0.3,0,0.7,0.1,1,0.2c1.2,0.7,1.5,2.6,0.6,4.2L52,77.3C51.4,78.5,50.2,79.3,49.2,79.3z"/>
			<g>
				<path class="st10" d="M67.3,42.3L67.3,42.3c0.3,0,0.5,0.1,0.7,0.2c1,0.5,1.2,2.2,0.4,3.5L51.6,77.1c-0.6,1-1.5,1.7-2.4,1.7
					c-0.3,0-0.5-0.1-0.7-0.2c-1-0.5-1.2-2.2-0.4-3.5L64.9,44C65.4,43,66.4,42.3,67.3,42.3 M67.3,41.3c-1.2,0-2.5,0.8-3.3,2.2
					L47.2,74.6c-1,1.9-0.7,4.1,0.8,4.9c0.4,0.2,0.8,0.3,1.2,0.3c1.2,0,2.5-0.8,3.3-2.2l16.9-31.1c1-1.9,0.7-4.1-0.8-4.9
					C68.1,41.4,67.7,41.3,67.3,41.3L67.3,41.3z"/>
			</g>
		</g>
		<g>
			<path class="st11" d="M79.2,61.6c0,0-0.1,0-0.1,0c-4.8-3.9-9.9-7.5-15.2-10.7c-5.4-3.2-11.1-6-16.9-8.3c-0.1-0.1-0.1-0.2-0.1-0.3
				c0-0.1,0.1-0.3,0.3-0.3l0.4,0c4.7,0,11.7,0.9,18.8,5.2c6.8,4.2,10.9,9.9,13.1,13.9c0.1,0.1,0,0.3,0,0.3
				C79.4,61.5,79.3,61.6,79.2,61.6L79.2,61.6z"/>
			<path class="st10" d="M48.1,42.4c4.6,0.1,11.3,1.1,18,5.2c6.2,3.8,10.2,9,12.5,12.9c-4.5-3.7-9.4-7.1-14.3-10
				C59.1,47.4,53.6,44.7,48.1,42.4 M47.6,41.4c-0.1,0-0.3,0-0.4,0c-0.8,0-1.1,1.3-0.4,1.6c5.2,2,10.9,4.7,16.9,8.3
				c5.8,3.5,10.9,7.2,15.1,10.6c0.1,0.1,0.3,0.2,0.4,0.2c0.5,0,1-0.7,0.7-1.3c-2.3-4.1-6.4-9.9-13.3-14.1
				C59.4,42.3,52.3,41.4,47.6,41.4L47.6,41.4z"/>
		</g>
		<g>
			<path class="st12" d="M65.5,53.6c-0.4,0-0.8-0.1-1.1-0.3l-3.5-2.2c-1-0.7-1.3-2.1-0.7-3.2l1.1-1.8c0.4-0.7,1.2-1.1,2-1.1
				c0.4,0,0.8,0.1,1.1,0.3l3.5,2.2c1,0.7,1.3,2.1,0.7,3.2l-1.1,1.8C67.1,53.2,66.3,53.6,65.5,53.6z"/>
			<g>
				<path class="st13" d="M63.3,45.4c0.3,0,0.6,0.1,0.9,0.2l3.5,2.2c0.8,0.5,1,1.7,0.5,2.5l-1.1,1.8c-0.3,0.6-0.9,0.9-1.6,0.9
					c-0.3,0-0.6-0.1-0.9-0.2l-3.5-2.2c-0.8-0.5-1-1.7-0.5-2.5l1.1-1.8C62.1,45.7,62.7,45.4,63.3,45.4 M63.3,44.4
					c-0.9,0-1.9,0.5-2.4,1.4l-1.1,1.8c-0.8,1.3-0.4,3.1,0.8,3.9l3.5,2.2c0.4,0.3,0.9,0.4,1.4,0.4c0.9,0,1.9-0.5,2.4-1.4l1.1-1.8
					c0.8-1.3,0.4-3.1-0.8-3.9l-3.5-2.2C64.3,44.5,63.8,44.4,63.3,44.4L63.3,44.4z"/>
			</g>
		</g>
	</g>
</g>
</svg>
