<?xml version="1.0" encoding="utf-8"?>
<!-- Generator: Adobe Illustrator 22.0.1, SVG Export Plug-In . SVG Version: 6.00 Build 0)  -->
<svg version="1.1" xmlns="http://www.w3.org/2000/svg" xmlns:xlink="http://www.w3.org/1999/xlink" x="0px" y="0px"
	 viewBox="0 0 80 80" style="enable-background:new 0 0 80 80;" xml:space="preserve">
<style type="text/css">
	.st0{display:none;}
	.st1{display:inline;}
	.st2{fill:#EB516B;}
	.st3{fill:none;stroke:#EB516B;stroke-width:2;stroke-miterlimit:10;stroke-dasharray:10,7;}
	.st4{fill:#FFFFFF;}
	.st5{fill:#3D576D;}
	.st6{fill:#2DC1D6;}
	.st7{fill:#FFBF4E;}
</style>
<g id="Capa_2" class="st0">
	<rect class="st1" width="80" height="80"/>
</g>
<g id="Capa_4">
	<g>
		<path class="st2" d="M74.3,34.5L19.9,50.9c-0.5,0.2-3.3,1.3-6.4,0c-3.4-1.4-4.3-4.6-4.4-5L4,34c-0.6-1.5,0.1-3.1,1.7-3.6
			l55.6-16.7c0.3-0.1,3.4-1.3,6.2,0.4c2.1,1.3,2.8,3.3,2.9,3.8L76,30.9C76.6,32.4,75.9,34,74.3,34.5z"/>
		<path class="st3" d="M77,35.8L18.9,53.3c-0.5,0.2-3.5,1.4-6.9-0.2c-3.7-1.8-4.8-5.4-4.9-5.9L1.3,33.3c-0.7-1.8,0-3.6,1.7-4.2
			l59.3-17.9c0.3-0.1,3.6-1.4,6.7,0.7c2.3,1.5,3.1,3.9,3.3,4.5l6.4,15.2C79.5,33.4,78.7,35.3,77,35.8z"/>
		<g>
			<path class="st4" d="M16.7,43.2c-0.1-0.5-0.3-1.3-0.6-2.5c-0.3-1.1-0.5-2-0.7-2.4c-0.1,0.1-0.2,0.2-0.3,0.3
				c-0.1,0.1-0.3,0.4-0.6,0.8c-0.1-0.3-0.2-0.6-0.3-1c-0.1-0.4-0.2-0.7-0.2-0.8c0.1-0.1,0.3-0.3,0.5-0.5c0.2-0.2,0.3-0.3,0.3-0.4
				c0,0,0.1-0.1,0.2-0.2c0.3-0.1,0.6-0.2,1-0.3c0.4-0.1,0.7-0.2,1.1-0.4l0.3,1.1l1,3.7l0.4,1.3l0.2,0.6c-0.3,0.1-0.6,0.2-1,0.3
				C17.4,43,17,43.1,16.7,43.2z"/>
			<path class="st4" d="M22.1,34c0.5-0.2,1-0.2,1.5-0.1c0.5,0.1,0.9,0.3,1.3,0.7c0.4,0.4,0.7,1,0.9,1.6c0.2,0.5,0.3,1.1,0.3,1.6
				c0,0.6,0,1-0.2,1.4c-0.2,0.4-0.4,0.7-0.8,1c-0.4,0.3-0.8,0.5-1.2,0.7c-0.4,0.1-0.8,0.2-1.2,0.2c-0.4,0-0.8-0.1-1.1-0.3
				c-0.4-0.2-0.7-0.5-0.9-0.8c-0.2-0.4-0.4-0.8-0.6-1.2c-0.2-0.5-0.3-1.1-0.3-1.7c0-0.6,0-1.1,0.2-1.5c0.2-0.4,0.4-0.8,0.8-1
				C21.3,34.4,21.7,34.2,22.1,34z M22.5,35.5c-0.2,0-0.3,0.1-0.4,0.3C22,35.9,22,36.1,22,36.3c0,0.3,0,0.6,0,0.9
				c0,0.3,0.1,0.7,0.3,1.1c0.1,0.3,0.2,0.6,0.4,0.8s0.3,0.3,0.5,0.4c0.2,0.1,0.3,0.1,0.5,0c0.1,0,0.2-0.1,0.3-0.2
				c0.1-0.1,0.2-0.2,0.2-0.3c0.1-0.2,0.1-0.4,0.1-0.6c0-0.3,0-0.5-0.1-0.8c0-0.3-0.1-0.5-0.2-0.8c-0.2-0.6-0.4-0.9-0.6-1.2
				C23,35.5,22.8,35.4,22.5,35.5z"/>
			<path class="st4" d="M27.3,32.4c0.3-0.1,0.6-0.1,1-0.1c0.3,0.1,0.6,0.2,0.8,0.5c0.2,0.3,0.4,0.6,0.6,1c0.1,0.5,0.2,0.9,0.2,1.3
				c0,0.4-0.2,0.8-0.4,1c-0.2,0.3-0.5,0.4-0.9,0.6c-0.3,0.1-0.5,0.1-0.8,0.1c-0.3,0-0.5-0.1-0.7-0.2c-0.2-0.1-0.4-0.3-0.5-0.5
				c-0.1-0.2-0.3-0.5-0.4-0.8C26,34.9,26,34.5,26,34.1c0-0.4,0.2-0.8,0.4-1.1C26.6,32.7,26.9,32.6,27.3,32.4z M27.6,33.4
				c-0.1,0-0.2,0.1-0.3,0.3c-0.1,0.1-0.1,0.4-0.1,0.6c0,0.3,0.1,0.5,0.1,0.7c0.1,0.3,0.2,0.6,0.4,0.7c0.1,0.1,0.3,0.2,0.5,0.1
				c0.2-0.1,0.3-0.3,0.3-0.6c0-0.3,0-0.7-0.2-1.1c-0.1-0.3-0.2-0.6-0.4-0.7C27.9,33.4,27.7,33.3,27.6,33.4z M29.7,39.1l0.6-3
				l0.8-4.8c0.2-0.1,0.4-0.1,0.6-0.2c0.1,0,0.3-0.1,0.5-0.2l-0.4,2.3l-0.7,4l-0.2,1.4c-0.2,0.1-0.4,0.1-0.5,0.2
				C30.2,38.9,30,39,29.7,39.1z M33.3,33.3c0.3-0.1,0.6-0.1,0.9-0.1c0.3,0,0.6,0.2,0.8,0.4c0.3,0.2,0.4,0.6,0.6,1
				c0.1,0.3,0.2,0.6,0.2,0.9c0,0.3,0,0.6-0.1,0.9c-0.1,0.3-0.3,0.5-0.5,0.7c-0.2,0.2-0.5,0.3-0.8,0.4c-0.3,0.1-0.6,0.1-0.9,0.1
				c-0.3-0.1-0.6-0.2-0.8-0.4c-0.2-0.2-0.4-0.6-0.6-1.1C32,35.8,32,35.4,32,34.9c0-0.4,0.2-0.8,0.4-1C32.7,33.6,33,33.5,33.3,33.3z
				 M33.6,34.3c-0.1,0-0.2,0.1-0.3,0.3c-0.1,0.2-0.1,0.3,0,0.6c0,0.2,0.1,0.5,0.2,0.7c0.1,0.2,0.1,0.3,0.2,0.4
				c0.1,0.1,0.1,0.2,0.2,0.3c0.1,0.1,0.1,0.1,0.2,0.2c0.1,0,0.2,0,0.3,0c0.1,0,0.1,0,0.2-0.1c0,0,0.1-0.1,0.1-0.2
				c0-0.1,0.1-0.2,0.1-0.4c0-0.2,0-0.3,0-0.5c0-0.2-0.1-0.3-0.1-0.5c-0.1-0.3-0.2-0.6-0.4-0.7C33.9,34.3,33.8,34.2,33.6,34.3z"/>
			<path class="st4" d="M43,25.5c0.7-0.2,1.5-0.4,2.2-0.4s1.4,0.1,2.1,0.4c0.7,0.3,1.2,0.7,1.6,1.2c0.4,0.5,0.8,1.1,1,1.9
				c0.2,0.8,0.3,1.6,0.3,2.4s-0.3,1.5-0.7,2.1c-0.4,0.6-0.9,1.2-1.6,1.7c-0.7,0.5-1.4,0.8-2.2,1.1c-0.8,0.3-1.6,0.4-2.3,0.4
				c-0.8,0-1.5-0.1-2.2-0.4c-0.7-0.3-1.2-0.7-1.6-1.2s-0.7-1.1-0.9-1.8c-0.3-1-0.4-2-0.1-3c0.2-0.9,0.7-1.8,1.5-2.5
				C40.9,26.4,41.8,25.8,43,25.5z M43.5,27.7c-0.5,0.2-1,0.5-1.3,0.9c-0.3,0.4-0.6,0.9-0.6,1.5c-0.1,0.6,0,1.1,0.1,1.7
				c0.2,0.5,0.4,0.9,0.7,1.3c0.3,0.4,0.8,0.6,1.3,0.7c0.5,0.1,1,0.1,1.5-0.1c0.5-0.2,0.9-0.5,1.3-0.9c0.3-0.4,0.6-0.9,0.6-1.4
				c0.1-0.6,0-1.1-0.1-1.6c-0.2-0.5-0.4-1-0.7-1.3c-0.3-0.4-0.8-0.6-1.2-0.7C44.5,27.5,44,27.5,43.5,27.7z"/>
			<path class="st4" d="M52.7,33.3c-0.2-1-0.4-1.8-0.5-2.4c-0.2-0.9-0.5-2.1-1-3.6c-0.4-1.5-0.7-2.6-0.9-3.1l-0.2-0.8
				c1.4-0.5,2.7-0.9,3.9-1.3c1.2-0.4,2.4-0.8,3.5-1.2c0.3,1.1,0.5,1.9,0.6,2.2l-0.6,0.2l-0.5,0.2l-0.5,0.2L55.1,24
				c-0.2,0.1-0.6,0.2-1.4,0.5l0.5,1.7l1-0.3l1.1-0.4c0.3-0.1,0.8-0.3,1.5-0.5c0.2,0.9,0.4,1.6,0.6,2.2c-0.8,0.2-1.3,0.4-1.7,0.5
				c-0.6,0.2-1.3,0.4-2,0.7l0.7,2.6l0.3,1l0.1,0.3l-1.5,0.5C54.2,32.8,53.6,32.9,52.7,33.3z"/>
			<path class="st4" d="M61.4,30.4c-0.2-1-0.4-1.8-0.5-2.4c-0.2-0.9-0.5-2.1-0.9-3.6c-0.4-1.5-0.7-2.6-0.9-3.1l-0.2-0.8
				c1.4-0.5,2.7-0.9,3.9-1.3c1.2-0.4,2.4-0.8,3.5-1.2c0.3,1.1,0.5,1.9,0.6,2.2l-0.6,0.2l-0.5,0.2l-0.5,0.2l-1.4,0.5
				c-0.2,0.1-0.6,0.2-1.4,0.5l0.5,1.7l1-0.3l1.1-0.4c0.3-0.1,0.8-0.3,1.5-0.5c0.2,0.9,0.4,1.6,0.6,2.2c-0.8,0.2-1.3,0.4-1.7,0.5
				c-0.6,0.2-1.3,0.4-2,0.7l0.7,2.6l0.3,1l0.1,0.3L63,29.8C62.9,29.9,62.4,30.1,61.4,30.4z"/>
		</g>
	</g>
	<g>
		<g>
			<path class="st5" d="M25.2,30.5c-0.9,0-1.7-0.3-2.2-0.5L7.3,22c-0.4,0.4-1.1,0.9-2.1,0.9c-0.1,0-0.2,0-0.3,0
				c-1.9,0-4-1.5-4.3-3.9c-0.3-2.4,1.3-4.6,3.6-4.8c0.1,0,0.3,0,0.4,0c2.1,0,3.9,1.7,4.1,3.9c0,0.1,0,0.2,0,0.3
				c0.8,0.4,1.5,0.7,2.3,1.1l2.5,1.3l0.3,0.1c1.3,0.7,2.9,1.5,4.6,2.4l0.7,0.3c1.2,0.6,2.6,1.3,4.3,2.2c0.9,0.5,2.5,1.4,4.5,2.9
				l0.3,0.2l0.2,0.2l-0.2,0.2c-0.8,0.7-1.8,1.1-2.8,1.1L25.2,30.5z M4.7,16.2c-0.1,0-0.2,0-0.2,0c-1.2,0.1-2.1,1.3-1.9,2.6
				C2.6,20.1,3.6,21,4.7,21c0.1,0,0.2,0,0.2,0c1.2-0.1,2.1-1.3,1.9-2.6C6.7,17.1,5.8,16.2,4.7,16.2z"/>
			<path class="st4" d="M4.6,14.4c1.9,0,3.6,1.6,3.9,3.7c0,0.2,0,0.3,0,0.5c0.8,0.4,1.6,0.8,2.4,1.1c0.8,0.4,1.6,0.9,2.5,1.3
				c0.1,0,0.2,0.1,0.3,0.2c1.3,0.7,2.9,1.5,4.6,2.4c1.5,0.7,2.9,1.5,5,2.6c1,0.5,2.6,1.4,4.4,2.9c0.1,0.1,0.2,0.2,0.3,0.2
				c-0.7,0.7-1.7,1-2.7,1.1c0,0-0.1,0-0.1,0c-0.9,0-1.7-0.3-2-0.5c-5.3-2.7-10.6-5.4-15.9-8.1c-0.3,0.3-1.1,0.9-2.1,1
				c-0.1,0-0.2,0-0.2,0c-1.7,0-3.8-1.3-4-3.7c-0.2-2.3,1.3-4.3,3.4-4.6C4.4,14.4,4.5,14.4,4.6,14.4 M4.7,21.2c0.1,0,0.2,0,0.3,0
				c1.3-0.2,2.3-1.5,2.1-2.9c-0.1-1.4-1.2-2.4-2.5-2.4c-0.1,0-0.2,0-0.3,0c-1.3,0.2-2.3,1.5-2.1,2.9C2.4,20.2,3.5,21.2,4.7,21.2
				 M4.6,13.9C4.6,13.9,4.6,13.9,4.6,13.9c-0.2,0-0.3,0-0.5,0c-2.4,0.3-4.1,2.6-3.8,5.1c0.3,2.6,2.5,4.1,4.5,4.1c0.1,0,0.2,0,0.3,0
				c1-0.1,1.7-0.5,2.1-0.9l7.7,3.9l8,4c0.5,0.3,1.3,0.6,2.3,0.6l0.1,0c1.1,0,2.2-0.5,3-1.2l0.5-0.4l-0.5-0.4l-0.1-0.1
				c-0.1,0-0.1-0.1-0.2-0.2c-1.9-1.6-3.6-2.4-4.5-2.9c-1.7-0.9-3-1.6-4.3-2.2l-0.7-0.3c-1.7-0.8-3.2-1.6-4.6-2.4l-0.2-0.1
				c-0.1,0-0.1-0.1-0.2-0.1c-0.4-0.2-0.8-0.4-1.2-0.6c-0.4-0.2-0.8-0.4-1.2-0.6c-0.7-0.3-1.4-0.7-2.1-1c0-0.1,0-0.1,0-0.2
				C8.7,15.7,6.9,13.9,4.6,13.9L4.6,13.9L4.6,13.9z M4.7,20.7c-1,0-1.8-0.8-2-1.9c-0.1-1.2,0.6-2.2,1.7-2.4c0.1,0,0.1,0,0.2,0
				c1,0,1.8,0.8,2,1.9c0.1,1.2-0.6,2.2-1.7,2.4C4.8,20.7,4.8,20.7,4.7,20.7L4.7,20.7z"/>
		</g>
		<g>
			<path class="st6" d="M6.6,34.4c-2,0-3.7-1.5-4-3.6c-0.4-2.4,1.5-4.4,3.4-4.8C6.3,26,6.5,26,6.7,26c0.7,0,1.2,0.2,1.6,0.4L21.5,15
				c0.6-0.5,1.3-0.9,2.1-1.1c0.4-0.1,0.7-0.1,1.1-0.1c0.7,0,1.3,0.1,1.9,0.4l0.3,0.1l-0.4,0.5c-1.5,1.9-2.9,3.2-3.6,3.8
				c-1.4,1.3-2.5,2.2-3.6,3.2l-0.6,0.5c-1.5,1.3-2.8,2.4-3.9,3.4l-2.3,2l-1.9,1.6c0,0.1,0.1,0.2,0.1,0.3c0.3,2.3-1.2,4.4-3.4,4.8
				C7,34.4,6.8,34.4,6.6,34.4L6.6,34.4z M6.7,27.9c-0.1,0-0.2,0-0.3,0c-1.2,0.2-2,1.3-1.8,2.6c0.2,1.1,1.1,1.9,2.2,1.9
				c0.1,0,0.2,0,0.3,0c1.2-0.2,2-1.3,1.8-2.6C8.6,28.8,7.7,27.9,6.7,27.9z"/>
			<path class="st4" d="M24.7,14c0.6,0,1.2,0.1,1.8,0.4c0,0.1-0.1,0.2-0.2,0.3c-1.4,1.8-2.8,3.1-3.6,3.8C21,20,19.8,21,18.6,22.1
				c-1.5,1.3-2.8,2.4-3.9,3.4c-0.1,0.1-0.2,0.1-0.3,0.2c-0.7,0.6-1.4,1.2-2.1,1.8c-0.7,0.6-1.4,1.1-2,1.7c0,0.1,0.1,0.3,0.1,0.4
				c0.3,2.1-1.1,4.2-3.2,4.5c-0.2,0-0.4,0-0.6,0c-1.9,0-3.5-1.4-3.8-3.3c-0.3-2.3,1.5-4.2,3.2-4.5c0.2,0,0.4-0.1,0.6-0.1
				c0.7,0,1.4,0.3,1.7,0.4c4.4-3.8,8.9-7.7,13.3-11.5c0.3-0.3,1-0.8,2-1C24,14,24.3,14,24.7,14 M6.6,32.7c0.1,0,0.2,0,0.4,0
				c1.3-0.2,2.2-1.5,2-2.9c-0.2-1.2-1.2-2.1-2.4-2.1c-0.1,0-0.2,0-0.4,0c-1.3,0.2-2.2,1.5-2,2.9C4.4,31.8,5.5,32.7,6.6,32.7
				 M24.7,13.5c-0.4,0-0.8,0-1.2,0.1c-0.8,0.2-1.6,0.6-2.2,1.1L8.3,26.1c-0.4-0.2-1-0.3-1.6-0.3c-0.2,0-0.5,0-0.7,0.1
				c-2,0.4-4,2.5-3.6,5c0.3,2.2,2.1,3.8,4.3,3.8c0.2,0,0.4,0,0.7-0.1c2.4-0.4,4-2.6,3.6-5.1c0-0.1,0-0.1,0-0.2l1.3-1.1l0.5-0.4
				l0.8-0.7l1.3-1.1l0.2-0.1l0.1-0.1c1.3-1.1,2.6-2.3,3.9-3.4l0.6-0.5c1.1-0.9,2.2-1.9,3.6-3.2c0.7-0.7,2.1-1.9,3.6-3.8l0.2-0.3
				l0.4-0.5l-0.6-0.3C26.1,13.6,25.4,13.5,24.7,13.5L24.7,13.5z M6.6,32.2c-0.9,0-1.8-0.7-1.9-1.7c-0.2-1.1,0.6-2.1,1.6-2.3
				c0.1,0,0.2,0,0.3,0c0.9,0,1.8,0.7,1.9,1.7C8.7,31,8,32,6.9,32.2C6.8,32.2,6.7,32.2,6.6,32.2L6.6,32.2z"/>
		</g>
		<g>
			<circle class="st4" cx="14.5" cy="23.5" r="0.8"/>
			<path class="st4" d="M14.5,23c0.3,0,0.5,0.2,0.5,0.5S14.8,24,14.5,24S14,23.8,14,23.5S14.2,23,14.5,23 M14.5,22.5
				c-0.6,0-1,0.4-1,1s0.4,1,1,1s1-0.4,1-1S15.1,22.5,14.5,22.5L14.5,22.5z"/>
		</g>
	</g>
	<g>
		<path class="st7" d="M42.4,70.7v7L28.3,66.9v-6L42.4,50v7.1l-9.8,6.7L42.4,70.7z"/>
		<path class="st7" d="M51.1,52.7l-3.9,20.9c-0.1,0.7-0.2,1.2-0.3,1.6c-0.1,0.4-0.2,0.7-0.4,0.9c-0.2,0.2-0.5,0.3-0.9,0.3
			c-1,0-1.4-0.5-1.4-1.6c0-0.3,0.1-1,0.3-2.1l3.9-20.9c0.2-1.1,0.4-1.9,0.6-2.3c0.2-0.4,0.5-0.6,1.1-0.6c0.5,0,0.8,0.1,1.1,0.4
			c0.2,0.3,0.4,0.7,0.4,1.2C51.4,51,51.3,51.7,51.1,52.7z"/>
		<path class="st7" d="M58.8,54.1c0.6-0.4,1.2-0.7,1.7-1.1c0.5-0.4,1-0.6,1.3-0.8s0.6-0.2,0.8-0.2c0.3,0,0.6,0.1,0.8,0.4
			c0.2,0.3,0.4,0.6,0.4,1c0,0.2-0.1,0.5-0.2,0.7c-0.1,0.3-0.2,0.4-0.4,0.5c-1.2,0.6-2.5,1-4,1.3c0.3,0.3,0.6,0.7,1,1.2
			c0.4,0.5,0.6,0.8,0.6,0.8c0.1,0.2,0.3,0.6,0.6,0.9c0.3,0.4,0.4,0.6,0.5,0.9c0.1,0.2,0.1,0.5,0.1,0.7c0,0.4-0.1,0.7-0.3,1
			c-0.2,0.3-0.5,0.4-0.9,0.4s-0.8-0.3-1.2-1s-1-1.9-1.7-3.7c-0.7,1.6-1.2,2.7-1.4,3.2c-0.2,0.5-0.5,0.9-0.7,1.2s-0.5,0.4-0.8,0.4
			c-0.3,0-0.6-0.1-0.9-0.4s-0.3-0.6-0.3-1c0-0.3,0-0.6,0.1-0.7c0.9-1.5,1.8-2.7,2.7-3.8c-0.8-0.2-1.5-0.3-2.1-0.5
			c-0.6-0.2-1.3-0.5-2-0.8c-0.1-0.1-0.2-0.2-0.3-0.5c-0.1-0.3-0.2-0.5-0.2-0.7c0-0.4,0.1-0.8,0.4-1c0.2-0.3,0.5-0.4,0.8-0.4
			c0.2,0,0.5,0.1,0.8,0.3c0.3,0.2,0.8,0.4,1.3,0.7c0.5,0.3,1.1,0.7,1.8,1.1c-0.1-0.7-0.2-1.6-0.3-2.5c-0.1-1-0.1-1.6-0.1-2
			c0-0.4,0.1-0.8,0.3-1.1c0.2-0.3,0.5-0.5,0.8-0.5c0.3,0,0.6,0.2,0.8,0.5c0.2,0.3,0.3,0.7,0.3,1.2c0,0.1,0,0.4,0,0.8
			c0,0.4-0.1,0.9-0.1,1.5C58.9,52.6,58.9,53.3,58.8,54.1z"/>
		<path class="st7" d="M79.7,66.9L65.6,77.8v-7l9.8-6.9l-9.8-6.8v-7l14.1,10.8V66.9z"/>
	</g>
</g>
<g id="Capa_3">
</g>
</svg>
