<?xml version="1.0" encoding="utf-8"?>
<!-- Generator: Adobe Illustrator 22.0.1, SVG Export Plug-In . SVG Version: 6.00 Build 0)  -->
<svg version="1.1" xmlns="http://www.w3.org/2000/svg" xmlns:xlink="http://www.w3.org/1999/xlink" x="0px" y="0px"
	 viewBox="0 0 80 80" style="enable-background:new 0 0 80 80;" xml:space="preserve">
<style type="text/css">
	.st0{display:none;}
	.st1{display:inline;}
	.st2{fill:#E5BF00;}
	.st3{fill:#FFFFFF;}
	.st4{fill:#E5BF00;stroke:#FFFFFF;stroke-width:2;stroke-miterlimit:10;}
	.st5{fill:#289CA2;stroke:#FFFFFF;stroke-width:2;stroke-miterlimit:10;}
	.st6{fill:#289CA2;stroke:#FFFFFF;stroke-miterlimit:10;}
	.st7{fill:none;stroke:#00A5CB;stroke-width:8;stroke-linecap:round;}
	.st8{fill-rule:evenodd;clip-rule:evenodd;fill:#FFFFFF;}
	.st9{fill:#00A5CB;}
	.st10{fill:none;stroke:#00A5CB;stroke-width:4;}
	.st11{opacity:0.23;fill:#00A5CB;stroke:#FFFFFF;}
</style>
<g id="Capa_2" class="st0">
	<rect class="st1" width="80" height="80"/>
</g>
<g id="Capa_4">
	<g>
		<g>
			<polygon class="st2" points="67.3,37 61.3,21.5 64.3,10.4 74.5,37 			"/>
			<path class="st3" d="M64.4,13.7L73,36h-5.1l-5.6-14.5L64.4,13.7 M64.1,7.2l-1.6,6L60.4,21l-0.2,0.6l0.2,0.6l5.6,14.5l0.5,1.3h1.4
				H73h2.9l-1-2.7l-8.6-22.3L64.1,7.2L64.1,7.2z"/>
		</g>
		<path class="st4" d="M50.3,8.1V3h-8v5.1H24.4h-0.5H17L6.4,36h6.8c0,0,0,0,0,0c13.2,0,26.4,0,39.6,0l2.7-7.3h0l7.9-20.6H50.3z"/>
	</g>
	<path class="st5" d="M40.5,47.7c-7.6,0-19.7-1-33.5-6.7c1.7,2,3.5,4.1,5.4,6.2c0.7,0.7,3.1,3.5,5.9,6.4c6,6.2,8.2,7.6,13.5,12.9
		c2.1,2.1,5.1,5.2,8.7,9.4c1.8-2.1,4.8-5.4,8.7-9.4c5.7-5.8,8.5-7.9,13.5-12.9c2.7-2.7,6.8-7,11.3-12.6
		C60.2,46.7,48.1,47.7,40.5,47.7z"/>
	<path class="st6" d="M44.5,81.5"/>
	<g>
		<line class="st7" x1="66.9" y1="67.5" x2="75.8" y2="76.2"/>
		<line class="st8" x1="66.9" y1="67.5" x2="75.8" y2="76.2"/>
	</g>
	<g>
		<path d="M54,69c-8.8,0-16-6.7-16-15c0-8.3,7.2-15,16-15s16,6.7,16,15C70,62.3,62.8,69,54,69z M54,40.3c-7.9,0-14.4,6.2-14.4,13.7
			S46.1,67.7,54,67.7S68.4,61.6,68.4,54S61.9,40.3,54,40.3z"/>
		<path class="st9" d="M54,37c-9.9,0-18,7.6-18,17s8.1,17,18,17s18-7.6,18-17S63.9,37,54,37L54,37z M54,65.7
			c-6.9,0-12.4-5.3-12.4-11.7c0-6.5,5.6-11.7,12.4-11.7S66.4,47.5,66.4,54C66.4,60.5,60.9,65.7,54,65.7L54,65.7z"/>
	</g>
	<g>
		<line class="st10" x1="64.7" y1="65.3" x2="75.8" y2="76.2"/>
	</g>
	<ellipse class="st11" cx="54" cy="54" rx="12.4" ry="11.7"/>
</g>
</svg>
