<?xml version="1.0" encoding="utf-8"?>
<!-- Generator: Adobe Illustrator 22.0.1, SVG Export Plug-In . SVG Version: 6.00 Build 0)  -->
<svg version="1.1" xmlns="http://www.w3.org/2000/svg" xmlns:xlink="http://www.w3.org/1999/xlink" x="0px" y="0px"
	 viewBox="0 0 80 80" style="enable-background:new 0 0 80 80;" xml:space="preserve">
<style type="text/css">
	.st0{display:none;}
	.st1{display:inline;}
	.st2{fill:#FFA500;}
	.st3{opacity:0.61;fill:#FF8C00;}
	.st4{fill:#FFFFFF;}
	.st5{fill:#11649A;}
	.st6{fill:#666666;}
	.st7{fill:#1C86C0;}
	.st8{opacity:0.87;fill:#FFFFFF;}
	.st9{opacity:0.76;fill:#11649A;}
	.st10{fill:#333333;}
	.st11{fill:#FFFFFF;stroke:#FFFFFF;stroke-width:0.5;stroke-miterlimit:10;}
	.st12{opacity:0.84;fill:#003366;}
	.st13{opacity:0.81;fill:#11649A;}
	.st14{fill:none;stroke:#00A5CB;stroke-width:8;stroke-linecap:round;}
	.st15{fill-rule:evenodd;clip-rule:evenodd;fill:#FFFFFF;}
	.st16{fill:#00A5CB;}
	.st17{fill:none;stroke:#00A5CB;stroke-width:4;}
	.st18{opacity:0.23;fill:#00A5CB;stroke:#FFFFFF;}
</style>
<g id="Capa_2" class="st0">
	<rect class="st1" width="80" height="80"/>
</g>
<g id="Capa_4">
	<g>
		<path class="st2" d="M5.8,29.2c0.5-0.7,1-1.3,1.5-1.7c10.7-8.6,21.3-17.3,32-25.9C39.7,1.3,40.1,1,40.6,1c0.4,0,0.7,0.3,1,0.5
			C52.4,10.3,63.2,19,74.1,27.7c0.6,0.5,1.2,1,1.4,1.7c0.3,0.9,0.7,2,0.5,3c-0.2,1.1-1,2.1-1.7,2.8c-0.1,0.1-0.2,0.2-0.4,0.3
			c-0.2,0.1-0.4-0.1-0.6-0.2c-2.2-1.7-4.3-3.6-6.5-5.3c-2.6-2.1-5.3-4.1-7.9-6.1c-5.2-4-10.5-8-15.6-12.2c-0.2-0.2-2.8-2.4-2.8-2.3
			C31,17.3,21,24.4,11.4,32.2c-1.1,0.9-2.3,1.9-3.4,2.8c-0.2,0.2-0.4,0.3-0.6,0.4c-0.3,0.1-0.6-0.1-0.9-0.3
			c-0.7-0.6-1.2-1.7-1.5-2.6C4.7,31.4,5.2,30.2,5.8,29.2z"/>
		<path class="st2" d="M63.9,20.3l-9.7-1.7V4.6c0-1,0.7-1.7,1.6-1.7h6.5c0.9,0,1.6,0.8,1.6,1.7V20.3z"/>
		<path class="st2" d="M40.5,13.7L15.2,33.3v23.9c0,1.2,0.9,2.2,1.9,2.2h17.5V42h11.7v17.4h15.6c2.1,0,3.9-2,3.9-4.3V33.3L40.5,13.7
			z"/>
		<path class="st3" d="M75.5,29.4c-0.2-0.7-0.8-1.2-1.4-1.7c-3.4-2.7-6.8-5.5-10.2-8.2V4.6c0-1-0.7-1.7-1.6-1.7h-6.5
			c-0.9,0-1.6,0.8-1.6,1.7v7.1c-4.2-3.4-8.4-6.8-12.6-10.2c-0.3-0.2-0.6-0.5-1-0.5h-0.1v8.4c0.4,0.3,2.6,2.1,2.8,2.3
			c5.1,4.2,10.4,8.2,15.6,12.2c2.6,2,5.3,4.1,7.9,6.1c2.2,1.7,4.3,3.6,6.5,5.3c0.2,0.2,0.4,0.3,0.6,0.2c0.1,0,0.3-0.2,0.4-0.3
			c0.7-0.8,1.5-1.8,1.7-2.8C76.1,31.5,75.7,30.3,75.5,29.4z"/>
		<path class="st3" d="M40.5,13.7v19.6V42h5.8v17.4h15.6c2.1,0,3.9-2,3.9-4.3V33.3L40.5,13.7z"/>
		<ellipse class="st4" cx="43.9" cy="51.5" rx="0.9" ry="1"/>
	</g>
	<g>
		<path class="st5" d="M8.4,53.8H5.3c-0.7,0-1.3-0.6-1.3-1.3v-0.9c0-0.7,0.6-1.3,1.3-1.3h3.1c0.7,0,1.3,0.6,1.3,1.3v0.9
			C9.6,53.3,9.1,53.8,8.4,53.8z"/>
		<path class="st5" d="M36.9,53.8h-2.7c-0.7,0-1.3-0.6-1.3-1.3v-0.9c0-0.7,0.6-1.3,1.3-1.3h2.7c0.7,0,1.3,0.6,1.3,1.3v0.9
			C38.2,53.3,37.6,53.8,36.9,53.8z"/>
		<path class="st6" d="M11.4,74H8.3c-0.8,0-1.4-0.6-1.4-1.4v-2.2c0-0.8,0.6-1.4,1.4-1.4h3.2c0.8,0,1.4,0.6,1.4,1.4v2.2
			C12.8,73.4,12.2,74,11.4,74z"/>
		<path class="st6" d="M34.7,74h-3.2c-0.8,0-1.4-0.6-1.4-1.4v-2.2c0-0.8,0.6-1.4,1.4-1.4h3.2c0.8,0,1.4,0.6,1.4,1.4v2.2
			C36.1,73.4,35.5,74,34.7,74z"/>
		<path class="st7" d="M33.3,70.2H8.4c0,0-3.2,0-3.2-3.4v-5c0-0.3,0-0.6,0.1-0.8l0.8-5.1c0.2-1.4,0.5-2.7,1-4l2.2-6.4
			c0,0,0.8-3.4,5.6-3.4h12.9c0,0,4.4,0,5.2,3.4l2.3,7c0.3,1,0.6,1.9,0.8,2.9l1.1,5.1c0.1,0.4,0.1,0.8,0.1,1.2v5.7
			C37.4,67.3,37.4,70.2,33.3,70.2z"/>
		<path class="st8" d="M32.1,51.7H10.4c0,0-1.6,0-1.2-1.7l1.2-3.4c0,0,0.8-2.9,3.2-2.9h14.9c0,0,2.4-0.4,3.2,2.5l1.4,3.6
			C33.1,49.8,33.9,51.5,32.1,51.7z"/>
		<path class="st9" d="M5.2,62.9c0,0.3,0.7,0.9,0.9,1.1c0.8,0.7,2,0.9,3.1,0.9c1.7,0,3.4-0.1,5.1-0.1c2.3,0,4.6,0,6.9,0
			c2.5,0,5.1,0,7.6,0c1.6,0,3.3,0.2,4.9,0.1c1.6-0.1,2.7-0.5,3.7-1.9c-0.1,0.2,0,1,0,1.2c0,0.5,0,1,0,1.4c0,0.6,0,1.2,0,1.8
			c0,0,0.4,2.9-4.6,2.9H9.1c0,0-3.9,0.2-3.9-3C5.2,67.2,5.2,62.9,5.2,62.9z"/>
		<path class="st10" d="M12,66.9h18.1c0,0,0.4,1.7-0.8,1.7H12.8C12.8,68.5,11.6,68.5,12,66.9z"/>
		<path class="st6" d="M24.5,67.3h-6.4c-0.7,0-1.2-0.5-1.2-1.2v-0.5c0-0.7,0.5-1.2,1.2-1.2h6.4c0.7,0,1.2,0.5,1.2,1.2v0.5
			C25.7,66.7,25.2,67.3,24.5,67.3z"/>
		<ellipse class="st11" cx="8.8" cy="67.3" rx="1" ry="1.1"/>
		<ellipse class="st11" cx="33.3" cy="67.3" rx="1" ry="1.1"/>
		<path class="st11" d="M8.8,63.3h4.4c0,0,1,0.2,0.8-1.7c0,0-0.4-1.7-2.4-1.7H8.8c0,0-1.8-0.2-1.6,1.7C7.2,61.6,7,63.5,8.8,63.3z"/>
		<path class="st11" d="M33.7,63.3h-4.4c0,0-1,0.2-0.8-1.7c0,0,0.4-1.7,2.4-1.7h2.8c0,0,1.8-0.2,1.6,1.7
			C35.4,61.6,35.6,63.5,33.7,63.3z"/>
		<path class="st12" d="M26.7,60.1H15.9c-0.3,0-0.6,0.3-0.6,0.7v2.1c0,0.4,0.3,0.7,0.6,0.7h10.8c0.3,0,0.6-0.3,0.6-0.7v-2.1
			C27.3,60.4,27,60.1,26.7,60.1z M16.9,62.8c0,0.2-0.1,0.3-0.3,0.3h-0.2c-0.2,0-0.3-0.1-0.3-0.3v-1.9c0-0.2,0.1-0.3,0.3-0.3h0.2
			c0.2,0,0.3,0.1,0.3,0.3V62.8z M18.5,62.8c0,0.2-0.1,0.3-0.3,0.3h-0.2c-0.2,0-0.3-0.1-0.3-0.3v-1.9c0-0.2,0.1-0.3,0.3-0.3h0.2
			c0.2,0,0.3,0.1,0.3,0.3V62.8z M20.1,62.8c0,0.2-0.1,0.3-0.3,0.3h-0.2c-0.2,0-0.3-0.1-0.3-0.3v-1.9c0-0.2,0.1-0.3,0.3-0.3h0.2
			c0.2,0,0.3,0.1,0.3,0.3V62.8z M21.7,62.8c0,0.2-0.1,0.3-0.3,0.3h-0.2c-0.2,0-0.3-0.1-0.3-0.3v-1.9c0-0.2,0.1-0.3,0.3-0.3h0.2
			c0.2,0,0.3,0.1,0.3,0.3V62.8z M23.3,62.8c0,0.2-0.1,0.3-0.3,0.3h-0.2c-0.2,0-0.3-0.1-0.3-0.3v-1.9c0-0.2,0.1-0.3,0.3-0.3H23
			c0.2,0,0.3,0.1,0.3,0.3V62.8z M24.9,62.8c0,0.2-0.1,0.3-0.3,0.3h-0.2c-0.2,0-0.3-0.1-0.3-0.3v-1.9c0-0.2,0.1-0.3,0.3-0.3h0.2
			c0.2,0,0.3,0.1,0.3,0.3V62.8z M26.5,62.8c0,0.2-0.1,0.3-0.3,0.3H26c-0.2,0-0.3-0.1-0.3-0.3v-1.9c0-0.2,0.1-0.3,0.3-0.3h0.2
			c0.2,0,0.3,0.1,0.3,0.3V62.8z"/>
		<path class="st13" d="M33.1,54.1c-0.4-0.2-0.8-0.3-1.2-0.3H21.1H10.3c-0.4,0-0.8,0.1-1.2,0.3c-0.5,0.3-0.8,0.7-0.4,1.4
			c1,1.9,1.2,2.9,4.8,2.9s7.6,0,7.6,0s4,0,7.6,0s3.8-1.1,4.8-2.9C33.9,54.8,33.6,54.4,33.1,54.1z"/>
		<path class="st10" d="M30.8,51.7c-0.6-1.4-2.1-2.4-3.9-2.4c-1.7,0-3.2,1-3.9,2.4h0.7c0.6-1,1.8-1.7,3.1-1.7c1.3,0,2.5,0.7,3.1,1.7
			H30.8z"/>
	</g>
	<g>
		<g>
			<line class="st14" x1="66" y1="65.1" x2="75.8" y2="75.2"/>
			<line class="st15" x1="66" y1="65.1" x2="75.8" y2="75.2"/>
		</g>
		<g>
			<path d="M51.8,67.2C42,67.2,34,59.3,34,49.6C34,39.9,42,32,51.8,32s17.8,7.9,17.8,17.6C69.6,59.3,61.6,67.2,51.8,67.2z
				 M51.8,34.1c-8.6,0-15.7,7-15.7,15.5s7,15.5,15.7,15.5c8.6,0,15.7-7,15.7-15.5S60.4,34.1,51.8,34.1z"/>
			<path class="st16" d="M51.8,30C40.9,30,32,38.8,32,49.6s8.9,19.6,19.8,19.6s19.8-8.8,19.8-19.6S62.7,30,51.8,30L51.8,30z
				 M51.8,63.1c-7.5,0-13.7-6.1-13.7-13.5c0-7.5,6.1-13.5,13.7-13.5s13.7,6.1,13.7,13.5C65.5,57.1,59.3,63.1,51.8,63.1L51.8,63.1z"
				/>
		</g>
		<g>
			<line class="st17" x1="63.5" y1="62.7" x2="75.8" y2="75.2"/>
		</g>
		<ellipse class="st18" cx="51.8" cy="49.6" rx="13.7" ry="13.5"/>
	</g>
</g>
</svg>
