<?xml version="1.0" encoding="utf-8"?>
<!-- Generator: Adobe Illustrator 22.0.1, SVG Export Plug-In . SVG Version: 6.00 Build 0)  -->
<svg version="1.1" id="Capa_1" xmlns="http://www.w3.org/2000/svg" xmlns:xlink="http://www.w3.org/1999/xlink" x="0px" y="0px"
	 viewBox="0 0 568 568" style="enable-background:new 0 0 568 568;" xml:space="preserve">
<style type="text/css">
	.st0{display:none;fill:#808080;}
	.st1{fill:#FF3372;}
	.st2{fill:#FBC93B;}
	.st3{fill:#FFFFFF;}
</style>
<rect x="-14" y="-9" class="st0" width="591" height="592"/>
<g>
	<path class="st1" d="M474.9,89.9C426.1,42,359.2,12.6,285.5,12.6c-74,0-141.1,29.7-190,77.8c-0.8,0.8-1.6,1.6-2.3,2.3
		c-48.6,48.9-78.6,116.4-78.6,190.8c0,147.8,118.4,268,265.5,270.8c1.8,0.1,3.6,0.1,5.4,0.1c149.6,0,270.9-121.3,270.9-270.9
		C556.4,207.6,525.2,139,474.9,89.9z M285.5,402.7c-1.2,0-2.4,0-3.6-0.1c-64.2-1.8-115.6-54.5-115.6-119.1
		c0-32.9,13.4-62.7,34.9-84.3c0.3-0.3,0.5-0.5,0.7-0.7c21.5-21.2,51-34.2,83.6-34.2c31.8,0,60.8,12.5,82.2,32.8
		c22.8,21.7,37,52.4,37,86.4C404.7,349.3,351.3,402.7,285.5,402.7z"/>
	<path class="st2" d="M281.9,402.6c-0.6,50.6-1.3,101.1-1.8,151.7C133,551.5,14.6,431.3,14.6,283.5c0-74.4,30-141.9,78.6-190.8
		c0.5-0.1,0.8-0.2,1.2-0.3l106.8,106.8c-21.5,21.6-34.9,51.4-34.9,84.3C166.3,348.1,217.8,400.8,281.9,402.6z"/>
	<path class="st3" d="M556.4,283.5c0,149.6-121.3,270.9-270.9,270.9c-1.8,0-3.6,0-5.4-0.1c0.6-50.6,1.2-101.1,1.8-151.7
		c1.2,0.1,2.4,0.1,3.6,0.1c65.8,0,119.2-53.4,119.2-119.2c0-34-14.2-64.6-37-86.4c35.7-35.7,71.5-71.5,107.3-107.3
		C525.2,139,556.4,207.6,556.4,283.5z"/>
</g>
</svg>
