<?xml version="1.0" encoding="utf-8"?>
<!-- Generator: Adobe Illustrator 22.0.1, SVG Export Plug-In . SVG Version: 6.00 Build 0)  -->
<svg version="1.1" xmlns="http://www.w3.org/2000/svg" xmlns:xlink="http://www.w3.org/1999/xlink" x="0px" y="0px"
	 viewBox="0 0 199 198" style="enable-background:new 0 0 199 198;" xml:space="preserve">
<style type="text/css">
	.st0{display:none;}
	.st1{display:inline;}
	.st2{fill:#339966;}
	.st3{fill:none;}
	.st4{fill:#FFFFFF;}
	.st5{fill:#BD360C;}
	.st6{fill:#D74214;}
	.st7{fill:#CDD7DB;}
	.st8{fill:#EBEDEF;}
	.st9{fill:#F9BF2C;}
	.st10{fill:#FBD734;}
	.st11{fill:#F5A557;}
	.st12{fill:#F5B673;}
	.st13{fill:#36464E;}
	.st14{fill:#445A64;}
</style>
<g id="Capa_3" class="st0">
	<g class="st1">
		<rect x="0.5" y="0.5" width="198" height="197"/>
		<path d="M198,1v196H1V1H198 M199,0H0v198h199V0L199,0z"/>
	</g>
</g>
<g id="Capa_2">
	<circle class="st2" cx="98.1" cy="93" r="87.5"/>
	<g>
		<rect x="34.7" y="49.3" class="st3" width="140.3" height="95.5"/>
		<path class="st4" d="M34.3,55.5H49L60,95c2.5,8.9,4.3,16.6,6.9,25.5h0.5c2.6-8.9,4.4-16.6,6.9-25.5l10.9-39.5h14.2L75.1,134H58.6
			L34.3,55.5z"/>
		<path class="st4" d="M105.3,55.5h26.4c16.3,0,28.9,5.8,28.9,23.3c0,16.9-12.6,24.5-28.9,24.5h-12.5V134h-13.9V55.5z M130.3,92.2
			c10.8,0,16.6-4.5,16.6-13.4c0-9-5.9-12.1-16.6-12.1h-11.1v25.5H130.3z M129.1,99.6l10.1-8.3l24.5,42.7H148L129.1,99.6z"/>
	</g>
	<g>
		<path class="st5" d="M153.5,177.3l-26.7-14.8l45-81.1c0.4-0.7,1.3-1,2-0.6l24,13.3c0.8,0.4,1,1.4,0.6,2.2L153.5,177.3z"/>
		<path class="st6" d="M185.9,87.5l-45.7,82.4l-13.3-7.4l43.8-78.9c1.1-2,3.7-2.5,6-1.3L185.9,87.5z"/>
		
			<rect x="143.2" y="99.3" transform="matrix(0.8744 0.4851 -0.4851 0.8744 86.3522 -59.6948)" class="st7" width="30.5" height="75.4"/>
		
			<rect x="114.1" y="125.6" transform="matrix(0.4851 -0.8744 0.8744 0.4851 -38.3665 201.3784)" class="st8" width="75.4" height="15.2"/>
		
			<rect x="141.3" y="106.8" transform="matrix(0.8744 0.4851 -0.4851 0.8744 87.8198 -58.3005)" class="st9" width="30.5" height="67.3"/>
		
			<rect x="116.2" y="129.2" transform="matrix(0.4851 -0.8744 0.8744 0.4851 -42.4643 201.4834)" class="st10" width="67.3" height="15.2"/>
		<path class="st11" d="M123.2,192.7l3.7-29.9c0-0.1,0.1-0.2,0.3-0.1l26.2,14.5c0.1,0.1,0.1,0.2,0,0.3l-23.5,19
			C127.2,198.6,122.7,196.1,123.2,192.7z"/>
		<path class="st12" d="M140.2,169.9l-14.8,26.7c-1.4-0.8-2.4-2.2-2.2-4l3.7-29.9c0-0.1,0.1-0.2,0.2-0.1L140.2,169.9z"/>
		<path class="st13" d="M135.5,191.9l-5.6,4.5c-1.3,1.1-3.1,1-4.5,0.2s-2.4-2.2-2.2-4l0.9-7.1L135.5,191.9z"/>
		<path class="st14" d="M129.8,188.8l-4.4,7.9c-1.4-0.8-2.4-2.2-2.2-4l0.9-7.1L129.8,188.8z"/>
	</g>
	<g>
	</g>
	<g>
	</g>
	<g>
	</g>
	<g>
	</g>
	<g>
	</g>
	<g>
	</g>
	<g>
	</g>
	<g>
	</g>
	<g>
	</g>
	<g>
	</g>
	<g>
	</g>
	<g>
	</g>
	<g>
	</g>
	<g>
	</g>
	<g>
	</g>
</g>
</svg>
