<?xml version="1.0" encoding="utf-8"?>
<!-- Generator: Adobe Illustrator 22.0.1, SVG Export Plug-In . SVG Version: 6.00 Build 0)  -->
<svg version="1.1" xmlns="http://www.w3.org/2000/svg" xmlns:xlink="http://www.w3.org/1999/xlink" x="0px" y="0px"
	 viewBox="0 0 80 80" style="enable-background:new 0 0 80 80;" xml:space="preserve">
<style type="text/css">
	.st0{display:none;}
	.st1{display:inline;}
	.st2{fill:#E5BF00;}
	.st3{fill:#FFFFFF;}
	.st4{fill:#E5BF00;stroke:#FFFFFF;stroke-width:2;stroke-miterlimit:10;}
	.st5{fill:#6C9928;stroke:#FFFFFF;stroke-width:2;stroke-miterlimit:10;}
	.st6{fill:#289CA2;stroke:#FFFFFF;stroke-miterlimit:10;}
	.st7{opacity:0.61;fill:#7DBA83;}
	.st8{fill:#BD360C;}
	.st9{fill:#D74214;}
	.st10{fill:#CDD7DB;}
	.st11{fill:#EBEDEF;}
	.st12{fill:#F9BF2C;}
	.st13{fill:#FBD734;}
	.st14{fill:#F5A557;}
	.st15{fill:#F5B673;}
	.st16{fill:#36464E;}
	.st17{fill:#445A64;}
</style>
<g id="Capa_2" class="st0">
	<rect class="st1" width="80" height="80"/>
</g>
<g id="Capa_4">
	<g>
		<g>
			<polygon class="st2" points="67.3,37 61.3,21.5 64.3,10.4 74.5,37 			"/>
			<path class="st3" d="M64.4,13.7L73,36h-5.1l-5.6-14.5L64.4,13.7 M64.1,7.2l-1.6,6L60.4,21l-0.2,0.6l0.2,0.6l5.6,14.5l0.5,1.3h1.4
				H73h2.9l-1-2.7l-8.6-22.3L64.1,7.2L64.1,7.2z"/>
		</g>
		<path class="st4" d="M50.3,8.1V3h-8v5.1H24.4h-0.5H17L6.4,36h6.8c0,0,0,0,0,0c13.2,0,26.4,0,39.6,0l2.7-7.3h0l7.9-20.6H50.3z"/>
	</g>
	<path class="st5" d="M40.5,47.7c-7.6,0-19.7-1-33.5-6.7c1.7,2,3.5,4.1,5.4,6.2c0.7,0.7,3.1,3.5,5.9,6.4c6,6.2,8.2,7.6,13.5,12.9
		c2.1,2.1,5.1,5.2,8.7,9.4c1.8-2.1,4.8-5.4,8.7-9.4c5.7-5.8,8.5-7.9,13.5-12.9c2.7-2.7,6.8-7,11.3-12.6
		C60.2,46.7,48.1,47.7,40.5,47.7z"/>
	<path class="st6" d="M44.5,81.5"/>
	<path class="st7" d="M40.5,47.7c-7.6,0-19.7-1-33.5-6.7c1.7,2,3.5,4.1,5.4,6.2c0.7,0.7,3.1,3.5,5.9,6.4c6,6.2,8.2,7.6,13.5,12.9
		c2.1,2.1,5.1,5.2,8.7,9.4c1.8-2.1,4.8-5.4,8.7-9.4c5.7-5.8,8.5-7.9,13.5-12.9c2.7-2.7,6.8-7,11.3-12.6
		C60.2,46.7,48.1,47.7,40.5,47.7z"/>
	<g>
		<path class="st8" d="M62.1,71.9l-9.7-5.4l17.5-31.3c0.4-0.7,1.3-1,2-0.6l7,3.9c0.8,0.4,1,1.4,0.6,2.2L62.1,71.9z"/>
		<path class="st9" d="M75.5,36.6L57.2,69.2l-4.9-2.7l17.5-31.2c0.4-0.8,1.4-1,2.2-0.6L75.5,36.6z"/>
		
			<rect x="59" y="41.2" transform="matrix(0.8723 0.4889 -0.4889 0.8723 35.6962 -24.3872)" class="st10" width="11.1" height="29.9"/>
		
			<rect x="47.2" y="52" transform="matrix(0.4889 -0.8723 0.8723 0.4889 -16.0553 82.2012)" class="st11" width="29.9" height="5.6"/>
		
			<rect x="58.2" y="44.2" transform="matrix(0.8723 0.4889 -0.4889 0.8723 36.2789 -23.8264)" class="st12" width="11.1" height="26.7"/>
		
			<rect x="48" y="53.4" transform="matrix(0.4889 -0.8723 0.8723 0.4889 -17.6734 82.2323)" class="st13" width="26.7" height="5.6"/>
		<path class="st14" d="M50.6,78.2l1.8-11.7c0,0,0.1-0.1,0.1,0l9.5,5.3c0,0,0,0.1,0,0.1l-9,7.6C52,80.5,50.4,79.6,50.6,78.2z"/>
		<path class="st15" d="M57.2,69.2l-5.9,10.6c-0.5-0.3-0.9-0.8-0.8-1.5l1.8-11.7c0,0,0.1-0.1,0.1,0L57.2,69.2z"/>
		<path class="st16" d="M55.1,77.8L53,79.6c-0.5,0.4-1.2,0.4-1.7,0.1c-0.5-0.3-0.9-0.8-0.8-1.5l0.4-2.8L55.1,77.8z"/>
		<path class="st17" d="M53.1,76.6l-1.7,3.1c-0.5-0.3-0.9-0.8-0.8-1.5l0.4-2.8L53.1,76.6z"/>
	</g>
</g>
</svg>
