<?xml version="1.0" encoding="utf-8"?>
<!-- Generator: Adobe Illustrator 24.0.2, SVG Export Plug-In . SVG Version: 6.00 Build 0)  -->
<svg version="1.1" xmlns="http://www.w3.org/2000/svg" xmlns:xlink="http://www.w3.org/1999/xlink" x="0px" y="0px"
	 viewBox="0 0 80 80" style="enable-background:new 0 0 80 80;" xml:space="preserve">
<style type="text/css">
	.st0{display:none;}
	.st1{display:inline;}
	.st2{fill:#FFFFFF;}
	.st3{fill:#616164;}
	.st4{fill:none;stroke:#636264;stroke-width:2;stroke-linecap:round;stroke-miterlimit:10;}
	.st5{fill:#E5BF00;}
	.st6{fill:#E5BF00;stroke:#FFFFFF;stroke-width:0.5;stroke-miterlimit:10;}
	.st7{fill:#7AC943;}
</style>
<g id="Capa_2" class="st0">
	<rect class="st1" width="80" height="80"/>
</g>
<g id="Capa_4">
	<g>
		<path class="st2" d="M22.3,76.5c-5.8,0-10.5-4.7-10.5-10.5V14c0-5.8,4.7-10.5,10.5-10.5h37c5.8,0,10.5,4.7,10.5,10.5v52
			c0,5.8-4.7,10.5-10.5,10.5H22.3z"/>
		<path class="st3" d="M59.3,5c5,0,9,4,9,9v52c0,5-4,9-9,9h-37c-5,0-9-4-9-9V14c0-5,4-9,9-9H59.3 M59.3,2h-37c-6.6,0-12,5.4-12,12
			v52c0,6.6,5.4,12,12,12h37c6.6,0,12-5.4,12-12V14C71.3,7.4,65.9,2,59.3,2L59.3,2z"/>
	</g>
	<line class="st4" x1="21.9" y1="39.7" x2="59.7" y2="40"/>
	<path class="st4" d="M21.9,45.7C32.3,45.8,42.6,45.9,53,46"/>
	<line class="st4" x1="50.3" y1="52" x2="22" y2="51.7"/>
	<g>
		<g>
			<polygon class="st5" points="55.6,31.2 52.4,21.1 53.8,14.8 58.9,31.2 			"/>
			<path class="st2" d="M53.8,15.8L58.6,31h-2.8l-3.1-9.9L53.8,15.8 M53.7,13.8l-0.4,1.8L52.2,21l0,0.1l0,0.1l3.1,9.9l0.1,0.3h0.4
				h2.8h0.7l-0.2-0.6l-4.8-15.2L53.7,13.8L53.7,13.8z"/>
		</g>
		<path class="st6" d="M45.9,12l0-3.5l-4.4,0l0,3.5l-10,0h-0.3l-3.9,0l-5.9,19l3.8,0c0,0,0,0,0,0c7.4,0,14.7,0,22.1,0l1.5-5h0
			l4.4-14L45.9,12z"/>
	</g>
	<line class="st4" x1="52.5" y1="58" x2="22" y2="57.7"/>
	<line class="st4" x1="50.3" y1="64" x2="22" y2="63.7"/>
	<g>
		<g>
			<path class="st7" d="M54.6,66.7c-0.8-0.1-1.6-0.2-2.4-0.4l-0.7-0.2l-0.3-5.1l1.4,0.4c0.5,0.1,1.1,0.3,1.7,0.4
				c0.2,0,0.5,0.1,0.7,0.1l0.2-2.7c-0.3-0.1-0.6-0.2-0.9-0.3c-0.6-0.2-1.1-0.6-1.6-0.9c-0.5-0.4-0.9-0.9-1.3-1.5
				c-0.3-0.6-0.5-1.3-0.6-2.2c0-0.7,0-1.4,0.3-2c0.2-0.7,0.6-1.3,1.1-1.8c0.5-0.5,1.2-1,1.9-1.3c0.6-0.3,1.2-0.4,1.9-0.6l0.2-2.6
				l4.1-0.2l-0.2,2.8c0.1,0,0.2,0,0.3,0c0.4,0,0.8,0.1,1.2,0.2l0.8,0.1l0.3,4.8l-1.3-0.4c-0.4-0.1-0.8-0.2-1.3-0.3
				c-0.1,0-0.2,0-0.3,0l-0.2,2.3c0.3,0.1,0.6,0.2,0.9,0.3c0.6,0.2,1.2,0.5,1.7,0.9c0.6,0.4,1,0.9,1.4,1.5c0.4,0.6,0.6,1.4,0.7,2.2
				c0.1,1-0.1,1.8-0.4,2.6c-0.3,0.8-0.8,1.4-1.4,1.9c-0.6,0.5-1.3,0.9-2.1,1.2c-0.5,0.2-1.1,0.4-1.7,0.5l-0.3,3.2l-4.1,0.2
				L54.6,66.7z M59,61.4c0,0,0-0.1,0.1-0.1c0-0.1,0-0.2,0-0.3c0-0.1,0-0.2,0-0.2L59,61.4z"/>
			<path class="st2" d="M59.2,46.8L59,49.4c0.4,0,0.8,0,1.2,0.1c0.4,0,0.8,0.1,1.2,0.2l0.2,2.7c-0.4-0.1-0.9-0.2-1.4-0.3
				c-0.5-0.1-1-0.1-1.4-0.2L58.5,56c0.5,0.2,1.1,0.4,1.6,0.6c0.5,0.2,1,0.5,1.5,0.8c0.4,0.3,0.8,0.7,1.1,1.2
				c0.3,0.5,0.5,1.1,0.5,1.8c0,0.8-0.1,1.5-0.3,2.1c-0.3,0.6-0.6,1.1-1.1,1.6c-0.5,0.4-1.1,0.8-1.8,1.1c-0.7,0.3-1.5,0.4-2.3,0.5
				l-0.3,3.1l-2.1,0.1l0.2-3.2c-1.1,0-2.2-0.1-3.2-0.4l-0.2-2.9c0.6,0.2,1.2,0.3,1.8,0.4c0.6,0.1,1.2,0.2,1.8,0.2l0.4-4.5
				c-0.5-0.2-1-0.3-1.5-0.5c-0.5-0.2-1-0.5-1.4-0.8c-0.4-0.3-0.8-0.7-1-1.2c-0.3-0.5-0.4-1.1-0.5-1.8c0-0.6,0-1.1,0.2-1.7
				c0.2-0.5,0.5-1,0.9-1.5c0.4-0.4,1-0.8,1.6-1.1c0.7-0.3,1.5-0.5,2.4-0.6l0.2-2.6L59.2,46.8 M56.7,52c-0.7,0.1-1.2,0.3-1.5,0.7
				c-0.3,0.3-0.4,0.7-0.4,1.2c0,0.4,0.2,0.7,0.5,0.9c0.3,0.2,0.7,0.4,1.2,0.6L56.7,52 M57.9,63c0.4-0.1,0.8-0.2,1.1-0.3
				c0.3-0.1,0.5-0.3,0.7-0.5c0.2-0.2,0.3-0.4,0.4-0.6c0.1-0.2,0.1-0.4,0.1-0.7c0-0.5-0.2-0.8-0.5-1.1c-0.3-0.3-0.8-0.5-1.4-0.7
				L57.9,63 M61.4,44.6l-2.3,0.1L57,44.9L55.3,45l-0.1,1.7l-0.1,1c-0.5,0.1-1,0.3-1.4,0.5c-0.9,0.4-1.7,0.9-2.2,1.5
				c-0.6,0.6-1.1,1.4-1.3,2.2c-0.3,0.8-0.4,1.6-0.3,2.4c0.1,1,0.3,1.9,0.7,2.6c0.4,0.7,0.9,1.3,1.5,1.8c0.6,0.4,1.2,0.8,1.9,1.1
				c0.1,0,0.1,0,0.2,0.1L54,60.8c-0.4-0.1-0.8-0.2-1.2-0.3l-2.7-0.8l0.2,2.8l0.2,2.9l0.1,1.5l1.5,0.3c0.5,0.1,1,0.2,1.5,0.3
				l-0.1,1.1L53.2,71l2.3-0.1l2.1-0.1l1.7-0.1l0.1-1.7l0.1-1.6c0.4-0.1,0.8-0.2,1.1-0.4c0.9-0.4,1.7-0.8,2.4-1.4
				c0.7-0.6,1.3-1.4,1.6-2.3c0.4-0.9,0.5-1.9,0.5-3c-0.1-1-0.3-1.9-0.8-2.7c-0.4-0.7-1-1.3-1.6-1.8c-0.6-0.4-1.2-0.8-1.9-1
				c-0.1,0-0.1-0.1-0.2-0.1l0-0.4c0.1,0,0.3,0.1,0.4,0.1l2.7,0.7l-0.2-2.8l-0.2-2.7L63.3,48l-1.5-0.3c-0.2,0-0.4-0.1-0.6-0.1
				l0.1-0.7L61.4,44.6L61.4,44.6z"/>
		</g>
	</g>
</g>
</svg>
