<?xml version="1.0" encoding="utf-8"?>
<!-- Generator: Adobe Illustrator 22.0.1, SVG Export Plug-In . SVG Version: 6.00 Build 0)  -->
<svg version="1.1" id="Capa_1" xmlns="http://www.w3.org/2000/svg" xmlns:xlink="http://www.w3.org/1999/xlink" x="0px" y="0px"
	 viewBox="0 0 981.2 764.9" style="enable-background:new 0 0 981.2 764.9;" xml:space="preserve">
<style type="text/css">
	.st0{fill:#5CA5FF;}
	.st1{fill:#FFFFFF;}
	.st2{fill:#F44336;}
	.st3{fill:#454545;}
	.st4{fill:#383A3B;}
	.st5{fill:#3D3D3D;}
	.st6{fill:#00E24E;}
</style>
<path class="st0" d="M858.7,281v325c0,50.9-41.6,92.5-92.5,92.5H439.8c-50.9,0-92.5-41.6-92.5-92.5V281c0-50.9,41.6-92.5,92.5-92.5
	h56.6c-3.6,7.4-9.4,17-19.2,25.4c-19.5,16.7-39.8,15.8-39.6,18.6c0.5,11.1,332.2-1.7,333.6-1.6c0,0,0.2,0,0.2,0
	c0-0.2-32.8-3.3-49.7-26c-4.2-5.7-6.7-11.5-8.1-16.4h52.7C817.1,188.5,858.7,230.1,858.7,281z"/>
<path class="st0" d="M784.5,137.5H423.8c-12.8,0-23.3-10.5-23.3-23.3V64.8c0-12.8,10.5-23.3,23.3-23.3h360.7
	c12.8,0,23.3,10.5,23.3,23.3v49.5C807.8,127,797.3,137.5,784.5,137.5z"/>
<path class="st1" d="M446,230.9h322c25.8,0,46.8,21.1,46.8,46.8v328.5c0,25.8-21.1,46.8-46.8,46.8H446c-25.8,0-46.8-21.1-46.8-46.8
	V277.7C399.2,252,420.3,230.9,446,230.9z"/>
<path class="st0" d="M751.2,494.4H466.5c-12.7,0-23-10.3-23-23V294c0-12.7,10.3-23,23-23h284.7c12.7,0,23,10.3,23,23v177.5
	C774.2,484.2,763.9,494.4,751.2,494.4z"/>
<path class="st0" d="M452.2,157.6c16.7,0,33.3,0,50,0c0.2,8.4-0.8,22.5-8.8,36.8c-19.7,35.3-63.4,38.3-67.3,38.5
	c-0.6-14.3-1.1-28.7-1.7-43c2.5-0.5,16.1-3.7,23.4-16.5C451.5,167.1,452.1,161,452.2,157.6z"/>
<path class="st0" d="M757.5,156.6c-16.7,0-33.3,0-50,0c-0.2,8.4,0.8,22.5,8.8,36.8c19.7,35.3,63.4,38.3,67.3,38.5
	c0.4-13.7,0.8-27.3,1.1-41c-3.2-1-16-5.5-22.9-18.5C758.5,166.2,757.7,160.3,757.5,156.6z"/>
<g>
	<path class="st2" d="M192,685.9c-28.9,0-55.9-15.3-70.6-39.9c-23.2-38.8-10.5-89.3,28.4-112.4l139.1-83.1
		c12.6-7.5,27.1-11.5,41.8-11.5c28.9,0,55.9,15.3,70.6,39.9c23.2,38.8,10.5,89.3-28.4,112.4l-139.1,83.1
		C221.2,681.9,206.7,685.9,192,685.9z"/>
	<path class="st3" d="M330.6,449c24.6,0,48.6,12.5,62,35l0,0c20.3,34,9.1,78.4-24.9,98.7l-139.1,83.1c-11.5,6.9-24.2,10.1-36.7,10.1
		c-24.6,0-48.6-12.5-62-35l0,0c-20.3-34-9.1-78.4,24.9-98.7l139.1-83.1C305.4,452.3,318.1,449,330.6,449 M330.6,429v20V429
		c-16.5,0-32.8,4.5-47,13L144.6,525c-21,12.6-35.9,32.6-42,56.5c-6,23.9-2.4,48.6,10.1,69.6c8.3,13.9,20.2,25.4,34.3,33.2
		c13.7,7.6,29.2,11.6,44.9,11.6c16.5,0,32.8-4.5,47-13L378,599.9c21-12.6,35.9-32.6,42-56.5c6-23.9,2.4-48.6-10.1-69.6
		c-8.3-13.9-20.2-25.4-34.3-33.2C361.8,433,346.3,429,330.6,429L330.6,429z"/>
</g>
<g>
	<path class="st1" d="M211.5,508.4L285.4,632l-56.6,33.8c-34,20.3-78.4,9.2-98.7-24.8c-10.2-17-12.5-36.6-8-54.5
		c4.5-17.9,15.8-34.1,32.8-44.3L211.5,508.4z"/>
</g>
<g>
	
		<rect x="246.4" y="492" transform="matrix(0.8561 -0.5168 0.5168 0.8561 -254.3145 214.7823)" class="st4" width="24.3" height="144.2"/>
</g>
<g>
	<path class="st2" d="M375.8,710c-45.2,0-82-36.8-82-82s36.8-82,82-82h162c45.2,0,82,36.8,82,82s-36.8,82-82,82H375.8z"/>
	<path class="st5" d="M537.8,556c39.6,0,72,32.4,72,72v0c0,39.6-32.4,72-72,72h-162c-39.6,0-72-32.4-72-72v0c0-39.6,32.4-72,72-72
		H537.8 M537.8,536h-162c-50.7,0-92,41.3-92,92c0,50.7,41.3,92,92,92h162c50.7,0,92-41.3,92-92C629.8,577.2,588.5,536,537.8,536
		L537.8,536z"/>
</g>
<g>
	<path class="st1" d="M441.2,556v144h-65.9c-39.6,0-72-32.4-72-72c0-19.8,8.1-37.8,21.2-50.9c13-13,31-21.1,50.8-21.1H441.2z"/>
</g>
<g>
	<rect x="441.3" y="556.1" class="st4" width="23.2" height="143.7"/>
</g>
<g>
	<polygon class="st6" points="579.5,468 579.5,411.5 522.1,411.5 522.1,357.9 579.5,357.8 579.5,301.4 638.4,301.4 638.4,357.8 
		695.7,357.8 695.8,411.5 638.4,411.5 638.4,468 	"/>
	<path class="st1" d="M633.4,306.4v56.5l57.4,0l0,43.7l-57.4,0V463h-48.9v-56.5l-57.4,0l0-43.7l57.4,0v-56.5H633.4 M643.4,296.4h-10
		h-48.9h-10v10v46.5l-47.4,0l-10,0l0,10l0,43.7l0,10l10,0l47.4,0V463v10h10h48.9h10v-10v-46.5l47.4,0l10,0l0-10l0-43.7l0-10l-10,0
		l-47.4,0v-46.5V296.4L643.4,296.4z"/>
</g>
</svg>
