<?xml version="1.0" encoding="utf-8"?>
<!-- Generator: Adobe Illustrator 22.0.1, SVG Export Plug-In . SVG Version: 6.00 Build 0)  -->
<svg version="1.1" xmlns="http://www.w3.org/2000/svg" xmlns:xlink="http://www.w3.org/1999/xlink" x="0px" y="0px"
	 viewBox="0 0 80 80" style="enable-background:new 0 0 80 80;" xml:space="preserve">
<style type="text/css">
	.st0{display:none;}
	.st1{display:inline;}
	.st2{fill:#E6E6E6;}
	.st3{fill:#1A1617;}
	.st4{fill:#3D3D3D;}
	.st5{fill:#F6D5B8;}
	.st6{fill:#E6C6AA;}
	.st7{fill:#383032;}
	.st8{fill:#FFFFFF;}
</style>
<g id="Capa_2" class="st0">
	<rect class="st1" width="80" height="80"/>
</g>
<g id="Capa_3">
	<ellipse class="st2" cx="40" cy="40" rx="39" ry="39"/>
	<path class="st3" d="M28.3,48.4c-0.1,0.1-0.3,0.1-0.9,0.3c-2.7,0.9-5.4,2-8.1,3.3c-1.7,0.8-1.5,0.5-2.3,2.2
		c-1.9,4.3-3.7,8.9-5,13.3c4.5,4.7,10.1,8.4,16.5,10.4c2.4,0.6,4.9,1.2,7.4,1.6c1.4,0.2,2.8,0.2,4.2,0.3H41c1.4,0,2.7-0.1,4.1-0.3
		c2.5-0.4,5-1,7.4-1.6c6.4-2,12-5.7,16.5-10.4c-1.3-4.4-3.1-8.9-5-13.3c-0.7-1.7-0.6-1.4-2.3-2.2c-2.7-1.3-5.4-2.4-8.1-3.3
		c-0.4-0.1-0.6-0.2-0.7-0.2l0-0.1c-0.5-0.9-1.1-1.7-1.8-2.5c3.3,0.2,6-0.6,7.7-2.6c1.6-2,1.7-3.4,1.8-5.8c0.2-4.6-0.2-9.6-1.5-14.3
		c-1.3-4.5-3.4-8.8-6.8-12c-3.3-3.1-7.1-5.5-11.7-5.5c-3.2,0-6.1,0.6-8,3.7c-2-0.2-3,0.6-4.3,1.8c-3.4,3.2-5.5,7.5-6.8,12
		c-1.3,4.6-1.7,9.6-1.5,14.3c0.1,2.4,0.2,3.8,1.8,5.8c1.8,2.2,4.7,2.9,8.4,2.5h0C29.4,46.6,28.8,47.5,28.3,48.4z"/>
	<path class="st4" d="M30,45.9c0.7-0.8,1.6-1.5,2.5-2.1l0.5-2.3c-1.7-2-3-4.6-3.7-7.6c-1.3,0-2.7-1.5-3.2-3.6c-0.4-1.7-0.5-3.1,0-4
		c0.8-1.5,2.3-0.6,2.9,0.5c0.5-4.5,2.5-8.4,5.2-10.7c2,2.2,4.3,4,7.3,4.3c5.8,0.6,8.9,2.7,10.4,6.1c0.7-1,1.9-1.6,2.7-0.2
		c0.5,0.9,0.4,2.3,0,4c-0.5,2-1.7,3.5-3,3.6c-0.6,2.9-1.9,5.5-3.5,7.4l0,0.2l0.5,2.4c0.8,0.5,1.6,1.2,2.3,2.1c3.3,0.2,6-0.6,7.7-2.6
		c1.6-2,1.7-3.4,1.8-5.8c0.2-4.6-0.2-9.6-1.5-14.3c-1.3-4.5-3.4-8.8-6.8-12c-3.3-3.1-7.1-5.5-11.7-5.5c-3.2,0-6.1,0.6-8,3.7
		c-2-0.2-3,0.6-4.3,1.9c-3.4,3.2-5.5,7.4-6.8,12c-1.3,4.6-1.7,9.6-1.5,14.3c0.1,2.4,0.2,3.8,1.8,5.8C23.4,45.5,26.4,46.3,30,45.9z"
		/>
	<path class="st5" d="M51.9,26.5c0.7-1,1.9-1.6,2.7-0.2c0.5,0.9,0.4,2.3,0,4c-0.5,2-1.7,3.5-3,3.6c-0.6,2.9-1.9,5.5-3.5,7.4l0,0.2
		l0.5,2.3l0,0c0,0.1,0.1,0.3,0.1,0.4l0,0.1c0.2,0.6,0.3,1.3,0.5,2c1,5.7-1.1,11-3.5,16.5c-1.3,1.4-3.3,2.5-5.2,2.4
		c-1.9,0.1-3.9-1-5.2-2.5c-2.3-5.1-4.2-10.1-3.6-15.3c0.2-1.1,0.4-2.1,0.7-3.1l0.1-0.5l0.5-2.3c-1.7-2-3-4.6-3.7-7.6
		c-1.3,0-2.7-1.5-3.2-3.6c-0.4-1.7-0.5-3.1,0-4c0.8-1.5,2.3-0.6,2.9,0.5c0.5-4.5,2.5-8.4,5.2-10.7c2,2.2,4.3,4,7.3,4.3
		C47.4,21,50.5,23.1,51.9,26.5z"/>
	<path class="st6" d="M29.3,33.4c-0.3-1.2-0.4-2.4-0.4-3.6c0-0.8,0-1.5,0.1-2.3c-0.1-0.1-0.1-0.2-0.2-0.3c-0.2-0.3-0.7-0.6-1.1-0.6
		c-0.3,0-0.5,0.3-0.6,0.5c-0.5,0.9-0.2,2.4,0.1,3.4c0.2,0.8,0.7,1.6,1.3,2.2C28.6,33,28.9,33.2,29.3,33.4z M51.7,33.4
		c0.3-1.2,0.4-2.4,0.4-3.6c0-0.8,0-1.5-0.1-2.3c0.1-0.1,0.1-0.2,0.2-0.3c0.2-0.3,0.7-0.6,1.1-0.6c0.3,0,0.5,0.3,0.6,0.5
		c0.5,0.9,0.2,2.4-0.1,3.4c-0.2,0.8-0.7,1.6-1.3,2.2C52.3,33,52,33.2,51.7,33.4z"/>
	<path class="st6" d="M48.6,43.8l-0.5-2.3l0-0.2c-2,2.4-4.7,3.9-7.7,3.9c-2.8,0-5.5-1.4-7.5-3.7l-0.1,0.6c0.8,1.1,1.8,2,2.9,2.7
		c1.4,0.9,3.1,1.5,4.9,1.8c1.8,0.3,3.9,0.4,6,0.3c0.5,0,0.5-0.1,0.6,0.4c1.7,6.8-1.2,17.8-11.8,15.3c1.3,1.4,3.3,2.5,5.2,2.4
		c1.8,0.1,3.8-1,5.2-2.4C48.4,56.7,50.8,50.3,48.6,43.8z"/>
	<path class="st6" d="M51.9,26.5c-1.4-3.4-4.5-5.5-10.4-6.1c-3.1-0.3-5.4-2.1-7.3-4.3c-2.7,2.4-4.6,6.2-5.2,10.7
		c1.6-3.2,2.8-6.8,5.1-9.1C37.2,24.7,47.4,20.3,51.9,26.5z"/>
	<path class="st7" d="M52.8,48.4c0.4,0.8,0.7,1.6,0.9,2.4c0.2,0.8,0.4,1.7,0.5,2.5c0,0.2,0.1,0.4,0.1,0.5c0,0.1-0.1,0.2-0.2,0.4
		c-0.3,0.4-0.6,0.8-1,1.2c-0.4,0.4-0.8,0.7-1.3,1l1.7,1.8l1.7,1.8l-7.4,9.3l-7.4,9.3l-7.4-9.3L25.8,60l1.7-1.8l1.7-1.8
		c-0.5-0.3-0.9-0.7-1.3-1c-0.4-0.4-0.7-0.7-1-1.2c-0.1-0.2-0.2-0.3-0.2-0.4c0-0.1,0-0.3,0.1-0.5c0.1-0.9,0.3-1.7,0.5-2.5
		s0.6-1.6,0.9-2.4c0.5-1,1.1-1.8,1.8-2.6c0.7-0.8,1.5-1.5,2.4-2C30.6,49.4,32,54.6,34.2,60c2.2,5.3,5.1,10.8,6.3,16.8
		c1.2-6,4.2-11.5,6.4-16.8c2.2-5.3,3.6-10.6,1.7-16.2c0.9,0.7,1.7,1.4,2.4,2.2C51.7,46.7,52.3,47.5,52.8,48.4z"/>
	<path class="st8" d="M40.6,76.8c1-5,3.2-9.6,5.2-14.1c-1.3,1.4-3.3,2.5-5.2,2.4c-1.8,0.1-3.8-1-5.2-2.4c0,0,0,0-0.1-0.1
		C37.3,67.1,39.6,71.7,40.6,76.8z"/>
</g>
</svg>
