<?xml version="1.0" encoding="utf-8"?>
<!-- Generator: Adobe Illustrator 22.0.1, SVG Export Plug-In . SVG Version: 6.00 Build 0)  -->
<svg version="1.1" xmlns="http://www.w3.org/2000/svg" xmlns:xlink="http://www.w3.org/1999/xlink" x="0px" y="0px"
	 viewBox="0 0 199 198" style="enable-background:new 0 0 199 198;" xml:space="preserve">
<style type="text/css">
	.st0{display:none;}
	.st1{display:inline;}
	.st2{opacity:0.92;}
	.st3{fill:none;}
	.st4{opacity:0.6;}
	.st5{fill:#808080;}
	.st6{opacity:0.92;fill:#999999;}
	.st7{opacity:0.6;fill:#999999;}
	.st8{opacity:0.92;fill:#B3B3B3;}
</style>
<g id="Capa_3" class="st0">
	<g class="st1">
		<rect x="0.5" y="0.5" width="198" height="197"/>
		<path d="M198,1v196H1V1H198 M199,0H0v198h199V0L199,0z"/>
	</g>
</g>
<g id="Capa_2">
	<g class="st2">
		<path class="st3" d="M192.3,66.3c0-4.1-3.2-7.4-7.1-7.4h-4.1h-4.8H34c-3.9,0-7.1,3.4-7.1,7.4v89.3v11.5c0,2.4,1.1,4.5,2.8,5.9
			c1.2,1,2.7,1.6,4.4,1.6h151.2c2.4,0,4.5-1.3,5.8-3.2c0.8-1.2,1.3-2.7,1.3-4.3v-32.9V113V66.3z"/>
		<path class="st3" d="M160.7,19.1L13.2,54.5c-3.8,0.9-6.3,4.9-5.5,8.9l14.5,69.7V62.4c0-4.7,3.6-8.5,7.9-8.5h145.1l-6.1-29.2
			C168.3,20.7,164.5,18.2,160.7,19.1z"/>
		<g class="st4">
			<path class="st5" d="M7.7,63.4c-0.8-4,1.6-8,5.5-8.9l147.5-35.4c3.8-0.9,7.6,1.6,8.5,5.6l6.1,29.2h4.8l-7.2-34.5
				c-0.9-4.3-5-7.1-9-6.1L8.4,50.5c-4.3,1-7,5.6-6,10.2l19.9,95.5v-23.1L7.7,63.4z"/>
		</g>
		<g class="st4">
			<path class="st5" d="M189.5,53.9H180h-4.8H30.1c-4.4,0-7.9,3.8-7.9,8.5v70.7v23.1v14.9c0,4.7,3.6,8.5,7.9,8.5h158.9
				c4.4,0,7.9-3.8,7.9-8.5V62C197,57.5,193.6,53.9,189.5,53.9z M192.3,167.2c0,1.6-0.5,3-1.3,4.3c-1.3,1.9-3.4,3.2-5.8,3.2H34
				c-1.6,0-3.2-0.6-4.4-1.6c-1.7-1.3-2.8-3.5-2.8-5.9v-11.5V66.3c0-4.1,3.2-7.4,7.1-7.4h142.3h4.8h4.1c3.9,0,7.1,3.4,7.1,7.4V113
				v21.3V167.2z"/>
		</g>
	</g>
	<path class="st6" d="M75.3,61.4c0,26.4-19.9,47.8-44.5,47.8c-1.3,0-2.6-0.1-3.9-0.2V66.3c0-4.1,3.2-7.4,7.1-7.4h41.2
		C75.2,59.7,75.3,60.6,75.3,61.4z"/>
	<g class="st2">
		<path class="st7" d="M187,174.4c0,0-0.1,0-0.1,0C186.9,174.4,187,174.4,187,174.4z"/>
		<path class="st7" d="M186.2,174.5c-0.1,0-0.1,0-0.2,0C186.1,174.5,186.1,174.5,186.2,174.5z"/>
		<path class="st7" d="M175.4,87.8l-10.7-11.9c-2.2-2.5-5.9-2.6-8.3-0.2l-11.2,11.6l-15.1,15.6l-9.5-9.2c-3-2.9-7.7-2.7-10.4,0.6
			l-9.3,11.1l-28.1,33.5c8.6,2.5,16.2,6.4,22.4,11.4c13.6-17.6,39.1-29.4,68.3-29.4c10.2,0,19.9,1.4,28.9,4v-18.4L175.4,87.8z"/>
		<path class="st7" d="M187,174.4c3.1-0.8,5.3-3.6,5.3-7v-0.2c0,1.6-0.5,3.1-1.3,4.3C190.1,172.8,188.6,173.9,187,174.4z"/>
		<path class="st7" d="M186.9,174.4c-0.2,0.1-0.4,0.1-0.7,0.1C186.4,174.5,186.7,174.4,186.9,174.4z"/>
		<path class="st7" d="M186,174.5c-0.3,0-0.6,0.1-0.8,0.1C185.5,174.6,185.7,174.6,186,174.5z"/>
	</g>
	<path class="st6" d="M163.4,120.9c-29.2,0-54.7,11.8-68.3,29.4C84.3,141.5,68.9,136,51.9,136c-8.9,0-17.4,1.5-25,4.2v26.9
		c0,4.1,3.2,7.4,7.1,7.4h50.9h25.6h74.7c3.9,0,7.1-3.3,7.1-7.2V125C183.4,122.4,173.6,120.9,163.4,120.9z"/>
	<path class="st8" d="M131.9,104.6c-0.7,1.5-2.3,2.6-3.8,2.8c-2,0.3-3.5-1.4-5.1-0.9c-2,0.6-2.9,2.7-5.4,2.5
		c-2.6-0.2-4.1-3.3-6.5-1.7c-1.4,0.9-2.7,1.8-4.4,1.7c-1.9-0.1-5.8-2.3-5.2-4.3c0.3-1.2,2.5-2.9,3.2-3.9c1.8-2.2,3.7-4.4,5.5-6.6
		c2.7-3.3,7.4-3.5,10.4-0.6C124.4,97.3,128.4,100.7,131.9,104.6z"/>
	<path class="st8" d="M175.4,87.8c-0.8,0.6-1.7,1-2.6,1.2c-2.1,0.3-3.6-1.4-5.3-0.9c-2.1,0.6-3,2.7-5.6,2.5
		c-2.7-0.2-4.3-3.3-6.7-1.7c-1.4,0.9-2.8,1.8-4.6,1.7c-1.7-0.1-4.7-1.6-5.4-3.3l11.2-11.6c2.3-2.4,6-2.3,8.3,0.2L175.4,87.8z"/>
</g>
</svg>
