<?xml version="1.0" encoding="utf-8"?>
<!-- Generator: Adobe Illustrator 22.0.1, SVG Export Plug-In . SVG Version: 6.00 Build 0)  -->
<svg version="1.1" xmlns="http://www.w3.org/2000/svg" xmlns:xlink="http://www.w3.org/1999/xlink" x="0px" y="0px"
	 viewBox="0 0 199 198" style="enable-background:new 0 0 199 198;" xml:space="preserve">
<style type="text/css">
	.st0{display:none;}
	.st1{display:inline;}
	.st2{fill:#FFFFFF;}
	.st3{fill:#66CCCC;}
	.st4{fill:#99FFFF;}
	.st5{fill:#FFFF00;}
	.st6{fill:#808080;}
	.st7{fill:#999999;}
	.st8{fill:#00CC66;}
	.st9{fill:#339966;}
</style>
<g id="Capa_3" class="st0">
	<g class="st1">
		<rect x="0.5" y="0.5" width="198" height="197"/>
		<path d="M198,1v196H1V1H198 M199,0H0v198h199V0L199,0z"/>
	</g>
</g>
<g id="Capa_2">
	<g>
		<path class="st2" d="M172.9,19.3L195,125.9c1,4.6-1.8,9.2-6,10.2L33.9,173.3c-4.3,1-8.5-1.9-9.5-6.5L2.3,60.7
			c-1-4.6,1.8-9.2,6-10.2l155.5-37.3C167.9,12.2,172,15,172.9,19.3z"/>
	</g>
	<g>
		<path class="st3" d="M169.2,24.7l20.4,98.4c0.3,1.5,0.2,3.1-0.4,4.5c-0.9,2.2-2.7,3.9-5.1,4.5L36.6,167.4
			c-3.8,0.9-7.6-1.6-8.5-5.6L7.7,63.4c-0.8-4,1.6-8,5.5-8.9l147.5-35.4C164.5,18.2,168.4,20.7,169.2,24.7z"/>
	</g>
	<g>
		<path class="st2" d="M197,62v109.1c0,4.7-3.6,8.5-7.9,8.5H30.1c-4.4,0-7.9-3.8-7.9-8.5V62.4c0-4.7,3.6-8.5,7.9-8.5h159.3
			C193.6,53.9,197,57.5,197,62z"/>
	</g>
	<g>
		<path class="st4" d="M192.3,66.3v100.8c0,1.6-0.5,3.1-1.3,4.3c-1.3,1.9-3.4,3.2-5.8,3.2H34c-3.9,0-7.1-3.4-7.1-7.4V66.3
			c0-4.1,3.2-7.4,7.1-7.4h151.2C189.1,58.9,192.3,62.3,192.3,66.3z"/>
	</g>
	<path class="st5" d="M75.3,61.4c0,26.4-19.9,47.8-44.5,47.8c-1.3,0-2.6-0.1-3.9-0.2V66.3c0-4.1,3.2-7.4,7.1-7.4h41.2
		C75.2,59.7,75.3,60.6,75.3,61.4z"/>
	<path class="st6" d="M192.3,106.6v60.5c0,1.6-0.5,3.1-1.3,4.3c-1.2,1-2.7,1.5-4.3,1.5h-7.2l-67.9-16.1
		c-11.8-2.8-15.9-18.5-7.2-27.5l40.7-42.1l11.2-11.6c2.3-2.4,6-2.3,8.3,0.2l10.7,11.9L192.3,106.6z"/>
	<path class="st7" d="M192.3,163.1v4.1c0,1.6-0.5,3.1-1.3,4.3c-1.3,1.9-3.4,3.2-5.8,3.2H47.1c-1.4-0.9-1.8-3-0.6-4.5l54.3-64.8
		l9.3-11.1c2.7-3.3,7.4-3.5,10.4-0.6l11.3,11L192.3,163.1z"/>
	<path class="st8" d="M110.5,174.6H34c-3.9,0-7.1-3.4-7.1-7.4v-26.9c7.6-2.7,16-4.2,25-4.2C81.6,136,106.3,152.8,110.5,174.6z"/>
	<path class="st9" d="M192.3,125v42.4c0,4-3.2,7.2-7.1,7.2H84.9c3.3-30.1,37.2-53.7,78.5-53.7C173.6,120.9,183.4,122.4,192.3,125z"
		/>
	<path class="st2" d="M131.9,104.6c-0.7,1.5-2.3,2.6-3.8,2.8c-2,0.3-3.5-1.4-5.1-0.9c-2,0.6-2.9,2.7-5.4,2.5
		c-2.6-0.2-4.1-3.3-6.5-1.7c-1.4,0.9-2.7,1.8-4.4,1.7c-1.9-0.1-5.8-2.3-5.2-4.3c0.3-1.2,2.5-2.9,3.2-3.9c1.8-2.2,3.7-4.4,5.5-6.6
		c2.7-3.3,7.4-3.5,10.4-0.6C124.4,97.3,128.4,100.7,131.9,104.6z"/>
	<path class="st2" d="M175.4,87.8c-0.8,0.6-1.7,1-2.6,1.2c-2.1,0.3-3.6-1.4-5.3-0.9c-2.1,0.6-3,2.7-5.6,2.5
		c-2.7-0.2-4.3-3.3-6.7-1.7c-1.4,0.9-2.8,1.8-4.6,1.7c-1.7-0.1-4.7-1.6-5.4-3.3l11.2-11.6c2.3-2.4,6-2.3,8.3,0.2L175.4,87.8z"/>
</g>
</svg>
