<?xml version="1.0" encoding="utf-8"?>
<!-- Generator: Adobe Illustrator 22.0.1, SVG Export Plug-In . SVG Version: 6.00 Build 0)  -->
<svg version="1.1" id="Capa_1" xmlns="http://www.w3.org/2000/svg" xmlns:xlink="http://www.w3.org/1999/xlink" x="0px" y="0px"
	 viewBox="0 0 568 568" style="enable-background:new 0 0 568 568;" xml:space="preserve">
<style type="text/css">
	.st0{display:none;fill:#808080;}
	.st1{display:none;fill:#FF424F;}
	.st2{display:none;fill:#FBC93B;}
	.st3{fill:#E5BF00;}
	.st4{fill:#FFFFFF;}
	.st5{fill:#E5BF00;stroke:#FFFFFF;stroke-width:2;stroke-miterlimit:10;}
	.st6{fill:#289CA2;stroke:#FFFFFF;stroke-width:2;stroke-miterlimit:10;}
	.st7{fill:#289CA2;stroke:#FFFFFF;stroke-miterlimit:10;}
</style>
<rect x="-14" y="-9" class="st0" width="591" height="592"/>
<circle class="st1" cx="756" cy="-28" r="30"/>
<circle class="st2" cx="660" cy="-28" r="30"/>
<g>
	<g>
		<g>
			<polygon class="st3" points="513.7,201.3 480.4,117.2 493.5,69.2 545.6,201.3 			"/>
			<path class="st4" d="M493.7,72.4l50.4,127.9h-29.8l-32.9-83.1L493.7,72.4 M493.4,66l-1.6,5.8l-12.2,44.8l-0.2,0.6l0.2,0.6
				l32.9,83.1l0.5,1.3h1.4h29.8h2.9l-1.1-2.7L495.6,71.6L493.4,66L493.4,66z"/>
		</g>
		<path class="st5" d="M410.3,40.8V11.3h-46.9v29.5H258.1h-2.8h-40.7L152,200.3h39.8c0,0,0,0.1,0,0.1c77.7,0,155.4-0.1,233.1-0.1
			l16-41.6h0.3l46.4-117.9H410.3z"/>
	</g>
	<path class="st6" d="M352.8,267.4c-44.6,0-116.2-5.7-197.3-38.4c10,11.7,20.6,23.5,31.7,35.6c3.9,4.2,18.3,19.8,34.9,36.5
		c35.6,35.8,48.1,43.5,79.5,73.9c12.2,11.8,30.2,29.9,51.1,53.7c10.7-12.1,28.3-31.2,51.1-53.7c33.5-33,50.3-45.5,79.5-73.9
		c16.2-15.7,39.8-39.8,66.6-72C468.9,261.7,397.4,267.4,352.8,267.4z"/>
	<path class="st7" d="M376.4,461"/>
</g>
<g>
	<ellipse class="st4" cx="175.1" cy="283.8" rx="97.7" ry="97.8"/>
	<path class="st4" d="M348.7,535.5c-2.3,15-15.7,23.3-18.8,25.1c-7,4-13.9,5.2-18.8,5.4H40.6c-4.9-0.2-11.8-1.4-18.8-5.4
		c-3.1-1.8-16.5-10.1-18.8-25.1c-0.6-3.8-0.3-6.9,0-9v-36.8c0.4-7.7,1.9-19.3,7.2-32.3c4.5-11,10-18.9,13.4-23.3
		c9.7-12.5,19.9-19.3,26-23.3c5.4-3.6,15.6-10.2,30.5-14.4c15.6-4.4,27.8-3.8,30.5-3.6c3.3,0.2,6.1,0.6,8.1,0.9
		c37.3,16.6,77.2,16.5,114.4,0c2-0.3,4.8-0.7,8.1-0.9c2.7-0.2,14.9-0.8,30.5,3.6c14.9,4.2,25,10.8,30.5,14.4
		c6.1,4,16.3,10.9,26,23.3c3.5,4.5,9,12.4,13.4,23.3c5.3,13,6.8,24.6,7.2,32.3v36.8C349,528.6,349.2,531.7,348.7,535.5z"/>
</g>
<path class="st4" d="M226,405L226,405c-0.1,0-0.1,0-0.2,0C225.9,405,225.9,405,226,405z"/>
<path class="st4" d="M225.8,405c-0.1,0-0.1,0-0.2,0v0C225.7,405,225.8,405,225.8,405z"/>
</svg>
