<?xml version="1.0" encoding="utf-8"?>
<!-- Generator: Adobe Illustrator 22.0.1, SVG Export Plug-In . SVG Version: 6.00 Build 0)  -->
<svg version="1.1" xmlns="http://www.w3.org/2000/svg" xmlns:xlink="http://www.w3.org/1999/xlink" x="0px" y="0px"
	 viewBox="0 0 80 80" style="enable-background:new 0 0 80 80;" xml:space="preserve">
<style type="text/css">
	.st0{display:none;}
	.st1{display:inline;}
	.st2{fill:#93A8C5;}
	.st3{fill:#D1E1F8;}
	.st4{fill:#BFE9F7;}
	.st5{fill:#294658;}
	.st6{fill:#FFFFFF;}
	.st7{fill:#0E2947;}
	.st8{fill:#F7931E;}
	.st9{fill:#3FA9F5;}
</style>
<g id="Capa_2" class="st0">
	<rect class="st1" width="80" height="80"/>
</g>
<g id="Capa_4">
</g>
<g id="Capa_3">
	<g>
		<path class="st2" d="M48.6,7C45.1,3.4,40.3,1.2,35,1.2c-10.6,0-19.2,8.9-19.2,19.8v11.4h5.7V21c0-7.7,6.1-14,13.6-14
			c3.7,0,7.1,1.6,9.6,4.1c2.5,2.5,4,6,4,9.9v11.4h5.7V21C54.2,15.6,52.1,10.6,48.6,7z"/>
		<path class="st3" d="M49.4,6C45.7,2.3,40.6,0,35,0C23.8,0,14.7,9.2,14.7,20.4v12H18V22.2C18,12,25.7,3.6,35,3.6
			c4.7,0,8.9,2.1,12,5.5c3.1,3.4,5,8,5,13.1v10.2h3.4v-12C55.3,14.8,53.1,9.7,49.4,6z"/>
		<g>
			<rect x="10.1" y="36" class="st4" width="49.7" height="32.4"/>
			<path class="st5" d="M61,38.4H9v-6c0-1.3,1.1-2.4,2.4-2.4h47.3c1.3,0,2.4,1.1,2.4,2.4V38.4z"/>
			<path class="st5" d="M61,63.6v5.5c0,1.6-1.2,2.9-2.7,2.9H11.7C10.2,72,9,70.7,9,69.1v-5.5H61z"/>
			<g>
				<path class="st6" d="M17.7,57.1c-1.4,0-2.5-1.1-2.5-2.5v-8.4c0-1.4,1.1-2.5,2.5-2.5h34.7c1.4,0,2.5,1.1,2.5,2.5v8.4
					c0,1.4-1.1,2.5-2.5,2.5H17.7z"/>
				<path class="st7" d="M52.3,44.2c1.1,0,2,0.9,2,2v8.4c0,1.1-0.9,2-2,2H17.7c-1.1,0-2-0.9-2-2v-8.4c0-1.1,0.9-2,2-2H52.3
					 M52.3,43.2H17.7c-1.6,0-3,1.4-3,3v8.4c0,1.6,1.4,3,3,3h34.7c1.6,0,3-1.4,3-3v-8.4C55.3,44.6,54,43.2,52.3,43.2L52.3,43.2z"/>
			</g>
		</g>
		<g>
			<path class="st8" d="M22.1,46.8h1.2L23,49.7l2.3-1.7L26,49l-2.6,1.2l2.6,1.2l-0.6,1.1L23,50.8l0.3,2.8h-1.2l0.3-2.8L20,52.5
				l-0.6-1.1l2.7-1.2L19.4,49L20,48l2.3,1.7L22.1,46.8z"/>
			<path class="st8" d="M30.3,46.8h1.2l-0.3,2.8l2.3-1.7l0.6,1.1l-2.6,1.2l2.6,1.2l-0.6,1.1l-2.3-1.7l0.3,2.8h-1.2l0.3-2.8l-2.3,1.7
				l-0.6-1.1l2.7-1.2L27.6,49l0.6-1.1l2.3,1.7L30.3,46.8z"/>
			<path class="st8" d="M38.5,46.8h1.2l-0.3,2.8l2.3-1.7l0.6,1.1l-2.6,1.2l2.6,1.2l-0.6,1.1l-2.3-1.7l0.3,2.8h-1.2l0.3-2.8l-2.3,1.7
				l-0.6-1.1l2.7-1.2L35.8,49l0.6-1.1l2.3,1.7L38.5,46.8z"/>
			<path class="st8" d="M46.7,46.8h1.2l-0.3,2.8L50,48l0.6,1.1L48,50.2l2.6,1.2L50,52.5l-2.3-1.7l0.3,2.8h-1.2l0.3-2.8l-2.3,1.7
				L44,51.4l2.7-1.2L44,49l0.6-1.1l2.3,1.7L46.7,46.8z"/>
		</g>
	</g>
	<g>
		<g>
			<path class="st9" d="M65.3,78.2c-0.2,0-0.4,0-0.7,0l-0.4,0v-4.3h1.5c5.4-0.8,9.6-5.3,9.6-10.3c0-4-2.8-6.8-3.9-7.7l-1.1,2.5
				l-7.5-8L74,47.5l-1.2,3.9c4.7,3.2,7.4,9,6.6,14.5C78.4,72.9,72.3,78.2,65.3,78.2z"/>
			<path class="st6" d="M73.5,48c-0.4,1.2-0.7,2.4-1.1,3.6c4.8,3.1,7.4,8.8,6.6,14.3c-0.9,6.6-6.7,11.9-13.7,11.9
				c-0.2,0-0.4,0-0.7,0c0-1.2,0-2.4,0-3.6c0.4,0,0.7,0,1.1,0c5.9-0.8,10-5.7,10-10.7c0-4.9-3.9-8-4.4-8.3c-0.4,0.8-0.7,1.6-1.1,2.4
				c-2.2-2.4-4.4-4.8-6.6-7.2C66.8,49.6,70.1,48.8,73.5,48 M74.6,47l-1.3,0.3l-8.3,2l-1.6,0.4L62.1,50l0.9,0.9l6.6,7.2l0.8,0.8
				l0.5-1l0.6-1.2l0.1-0.3c1.2,1.2,3.4,3.7,3.4,7.1c0,4.8-4,9.2-9.3,10h-1.1h-0.7v0.8v3.6v0.7l0.7,0c0.2,0,0.5,0,0.7,0
				c7.2,0,13.5-5.4,14.5-12.6c0.8-5.6-1.8-11.4-6.5-14.7l0.9-3L74.6,47L74.6,47z"/>
		</g>
		<g>
			<path class="st9" d="M52.3,75.5c-4.7-3.3-7.4-9.3-6.6-15c1-7.2,7.1-12.7,14.1-12.7c0.2,0,0.4,0,0.7,0l0.4,0v4.4h-1.5
				C54,53,49.8,57.8,49.8,63c0,4.2,2.8,7,3.9,8l1.1-2.5l7.4,8.3l-11.2,2.8L52.3,75.5z"/>
			<path class="st6" d="M59.9,48.2c0.2,0,0.4,0,0.7,0c0,1.2,0,2.5,0,3.7c-0.4,0-0.7,0-1.1,0c-5.9,0.9-10,5.9-10,11.1
				c0,5,3.9,8.3,4.4,8.6c0.4-0.8,0.7-1.6,1.1-2.5c2.2,2.5,4.4,4.9,6.6,7.4c-3.3,0.8-6.6,1.6-10,2.5c0.4-1.2,0.7-2.5,1.1-3.7
				c-4.8-3.2-7.4-9.1-6.6-14.8C47.1,53.6,52.9,48.2,59.9,48.2 M59.9,47.4c-7.2,0-13.5,5.6-14.5,13c-0.8,5.7,1.8,11.8,6.5,15.2
				l-0.4,1.3l-0.6,1.8L50.6,80l1.3-0.3l10-2.5L63,77L62.2,76l-6.6-7.4l-0.8-0.9l-0.5,1.1l-0.5,1.1l-0.2,0.4
				c-1.2-1.2-3.4-3.8-3.4-7.4c0-5,4-9.5,9.3-10.3h1.1h0.8v-0.8v-3.7v-0.7l-0.7,0C60.3,47.4,60.1,47.4,59.9,47.4L59.9,47.4z"/>
		</g>
	</g>
</g>
</svg>
