<?xml version="1.0" encoding="utf-8"?>
<!-- Generator: Adobe Illustrator 22.0.1, SVG Export Plug-In . SVG Version: 6.00 Build 0)  -->
<svg version="1.1" id="Capa_1" xmlns="http://www.w3.org/2000/svg" xmlns:xlink="http://www.w3.org/1999/xlink" x="0px" y="0px"
	 viewBox="0 0 981.2 764.9" style="enable-background:new 0 0 981.2 764.9;" xml:space="preserve">
<style type="text/css">
	.st0{fill:none;}
	.st1{fill:#DF5F68;}
	.st2{fill:#E5B664;}
	.st3{fill:#EFE393;}
	.st4{fill:#52B1A0;}
	.st5{fill:#4F3735;}
	.st6{fill:#9A906B;}
	.st7{fill:#CFC08C;}
	.st8{fill:#FFFFFF;stroke:#00BAFF;stroke-width:15;stroke-miterlimit:10;}
	.st9{fill:#00BAFF;}
	.st10{opacity:0.3;fill:#3FEDFF;}
	.st11{fill:#B5E489;}
	.st12{fill:#A2CC7B;}
	.st13{fill:#1BA4CB;}
	.st14{fill:#FDD168;}
	.st15{fill:#AE5F68;}
</style>
<g>
	<path class="st0" d="M550.9,121.6c-68.2,0-123.5,50.7-123.5,113.1s55.3,113.1,123.5,113.1c68.2,0,123.5-50.7,123.5-113.1
		S619.1,121.6,550.9,121.6z"/>
	<path class="st1" d="M547.2,2.5c-131.4,0-238,98.8-238,220.7s106.6,220.7,238,220.7s238-98.8,238-220.7S678.7,2.5,547.2,2.5z
		 M546.3,414.4C430.7,414.4,337,328.7,337,223S430.7,31.6,546.3,31.6S755.6,117.3,755.6,223S661.9,414.4,546.3,414.4z"/>
	<path class="st2" d="M546.3,31.6C430.7,31.6,337,117.3,337,223s93.7,191.4,209.3,191.4S755.6,328.7,755.6,223
		S661.9,31.6,546.3,31.6z M546.6,392.8c-99.5,0-180.2-74.6-180.2-166.6S447.1,59.6,546.6,59.6c99.5,0,180.2,74.6,180.2,166.6
		S646.2,392.8,546.6,392.8z"/>
	<path class="st3" d="M546.6,59.6c-99.5,0-180.2,74.6-180.2,166.6s80.7,166.6,180.2,166.6c99.5,0,180.2-74.6,180.2-166.6
		S646.2,59.6,546.6,59.6z M550.4,371.6c-83.4,0-151.1-62.5-151.1-139.7c0-77.1,67.6-139.7,151.1-139.7s151.1,62.5,151.1,139.7
		C701.5,309.1,633.8,371.6,550.4,371.6z"/>
	<path class="st4" d="M550.4,92.3c-83.4,0-151.1,62.5-151.1,139.7c0,77.1,67.6,139.7,151.1,139.7s151.1-62.5,151.1-139.7
		C701.5,154.8,633.8,92.3,550.4,92.3z M550.9,347.9c-68.2,0-123.5-50.7-123.5-113.1s55.3-113.1,123.5-113.1
		c68.2,0,123.5,50.7,123.5,113.1S619.1,347.9,550.9,347.9z"/>
</g>
<g>
	<path class="st5" d="M957,296.8C802.6,229.5,648.2,162.2,493.8,94.9c-0.1-12.5-0.2-24.9-0.3-37.4
		C648.1,126.7,802.7,195.9,957.2,265C957.2,275.6,957.1,286.2,957,296.8z"/>
	<path class="st5" d="M566.6,161.4c-106,49.2-212,98.4-318,147.6c-0.3-10.3-0.6-20.5-0.9-30.8c101.6-45.7,203.2-91.4,304.9-137
		C557.2,147.9,561.9,154.7,566.6,161.4z"/>
	<path class="st6" d="M300.1,293.4c-0.4,69.8-0.8,139.7-1.2,209.5h599c0.4-74.5,0.8-149.1,1.2-223.6
		c-120.2-53-240.4-105.9-360.6-158.9c0.8,21.6,1.6,43.1,2.5,64.7C460.7,221.3,380.4,257.4,300.1,293.4z"/>
	<rect x="396.6" y="320.6" class="st7" width="94.5" height="181.7"/>
	<rect x="381.9" y="308.6" class="st5" width="123.9" height="25.6"/>
	<path class="st5" d="M471.1,425.6h-5.3c-0.8,0-1.5-0.7-1.5-1.5v-15.7c0-0.8,0.7-1.5,1.5-1.5h5.3c0.8,0,1.5,0.7,1.5,1.5v15.7
		C472.6,424.9,472,425.6,471.1,425.6z"/>
	<rect x="562.5" y="315.4" class="st8" width="309.9" height="87.6"/>
	<rect x="662.7" y="316" class="st9" width="8" height="86.5"/>
	<rect x="764.7" y="316" class="st9" width="8" height="86.5"/>
	<path class="st10" d="M866.1,325.1v71.5h-93.5c31-23.9,62.1-47.7,93.1-71.5H866.1z"/>
	<path class="st10" d="M764.9,325.1v71.5h-93.5c31-23.9,62.1-47.7,93.1-71.5H764.9z"/>
	<path class="st10" d="M662.8,324.7v71.5h-93.5c31-23.9,62.1-47.7,93.1-71.5H662.8z"/>
</g>
<g>
	<path class="st11" d="M674.2,563.5c10.3,19.3,33.6,22.3,36.2,22.6c40.8,0.3,81.6,0.5,122.4,0.8c7.9-3.2,12.3-7.7,14.4-10.5
		c11.7-14.8,10.2-40.4-4.9-62.9c3.6-8.1,9.7-24.7,8.4-46.3c-1.6-25.9-13-43.9-18.1-51.1c-7.9-1-22.4-1.8-39.2,3.9
		c-18.3,6.2-30.1,17-35.8,22.9c-22.1-10.6-47-4.4-58.9,12.6c-12.4,17.8-5.3,39.6-4.5,41.9C670.8,514.4,663.6,543.7,674.2,563.5z"/>
	<path class="st12" d="M828.2,587c10.1-3.1,15.3-8.5,17.8-11.6c11.7-14.8,10.2-40.4-4.9-62.9c3.6-8.1,9.7-24.7,8.4-46.3
		c-1.5-25-12-42.7-17-50c5.3,1,10.8,2.6,16.3,5.1c32.2,14.6,44.1,50,47.2,60.6c33.1,1.5,56.9,29.5,55,57.2
		c-1.4,21.2-17.8,40.7-40.8,47.3C883,586.5,855.6,586.8,828.2,587z"/>
</g>
<g>
	<ellipse class="st13" cx="582.5" cy="488.4" rx="73.8" ry="67.4"/>
	<path class="st13" d="M687.5,556.6c9.3-1.4,18.5-2.7,27.7-3.9c2.8-0.4,6.5-0.4,7.7,1.8c1.1,2-0.8,4.3-2.7,5.9
		c-23.9,20.3-54.8,26.7-85,37.1c-12.8,4.4-25.3,11.1-31.4,21.6c-3.5,5.9-4.7,12.6-5.3,19.3c-4,42.3,16.7,76.3,37.7,113.1
		c3.3,4.5,3.3,8.7,1.5,9.7c-1.7,1-6.3-0.6-9.9-4.8c-7.3-6.4-14.7-13.3-22.1-20.5c-19.2-18.9-35.3-37.5-48.7-55.1
		c-1.5-0.2-3.8-0.4-6.3,0.2c-20,4.8-24.3,50.1-28.2,63.7c-1,3.5-2,7-4.2,10c-0.5,0.7-1.3,1.5-2.3,1.5c-1.5,0-2.2-1.6-2.5-2.9
		c-5.3-26.6-2.7-52.3-2.7-79c0-23.5,0-47,0-70.5c0.2-2.2,0-5.3-1.5-8.6c-2.7-5.9-8-8.5-14.8-13.1c-4.4-3-10.5-7.4-17.1-13.6
		c-8.5-7.8-15.6-14.6-20.9-19.8c-13.8-13.4-17-17.4-19.8-22c-4.3-7.2-11-21.5-6.9-24c5.4-3.3,23,17.2,55.6,35
		c28.6,15.7,54.5,21.6,59.4,22.7C591.8,570.8,640.2,563.5,687.5,556.6z"/>
</g>
<g>
	<ellipse class="st14" cx="181.6" cy="430.8" rx="64.1" ry="60.3"/>
	<path class="st14" d="M56.3,417.4c11.8,6.6,28.5,4.7,39.9-1.7c4.6-2.6,8.5-6,11.5-9.9c2.7-3.5,3.9-9.5,8.1-11.8
		c1.8-1,4.3-1.1,6.2-0.2c1.9,0.9,3.2,2.7,3.3,4.6c0.1,3.4-1.8,6.8,3.7,6.4c2.9-0.2,6-2,8.4-3.4c4.7-2.7,9.4-6.6,4.2-11
		c-3.2-2.7-7-5.9-8.9-9.5c-2.2-4-0.9-8.7-2.8-12.8c-2-4.4-5.8-8.1-10.6-10.2c-8.2-3.4-18.6-1.7-25.1,3.9c-10.1,8.8-4.2,22.5-7,33.5
		c-1.3,5.1-4.2,10-9,13c-6.5,4.1-15.1,4-23.1,3.9c-1.2,0-2.7,0.2-3,1.2c-0.3,0.8,0.5,1.6,1.3,2.2C54.3,416.2,55.3,416.8,56.3,417.4z
		"/>
	<path class="st14" d="M302.1,419.3c-12.1,6.1-28.7,3.6-39.7-3.2c-4.4-2.7-8.2-6.3-11-10.3c-2.5-3.6-3.5-9.6-7.5-12.1
		c-1.8-1.1-4.2-1.2-6.2-0.4c-2,0.8-3.3,2.6-3.5,4.5c-0.3,3.4,1.4,6.8-4,6.2c-2.9-0.3-5.9-2.3-8.2-3.7c-4.6-2.9-9.1-7-3.7-11.2
		c3.3-2.6,7.3-5.7,9.3-9.1c2.4-3.9,1.3-8.7,3.4-12.7c2.2-4.3,6.2-7.9,11.1-9.8c8.3-3.1,18.7-1,24.9,4.8c9.7,9.2,3.1,22.6,5.4,33.7
		c1.1,5.1,3.7,10.2,8.4,13.4c6.3,4.3,14.9,4.5,22.9,4.7c1.2,0,2.7,0.3,3,1.3c0.2,0.8-0.6,1.6-1.4,2.1
		C304.2,418.1,303.1,418.8,302.1,419.3z"/>
	<path class="st14" d="M305.2,466.7c1.1-1.3,2.1-2.6,3.2-4c3.3-4.2,6.7-8.8,6.9-14c0.1-1.5-0.2-3.1-1.4-4.2c-2.4-2-6.2-0.5-8.9,1.1
		c-26.5,15.4-45.4,37.5-76.2,47.1c-18,5.6-37.1,7.9-56.1,8.7c-9,0.4-33,1.4-59.9-3.5c-19.8-3.6-20.1-3.7-20.1-3.7
		c-19.4-4.1-31.6-8.2-34-4.9c-0.3,0.4-0.5,1-0.2,2.5c1.3,6.5,7.8,11.1,14.2,14.5c20.1,10.5,43.7,13.6,65.2,21.4
		c2.6,0.9,5.4,2.1,6.4,4.4c0.7,1.6,0.3,3.5-0.1,5.2c-3.1,13.1-5.3,26.4-9.3,39.4c-3.6,11.7-4.5,14.7-5,16.8c0,0.2-0.1,0.6-0.3,1.3
		c-1.2,6.2-1.2,12.6-2.3,18.9c-0.1,0.6-0.2,1.3-0.1,1.9c0.1,0.6,0.4,1.3,1,1.6c0.5,0.3,1.2,0.4,1.9,0.4c4.7,0.2,9.4-0.1,14-0.2
		c1.2,0,14.4-0.1,14.4-0.3c-1.2,12-6.9,22.8-13.2,33.3c-4.1,6.9-10.6,14.2-13,21.8c-0.3,1-0.5,2.3,0.5,2.9c0.7,0.4,1.7,0.2,2.5-0.1
		c4.5-1.5,8.3-4.3,11.8-7.2c16.4-13.6,31.5-31.9,41.5-49.6c0.4-0.7,0.8-1.4,1.5-1.8c0.9-0.6,2.2-0.7,3.4-0.7
		c7.6-0.1,15.1-0.2,22.7-0.3c1.1,0,2.3,0,3.1,0.6c1,0.8,1.2,1.9,1.2,2.4c1,6.6,6.9,29.2,11,40c1.6,4.2,4.2,10.6,6.8,10.4
		c3.6-0.2,5.2-12.6,5.3-13.7c0.6-4.7,0.8-11.8-0.1-29.3c-0.1-1.9-0.3-5.5,2.2-7.1c1.1-0.7,2.1-0.6,7.9-0.4c6.8,0.3,7.6,0.3,8.3-0.2
		c2.4-1.5,1.7-5.8,0.6-10.5c-2.2-9.5-5.4-18.7-7.8-28.1c-4.7-18.6-1.7-13.8-6.6-33.6c-3.2-12.9-5-17.3-2.2-22.8c2-3.9,5.8-5.6,9.6-8
		c6.7-4.2,12.3-9.1,17.9-14.4C284.9,490.1,295.5,478.7,305.2,466.7z"/>
</g>
<g>
	<ellipse transform="matrix(0.1031 -0.9947 0.9947 0.1031 -318.6823 992.5115)" class="st1" cx="391" cy="673" rx="57" ry="59.2"/>
	<path class="st15" d="M450,679.1c-3.2,31.3-32.3,54-64.8,50.6c-15.4-1.6-28.9-8.8-38.4-19.2c4.3,1.3,8.8,2.3,13.4,2.8
		c38.3,4,72.6-24.3,76.6-63.1c0.4-4.3,0.5-8.6,0.2-12.8C446.5,648.7,451.6,663.5,450,679.1z"/>
</g>
</svg>
