<?xml version="1.0" encoding="utf-8"?>
<!-- Generator: Adobe Illustrator 22.0.1, SVG Export Plug-In . SVG Version: 6.00 Build 0)  -->
<svg version="1.1" xmlns="http://www.w3.org/2000/svg" xmlns:xlink="http://www.w3.org/1999/xlink" x="0px" y="0px"
	 viewBox="0 0 80 80" style="enable-background:new 0 0 80 80;" xml:space="preserve">
<style type="text/css">
	.st0{display:none;}
	.st1{display:inline;}
	.st2{fill:#FFFFFF;}
	.st3{fill:none;stroke:#FFFFFF;stroke-width:3;stroke-miterlimit:10;}
	.st4{fill:none;stroke:#FFFFFF;stroke-width:3;stroke-linecap:round;stroke-linejoin:round;stroke-miterlimit:10;}
	.st5{fill:#F1F10F;}
	.st6{opacity:0.61;fill:#F1C40F;}
	.st7{fill:#5B5438;}
	.st8{fill:#413D31;}
	.st9{fill:#C94D45;}
	.st10{fill:#B62224;}
	.st11{fill:#B3B3B3;}
</style>
<g id="Capa_2" class="st0">
	<rect class="st1" width="80" height="80"/>
</g>
<g id="Capa_4">
	<g>
		<g>
			<path class="st2" d="M17.5,66.5v-3c0-0.8,0.7-1.5,1.5-1.5h26c0.8,0,1.5,0.7,1.5,1.5v3H17.5z"/>
			<path class="st2" d="M45,62.5c0.6,0,1,0.4,1,1V66H18v-2.5c0-0.6,0.4-1,1-1H45 M45,61.5H19c-1.1,0-2,0.9-2,2V67h30v-3.5
				C47,62.4,46.1,61.5,45,61.5L45,61.5z"/>
		</g>
		<g>
			<path class="st2" d="M32,66.5c-3.6,0-6.6-2.5-6.6-5.5s2.9-5.5,6.6-5.5c3.6,0,6.6,2.5,6.6,5.5S35.6,66.5,32,66.5z"/>
			<path class="st2" d="M32,56.1c3.3,0,6.1,2.2,6.1,5c0,2.7-2.7,5-6.1,5S26,63.8,26,61C26,58.3,28.7,56.1,32,56.1 M32,55.1
				c-3.9,0-7.1,2.7-7.1,6c0,3.3,3.2,6,7.1,6c3.9,0,7.1-2.7,7.1-6C39.1,57.7,35.9,55.1,32,55.1L32,55.1z"/>
		</g>
		<g>
			<path class="st2" d="M29.9,66.5V24c0-0.8,0.7-1.5,1.5-1.5h1.3c0.8,0,1.5,0.7,1.5,1.5v42.5H29.9z"/>
			<path class="st2" d="M32.7,23c0.6,0,1,0.4,1,1v42h-3.3V24c0-0.6,0.4-1,1-1H32.7 M32.7,22h-1.3c-1.1,0-2,0.9-2,2v43h5.3V24
				C34.7,22.9,33.8,22,32.7,22L32.7,22z"/>
		</g>
		<g>
			<path class="st2" d="M32.1,28.8c-1.1,0-2.1-0.3-2.9-1c-1-0.8-1.7-1.9-1.9-3.3c-0.2-1.2-0.1-1.5,0-1.6c0.2-0.2,1-0.3,1.3-0.3
				l0.2,0c1.1-0.1,2.3-0.1,3.4-0.1c1.2,0,2.5,0,3.7,0.1c0.3,0,0.6,0.1,0.8,0.2c0.1,0.1,0.1,0.4,0.1,0.5c0,0.2,0,0.3,0,0.5
				c0,1.8-1,3.5-2.5,4.3C33.7,28.6,32.9,28.8,32.1,28.8L32.1,28.8z"/>
			<path class="st2" d="M32.2,23c1.2,0,2.4,0,3.6,0.1c0.2,0,0.4,0,0.4,0.1c0,0,0,0.1,0,0.2c0,0.1,0,0.3,0,0.4c0,1.6-0.9,3.1-2.2,3.9
				c-0.6,0.3-1.3,0.5-2,0.5c-0.9,0-1.9-0.3-2.6-0.9c-0.9-0.7-1.5-1.8-1.7-2.9c-0.1-0.7-0.1-1.1-0.1-1.2c0.2-0.1,0.7-0.1,1-0.1l0.2,0
				C30,23.1,31.1,23,32.2,23 M32.2,22c-1.1,0-2.3,0-3.4,0.1c-0.5,0-1.5,0-1.9,0.5c-0.3,0.4-0.2,1.5-0.1,2c0.2,1.4,0.9,2.7,2,3.6
				c0.9,0.7,2.1,1.1,3.2,1.1c0.9,0,1.8-0.2,2.5-0.7c1.6-0.9,2.7-2.8,2.7-4.7c0-0.2,0-0.3,0-0.5c0-0.3-0.1-0.6-0.2-0.8
				c-0.3-0.3-0.7-0.4-1.1-0.4C34.7,22.1,33.5,22,32.2,22L32.2,22z"/>
		</g>
		<g>
			<path class="st2" d="M32,17.9c-2.2,0-3.9-1.8-3.9-4.1c0-2.3,1.8-4.1,3.9-4.1c2.2,0,3.9,1.8,3.9,4.1C35.9,16,34.2,17.9,32,17.9z"
				/>
			<path class="st2" d="M32,10.2c1.9,0,3.4,1.6,3.4,3.6s-1.5,3.6-3.4,3.6c-1.9,0-3.4-1.6-3.4-3.6S30.2,10.2,32,10.2 M32,9.2
				c-2.4,0-4.4,2.1-4.4,4.6s2,4.6,4.4,4.6c2.4,0,4.4-2.1,4.4-4.6S34.5,9.2,32,9.2L32,9.2z"/>
		</g>
		<g>
			<path class="st2" d="M32,9.3c-1.2,0-2.1-1-2.1-2.3c0-0.2,0-0.4,0.1-0.6l0,0l0-0.1l0.1-0.2l0,0l2-4.5l2,4.5l0,0l0.1,0.2l0,0.1l0,0
				c0,0.2,0.1,0.4,0.1,0.6C34.2,8.3,33.2,9.3,32,9.3z"/>
			<path class="st2" d="M32,2.8L33.4,6l0.1,0.4l0,0.2l0.1,0.1c0,0.1,0,0.2,0,0.3c0,1-0.7,1.8-1.6,1.8c-0.9,0-1.6-0.8-1.6-1.8
				c0-0.1,0-0.2,0-0.3l0.1-0.1l0-0.3l0.1-0.4L32,2.8 M32,0.3l-2.4,5.6c0,0.1-0.1,0.2-0.1,0.3c0,0,0,0,0,0c-0.1,0.3-0.1,0.5-0.1,0.8
				c0,1.5,1.2,2.8,2.6,2.8c1.5,0,2.6-1.2,2.6-2.8c0-0.3,0-0.6-0.1-0.8c0,0,0,0,0,0c0-0.1,0-0.2-0.1-0.3L32,0.3L32,0.3z"/>
		</g>
		<g>
			<ellipse class="st2" cx="14.4" cy="13.8" rx="2.1" ry="2.3"/>
			<path class="st2" d="M14.4,12c0.9,0,1.6,0.8,1.6,1.8s-0.7,1.8-1.6,1.8s-1.6-0.8-1.6-1.8S13.5,12,14.4,12 M14.4,11
				c-1.5,0-2.6,1.2-2.6,2.8s1.2,2.8,2.6,2.8s2.6-1.2,2.6-2.8S15.9,11,14.4,11L14.4,11z"/>
		</g>
		<g>
			<path class="st2" d="M49.7,16c-1.2,0-2.1-1-2.1-2.3s1-2.3,2.1-2.3c1.2,0,2.1,1,2.1,2.3S50.8,16,49.7,16z"/>
			<path class="st2" d="M49.7,12c0.9,0,1.6,0.8,1.6,1.8s-0.7,1.8-1.6,1.8c-0.9,0-1.6-0.8-1.6-1.8S48.8,12,49.7,12 M49.7,11
				c-1.5,0-2.6,1.2-2.6,2.8s1.2,2.8,2.6,2.8c1.5,0,2.6-1.2,2.6-2.8S51.1,11,49.7,11L49.7,11z"/>
		</g>
		<path class="st3" d="M14,14.2c2.5-1.2,4.9-2.9,7.6-3.5c3.2-0.7,5.5,1.1,8.2,2.6"/>
		<path class="st3" d="M50.5,14.2c-2.5-1.2-4.9-2.9-7.6-3.5c-3.2-0.7-5.5,1.1-8.2,2.6"/>
		<polygon class="st4" points="6.5,41.3 14.6,20.2 23.7,41.3 		"/>
		<path class="st5" d="M14.6,49.6c-6.9,0-10.8-4.1-12.1-10.1c0,0,0,0,0,0c0.1,0,24.2,0,24.2,0C26.3,44.5,21.5,49.6,14.6,49.6z"/>
		<path class="st6" d="M26.7,39.5c-0.3,1.4-1.1,4.5-3.6,6.9c-2.2,2.1-5.2,3.2-8.1,3.4c-3.4,0.2-5.8-1-8.6-3
			c3.8-1.5,7.6-3.1,11.5-4.6C20.9,41.3,23.8,40.4,26.7,39.5z"/>
		<polygon class="st4" points="41.7,41.3 49.8,20.2 58.9,41.3 		"/>
		<path class="st5" d="M49.9,49.6c-6.9,0-10.8-4.1-12.1-10.1c0,0,0,0,0,0c0.1,0,24.2,0,24.2,0C61.6,44.5,56.8,49.6,49.9,49.6z"/>
		<path class="st6" d="M62,39.5c-0.3,1.4-1.1,4.5-3.6,6.9c-2.2,2.1-5.2,3.2-8.1,3.4c-3.4,0.2-5.8-1-8.6-3c3.8-1.5,7.6-3.1,11.5-4.6
			C56.1,41.3,59.1,40.4,62,39.5z"/>
	</g>
	<rect x="50" y="47" class="st7" width="14" height="2"/>
	<path class="st8" d="M65.6,45H48.4c-0.2,0-0.4,0.2-0.4,0.4v9.3c0,0.2,0.2,0.4,0.4,0.4h17.3c0.2,0,0.4-0.2,0.4-0.4v-9.3
		C66,45.2,65.8,45,65.6,45z M64,52.6c0,0.2-0.2,0.4-0.4,0.4H50.4c-0.2,0-0.4-0.2-0.4-0.4v-5.3c0-0.2,0.2-0.4,0.4-0.4h13.3
		c0.2,0,0.4,0.2,0.4,0.4V52.6z"/>
	<path class="st9" d="M78.9,80H35.1c-0.6,0-1.1-0.5-1.1-1.1V53.1c0-0.6,0.5-1.1,1.1-1.1h43.8c0.6,0,1.1,0.5,1.1,1.1v25.8
		C80,79.5,79.5,80,78.9,80z"/>
	<path class="st10" d="M78.9,80H35.1c-0.6,0-1.1-0.5-1.1-1.1V62h46v16.9C80,79.5,79.5,80,78.9,80z"/>
	<rect x="34" y="62" class="st7" width="46" height="1"/>
	<path class="st11" d="M41,57v7c0,1.7,1.3,3,3,3h1c1.7,0,3-1.3,3-3v-7H41z M46,62h-3v-3h3V62z"/>
	<path class="st11" d="M66,57v7c0,1.7,1.3,3,3,3h1c1.7,0,3-1.3,3-3v-7H66z M71,62h-3v-3h3V62z"/>
</g>
</svg>
