<?xml version="1.0" encoding="utf-8"?>
<!-- Generator: Adobe Illustrator 22.0.1, SVG Export Plug-In . SVG Version: 6.00 Build 0)  -->
<svg version="1.1" id="Capa_1" xmlns="http://www.w3.org/2000/svg" xmlns:xlink="http://www.w3.org/1999/xlink" x="0px" y="0px"
	 viewBox="0 0 568 568" style="enable-background:new 0 0 568 568;" xml:space="preserve">
<style type="text/css">
	.st0{display:none;fill:#808080;}
	.st1{fill:#FFFFFF;}
	.st2{fill:#FBC93B;}
	.st3{fill:none;stroke:#333333;stroke-width:17;stroke-linecap:round;stroke-miterlimit:10;}
</style>
<rect x="-14" y="-9" class="st0" width="591" height="592"/>
<g>
	<path class="st1" d="M163.5,480.8H60.8c-5.5,0-10-4.5-10-10V274c0-5.5,4.5-10,10-10h102.8c5.5,0,10,4.5,10,10v196.8
		C173.5,476.4,169,480.8,163.5,480.8z"/>
	<path class="st1" d="M339.5,480.8H236.8c-5.5,0-10-4.5-10-10V36.6c0-5.5,4.5-10,10-10h102.8c5.5,0,10,4.5,10,10v434.2
		C349.5,476.4,345,480.8,339.5,480.8z"/>
	<path class="st1" d="M513.4,480.8H410.6c-5.5,0-10-4.5-10-10V158c0-5.5,4.5-10,10-10h102.8c5.5,0,10,4.5,10,10v312.8
		C523.4,476.4,518.9,480.8,513.4,480.8z"/>
	<path class="st1" d="M561.3,548.4H6.7c-2.8,0-5-2.2-5-5v-26.8c0-2.8,2.2-5,5-5h554.7c2.8,0,5,2.2,5,5v26.8
		C566.3,546.1,564.1,548.4,561.3,548.4z"/>
	<path class="st2" d="M173.5,408H50.8V274c0-5.5,4.5-10,10-10h102.8c5.5,0,10,4.5,10,10V408z"/>
	<path class="st2" d="M349.5,208H226.8V36.6c0-5.5,4.5-10,10-10h102.8c5.5,0,10,4.5,10,10V208z"/>
	<path class="st2" d="M523.4,343H400.6V158c0-5.5,4.5-10,10-10h102.8c5.5,0,10,4.5,10,10V343z"/>
</g>
<g>
	<line class="st3" x1="112" y1="359" x2="112" y2="442"/>
	<line class="st3" x1="85" y1="359" x2="139" y2="359"/>
	<line class="st3" x1="85" y1="442" x2="139" y2="442"/>
</g>
<g>
	<line class="st3" x1="288" y1="117" x2="288" y2="245"/>
	<line class="st3" x1="261" y1="117" x2="315" y2="117"/>
	<line class="st3" x1="261" y1="245" x2="315" y2="245"/>
</g>
<g>
	<line class="st3" x1="462" y1="308" x2="462" y2="400"/>
	<line class="st3" x1="435" y1="308" x2="489" y2="308"/>
	<line class="st3" x1="435" y1="400" x2="489" y2="400"/>
</g>
</svg>
