<?xml version="1.0" encoding="utf-8"?>
<!-- Generator: Adobe Illustrator 22.0.1, SVG Export Plug-In . SVG Version: 6.00 Build 0)  -->
<svg version="1.1" id="Capa_1" xmlns="http://www.w3.org/2000/svg" xmlns:xlink="http://www.w3.org/1999/xlink" x="0px" y="0px"
	 viewBox="0 0 568 568" style="enable-background:new 0 0 568 568;" xml:space="preserve">
<style type="text/css">
	.st0{display:none;fill:#808080;}
	.st1{fill:#FFFFFF;}
</style>
<rect x="-14" y="-9" class="st0" width="591" height="592"/>
<g>
	<path class="st1" d="M163.5,480.8H60.8c-5.5,0-10-4.5-10-10V274c0-5.5,4.5-10,10-10h102.8c5.5,0,10,4.5,10,10v196.8
		C173.5,476.4,169,480.8,163.5,480.8z"/>
	<path class="st1" d="M339.5,480.8H236.8c-5.5,0-10-4.5-10-10V36.6c0-5.5,4.5-10,10-10h102.8c5.5,0,10,4.5,10,10v434.2
		C349.5,476.4,345,480.8,339.5,480.8z"/>
	<path class="st1" d="M513.4,480.8H410.6c-5.5,0-10-4.5-10-10V158c0-5.5,4.5-10,10-10h102.8c5.5,0,10,4.5,10,10v312.8
		C523.4,476.4,518.9,480.8,513.4,480.8z"/>
	<path class="st1" d="M561.3,548.4H6.7c-2.8,0-5-2.2-5-5v-26.8c0-2.8,2.2-5,5-5h554.7c2.8,0,5,2.2,5,5v26.8
		C566.3,546.1,564.1,548.4,561.3,548.4z"/>
</g>
</svg>
