<?xml version="1.0" encoding="utf-8"?>
<!-- Generator: Adobe Illustrator 22.0.1, SVG Export Plug-In . SVG Version: 6.00 Build 0)  -->
<svg version="1.1" id="Capa_1" xmlns="http://www.w3.org/2000/svg" xmlns:xlink="http://www.w3.org/1999/xlink" x="0px" y="0px"
	 viewBox="0 0 568 568" style="enable-background:new 0 0 568 568;" xml:space="preserve">
<style type="text/css">
	.st0{fill:#CCCCCC;}
	.st1{fill:#FFFFFF;}
	.st2{fill:#FBB03B;}
	.st3{fill:none;}
</style>
<g>
	<g>
		<path class="st0" d="M284,554c-78.8,0-153.5-34.3-204.9-94.2c-1-1.1-1.9-2.2-2.8-3.3C36.1,408.2,14,346.9,14,284
			c0-72.1,28.1-139.9,79.1-190.9S211.9,14,284,14s139.9,28.1,190.9,79.1S554,211.9,554,284c0,61.9-21.5,122.5-60.6,170.4
			c-0.8,1-1.6,1.9-2.4,2.9C439.6,518.8,364.1,554,284,554z"/>
		<path class="st1" d="M284,28c141.4,0,256,114.6,256,256c0,61.3-21.5,117.5-57.4,161.6c-0.7,0.9-1.5,1.8-2.3,2.7
			c-47,56-117.5,91.7-196.3,91.7c-77.7,0-147.3-34.6-194.3-89.3c-0.9-1-1.8-2.1-2.7-3.2C50.2,403.2,28,346.2,28,284
			C28,142.6,142.6,28,284,28 M284,0c-38.3,0-75.5,7.5-110.6,22.3c-33.8,14.3-64.2,34.8-90.3,60.9s-46.5,56.4-60.9,90.3
			C7.5,208.5,0,245.7,0,284c0,33.7,5.9,66.7,17.4,98.1c11.2,30.3,27.3,58.4,48.1,83.3c0.9,1.1,1.8,2.2,3,3.5
			c54.1,63,132.6,99.1,215.5,99.1c84.2,0,163.6-37.1,217.8-101.7c0.8-0.9,1.6-1.9,2.5-3.1c20.2-24.8,35.9-52.5,46.8-82.5
			c11.2-31,16.9-63.6,16.9-96.8c0-38.3-7.5-75.5-22.3-110.6c-14.3-33.8-34.8-64.2-60.9-90.3c-26.1-26.1-56.4-46.5-90.3-60.9
			C359.5,7.5,322.3,0,284,0L284,0z"/>
	</g>
	<path class="st1" d="M205,372c24.6-2.4,51.7-4,81-4c29.7,0,57.1,1.6,82,4c-27,37.7-54,75.3-81,113C259.7,447.3,232.3,409.7,205,372
		z"/>
	<path class="st2" d="M299.8,430.9c2.4,13,1.8,24.2,0.8,31.7l-14.4,8.3l-0.1,0l-0.1,0l-14.4-8.3c-1-7.6-1.6-18.7,0.8-31.7
		c1.4-7.9,3.6-14.5,5.7-19.6c-1.6-1.1-3.8-2.8-5.7-5.6c-4.9-7.1-4.3-15.5-4.1-17.7h35.5c0.2,2.2,0.8,10.6-4.1,17.7
		c-1.9,2.8-4,4.5-5.7,5.6C296.2,416.5,298.4,423,299.8,430.9z"/>
	<path class="st2" d="M480.3,448.3c-47,56-117.5,91.7-196.3,91.7c-77.7,0-147.3-34.6-194.3-89.3c2.6-9.9,6.8-19.4,11.9-28.3
		c8.4-14.9,19.7-28.6,34.6-37c18-10.2,41.3-11.8,61.6-12.8c4.2-0.2,6.5-0.3,8.8,1c1.1,0.7,2.2,1.7,3.5,3.2
		c3.8,4.3,7.4,8.8,11.1,13.3c0,0,7.2,8.5,21.5,25.6c14.1,16.8,28.1,33.5,42.2,50.3c0,0.3,0,0.6,0,1c22.9-26.4,36-41.9,43.9-51.3
		c14.3-17,21.4-25.6,21.5-25.6c3.7-4.4,7.4-8.9,11.2-13.3c1.3-1.5,2.4-2.5,3.5-3.2c2.3-1.4,4.6-1.3,8.8-1
		c20.3,1.1,43.6,2.7,61.6,12.8c14.9,8.4,26.2,22.2,34.6,37C474.4,430,478,437.9,480.3,448.3z"/>
	<path class="st2" d="M388.9,225.4c-0.5,3.1-1.2,6.2-1.9,9.2c-0.7,3.4-1.5,6.8-2.9,10c-1.3,2.9-3.1,5.6-5,8.3
		c-0.8,1.2-1.6,2.3-2.8,3.1c-0.8,0.5-1.8,0.8-2.7,1c-0.3,0-2.4,0.1-2.5,0.4c-3.2,7.9-5.1,12.7-6.5,16.1c-1.4,3.5-2.4,5.6-3.8,8.3
		c-2.2,4.4-5.5,11-11.2,18.8c-5.8,7.9-11.3,13.4-14,16c-2.3,2.2-7.1,6.6-14,11.3c-6.3,4.3-10.5,7.2-16.9,9.4
		c-4,1.4-10.1,2.9-17.8,2.8c-0.3,0-0.6,0-0.9,0H286c-0.3,0-0.6,0-0.9,0c-7.7,0.1-13.7-1.4-17.8-2.8c-6.3-2.2-10.6-5.1-16.9-9.4
		c-6.9-4.7-11.8-9.1-14-11.3c-2.7-2.6-8.2-8-14-16c-5.7-7.8-9-14.4-11.2-18.8c-1.3-2.7-2.3-4.8-3.8-8.3c-1.4-3.5-3.4-8.2-6.5-16.1
		c-0.1-0.3-2.3-0.3-2.5-0.4c-1-0.2-1.9-0.5-2.7-1c-1.2-0.8-2-2-2.8-3.1c-1.8-2.6-3.7-5.3-5-8.3c-1.4-3.2-2.1-6.6-2.9-10
		c-0.7-3.1-1.3-6.1-1.9-9.2c-0.8-4.9-1.3-9.9-0.9-14.8c0.1-1.8,0.4-3.5,1.1-5.2c0.7-1.6,1.8-3.1,3.4-3.9c1.6-0.8,3.3-0.6,4.7,0.3
		c0.3-2.2-0.1-4.7-0.1-6.9c0-2.7,0.1-5.5,0.3-8.2c0.4-6.5,1.3-13.1,2.6-19.5c2.9-14,5.8-28.2,16.9-42.3
		c12.5-15.9,28.2-22.4,35.6-25.4c15.9-6.4,29.5-6.6,39.2-6.6h0.1c9.7,0,23.3,0.2,39.2,6.6c7.4,2.9,23.1,9.4,35.6,25.4
		c11,14,14,28.2,16.9,42.3c1.3,6.4,2.2,12.9,2.6,19.5c0.2,2.7,0.3,5.5,0.3,8.2c0,2.3-0.3,4.7-0.1,6.9c1.5-0.9,3.2-1.1,4.7-0.3
		c1.6,0.8,2.7,2.3,3.4,3.9c0.7,1.6,0.9,3.4,1.1,5.2C390.3,215.5,389.8,220.5,388.9,225.4z"/>
	<g>
		<path class="st3" d="M540,284c0,61.3-21.5,117.5-57.4,161.6c-0.7,0.9-1.5,1.8-2.3,2.7c-47,56-117.5,91.7-196.3,91.7
			c-77.7,0-147.3-34.6-194.3-89.3c-0.9-1-1.8-2.1-2.7-3.2C50.2,403.2,28,346.2,28,284C28,142.6,142.6,28,284,28S540,142.6,540,284z"
			/>
	</g>
</g>
</svg>
