<?xml version="1.0" encoding="utf-8"?>
<!-- Generator: Adobe Illustrator 22.0.1, SVG Export Plug-In . SVG Version: 6.00 Build 0)  -->
<svg version="1.1" id="Capa_1" xmlns="http://www.w3.org/2000/svg" xmlns:xlink="http://www.w3.org/1999/xlink" x="0px" y="0px"
	 viewBox="0 0 981.2 764.9" style="enable-background:new 0 0 981.2 764.9;" xml:space="preserve">
<style type="text/css">
	.st0{display:none;}
	.st1{fill:#F2F2F2;}
	.st2{fill:#333333;}
	.st3{fill:#8CA4B8;}
	.st4{fill:#96E3FF;}
	.st5{fill:#474747;}
	.st6{fill:#2B2B2B;}
	.st7{fill:none;stroke:#333333;stroke-width:12;stroke-miterlimit:10;}
	.st8{fill-rule:evenodd;clip-rule:evenodd;fill:#FF6242;}
</style>
<g class="st0">
	
		<image style="display:inline;overflow:visible;" width="368" height="333" xlink:href="4CDD9B48.jpg"  transform="matrix(2.402 0 0 -2.2763 46.8255 756.9652)">
	</image>
</g>
<g>
	<path class="st1" d="M91.2,726.2c-1.9,0-3.5-1.6-3.5-3.5v-535c0-1.9,1.6-3.5,3.5-3.5h796c1.9,0,3.5,1.6,3.5,3.5v535
		c0,1.9-1.6,3.5-3.5,3.5H91.2z"/>
	<path class="st2" d="M882.2,192.7v525h-786v-525H882.2 M887.2,175.7h-796c-6.6,0-12,5.4-12,12v535c0,6.6,5.4,12,12,12h796
		c6.6,0,12-5.4,12-12v-535C899.2,181.1,893.8,175.7,887.2,175.7L887.2,175.7z"/>
</g>
<g>
	<path class="st3" d="M683.4,200.6c-11,0-19.9-8.9-19.9-19.9v-25.5c0-11,8.9-19.9,19.9-19.9h209.4c11,0,19.9,8.9,19.9,19.9v25.5
		c0,11-8.9,19.9-19.9,19.9H683.4z"/>
	<path class="st2" d="M892.8,141.2c7.7,0,13.9,6.3,13.9,13.9v25.5c0,7.7-6.3,13.9-13.9,13.9H683.4c-7.7,0-13.9-6.3-13.9-13.9v-25.5
		c0-7.7,6.3-13.9,13.9-13.9H892.8 M892.8,129.2H683.4c-14.3,0-25.9,11.7-25.9,25.9v25.5c0,14.3,11.7,25.9,25.9,25.9h209.4
		c14.3,0,25.9-11.7,25.9-25.9v-25.5C918.7,140.9,907.1,129.2,892.8,129.2L892.8,129.2z"/>
</g>
<g>
	<path class="st3" d="M85.7,200.6c-11,0-19.9-8.9-19.9-19.9v-25.5c0-11,8.9-19.9,19.9-19.9h209.4c11,0,19.9,8.9,19.9,19.9v25.5
		c0,11-8.9,19.9-19.9,19.9H85.7z"/>
	<path class="st2" d="M295.1,141.2c7.7,0,13.9,6.3,13.9,13.9v25.5c0,7.7-6.3,13.9-13.9,13.9H85.7c-7.7,0-13.9-6.3-13.9-13.9v-25.5
		c0-7.7,6.3-13.9,13.9-13.9H295.1 M295.1,129.2H85.7c-14.3,0-25.9,11.7-25.9,25.9v25.5c0,14.3,11.7,25.9,25.9,25.9h209.4
		c14.3,0,25.9-11.7,25.9-25.9v-25.5C321.1,140.9,309.4,129.2,295.1,129.2L295.1,129.2z"/>
</g>
<g>
	<path class="st1" d="M269.1,725.1c-1.9,0-3.5-1.6-3.5-3.5V73.1c0-1.9,1.6-3.5,3.5-3.5h439.2c1.9,0,3.5,1.6,3.5,3.5v648.6
		c0,1.9-1.6,3.5-3.5,3.5H269.1z"/>
	<path class="st2" d="M703.2,78.1v638.6H274.1V78.1H703.2 M708.2,61.1H269.1c-6.6,0-12,5.4-12,12v648.6c0,6.6,5.4,12,12,12h439.2
		c6.6,0,12-5.4,12-12V73.1C720.2,66.5,714.8,61.1,708.2,61.1L708.2,61.1z"/>
</g>
<g>
	<path class="st3" d="M248.9,95.4c-11,0-19.9-8.9-19.9-19.9V39.7c0-11,8.9-19.9,19.9-19.9h479.9c11,0,19.9,8.9,19.9,19.9v35.8
		c0,11-8.9,19.9-19.9,19.9H248.9z"/>
	<path class="st2" d="M728.8,25.8c7.7,0,13.9,6.3,13.9,13.9v35.8c0,7.7-6.3,13.9-13.9,13.9H248.9c-7.7,0-13.9-6.3-13.9-13.9V39.7
		c0-7.7,6.3-13.9,13.9-13.9H728.8 M728.8,13.8H248.9c-14.3,0-25.9,11.7-25.9,25.9v35.8c0,14.3,11.7,25.9,25.9,25.9h479.9
		c14.3,0,25.9-11.7,25.9-25.9V39.7C754.8,25.5,743.1,13.8,728.8,13.8L728.8,13.8z"/>
</g>
<g>
	<path class="st4" d="M153,342.2c-3.3,0-6-2.7-6-6v-89.5c0-3.3,2.7-6,6-6H205c3.3,0,6,2.7,6,6v89.5c0,3.3-2.7,6-6,6H153z"/>
	<g>
		<path class="st5" d="M204.9,246.6C204.9,246.6,205,246.6,204.9,246.6C205,246.6,205,246.6,204.9,246.6l0,89.5c0,0,0,0,0,0l-51.9,0
			c0,0,0,0,0,0c0,0,0,0,0,0l0-89.5c0,0,0,0,0,0H204.9 M205,234.6H153c-6.6,0-12,5.4-12,12v89.5c0,6.6,5.4,12,12,12H205
			c6.6,0,12-5.4,12-12v-89.5C217,240,211.6,234.6,205,234.6L205,234.6z"/>
	</g>
</g>
<g>
	<path class="st4" d="M153,482.7c-3.3,0-6-2.7-6-6v-89.5c0-3.3,2.7-6,6-6H205c3.3,0,6,2.7,6,6v89.5c0,3.3-2.7,6-6,6H153z"/>
	<g>
		<path class="st5" d="M204.9,387.2C204.9,387.2,205,387.2,204.9,387.2C205,387.2,205,387.2,204.9,387.2l0,89.5c0,0,0,0,0,0l-51.9,0
			c0,0,0,0,0,0c0,0,0,0,0,0l0-89.5c0,0,0,0,0,0H204.9 M205,375.2H153c-6.6,0-12,5.4-12,12v89.5c0,6.6,5.4,12,12,12H205
			c6.6,0,12-5.4,12-12v-89.5C217,380.6,211.6,375.2,205,375.2L205,375.2z"/>
	</g>
</g>
<g>
	<path class="st4" d="M153,621.1c-3.3,0-6-2.7-6-6v-89.5c0-3.3,2.7-6,6-6H205c3.3,0,6,2.7,6,6v89.5c0,3.3-2.7,6-6,6H153z"/>
	<g>
		<path class="st5" d="M204.9,525.6C204.9,525.6,205,525.6,204.9,525.6C205,525.6,205,525.6,204.9,525.6l0,89.5c0,0,0,0,0,0l-51.9,0
			c0,0,0,0,0,0c0,0,0,0,0,0l0-89.5c0,0,0,0,0,0H204.9 M205,513.6H153c-6.6,0-12,5.4-12,12v89.5c0,6.6,5.4,12,12,12H205
			c6.6,0,12-5.4,12-12v-89.5C217,519,211.6,513.6,205,513.6L205,513.6z"/>
	</g>
</g>
<g>
	<path class="st4" d="M772.4,342.2c-3.3,0-6-2.7-6-6v-89.5c0-3.3,2.7-6,6-6h51.9c3.3,0,6,2.7,6,6v89.5c0,3.3-2.7,6-6,6H772.4z"/>
	<g>
		<path class="st5" d="M824.3,246.6C824.3,246.6,824.3,246.6,824.3,246.6C824.3,246.6,824.3,246.6,824.3,246.6l0,89.5c0,0,0,0,0,0
			l-51.9,0c0,0,0,0,0,0c0,0,0,0,0,0l0-89.5c0,0,0,0,0,0H824.3 M824.3,234.6h-51.9c-6.6,0-12,5.4-12,12v89.5c0,6.6,5.4,12,12,12h51.9
			c6.6,0,12-5.4,12-12v-89.5C836.3,240,830.9,234.6,824.3,234.6L824.3,234.6z"/>
	</g>
</g>
<g>
	<path class="st4" d="M772.4,482.7c-3.3,0-6-2.7-6-6v-89.5c0-3.3,2.7-6,6-6h51.9c3.3,0,6,2.7,6,6v89.5c0,3.3-2.7,6-6,6H772.4z"/>
	<g>
		<path class="st5" d="M824.3,387.2C824.3,387.2,824.3,387.2,824.3,387.2C824.3,387.2,824.3,387.2,824.3,387.2l0,89.5c0,0,0,0,0,0
			l-51.9,0c0,0,0,0,0,0c0,0,0,0,0,0l0-89.5c0,0,0,0,0,0H824.3 M824.3,375.2h-51.9c-6.6,0-12,5.4-12,12v89.5c0,6.6,5.4,12,12,12h51.9
			c6.6,0,12-5.4,12-12v-89.5C836.3,380.6,830.9,375.2,824.3,375.2L824.3,375.2z"/>
	</g>
</g>
<g>
	<path class="st4" d="M772.4,621.1c-3.3,0-6-2.7-6-6v-89.5c0-3.3,2.7-6,6-6h51.9c3.3,0,6,2.7,6,6v89.5c0,3.3-2.7,6-6,6H772.4z"/>
	<g>
		<path class="st5" d="M824.3,525.6C824.3,525.6,824.3,525.6,824.3,525.6C824.3,525.6,824.3,525.6,824.3,525.6l0,89.5c0,0,0,0,0,0
			l-51.9,0c0,0,0,0,0,0c0,0,0,0,0,0l0-89.5c0,0,0,0,0,0H824.3 M824.3,513.6h-51.9c-6.6,0-12,5.4-12,12v89.5c0,6.6,5.4,12,12,12h51.9
			c6.6,0,12-5.4,12-12v-89.5C836.3,519,830.9,513.6,824.3,513.6L824.3,513.6z"/>
	</g>
</g>
<g>
	<path class="st4" d="M365.4,725.5c-3.3,0-6-2.7-6-6V506.7c0-3.3,2.7-6,6-6h246.1c3.3,0,6,2.7,6,6v212.8c0,3.3-2.7,6-6,6H365.4z"/>
	<g>
		<path class="st6" d="M611.4,506.7C611.4,506.7,611.4,506.7,611.4,506.7C611.4,506.7,611.4,506.7,611.4,506.7l0,212.8c0,0,0,0,0,0
			l-246,0c0,0,0,0,0,0c0,0,0,0,0,0l0-212.8c0,0,0,0,0,0H611.4 M611.4,494.7H365.4c-6.6,0-12,5.4-12,12v212.8c0,6.6,5.4,12,12,12
			h246.1c6.6,0,12-5.4,12-12V506.7C623.4,500.1,618,494.7,611.4,494.7L611.4,494.7z"/>
	</g>
</g>
<g>
	<line class="st7" x1="488.4" y1="501.2" x2="488.4" y2="725"/>
</g>
<g>
	<path class="st3" d="M353,506c-7.7,0-14-6.3-14-14v-44.3c0-7.7,6.3-14,14-14h272.4c7.7,0,14,6.3,14,14V492c0,7.7-6.3,14-14,14H353z
		"/>
	<g>
		<path class="st2" d="M625.4,439.6c4.3,0,8,3.7,8,8V492c0,4.3-3.7,8-8,8H353c-4.3,0-8-3.7-8-8v-44.3c0-4.3,3.7-8,8-8H625.4
			 M625.4,427.6H353c-11,0-20,9-20,20V492c0,11,9,20,20,20h272.4c11,0,20-9,20-20v-44.3C645.4,436.6,636.4,427.6,625.4,427.6
			L625.4,427.6z"/>
	</g>
</g>
<g>
	<path class="st8" d="M461.7,328c-2.7,0-5-2.3-5-5v-46.4h-43.3c-2.7,0-5-2.3-5-5v-47.6c0-2.7,2.3-5,5-5h43.3v-46.4c0-2.7,2.3-5,5-5
		H516c2.7,0,5,2.3,5,5v46.4h43.3c2.7,0,5,2.3,5,5v47.6c0,2.7-2.3,5-5,5H521V323c0,2.7-2.3,5-5,5H461.7z"/>
	<path class="st5" d="M513,175.7v35.4v16h16h32.3v41.5H529h-16v16V320h-48.3v-35.4v-16h-16h-32.3v-41.5h32.3h16v-16v-35.4H513
		 M516,159.7h-54.2c-7.2,0-13,5.8-13,13v38.4h-35.3c-7.2,0-13,5.8-13,13v47.6c0,7.1,5.9,13,13,13h35.3V323c0,7.1,5.9,13,13,13H516
		c7.2,0,13-5.8,13-13v-38.4h35.3c7.2,0,13-5.8,13-13v-47.6c0-7.1-5.9-13-13-13H529v-38.4C529,165.6,523.1,159.7,516,159.7L516,159.7
		z"/>
</g>
</svg>
