<?xml version="1.0" encoding="utf-8"?>
<!-- Generator: Adobe Illustrator 22.0.1, SVG Export Plug-In . SVG Version: 6.00 Build 0)  -->
<svg version="1.1" xmlns="http://www.w3.org/2000/svg" xmlns:xlink="http://www.w3.org/1999/xlink" x="0px" y="0px"
	 viewBox="0 0 80 80" style="enable-background:new 0 0 80 80;" xml:space="preserve">
<style type="text/css">
	.st0{display:none;}
	.st1{display:inline;}
	.st2{fill:#FFDB00;}
	.st3{opacity:0.4;fill:#FF8C00;}
</style>
<g id="Capa_2" class="st0">
	<rect class="st1" width="80" height="80"/>
</g>
<g id="Capa_4">
	<g>
		<path class="st2" d="M3,36.9c0.5-0.8,1.1-1.5,1.6-1.9c11.5-9.8,23.1-19.5,34.6-29.3C39.7,5.3,40.1,5,40.6,5c0.4,0,0.7,0.3,1.1,0.6
			c11.7,9.9,23.5,19.7,35.2,29.6c0.6,0.5,1.3,1.1,1.5,1.9c0.3,1,0.7,2.3,0.5,3.3c-0.2,1.2-1.1,2.3-1.8,3.2C77,43.8,76.9,44,76.7,44
			c-0.2,0.1-0.5-0.1-0.7-0.3c-2.4-1.9-4.6-4.1-7-6c-2.8-2.3-5.7-4.6-8.6-6.9c-5.7-4.5-11.3-9.1-16.9-13.8c-0.3-0.2-3-2.7-3.1-2.7
			C30.2,23.4,19.4,31.5,9,40.3c-1.2,1-2.5,2.1-3.7,3.2c-0.2,0.2-0.4,0.3-0.6,0.4c-0.3,0.1-0.7-0.1-1-0.3c-0.7-0.7-1.3-2-1.6-3
			C1.8,39.3,2.3,38,3,36.9z"/>
		<path class="st2" d="M65.9,26.8l-10.5-2V9.1c0-1.1,0.8-2,1.8-2h7c1,0,1.8,0.9,1.8,2V26.8z"/>
		<path class="st2" d="M40.6,19.4L13.1,41.5v27c0,1.4,0.9,2.5,2.1,2.5h19V51.3h12.7V71h16.9c2.3,0,4.2-2.2,4.2-4.9V41.5L40.6,19.4z"
			/>
		<path class="st3" d="M78.4,37.1c-0.3-0.8-0.9-1.4-1.5-1.9c-3.7-3.1-7.4-6.2-11-9.3V9.1c0-1.1-0.8-2-1.8-2h-7c-1,0-1.8,0.9-1.8,2v8
			c-4.6-3.8-9.1-7.6-13.6-11.5C41.4,5.3,41,5,40.6,5h-0.1v9.4c0.5,0.3,2.8,2.4,3,2.6c5.5,4.7,11.2,9.2,16.9,13.8
			c2.9,2.3,5.7,4.6,8.6,6.9c2.4,1.9,4.6,4.1,7,6c0.2,0.2,0.4,0.3,0.7,0.3c0.1,0,0.3-0.2,0.4-0.3c0.7-0.9,1.6-2,1.8-3.2
			C79.1,39.4,78.7,38.1,78.4,37.1z"/>
		<path class="st3" d="M40.6,19.4v22.1v9.8h6.3V71h16.9c2.3,0,4.2-2.2,4.2-4.9V41.5L40.6,19.4z"/>
	</g>
</g>
</svg>
