<?xml version="1.0" encoding="utf-8"?>
<!-- Generator: Adobe Illustrator 24.0.2, SVG Export Plug-In . SVG Version: 6.00 Build 0)  -->
<svg version="1.1" xmlns="http://www.w3.org/2000/svg" xmlns:xlink="http://www.w3.org/1999/xlink" x="0px" y="0px"
	 viewBox="0 0 80 80" style="enable-background:new 0 0 80 80;" xml:space="preserve">
<style type="text/css">
	.st0{display:none;}
	.st1{display:inline;}
	.st2{fill:#FFFFFF;}
	.st3{fill:#E5BF00;}
	.st4{fill:#E5BF00;stroke:#FFFFFF;stroke-width:0.5;stroke-miterlimit:10;}
	.st5{fill:#4D4D4D;}
	.st6{fill:#808080;}
	.st7{fill:#666666;}
	.st8{fill:none;stroke:#636264;stroke-width:3;stroke-linecap:round;stroke-miterlimit:10;}
	.st9{fill:#7AC943;}
</style>
<g id="Capa_2" class="st0">
	<rect class="st1" width="80" height="80"/>
</g>
<g id="Capa_4">
	<g>
		<rect x="19.3" y="8.6" class="st2" width="41.5" height="18.4"/>
		<g>
			<g>
				<polygon class="st3" points="50,24.5 47.9,18.5 48.9,14.6 52.4,24.5 				"/>
				<path class="st2" d="M48.9,15.4l3.1,8.8h-1.8l-2-5.7L48.9,15.4 M48.8,13.7l-0.4,1.6l-0.7,3.1l0,0.1l0,0.1l2,5.7l0.1,0.3h0.4H52
					h0.7l-0.2-0.7l-3.1-8.8L48.8,13.7L48.8,13.7z"/>
			</g>
			<path class="st4" d="M43.8,13.3v-2l-2.9,0v2l-6.4,0h-0.2l-2.5,0l-3.8,11l2.4,0c0,0,0,0,0,0c4.7,0,9.5,0,14.2,0l1-2.9h0l2.8-8.1
				L43.8,13.3z"/>
		</g>
		<g>
			<path class="st5" d="M64.9,62.9V49.2h-5.1v-1.3H20.3v1.3h-5.1v13.8h-3.7c-5.5,0-10-4.4-10-9.9V33c0-5.4,4.5-9.9,10-9.9h57
				c5.5,0,10,4.4,10,9.9v20c0,5.4-4.5,9.9-10,9.9H64.9z M66.7,31.7c-1.8,0-3.3,1.5-3.3,3.3s1.5,3.3,3.3,3.3s3.3-1.5,3.3-3.3
				S68.5,31.7,66.7,31.7z"/>
			<path class="st2" d="M68.6,23.7c5.2,0,9.5,4.2,9.5,9.4v20c0,5.2-4.3,9.4-9.5,9.4h-3.2V48.7h-5.1v-1.3H19.8v1.3h-5.1v13.8h-3.2
				c-5.2,0-9.5-4.2-9.5-9.4V33c0-5.2,4.3-9.4,9.5-9.4H68.6 M66.7,38.7c2.1,0,3.8-1.7,3.8-3.8c0-2.1-1.7-3.8-3.8-3.8
				c-2.1,0-3.8,1.7-3.8,3.8C62.9,37,64.6,38.7,66.7,38.7 M68.6,22.7h-57C5.8,22.7,1.1,27.3,1.1,33v20c0,5.7,4.7,10.4,10.5,10.4h3.2
				h1v-1V49.7h4.1h1v-1v-0.3h38.5v0.3v1h1h4.1v12.8v1h1h3.2c5.8,0,10.5-4.7,10.5-10.4V33C79.1,27.3,74.3,22.7,68.6,22.7L68.6,22.7z
				 M66.7,37.7c-1.5,0-2.8-1.2-2.8-2.8s1.3-2.8,2.8-2.8c1.5,0,2.8,1.2,2.8,2.8S68.2,37.7,66.7,37.7L66.7,37.7z"/>
		</g>
		<ellipse class="st2" cx="66.7" cy="34.9" rx="3.8" ry="3.8"/>
		<ellipse class="st2" cx="66.7" cy="43.4" rx="2.6" ry="2.6"/>
		<polygon class="st6" points="19.8,9.9 60.3,9.9 60.3,21.2 65.4,21.2 65.4,4.9 14.7,4.9 14.7,21.2 19.8,21.2 		"/>
		<polygon class="st7" points="60.3,48.7 60.3,69.9 19.8,69.9 19.8,48.7 14.7,48.7 14.7,62.4 14.7,74.9 65.4,74.9 65.4,62.4 
			65.4,48.7 		"/>
		<path class="st2" d="M19.8,69.9h40.5V48.7v-1.3H19.8v1.3V69.9z M50.2,63.7L50.2,63.7c0,0.7-0.6,1.3-1.3,1.3H26.1
			c-0.7,0-1.3-0.6-1.3-1.2v0c0-0.7,0.6-1.2,1.3-1.2h22.8C49.6,62.4,50.2,63,50.2,63.7z M24.9,53.7c0-0.7,0.6-1.2,1.3-1.2H54
			c0.7,0,1.3,0.6,1.3,1.2v0c0,0.7-0.6,1.2-1.3,1.2H26.1C25.4,54.9,24.9,54.4,24.9,53.7L24.9,53.7z M24.9,58.7c0-0.7,0.6-1.2,1.3-1.2
			h16.5c0.7,0,1.3,0.6,1.3,1.2v0c0,0.7-0.6,1.2-1.3,1.2H26.1C25.4,59.9,24.9,59.4,24.9,58.7L24.9,58.7z"/>
		<line class="st8" x1="54.3" y1="63.9" x2="26" y2="63.7"/>
		<line class="st8" x1="54.3" y1="58.9" x2="26" y2="58.7"/>
		<line class="st8" x1="54.3" y1="53.9" x2="26" y2="53.7"/>
		<g>
			<g>
				<path class="st9" d="M50.7,65.3c-0.5,0-0.9-0.1-1.3-0.2L48.8,65l-0.2-3.5l1,0.3c0.3,0.1,0.7,0.2,1,0.3c0.1,0,0.2,0,0.3,0
					l0.1-1.6c-0.2-0.1-0.3-0.1-0.4-0.2c-0.4-0.2-0.7-0.4-1-0.6c-0.3-0.3-0.6-0.6-0.8-1c-0.2-0.4-0.3-0.9-0.4-1.4
					c0-0.5,0-0.9,0.2-1.3c0.1-0.4,0.4-0.9,0.7-1.2c0.3-0.4,0.7-0.7,1.2-0.9c0.3-0.2,0.7-0.3,1.1-0.4l0.1-1.7l2.8-0.2l-0.1,1.8
					c0,0,0,0,0,0c0.3,0,0.5,0.1,0.8,0.1l0.6,0.1l0.2,3.4l-1-0.3c-0.2-0.1-0.5-0.1-0.8-0.2c0,0,0,0,0,0L54,57.8
					c0.2,0.1,0.3,0.1,0.5,0.2c0.4,0.2,0.8,0.4,1.1,0.6c0.3,0.3,0.6,0.6,0.9,1c0.2,0.4,0.4,0.9,0.4,1.5c0,0.6,0,1.2-0.2,1.7
					c-0.2,0.5-0.5,0.9-0.9,1.3c-0.4,0.3-0.8,0.6-1.3,0.8c-0.3,0.1-0.6,0.2-1,0.3l-0.2,2.1l-2.8,0.2L50.7,65.3z"/>
				<path class="st2" d="M53.6,52.4l-0.1,1.7c0.3,0,0.5,0,0.8,0.1c0.2,0,0.5,0.1,0.7,0.1l0.1,1.7c-0.3-0.1-0.5-0.1-0.8-0.2
					c-0.3-0.1-0.6-0.1-0.9-0.1l-0.2,2.6c0.3,0.1,0.7,0.2,1,0.4c0.3,0.1,0.6,0.3,0.9,0.5c0.3,0.2,0.5,0.5,0.7,0.8
					c0.2,0.3,0.3,0.7,0.3,1.1c0,0.5,0,1-0.2,1.4c-0.2,0.4-0.4,0.7-0.7,1c-0.3,0.3-0.7,0.5-1.1,0.7c-0.4,0.2-0.9,0.3-1.4,0.3l-0.1,2
					l-1.3,0.1l0.1-2c-0.7,0-1.3-0.1-2-0.2l-0.1-1.9c0.3,0.1,0.7,0.2,1.1,0.3c0.4,0.1,0.7,0.1,1.1,0.2l0.2-2.9
					c-0.3-0.1-0.6-0.2-0.9-0.4c-0.3-0.1-0.6-0.3-0.8-0.5c-0.3-0.2-0.5-0.5-0.6-0.8c-0.2-0.3-0.3-0.7-0.3-1.1c0-0.4,0-0.7,0.1-1.1
					c0.1-0.3,0.3-0.7,0.5-0.9c0.3-0.3,0.6-0.5,1-0.7c0.4-0.2,0.9-0.3,1.5-0.4l0.1-1.6L53.6,52.4 M52.1,55.7
					c-0.4,0.1-0.8,0.2-0.9,0.4C51,56.4,51,56.6,51,56.9c0,0.2,0.1,0.4,0.3,0.6c0.2,0.2,0.4,0.3,0.7,0.4L52.1,55.7 M52.9,62.9
					c0.3,0,0.5-0.1,0.6-0.2c0.2-0.1,0.3-0.2,0.4-0.3c0.1-0.1,0.2-0.2,0.2-0.4c0-0.1,0.1-0.3,0.1-0.4c0-0.3-0.1-0.5-0.3-0.7
					c-0.2-0.2-0.5-0.3-0.9-0.4L52.9,62.9 M55.3,50.8l-1.7,0.1l-1.3,0.1L51,51l-0.1,1.3l0,0.5c-0.3,0.1-0.5,0.2-0.7,0.3
					c-0.6,0.3-1.1,0.6-1.5,1.1c-0.4,0.4-0.7,0.9-0.9,1.5c-0.2,0.5-0.2,1.1-0.2,1.6c0,0.7,0.2,1.3,0.5,1.8c0.3,0.5,0.6,0.9,1,1.2
					c0.3,0.3,0.7,0.5,1.2,0.7l0,0.2c-0.1,0-0.3-0.1-0.4-0.1l-2.1-0.6l0.1,2.1l0.1,1.9l0.1,1.1l1.1,0.3c0.2,0.1,0.5,0.1,0.7,0.1
					l0,0.6l-0.1,1.7l1.7-0.1l1.3-0.1L54,68l0.1-1.3l0.1-0.9c0.2-0.1,0.4-0.1,0.5-0.2c0.6-0.2,1.1-0.6,1.5-1c0.5-0.4,0.8-1,1-1.6
					c0.2-0.6,0.3-1.3,0.3-2c0-0.7-0.2-1.3-0.5-1.8c-0.3-0.5-0.6-0.9-1.1-1.2c-0.2-0.1-0.3-0.2-0.5-0.3l1.2,0.3l-0.1-2.1l-0.1-1.7
					L56.4,53l-1.1-0.2c-0.1,0-0.1,0-0.2,0l0-0.3L55.3,50.8L55.3,50.8z"/>
			</g>
		</g>
	</g>
</g>
</svg>
