<?xml version="1.0" encoding="utf-8"?>
<!-- Generator: Adobe Illustrator 22.0.1, SVG Export Plug-In . SVG Version: 6.00 Build 0)  -->
<svg version="1.1" xmlns="http://www.w3.org/2000/svg" xmlns:xlink="http://www.w3.org/1999/xlink" x="0px" y="0px"
	 viewBox="0 0 80 80" style="enable-background:new 0 0 80 80;" xml:space="preserve">
<style type="text/css">
	.st0{display:none;}
	.st1{display:inline;}
	.st2{fill:#FFFFFF;}
	.st3{fill:#4D4D4D;}
	.st4{fill:#808080;}
	.st5{fill:#666666;}
	.st6{fill:#373737;}
</style>
<g id="Capa_2" class="st0">
	<rect class="st1" width="80" height="80"/>
</g>
<g id="Capa_4">
</g>
<g id="Capa_3">
	<g>
		<rect x="19.3" y="8.7" class="st2" width="41.5" height="18.4"/>
		<g>
			<path class="st3" d="M64.8,63V49.3h-5.1V48H20.2v1.3h-5.1V63h-3.7c-5.5,0-10-4.4-10-9.9v-20c0-5.4,4.5-9.9,10-9.9h57
				c5.5,0,10,4.4,10,9.9v20c0,5.4-4.5,9.9-10,9.9H64.8z M66.6,31.8c-1.8,0-3.3,1.5-3.3,3.3s1.5,3.3,3.3,3.3c1.8,0,3.3-1.5,3.3-3.3
				S68.4,31.8,66.6,31.8z"/>
			<path class="st2" d="M68.5,23.8c5.2,0,9.5,4.2,9.5,9.4v20c0,5.2-4.3,9.4-9.5,9.4h-3.2V48.8h-5.1v-1.3H19.7v1.3h-5.1v13.8h-3.2
				c-5.2,0-9.5-4.2-9.5-9.4v-20c0-5.2,4.3-9.4,9.5-9.4H68.5 M66.6,38.8c2.1,0,3.8-1.7,3.8-3.8c0-2.1-1.7-3.8-3.8-3.8
				c-2.1,0-3.8,1.7-3.8,3.8C62.8,37.1,64.5,38.8,66.6,38.8 M68.5,22.8h-57C5.7,22.8,1,27.4,1,33.1v20c0,5.7,4.7,10.4,10.5,10.4h3.2
				h1v-1V49.8h4.1h1v-1v-0.3h38.5v0.3v1h1h4.1v12.8v1h1h3.2c5.8,0,10.5-4.7,10.5-10.4v-20C79,27.4,74.3,22.8,68.5,22.8L68.5,22.8z
				 M66.6,37.8c-1.5,0-2.8-1.2-2.8-2.8s1.3-2.8,2.8-2.8s2.8,1.2,2.8,2.8S68.1,37.8,66.6,37.8L66.6,37.8z"/>
		</g>
		<ellipse class="st2" cx="66.6" cy="35" rx="3.8" ry="3.8"/>
		<ellipse class="st2" cx="66.6" cy="43.5" rx="2.6" ry="2.6"/>
		<polygon class="st4" points="19.7,10 60.3,10 60.3,21.3 65.3,21.3 65.3,5 14.7,5 14.7,21.3 19.7,21.3 		"/>
		<polygon class="st5" points="60.3,48.8 60.3,70 19.7,70 19.7,48.8 14.7,48.8 14.7,62.5 14.7,75 65.3,75 65.3,62.5 65.3,48.8 		"/>
		<path class="st2" d="M19.7,70h40.5V48.8v-1.3H19.7v1.3V70z M50.1,63.7L50.1,63.7c0,0.7-0.6,1.3-1.3,1.3H26.1
			c-0.7,0-1.3-0.6-1.3-1.2v0c0-0.7,0.6-1.2,1.3-1.2h22.8C49.6,62.5,50.1,63.1,50.1,63.7z M24.8,53.7c0-0.7,0.6-1.2,1.3-1.2h27.9
			c0.7,0,1.3,0.6,1.3,1.2v0c0,0.7-0.6,1.2-1.3,1.2H26.1C25.4,55,24.8,54.4,24.8,53.7L24.8,53.7z M24.8,58.7c0-0.7,0.6-1.2,1.3-1.2
			h16.5c0.7,0,1.3,0.6,1.3,1.2v0c0,0.7-0.6,1.2-1.3,1.2H26.1C25.4,60,24.8,59.4,24.8,58.7L24.8,58.7z"/>
		<path class="st6" d="M26.1,55h27.9c0.7,0,1.3-0.6,1.3-1.2v0c0-0.7-0.6-1.2-1.3-1.2H26.1c-0.7,0-1.3,0.6-1.3,1.2v0
			C24.8,54.4,25.4,55,26.1,55z"/>
		<path class="st6" d="M26.1,60h16.5c0.7,0,1.3-0.6,1.3-1.2v0c0-0.7-0.6-1.2-1.3-1.2H26.1c-0.7,0-1.3,0.6-1.3,1.2v0
			C24.8,59.4,25.4,60,26.1,60z"/>
		<path class="st6" d="M24.8,63.7L24.8,63.7c0,0.7,0.6,1.3,1.3,1.3h22.8c0.7,0,1.3-0.6,1.3-1.2v0c0-0.7-0.6-1.2-1.3-1.2H26.1
			C25.4,62.5,24.8,63.1,24.8,63.7z"/>
	</g>
</g>
</svg>
