<?xml version="1.0" encoding="utf-8"?>
<!-- Generator: Adobe Illustrator 22.0.1, SVG Export Plug-In . SVG Version: 6.00 Build 0)  -->
<svg version="1.1" xmlns="http://www.w3.org/2000/svg" xmlns:xlink="http://www.w3.org/1999/xlink" x="0px" y="0px"
	 viewBox="0 0 80 80" style="enable-background:new 0 0 80 80;" xml:space="preserve">
<style type="text/css">
	.st0{display:none;}
	.st1{display:inline;}
	.st2{fill:#E8B826;}
	.st3{fill:#E6E6E6;}
	.st4{fill:#F2F2F2;}
	.st5{fill:#FFC928;}
	.st6{fill:#29D8E2;}
	.st7{fill:#FFFFFF;}
</style>
<g id="Capa_2" class="st0">
	<rect class="st1" width="80" height="80"/>
</g>
<g id="Capa_4">
	<path class="st2" d="M64,71H7.4C3.9,71,1,68.1,1,64.6V10.4C1,9.1,2.1,8,3.5,8h59.2c4.2,0,7.7,3.4,7.7,7.7v48.9
		C70.3,68.1,67.5,71,64,71z"/>
	<path class="st3" d="M58.2,52.2h-50c-1.9,0-3.4-1.5-3.4-3.4V14.1c0-1.9,1.5-3.4,3.4-3.4h50c1.9,0,3.4,1.5,3.4,3.4v34.7
		C61.7,50.7,60.1,52.2,58.2,52.2z"/>
	<path class="st4" d="M63.2,57.6h-50c-1.9,0-3.4-1.5-3.4-3.4V19.5c0-1.9,1.5-3.4,3.4-3.4h50c1.9,0,3.4,1.5,3.4,3.4v34.7
		C66.6,56.1,65.1,57.6,63.2,57.6z"/>
	<path class="st5" d="M61.6,71H6.9c-4.3,0-6.9-3.7-5.8-8.3L8.5,31c1.1-4.6,5.4-8.3,9.7-8.3H73c4.3,0,6.9,3.7,5.8,8.3l-7.5,31.7
		C70.2,67.3,65.9,71,61.6,71z"/>
	
		<ellipse transform="matrix(0.6524 -0.7579 0.7579 0.6524 -22.9307 48.5528)" class="st6" cx="41.5" cy="49.3" rx="20.7" ry="18.5"/>
	<g>
		<path class="st7" d="M48.1,55.9c0,0.2-0.1,0.4-0.2,0.6c-0.1,0.2-0.3,0.5-0.5,0.8c-0.2,0.3-0.4,0.6-0.7,0.9c-0.3,0.3-0.6,0.6-1,0.9
			c-0.2,0.2-0.5,0.3-0.8,0.5c-0.3,0.2-0.7,0.4-1.1,0.6c-0.4,0.2-0.9,0.3-1.4,0.4c-0.5,0.1-1.1,0.2-1.7,0.2c-0.8,0-1.4-0.1-1.9-0.4
			c-0.5-0.3-1-0.7-1.3-1.1c-0.3-0.5-0.6-1-0.8-1.6c-0.2-0.6-0.2-1.2-0.2-1.8c0-0.4,0-0.9,0.1-1.3c0-0.5,0.1-0.9,0.2-1.4
			c0.1-0.4,0.1-0.9,0.2-1.3c0.1-0.4,0.2-0.8,0.2-1.2s0.1-0.6,0.2-0.9c0-0.2,0.1-0.4,0.1-0.5c0-0.2,0-0.5,0.1-0.7
			c0.1-0.3,0.1-0.5,0.3-0.7c0.1-0.2,0.3-0.4,0.5-0.6c0.2-0.2,0.5-0.2,0.8-0.2c0.3,0,0.6,0,0.9,0.1c0.3,0.1,0.5,0.2,0.6,0.3
			c0.2,0.1,0.3,0.3,0.3,0.4c0.1,0.2,0.1,0.3,0.1,0.4c0,0.2,0,0.5-0.1,0.8c-0.1,0.3-0.2,0.7-0.3,1c-0.1,0.3-0.2,0.6-0.3,1
			c-0.1,0.4-0.2,0.7-0.3,1.1s-0.2,0.8-0.2,1.2c-0.1,0.4-0.1,0.9-0.1,1.3c0,0.3,0,0.7,0,1c0,0.4,0.1,0.7,0.2,1
			c0.1,0.3,0.2,0.5,0.4,0.7c0.2,0.2,0.4,0.3,0.8,0.3c0.3,0,0.7,0,1-0.1c0.3-0.1,0.7-0.2,1-0.3c0.3-0.1,0.7-0.3,1-0.4
			c0.3-0.2,0.6-0.3,0.8-0.5c0.5-0.4,0.9-0.7,1.3-1c0.4-0.3,0.7-0.4,1.1-0.4c0.3,0,0.5,0.1,0.6,0.2C48,55.7,48.1,55.8,48.1,55.9z
			 M43.7,40c0,0.1,0,0.2-0.1,0.4s-0.1,0.4-0.1,0.6c-0.1,0.2-0.1,0.4-0.2,0.6c-0.1,0.2-0.2,0.4-0.2,0.5c-0.1,0.2-0.2,0.3-0.4,0.4
			c-0.2,0.1-0.4,0.3-0.6,0.4s-0.4,0.2-0.6,0.2s-0.4,0.1-0.5,0.1c-0.2,0-0.3,0-0.4-0.1c-0.1,0-0.2-0.1-0.3-0.2
			c-0.1-0.1-0.1-0.2-0.1-0.3c0-0.1,0-0.2,0-0.3c0,0,0-0.1,0-0.1c0-0.1,0-0.2-0.1-0.5c0-0.1-0.1-0.2-0.1-0.2c0-0.1-0.1-0.1-0.1-0.2
			c0-0.1-0.1-0.2-0.1-0.3c0-0.1,0-0.2,0-0.4c0-0.2,0.1-0.4,0.2-0.6c0.1-0.2,0.3-0.4,0.5-0.6c0.2-0.2,0.4-0.3,0.7-0.5
			c0.3-0.1,0.6-0.2,0.9-0.2c0.1,0,0.2,0,0.4,0.1c0.2,0.1,0.4,0.2,0.6,0.3c0.2,0.1,0.4,0.2,0.5,0.4C43.6,39.7,43.7,39.9,43.7,40z"/>
	</g>
</g>
</svg>
