<?xml version="1.0" encoding="utf-8"?>
<!-- Generator: Adobe Illustrator 22.0.1, SVG Export Plug-In . SVG Version: 6.00 Build 0)  -->
<svg version="1.1" xmlns="http://www.w3.org/2000/svg" xmlns:xlink="http://www.w3.org/1999/xlink" x="0px" y="0px"
	 viewBox="0 0 80 80" style="enable-background:new 0 0 80 80;" xml:space="preserve">
<style type="text/css">
	.st0{display:none;}
	.st1{display:inline;}
	.st2{fill:#A47037;}
	.st3{fill:#42210B;}
	.st4{fill:#8C6239;}
	.st5{fill:#8C622A;}
	.st6{fill:#915F2E;}
	.st7{fill:#E5AC00;}
	.st8{fill:#FFFFFF;}
	.st9{fill:#E5AC00;stroke:#FFFFFF;stroke-miterlimit:10;}
</style>
<g id="Capa_2" class="st0">
	<rect class="st1" width="80" height="80"/>
</g>
<g id="Capa_4">
	<g>
		<path class="st2" d="M1.3,59.8V29c6.8,1,13.8,2.4,20.5,3.7c6.7,1.3,13.7,2.7,20.6,3.7v34.5L1.3,59.8z"/>
		<path class="st3" d="M1.5,29.3c6.7,1,13.5,2.4,20.2,3.7c6.7,1.3,13.6,2.7,20.4,3.7v33.9l-40.5-11V29.3 M1,28.8C1,39.2,1,49.6,1,60
			c13.8,3.8,27.7,7.5,41.5,11.3c0-12.1,0-22.9,0-35C28.7,34.2,14.8,30.8,1,28.8L1,28.8z"/>
	</g>
	<g>
		<path class="st4" d="M42.8,36.4c5.1-1.5,10.2-3.2,15.2-5c4.9-1.7,10-3.5,15.1-4.9v32L42.8,70.9V36.4z"/>
		<g>
			<path class="st3" d="M72.8,26.9v31.5L43,70.5V36.6c5-1.4,10.1-3.2,15.1-4.9C62.9,30.1,67.9,28.3,72.8,26.9 M73.3,26.3
				c-10.3,2.9-20.5,7.1-30.8,10c0,12.1,0,22.9,0,35c10.3-4.2,20.5-8.3,30.8-12.5C73.3,47.9,73.3,37.1,73.3,26.3L73.3,26.3z"/>
		</g>
	</g>
	<g>
		<path class="st5" d="M42.5,36c-6.9-1-13.9-2.4-20.7-3.7C15.4,31,8.9,29.7,2.4,28.7C8,27.5,13.7,26,19.1,24.6
			c5.9-1.5,12-3.1,18.1-4.4c5.9,0.8,12.1,2,18,3.1c5.5,1.1,11.3,2.1,16.9,3c-4.8,1.4-9.6,3.1-14.3,4.7C52.8,32.7,47.6,34.5,42.5,36z
			"/>
		<g>
			<path class="st3" d="M37.2,20.5c6,0.8,12.1,2,18,3.1c5.2,1,10.5,2,15.8,2.8c-4.4,1.3-8.9,2.9-13.2,4.4c-5,1.7-10.2,3.5-15.3,5
				c-6.9-1-13.9-2.4-20.6-3.7c-5.9-1.2-12-2.4-18.1-3.3c5.2-1.1,10.4-2.5,15.5-3.8C25.1,23.3,31.2,21.8,37.2,20.5 M37.2,20
				C25.1,22.5,13.1,26.3,1,28.8c13.8,2.1,27.7,5.4,41.5,7.5c10.3-2.9,20.5-7.1,30.8-10C61.3,24.6,49.2,21.7,37.2,20L37.2,20z"/>
		</g>
	</g>
	<g>
		<path class="st6" d="M6.8,2.6l33-2.5c3.1,1.2,6.6,2.5,10,3.7c3.2,1.2,6.6,2.4,9.6,3.6C54,8,48.2,8.6,42.5,9.3
			c-5.9,0.6-11.8,1.2-17.4,1.9L6.8,2.6z"/>
		<path class="st3" d="M39.8,0.3c3.1,1.2,6.6,2.5,10,3.7c3.1,1.1,6.2,2.2,9.1,3.4C53.6,8,48,8.5,42.5,9.1
			c-5.8,0.6-11.8,1.2-17.3,1.9l-9.3-4.3l-8.5-4l15.2-1.1L39.8,0.3 M39.8,0C28.7,0.8,17.5,1.7,6.4,2.5c6.2,2.9,12.5,5.8,18.7,8.8
			C36.3,10,48.8,8.8,59.9,7.5C53.7,5,46.1,2.5,39.8,0L39.8,0z"/>
	</g>
	<g>
		<polygon class="st4" points="25.4,17.7 57,15.3 57,32.3 25.4,36 		"/>
		<g>
			<path class="st3" d="M56.7,15.5v16.5l-15.6,1.8l-15.5,1.8V18l15.6-1.2L56.7,15.5 M57.2,15c-10.7,0.8-21.4,1.7-32.1,2.5
				c0,6.3,0,12.5,0,18.8c10.7-1.3,21.4-2.5,32.1-3.8C57.2,26.7,57.2,20.8,57.2,15L57.2,15z"/>
		</g>
	</g>
	<g>
		<polygon class="st4" points="25.4,11.5 59.7,7.8 59.7,16 25.4,19.7 		"/>
		<g>
			<path class="st3" d="M59.4,8.1v7.7l-22.8,2.5l-11.1,1.2v-7.7l11.2-1.2L59.4,8.1 M59.9,7.5C48.3,8.8,36.7,10,25.1,11.3
				c0,2.9,0,5.8,0,8.8c11.6-1.3,23.2-2.5,34.8-3.8C59.9,13.3,59.9,10.4,59.9,7.5L59.9,7.5z"/>
		</g>
	</g>
	<g>
		<polygon class="st2" points="7.9,27.3 7.9,10.4 24.9,18.9 24.9,35.8 		"/>
		<g>
			<path class="st3" d="M8.2,10.8l8,4l8.4,4.2v16.4l-8-4l-8.4-4.2V12.5V10.8 M7.7,10c0,0.8,0,1.7,0,2.5c0,5,0,10,0,15
				c5.8,2.9,11.6,5.8,17.4,8.8c0-5.8,0-11.7,0-17.5C19.3,15.8,13.5,12.9,7.7,10L7.7,10z"/>
		</g>
	</g>
	<g>
		<polygon class="st2" points="6.6,11.1 6.6,2.9 24.9,11.4 24.9,19.6 		"/>
		<g>
			<path class="st3" d="M6.9,3.3l8.7,4l9.1,4.2v7.6l-8.7-4l-9.1-4.2V3.3 M6.4,2.5c0,2.9,0,5.8,0,8.8c6.2,2.9,12.5,5.8,18.7,8.8
				c0-2.9,0-5.8,0-8.8C18.9,8.3,12.6,5.4,6.4,2.5L6.4,2.5z"/>
		</g>
	</g>
	<g>
		<path class="st6" d="M64.5,59.1c-4.6-0.5-9.5-1-14.4-1.6c-4.5-0.5-9-1-13.3-1.4c2.3-0.9,4.9-1.8,7.3-2.7c2.8-1,5.7-2.1,8.2-3.1
			l26.6,2L64.5,59.1z"/>
		<path class="st3" d="M52.5,50.5l13.7,1l11.9,0.9l-3.6,1.7l-10,4.7c-4.6-0.5-9.5-1-14.2-1.5c-4.1-0.4-8.3-0.9-12.3-1.3
			c2.1-0.8,4.3-1.6,6.4-2.4C47,52.6,49.9,51.5,52.5,50.5 M52.4,50c-5.2,2.1-11.4,4.1-16.6,6.2c9.2,1,19.5,2.1,28.7,3.1
			c5.2-2.4,10.3-4.8,15.5-7.2C70.8,51.4,61.6,50.7,52.4,50L52.4,50z"/>
	</g>
	<g>
		<g>
			<polygon class="st7" points="31.2,60.9 29.4,52.3 31.2,46.6 34.4,61.7 			"/>
			<path class="st8" d="M31.1,48.6L33.7,61l-2.1-0.6l-1.7-8.1L31.1,48.6 M31.3,44.7l-1.2,3.6l-1.2,3.8l-0.1,0.3l0.1,0.3l1.7,8.1
				l0.1,0.6l0.6,0.2l2.1,0.6l1.6,0.4l-0.3-1.6l-2.6-12.5L31.3,44.7L31.3,44.7z"/>
		</g>
		<path class="st9" d="M25.4,44.1l0.2-2.6l-3.4-0.9L22,43.2l-7.6-2l-0.2-0.1l-2.9-0.8L5.4,53.6l2.9,0.8c0,0,0,0,0,0
			c5.6,1.5,11.2,3,16.8,4.4l1.5-3.4l0,0l4.3-9.7L25.4,44.1z"/>
	</g>
	<g>
		<polygon class="st2" points="38.3,76.7 38.3,62.7 64.3,64.7 64.3,79.7 		"/>
		<g>
			<path class="st3" d="M38.5,63l12.7,1l12.8,1v14.5l-25.5-3V63 M38,62.4c0,4.8,0,9.7,0,14.5c8.8,1,17.7,2.1,26.5,3.1
				c0-5.2,0-10.3,0-15.5C55.7,63.8,46.9,63.1,38,62.4L38,62.4z"/>
		</g>
	</g>
	<g>
		<polygon class="st2" points="36.1,63.2 36.1,56.5 64.3,59.5 64.3,66.3 		"/>
		<path class="st3" d="M36.3,56.8l13.8,1.5L64,59.8V66l-23.8-2.6L36.3,63V56.8 M35.8,56.2c0,2.4,0,4.8,0,7.2
			c9.6,1,19.1,2.1,28.7,3.1c0-2.4,0-4.8,0-7.2C55,58.3,45.4,57.2,35.8,56.2L35.8,56.2z"/>
	</g>
	<g>
		<polygon class="st4" points="64.7,65.6 78.8,58.5 78.8,72.7 64.7,79.8 		"/>
		<g>
			<path class="st3" d="M78.6,58.7v1.7v12.3l-13.9,7V65.7L78.6,58.7 M78.9,58.3c-4.8,2.4-9.6,4.8-14.4,7.2c0,4.8,0,9.7,0,14.5
				c4.8-2.4,9.6-4.8,14.4-7.2c0-4.1,0-8.3,0-12.4C78.9,59.7,78.9,59,78.9,58.3L78.9,58.3z"/>
		</g>
	</g>
	<g>
		<polygon class="st4" points="64.8,59.5 79.8,52.5 79.8,59.2 64.8,66.2 		"/>
		<g>
			<path class="st3" d="M79.5,52.9V59l-4.8,2.2L65,65.8v-6.1l10.1-4.7L79.5,52.9 M80,52.1c-5.2,2.4-10.3,4.8-15.5,7.2
				c0,2.4,0,4.8,0,7.2c5.2-2.4,10.3-4.8,15.5-7.2C80,56.9,80,54.5,80,52.1L80,52.1z"/>
		</g>
	</g>
</g>
</svg>
