<?xml version="1.0" encoding="utf-8"?>
<!-- Generator: Adobe Illustrator 22.0.1, SVG Export Plug-In . SVG Version: 6.00 Build 0)  -->
<svg version="1.1" xmlns="http://www.w3.org/2000/svg" xmlns:xlink="http://www.w3.org/1999/xlink" x="0px" y="0px"
	 viewBox="0 0 80 80" style="enable-background:new 0 0 80 80;" xml:space="preserve">
<style type="text/css">
	.st0{display:none;}
	.st1{display:inline;}
	.st2{fill:#999999;}
	.st3{fill:#FFFFFF;}
	.st4{fill:#608BBA;}
	.st5{fill:#FBBA2D;}
</style>
<g id="Capa_2" class="st0">
	<rect class="st1" width="80" height="80"/>
</g>
<g id="Capa_5">
	<g>
		<path class="st2" d="M55.4,42.3c-0.8,0-1.5,0-2.3-0.1c-0.4-0.1-0.9-0.1-1.3-0.2L50,41.6l1.6-1c0.7-0.4,1.3-0.9,1.8-1.5
			c0.6-0.8,1-1.6,1.2-2.6l0.1-0.6l0.7,0c6.4,0,11.9-4.8,12.6-11.3c0.4-3.4-0.5-6.7-2.6-9.4c-2.1-2.7-5.1-4.4-8.5-4.8
			c-0.5-0.1-1-0.1-1.5-0.1c-6.2,0-11.4,4.4-12.5,10.4l-0.1,0.4l-0.4,0.1c-1.8,0.6-3.5,1.9-4.8,3.6l-1.2,1.6l-0.2-2
			c-0.1-1.2-0.1-2.5,0.1-3.7c1.1-9.7,9.4-17,19.1-17c0.8,0,1.5,0,2.3,0.1c10.5,1.2,18.1,10.8,16.9,21.4C73.4,35,65.2,42.3,55.4,42.3
			C55.4,42.3,55.4,42.3,55.4,42.3z"/>
		<path class="st3" d="M55.4,4.6c0.7,0,1.5,0,2.2,0.1C67.7,5.9,75,15.1,73.8,25.3c-1.1,9.4-9.1,16.3-18.3,16.3c-0.7,0-1.5,0-2.2-0.1
			c-0.4,0-0.8-0.1-1.2-0.2c0.7-0.4,1.4-1,2-1.7c0.8-1,1.1-2,1.3-2.9c0,0,0.1,0,0.1,0c6.7,0,12.6-5,13.4-11.9
			c0.9-7.4-4.4-14.1-11.8-15c-0.5-0.1-1.1-0.1-1.6-0.1c-6.5,0-12.1,4.6-13.3,11.1c-2,0.7-3.9,2.1-5.2,3.9c-0.1-1.2-0.1-2.4,0.1-3.6
			C38.2,11.5,46.1,4.6,55.4,4.6 M55.4,3.1c-10.1,0-18.6,7.6-19.8,17.7c-0.2,1.3-0.2,2.6-0.1,3.9l0.3,4l2.4-3.3
			c1.2-1.6,2.7-2.8,4.4-3.3l0.9-0.3l0.2-0.9c1-5.7,6-9.8,11.8-9.8c0.5,0,1,0,1.4,0.1c6.6,0.8,11.3,6.8,10.5,13.3
			c-0.7,6-5.8,10.6-11.9,10.6l-0.1,0l-1.2,0l-0.3,1.2c-0.2,0.9-0.6,1.7-1.1,2.3c-0.4,0.5-0.9,1-1.6,1.4L48,41.9l3.7,0.8
			c0.4,0.1,0.8,0.2,1.4,0.2c0.8,0.1,1.6,0.1,2.4,0.1c10.1,0,18.6-7.6,19.8-17.7c1.3-11-6.6-20.9-17.5-22.2C57,3.1,56.2,3.1,55.4,3.1
			L55.4,3.1z"/>
	</g>
	<g>
		<g>
			<path class="st4" d="M14.3,62.4c-0.8,0-1.6-0.3-2.5-0.6c-2.2-0.7-3.6-1.4-4.4-2l-0.1-0.1l-0.9-1.2l0-0.5l0.6-5l23.9-18.8l7.7,9.8
				l-4.2,3.3c0,0-4.1-0.4-4.1-0.4c-0.3,0-0.4,0.2-0.5,0.4l-0.5,4.5c0,0-4.6-0.5-4.6-0.5c-0.3,0-0.4,0.2-0.5,0.4l-0.5,4.5
				c0,0-4.6-0.5-4.6-0.5c-0.3,0-0.4,0.2-0.5,0.4l-0.4,3.9L18,60.2c-0.4,0.3-0.8,0.6-1,0.9l-1.3,1l-0.1,0.1
				C15.2,62.3,14.8,62.4,14.3,62.4z"/>
			<g>
				<path class="st3" d="M30.7,35.8l6.4,8.1l-2.9,2.3l-3.6-0.4c-0.1,0-0.1,0-0.2,0c-0.8,0-1.4,0.6-1.5,1.4l-0.3,3.4l-3.5-0.4
					c-0.1,0-0.1,0-0.2,0c-0.8,0-1.4,0.6-1.5,1.4l-0.3,3.4l-3.5-0.4c-0.1,0-0.1,0-0.2,0c-0.8,0-1.4,0.6-1.5,1.4l-0.1,0.8l-0.3,2.6
					c-0.4,0.3-0.8,0.6-1.1,0.9l-1.1,0.9c-0.3,0.1-0.5,0.2-0.8,0.2c-0.6,0-1.2-0.2-2.2-0.5c-2.4-0.8-3.6-1.4-4.2-1.9l-0.6-0.7
					c0,0,0,0,0.1-1c0,0,0.3-2.5,0.4-3.6L30.7,35.8 M31,32.7L29.3,34L6.6,51.9l-0.7,0.6l-0.1,0.9l-0.4,3.6l-0.1,1l-0.1,0.9l0.6,0.7
					l0.6,0.7l0.2,0.2l0.2,0.2c0.9,0.7,2.5,1.4,4.7,2.1c1,0.4,1.9,0.6,2.9,0.6c0.6,0,1.2-0.1,1.7-0.4l0.2-0.1l0.2-0.2l1.1-0.9l0,0
					l0,0c0.3-0.2,0.6-0.5,1-0.8l0.7-0.6l0.1-0.9l0.3-2.6l0-0.1l2.9,0.3l2.2,0.2l0.2-2.2l0.3-2.7l2.9,0.3l2.2,0.2l0.2-2.2l0.3-2.7
					l3,0.3l0.9,0.1l0.7-0.6l2.9-2.3l1.7-1.4l-1.4-1.7l-6.4-8.1L31,32.7L31,32.7z"/>
			</g>
		</g>
		<g>
			<g>
				<path class="st4" d="M44.5,50.3c-1.5,0-2.9-0.7-3.8-1.8L28.6,33.1c-0.8-1-1.2-2.3-1-3.6c0.2-1.3,0.8-2.4,1.8-3.2l10.9-8.6
					c0.9-0.7,1.9-1,3-1c1.5,0,2.9,0.7,3.8,1.8l12.1,15.3c1.7,2.1,1.3,5.2-0.8,6.8l-10.9,8.6C46.7,49.9,45.6,50.3,44.5,50.3
					L44.5,50.3z M42.6,24.9c-0.1,0-0.2,0-0.4,0.1l-3,2.4c-0.2,0.2-0.3,0.6-0.1,0.8l8.4,10.6c0.1,0.1,0.3,0.2,0.5,0.2
					c0.1,0,0.2,0,0.4-0.1l3-2.4c0.2-0.1,0.2-0.3,0.2-0.4c0-0.1,0-0.3-0.1-0.4L43,25.2C42.9,25,42.8,24.9,42.6,24.9z"/>
			</g>
			<g>
				<path class="st3" d="M43.3,17.8c1.1,0,2.2,0.5,2.9,1.4l12.1,15.3c1.3,1.6,1,4-0.6,5.3l-10.9,8.6c-0.7,0.5-1.5,0.8-2.3,0.8
					c-1.1,0-2.2-0.5-2.9-1.4L29.5,32.5c-1.3-1.6-1-4,0.6-5.3L41,18.6C41.7,18.1,42.5,17.8,43.3,17.8 M47.9,40.2c0.4,0,0.7-0.1,1-0.4
					l3-2.4c0.7-0.6,0.8-1.6,0.3-2.4l-8.4-10.6c-0.3-0.4-0.8-0.6-1.3-0.6c-0.4,0-0.7,0.1-1,0.4l-3,2.4c-0.7,0.6-0.8,1.6-0.3,2.4
					l8.4,10.6C46.9,40,47.4,40.2,47.9,40.2 M43.3,15.6c-1.3,0-2.6,0.5-3.7,1.3l-10.9,8.6c-2.6,2-3,5.8-1,8.3l12.1,15.3
					c1.1,1.4,2.8,2.3,4.7,2.3c1.3,0,2.6-0.5,3.7-1.3l10.9-8.6c2.6-2,3-5.8,1-8.4L48,17.9C46.9,16.4,45.2,15.6,43.3,15.6L43.3,15.6z
					 M40.3,28l2.2-1.8l7.7,9.8L48,37.8L40.3,28L40.3,28z"/>
			</g>
		</g>
	</g>
	<g>
		<g>
			<path class="st5" d="M50.6,76.5c-0.1,0-0.3,0-0.4,0L47,76.1c-1.9-0.2-3.3-2-3-3.9l2.5-21.3c-5.1-2.6-8.1-8-7.4-13.7
				c0.8-6.8,6.8-12,13.9-12c0.6,0,1.2,0,1.7,0.1c7.7,0.9,13.3,7.7,12.4,15.2c-0.7,5.6-4.8,10.2-10.4,11.5l-2.5,21.3
				C53.9,75.2,52.4,76.5,50.6,76.5z"/>
			<path class="st3" d="M52.9,26.4c0.5,0,1.1,0,1.6,0.1c7.1,0.8,12.3,7.1,11.4,13.9c-0.7,5.5-5,9.8-10.3,10.8L53,73.3
				c-0.1,1.2-1.2,2.1-2.4,2.1c-0.1,0-0.2,0-0.3,0L47.1,75c-1.3-0.2-2.2-1.3-2.1-2.6l2.6-22.1c-5-2.2-8.2-7.4-7.5-12.9
				C40.9,31.1,46.4,26.4,52.9,26.4 M52.9,24.2L52.9,24.2c-7.7,0-14.1,5.6-15,12.9c-0.7,5.8,2.2,11.4,7.4,14.4l-2.4,20.5
				c-0.1,1.2,0.2,2.4,1,3.4c0.8,1,1.8,1.6,3,1.7l3.2,0.4c0.2,0,0.4,0,0.5,0c2.3,0,4.3-1.7,4.5-4L57.6,53c5.7-1.7,9.8-6.4,10.5-12.3
				c0.5-3.9-0.7-7.8-3.2-10.9c-2.5-3.1-6.1-5-10.1-5.5C54.1,24.2,53.5,24.2,52.9,24.2L52.9,24.2z"/>
		</g>
		<g>
			<polygon class="st5" points="54.7,75 56.1,62.8 68.3,64.3 67.8,68.5 63.8,68 63.3,71.8 67.3,72.2 66.8,76.4 			"/>
			<path class="st3" d="M57.1,64.1l9.9,1.2l-0.2,2l-4-0.5l-0.7,6l4,0.5l-0.2,2L55.9,74L57.1,64.1 M55.2,61.6l-0.3,2.2l-1.2,9.9
				l-0.3,2.2l2.2,0.3l9.9,1.2l2.2,0.3l0.3-2.2l0.2-2l0.3-2.2L66.4,71l-1.8-0.2l0.2-1.6l1.8,0.2l2.2,0.3l0.3-2.2l0.2-2l0.3-2.2
				l-2.2-0.3l-9.9-1.2L55.2,61.6L55.2,61.6z"/>
		</g>
	</g>
	<g>
		<g>
			<path class="st2" d="M55.8,42.4c-0.8,0-1.5,0-2.1-0.1c-2.5-0.2-3.8-0.8-4.5-1.8c-0.7-1.2-0.5-2.9,0.5-3.9
				c0.6-0.6,1.5-0.9,2.6-0.9c0.3,0,0.7,0,0.9,0l0.1,0c0.3,0,0.8,0.1,1.5,0.1c1.9,0,4.8-0.3,7.4-1.9c4.6-2.7,5.6-7.8,5.8-8.8l0.1-0.9
				l6.3,2.1l-0.1,0.7c-0.5,2.5-1.5,4.9-2.9,7c-2.8,4.2-6.6,6.3-9.2,7.3C60.1,42,58,42.4,55.8,42.4L55.8,42.4z"/>
			<path class="st3" d="M68.8,25.2c1.6,0.5,3.2,1.1,4.8,1.6c-0.3,1.6-1,4.1-2.8,6.7c-2.9,4.3-6.9,6.2-8.9,7
				c-2.4,0.9-4.5,1.1-6.1,1.1c-0.8,0-1.5-0.1-2.1-0.1c-2.8-0.2-3.6-0.9-3.9-1.5c-0.5-0.9-0.4-2.2,0.4-3c0.6-0.6,1.4-0.7,2.1-0.7
				c0.4,0,0.7,0,1,0.1c0.3,0,0.8,0.1,1.5,0.1c1.9,0,5-0.3,7.8-2C67.6,31.5,68.6,26,68.8,25.2 M67.6,23.2l-0.3,1.7
				c-0.2,0.9-1.2,5.7-5.4,8.3c-2.4,1.5-5.1,1.8-7,1.8c-0.7,0-1.1,0-1.4-0.1l-0.1,0c-0.3,0-0.6-0.1-1-0.1c-1.4,0-2.4,0.4-3.2,1.2
				c-1.2,1.2-1.4,3.3-0.6,4.8c0.7,1.3,2.3,2,5,2.2c0.6,0.1,1.3,0.1,2.2,0.1c2.3,0,4.5-0.4,6.7-1.2c2.8-1.1,6.7-3.2,9.6-7.6
				c1.5-2.2,2.5-4.6,3-7.3l0.3-1.3l-1.3-0.4l-3.7-1.2l-1.2-0.4L67.6,23.2L67.6,23.2z"/>
		</g>
		<path class="st2" d="M73.8,25.3c-0.3,2.3-0.9,4.4-1.9,6.3l-5.5-0.6c1.3-1.8,2.1-3.9,2.4-6.3c0.2-1.6,0.1-3.1-0.2-4.6l5.2,0.6
			C74,22.2,74,23.7,73.8,25.3z"/>
	</g>
</g>
</svg>
