<?xml version="1.0" encoding="utf-8"?>
<!-- Generator: Adobe Illustrator 22.0.1, SVG Export Plug-In . SVG Version: 6.00 Build 0)  -->
<svg version="1.1" id="Capa_1" xmlns="http://www.w3.org/2000/svg" xmlns:xlink="http://www.w3.org/1999/xlink" x="0px" y="0px"
	 viewBox="0 0 511.3 259.1" style="enable-background:new 0 0 511.3 259.1;" xml:space="preserve">
<style type="text/css">
	.st0{fill:#E5BF00;}
	.st1{fill:#E9C900;}
	.st2{fill:#289DA3;}
	.st3{fill:#4F545E;}
</style>
<polygon class="st0" points="113.2,154.1 81.6,154.1 127,24 158.6,24 "/>
<polygon class="st0" points="344.6,154.1 366.2,154.1 329.6,49.8 320.8,86.3 "/>
<polygon class="st0" points="279.7,154.1 185,154.1 218.6,58.7 312.2,58.7 "/>
<polygon class="st1" points="167.4,120.2 135.8,120.2 150.2,77.9 181.8,77.9 "/>
<polygon class="st0" points="291.5,120.2 124.8,120.2 156.5,24 325.2,24 "/>
<rect x="235" class="st0" width="34.1" height="38.7"/>
<g>
	<path class="st2" d="M20.3,259.1H0l38.2-112.3h-15l6.1-18h50.4l-6.1,18h-15L20.3,259.1z"/>
	<path class="st2" d="M88.5,252c-1.6,4.7-5,7.1-10.1,7.1H50.6c-10.7,0-13.9-6.6-9.4-19.8l26.4-77.7h19.1l-25.5,75.2
		c-1.2,3.5-0.5,5.3,2.2,5.3h8c0.9,0,1.6-0.6,2-1.7l26.8-78.8h19.1L88.5,252z"/>
	<path class="st3" d="M124,259.1h-20.3l38.2-112.3h-15l6.1-18h50.4l-6.1,18h-15L124,259.1z"/>
	<path class="st3" d="M186.5,259.1h-32.4c-10.7,0-13.9-6.6-9.4-19.8l19.6-57.8c4.5-13.2,12.1-19.8,22.8-19.8h19.1
		c10.7,0,13.9,6.6,9.4,19.8l-11.2,33c-1.6,4.6-5,6.9-10.2,6.9h-24.3l-5.2,15.4c-1.2,3.5-0.5,5.3,2.2,5.3h25.4L186.5,259.1z
		 M186.4,207.8c0.9,0,1.6-0.6,2-1.8l7.6-22.5c1.3-3.7,0.6-5.6-2.1-5.6h-5.2c-2.7,0-4.7,1.9-5.9,5.6l-8.2,24.3H186.4z"/>
	<path class="st3" d="M244.2,259.1h-24.1c-10.7,0-13.9-6.6-9.4-19.8l19.6-57.8c4.5-13.2,12.1-19.8,22.8-19.8h24.1l-5.8,17h-17.1
		c-2.7,0-4.6,1.8-5.8,5.3l-18,52.9c-1.2,3.5-0.5,5.3,2.2,5.3H250L244.2,259.1z"/>
	<path class="st3" d="M311.3,259.1h-19.1l25.5-75.2c1.2-3.5,0.4-5.3-2.4-5.3h-9.3l-27.3,80.5h-19.1L304,128.8H323l-11.2,32.9h16.4
		c10.7,0,13.9,6.6,9.4,19.8L311.3,259.1z"/>
	<path class="st3" d="M385.4,239.3c-4.5,13.2-12.1,19.8-22.8,19.8h-19.4c-10.7,0-13.9-6.6-9.4-19.8l19.6-57.8
		c4.5-13.2,12.1-19.8,22.8-19.8h19.4c10.7,0,13.9,6.6,9.4,19.8L385.4,239.3z M361.1,242.1c2.8,0,4.8-1.8,6-5.3l18-52.9
		c1.2-3.5,0.4-5.3-2.4-5.3h-5.2c-2.7,0-4.6,1.8-5.8,5.3l-18,52.9c-1.2,3.5-0.5,5.3,2.2,5.3H361.1z"/>
</g>
<path class="st3" d="M396.4,259.1h-9l4-11.6h9L396.4,259.1z"/>
<path class="st3" d="M421.8,259.1h-11.4c-5,0-6.4-3.3-4.2-9.9l9.9-28.8c2.3-6.6,5.9-9.9,11-9.9h11.4l-2.9,8.5h-8.1
	c-1.3,0-2.2,0.9-2.8,2.6l-9.1,26.3c-0.6,1.8-0.3,2.6,1,2.6h8.1L421.8,259.1z"/>
<path class="st3" d="M456,249.3c-2.3,6.6-5.9,9.9-11,9.9h-9.1c-5,0-6.4-3.3-4.2-9.9l9.9-28.8c2.3-6.6,5.9-9.9,11-9.9h9.1
	c5,0,6.4,3.3,4.2,9.9L456,249.3z M444.6,250.7c1.3,0,2.3-0.9,2.9-2.6l9.1-26.3c0.6-1.8,0.2-2.6-1.1-2.6H453c-1.3,0-2.2,0.9-2.8,2.6
	l-9.1,26.3c-0.6,1.8-0.3,2.6,1,2.6H444.6z"/>
<path class="st3" d="M496.9,259.1h-8.6l12.9-37.5c0.6-1.8,0.2-2.6-1.1-2.6h-3.3L483,259.1h-8.3l13.8-40.1H484c-0.5,0-0.8,0.3-1,0.8
	l-13.5,39.3h-8.6l15.5-45c0.8-2.4,2.4-3.5,4.8-3.5h25c5,0,6.4,3.3,4.2,9.9L496.9,259.1z"/>
</svg>
