<?xml version="1.0" encoding="utf-8"?>
<!-- Generator: Adobe Illustrator 22.0.1, SVG Export Plug-In . SVG Version: 6.00 Build 0)  -->
<svg version="1.1" id="Capa_1" xmlns="http://www.w3.org/2000/svg" xmlns:xlink="http://www.w3.org/1999/xlink" x="0px" y="0px"
	 viewBox="0 0 636 636" style="enable-background:new 0 0 636 636;" xml:space="preserve">
<style type="text/css">
	.st0{fill:#E5BF00;}
	.st1{fill:#289DA3;}
	.st2{fill:#FFFFFF;}
</style>
<path class="st0" d="M636,318c0,77.3-27.6,148.2-73.5,203.3L75.3,112.5C133.7,43.7,220.7,0,318,0C493.6,0,636,142.4,636,318z"/>
<path class="st1" d="M562.5,521.3C504.2,591.4,416.3,636,318,636C142.4,636,0,493.6,0,318c0-78.4,28.3-150.1,75.3-205.5L562.5,521.3
	z"/>
<circle cx="318" cy="318" r="300"/>
<g>
	<polygon class="st0" points="422.9,307.5 444.5,307.5 407.9,203.2 399.1,239.7 	"/>
	<polygon class="st0" points="403.5,177.4 347.4,177.4 347.4,153.4 313.3,153.4 313.3,177.4 236.9,177.4 234.8,177.4 205.3,177.4 
		159.9,307.5 191.5,307.5 203.3,273.6 214.1,273.6 245.7,273.6 275.2,273.6 263.3,307.5 358,307.5 369.5,273.6 369.8,273.6 	"/>
	<g>
		<path class="st1" d="M98.6,412.5H78.3l38.2-112.3h-15l6.1-18H158l-6.1,18h-15L98.6,412.5z"/>
		<path class="st1" d="M166.8,405.4c-1.6,4.7-5,7.1-10.1,7.1h-27.8c-10.7,0-13.9-6.6-9.4-19.8l26.4-77.7H165l-25.5,75.2
			c-1.2,3.5-0.5,5.3,2.2,5.3h8c0.9,0,1.6-0.6,2-1.7l26.8-78.8h19.1L166.8,405.4z"/>
		<path class="st2" d="M202.3,412.5H182l38.2-112.3h-15l6.1-18h50.4l-6.1,18h-15L202.3,412.5z"/>
		<path class="st2" d="M264.8,412.5h-32.4c-10.7,0-13.9-6.6-9.4-19.8l19.6-57.8c4.5-13.2,12.1-19.8,22.8-19.8h19.1
			c10.7,0,13.9,6.6,9.4,19.8l-11.2,33c-1.6,4.6-5,6.9-10.2,6.9h-24.3l-5.2,15.4c-1.2,3.5-0.5,5.3,2.2,5.3h25.4L264.8,412.5z
			 M264.7,361.2c0.9,0,1.6-0.6,2-1.8l7.6-22.5c1.3-3.7,0.6-5.6-2.1-5.6H267c-2.7,0-4.7,1.9-5.9,5.6l-8.2,24.3H264.7z"/>
		<path class="st2" d="M322.5,412.5h-24.1c-10.7,0-13.9-6.6-9.4-19.8l19.6-57.8c4.5-13.2,12.1-19.8,22.8-19.8h24.1l-5.8,17h-17.1
			c-2.7,0-4.6,1.8-5.8,5.3l-18,52.9c-1.2,3.5-0.5,5.3,2.2,5.3h17.3L322.5,412.5z"/>
		<path class="st2" d="M389.6,412.5h-19.1l25.5-75.2c1.2-3.5,0.4-5.3-2.4-5.3h-9.3L357,412.5h-19.1l44.4-130.3h19l-11.2,32.9h16.4
			c10.7,0,13.9,6.6,9.4,19.8L389.6,412.5z"/>
		<path class="st2" d="M463.7,392.7c-4.5,13.2-12.1,19.8-22.8,19.8h-19.4c-10.7,0-13.9-6.6-9.4-19.8l19.6-57.8
			c4.5-13.2,12.1-19.8,22.8-19.8h19.4c10.7,0,13.9,6.6,9.4,19.8L463.7,392.7z M439.4,395.5c2.8,0,4.8-1.8,6-5.3l18-52.9
			c1.2-3.5,0.4-5.3-2.4-5.3h-5.2c-2.7,0-4.6,1.8-5.8,5.3l-18,52.9c-1.2,3.5-0.5,5.3,2.2,5.3L439.4,395.5L439.4,395.5z"/>
	</g>
	<path class="st2" d="M474.7,412.5h-9l4-11.6h9L474.7,412.5z"/>
	<path class="st2" d="M500.1,412.5h-11.4c-5,0-6.4-3.3-4.2-9.9l9.9-28.8c2.3-6.6,5.9-9.9,11-9.9h11.4l-2.9,8.5h-8.1
		c-1.3,0-2.2,0.9-2.8,2.6l-9.1,26.3c-0.6,1.8-0.3,2.6,1,2.6h8.1L500.1,412.5z"/>
	<path class="st2" d="M534.3,402.7c-2.3,6.6-5.9,9.9-11,9.9h-9.1c-5,0-6.4-3.3-4.2-9.9l9.9-28.8c2.3-6.6,5.9-9.9,11-9.9h9.1
		c5,0,6.4,3.3,4.2,9.9L534.3,402.7z M522.9,404.1c1.3,0,2.3-0.9,2.9-2.6l9.1-26.3c0.6-1.8,0.2-2.6-1.1-2.6h-2.5
		c-1.3,0-2.2,0.9-2.8,2.6l-9.1,26.3c-0.6,1.8-0.3,2.6,1,2.6H522.9z"/>
	<path class="st2" d="M575.2,412.5h-8.6l12.9-37.5c0.6-1.8,0.2-2.6-1.1-2.6h-3.3l-13.8,40.1H553l13.8-40.1h-4.5
		c-0.5,0-0.8,0.3-1,0.8l-13.5,39.3h-8.6l15.5-45c0.8-2.4,2.4-3.5,4.8-3.5h25c5,0,6.4,3.3,4.2,9.9L575.2,412.5z"/>
</g>
</svg>
