<?xml version="1.0" encoding="utf-8"?>
<!-- Generator: Adobe Illustrator 22.0.1, SVG Export Plug-In . SVG Version: 6.00 Build 0)  -->
<svg version="1.1" xmlns="http://www.w3.org/2000/svg" xmlns:xlink="http://www.w3.org/1999/xlink" x="0px" y="0px"
	 viewBox="0 0 80 80" style="enable-background:new 0 0 80 80;" xml:space="preserve">
<style type="text/css">
	.st0{display:none;}
	.st1{display:inline;}
	.st2{fill:#F2F2F2;}
	.st3{fill:#1A1617;}
	.st4{fill:#3D3D3D;}
	.st5{fill:#F6D5B8;}
	.st6{fill:#E6C6AA;}
	.st7{fill:#383032;}
	.st8{fill:#FFFFFF;}
	.st9{fill:#F23034;}
	.st10{fill:#E6E6E6;}
</style>
<g id="Capa_2" class="st0">
	<rect class="st1" width="80" height="80"/>
</g>
<g id="Capa_3">
	<ellipse class="st2" cx="40" cy="40" rx="39" ry="38"/>
	<path class="st3" d="M55.8,25.2c0.5,0.9,0.5,2.4,0,4.2c-0.6,2.2-1.9,3.7-3.3,3.9c-0.7,3.1-2.1,5.9-3.9,8c2.4,1.9,4.4,3.9,5.8,6.4
		c3.6,1.1,7,3,10.6,4.5c0.9,0.4,0.7,0.3,1.1,1.1c1.6,3.7,2.8,7.4,4.2,11.1c-7,8.8-18,14.5-30.3,14.5c-12.4,0-23.4-5.7-30.4-14.6
		c1.6-3.4,2.6-7.5,4.3-11c0.5-1,0.3-0.8,1.3-1.2c3.4-1.4,6.6-3.1,10.3-4.2c1.6-2.7,3.7-4.9,6.2-6.3c-1.9-2.1-3.3-4.9-4.1-8.2
		c-1.4,0-3-1.6-3.6-3.9c-0.5-1.8-0.5-3.3,0-4.2c0.3-0.5,0.6-0.7,1-0.8C23,17,25.6,11.8,30.9,8.7c7.5-5.6,17.1-5.1,22.9,2.7
		C56.6,15.1,57,20.5,55.8,25.2z"/>
	<path class="st4" d="M39.9,5.1c-3.1,0.3-6.1,1.6-8.9,3.6c-5.4,3.1-7.9,8.2-5.8,15.6c0.8-0.2,1.8,0.6,2.2,1.4
		c0.1,0.2,0.2,0.5,0.2,0.7c0,1,0.2,2,0.4,2.9c0.1,0.3,0.6,0.6,0.6,0.2c-0.3-1.6-0.1-3.5-0.3-5.1l-0.3-1.4c0.9-3.7,2.8-6.8,5.3-8.8
		c2.2,2.3,4.8,4.3,8.2,4.6c5.9,0.6,9.3,2.5,11,5.5c-0.3,1.5-0.1,3.4-0.3,5.1c-0.1,0.4,0.5,0.1,0.6-0.2c0.2-0.9,0.2-1.9,0.2-2.8
		c-0.1-0.3-0.1-0.7,0.1-1c0.7-1.1,2.2-1.7,3-0.2c1.2-4.6,0.8-10.1-2-13.7c-2.8-3.8-6.6-5.9-10.6-6.3H39.9z"/>
	<path class="st5" d="M24.6,24.6c-0.2,0.1-0.3,0.3-0.5,0.5c-0.5,0.9-0.5,2.4,0,4.2c0.4,1.6,1.3,2.8,2.2,3.4c0.4,0.3,0.9,0.4,1.4,0.4
		c0.7,3.2,2.1,6,4.1,8.2c-0.2,0.7-0.5,1.6-0.7,2.5c2.6,3.8,5.6,6.1,8.9,6.1c3.5,0,6.6-2.5,9.3-6.7c-0.2-0.9-0.5-1.7-0.6-2.1
		c1.8-2.1,3.2-4.8,3.9-8c0.4,0,0.8-0.2,1.1-0.4c1-0.6,1.8-1.9,2.2-3.4c0.5-1.8,0.5-3.3,0-4.2c-0.1-0.2-0.3-0.4-0.4-0.5
		c-0.8-0.7-2-0.1-2.5,0.8c-0.2,0.3-0.2,0.7-0.1,1c0,1,0,1.9-0.2,2.8c-0.1,0.3-0.6,0.6-0.6,0.2c0.3-1.6,0.1-3.5,0.3-5.1
		c-1.8-3.1-5.1-4.9-11-5.5c-3.4-0.4-6-2.3-8.2-4.6c-2.4,2.1-4.3,5.2-5.3,8.8l0.3,1.4c0.3,1.5,0.1,3.4,0.3,5.1
		c0.1,0.4-0.5,0.1-0.6-0.2c-0.2-0.9-0.3-1.9-0.4-2.9c0-0.2-0.1-0.5-0.2-0.7c-0.4-0.8-1.4-1.6-2.2-1.4C25,24.4,24.8,24.5,24.6,24.6z"
		/>
	<path class="st6" d="M27.6,32.6c-0.3-1.3-0.4-2.5-0.5-3.8c0-0.8,0-1.7,0.1-2.5c-0.1-0.1-0.1-0.2-0.2-0.3c-0.3-0.3-0.8-0.7-1.2-0.6
		c-0.3,0-0.6,0.3-0.7,0.5c-0.6,1-0.2,2.6,0.1,3.6c0.3,0.9,0.7,1.7,1.4,2.4C26.9,32.1,27.2,32.4,27.6,32.6z M52.6,32.6
		c0.3-1.3,0.4-2.5,0.5-3.8c0-0.8,0-1.7-0.1-2.5c0.1-0.1,0.1-0.2,0.2-0.3c0.3-0.3,0.8-0.7,1.2-0.6c0.3,0,0.6,0.3,0.7,0.5
		c0.6,1,0.2,2.6-0.1,3.6c-0.3,0.9-0.7,1.7-1.4,2.4C53.3,32.1,53,32.4,52.6,32.6z"/>
	<path class="st7" d="M31.8,41.5C27,54.7,37.3,67,39.6,78.8c-0.4,0-0.8,0-1.2,0l-15.5-19l4.4-3.4c-1-1.3-2.8-1.9-3.6-3.3
		c0.7-1.7,0.7-3.7,1.8-5.3C27.2,45.1,29.2,43,31.8,41.5z M49.5,41.9c2,1.7,3.7,3.6,5,5.7c0.2,0.1,0.4,0.1,0.5,0.2l0,0
		c1.1,1.6,1,3.6,1.8,5.3c-0.8,1.4-2.6,2-3.6,3.3l4.4,3.4l-15.5,19c-0.4,0-0.8,0-1.2,0c2.4-11.8,12.6-24.2,7.8-37.3
		C49,41.6,49.3,41.8,49.5,41.9z"/>
	<path class="st6" d="M48.7,41.3c0,0-3.4,3.7-8.5,3.7c-3.6,0-8.4-3.5-8.4-3.5l-0.1,0.6c0.9,1,1.9,1.9,3.1,2.5c1.7,1,3.5,1.6,5.6,1.9
		c2,0.3,4.1,0.4,6.3,0.3c0.9-1,1.8-2.1,2.7-3.5C49.1,42.4,48.8,41.7,48.7,41.3z"/>
	<path class="st8" d="M40,50c-3.3,0-6.3-2.2-8.9-6.1c0.2-0.9,0.4-1.8,0.7-2.5c-3.1,8.5,0.1,16.7,3.4,24.6c1.8,4.3,3.6,8.6,4.4,12.7
		H40c0.3,0,0.7,0,1,0c0.8-3.9,2.4-7.8,4-11.8c3.4-8.2,7-16.7,3.8-25.6c0.2,0.1,0.3,0.2,0.5,0.3c-0.2-0.2-0.4-0.3-0.6-0.5
		c0.2,0.4,0.4,1.1,0.6,2.1c-0.8,1.3-1.7,2.5-2.7,3.5C44.6,48.9,42.4,50,40,50z"/>
	<path class="st9" d="M40.1,50.7l-4.1,6.4l1.4,1.9l-2.2,7c1.8,4.3,3.6,8.6,4.4,12.7H40c0.3,0,0.7,0,1,0c0.8-3.8,2.4-7.8,4-11.7
		c0.2-0.6-2.3-7.9-2.3-7.9l1.4-2.4L40.1,50.7z"/>
	<path class="st10" d="M40.1,50.9l-6.4,8.5l-2.7-6.2c0.8,4.4,2.5,8.7,4.3,13l2.1-6.9l-1.4-1.9L40.1,50.9z M46.5,59.5l-6.5-8.6l4,6
		l-1.4,2.4c0,0,2.3,6.4,2.4,7.7c1.9-4.6,3.9-9.4,4.7-14.2L46.5,59.5z"/>
	<path class="st6" d="M41.3,18.9c-3.4-0.4-6-2.3-8.2-4.6c-2.4,2.1-4.3,5.2-5.3,8.8c1.7-2.6,2.9-5.9,5.2-7.8c3.2,6.4,14.3,4,19.2,9.2
		C50.6,21.4,47.2,19.5,41.3,18.9z"/>
</g>
</svg>
