<?xml version="1.0" encoding="utf-8"?>
<!-- Generator: Adobe Illustrator 22.0.1, SVG Export Plug-In . SVG Version: 6.00 Build 0)  -->
<svg version="1.1" xmlns="http://www.w3.org/2000/svg" xmlns:xlink="http://www.w3.org/1999/xlink" x="0px" y="0px"
	 viewBox="0 0 80 80" style="enable-background:new 0 0 80 80;" xml:space="preserve">
<style type="text/css">
	.st0{display:none;}
	.st1{display:inline;}
	.st2{fill:#E6E6E6;}
	.st3{fill:none;stroke:#4D4D4D;stroke-width:2;stroke-linecap:round;stroke-miterlimit:10;}
	.st4{fill:#4D4D4D;stroke:#4D4D4D;stroke-width:2;stroke-linecap:round;stroke-miterlimit:10;}
	.st5{fill:#F29D16;stroke:#FFFFFF;stroke-width:0.75;stroke-miterlimit:10;}
	.st6{fill:#E5BF00;}
	.st7{fill:#FFFFFF;}
	.st8{fill:#E5BF00;stroke:#FFFFFF;stroke-width:0.75;stroke-miterlimit:10;}
</style>
<g id="Capa_2" class="st0">
	<rect class="st1" width="80" height="80"/>
</g>
<g id="Capa_4">
	<path class="st2" d="M7,27c-0.7,0.4-2,1.3-3,3c-0.5,0.8-1.3,2.2-1,4c0.4,2.5,2.7,3.8,3,4c-0.6,0.6-1.3,1.6-2,3
		c-0.7,1.5-1.3,2.7-1,4c0.3,1.3,1.2,2.2,2,3c1.2,1.2,2.1,1.5,2,2c-0.1,0.5-1,0.4-2,1c-1.7,1.1-2,3.6-2,4c-0.2,2.1,0.7,3.6,1,4
		c0.7,1.1,1.5,1.7,2,2c12.7,2.7,25.3,5.3,38,8c10.7-5.7,21.3-11.3,32-17c-0.3-11.3-0.7-22.7-1-34c-10.3,5.3-20.7,10.7-31,16
		C31.7,31.7,19.3,29.3,7,27z"/>
	<path class="st3" d="M76,40c-10.7,6-21.3,12-32,18c-12.3-2.7-24.7-5.3-37-8"/>
	<path class="st3" d="M76,51c-10.7,6-21.3,12-32,18c-12.3-2.7-24.7-5.3-37-8"/>
	<path class="st3" d="M76,28c-10.7,6-21.3,12-32,18c-12.3-2.7-24.7-5.3-37-8"/>
	<path class="st4" d="M74.9,17.6C65,23.2,55,28.8,45.1,34.4c-0.7,0.4-1.5,0.5-2.2,0.3c-11.6-2.5-23.3-5-34.9-7.5
		c-0.3-0.1-0.4-0.5-0.1-0.7L40,8l34.8,8.7C75.2,16.8,75.3,17.4,74.9,17.6z"/>
	<path class="st3" d="M7,27c-2.2,0.8-3.7,2.7-4,5c-0.3,2.4,0.9,4.8,3,6"/>
	<path class="st3" d="M7,38c-2.2,0.8-3.7,2.7-4,5c-0.3,2.4,0.9,4.8,3,6"/>
	<path class="st3" d="M7,50c-2.2,0.8-3.7,2.7-4,5c-0.3,2.4,0.9,4.8,3,6"/>
	<path class="st5" d="M25,38c0,4.7,0,9.3,0,14c1.3-0.8,2.7-1.7,4-2.5c1.3,1.2,2.7,2.3,4,3.5c0-4.7,0-9.3,0-14
		C30.3,38.7,27.7,38.3,25,38z"/>
	<g>
		<g>
			<polygon class="st6" points="50.6,25.5 50.9,19.9 53.6,17.6 53.1,27 			"/>
			<path class="st7" d="M53.2,18.5c-0.2,2.6-0.3,5.3-0.5,7.9c-0.6-0.3-1.2-0.7-1.8-1c0.1-1.8,0.2-3.5,0.3-5.3
				C51.9,19.5,52.6,19,53.2,18.5 M54,16.8l-1.3,1.1l-1.9,1.6l-0.2,0.2l0,0.3l-0.2,2.6l-0.2,2.6l0,0.5l0.4,0.2l1.8,1l1.1,0.6l0.1-1.2
				l0.2-4l0.2-4L54,16.8L54,16.8z"/>
		</g>
		<path class="st8" d="M46.6,14.6c0.3-0.4,0.5-0.8,0.8-1.1c-0.9-0.2-1.9-0.5-2.8-0.7c-0.3,0.4-0.6,0.8-0.8,1.2l-6.4-1.4
			c0,0-0.4-0.1-0.4-0.1c-0.2,0-0.5,0-0.7-0.1c-2.8,2.6-5.6,5.1-8.4,7.7c2.4,0.5,4.9,1.1,7.5,1.7c2.9,0.8,5.8,1.6,8.4,2.4
			c0.8-0.9,1.7-1.9,2.6-2.8c2-2.1,3.9-4,5.8-5.8C50.4,15.3,48.5,15,46.6,14.6z"/>
	</g>
</g>
</svg>
