<?xml version="1.0" encoding="utf-8"?>
<!-- Generator: Adobe Illustrator 22.0.1, SVG Export Plug-In . SVG Version: 6.00 Build 0)  -->
<svg version="1.1" id="Capa_4" xmlns="http://www.w3.org/2000/svg" xmlns:xlink="http://www.w3.org/1999/xlink" x="0px" y="0px"
	 viewBox="0 0 64.2 103.5" style="enable-background:new 0 0 64.2 103.5;" xml:space="preserve">
<style type="text/css">
	.st0{fill:#FFFFFF;}
	.st1{fill:#E5BF00;}
	.st2{fill:#E5BF00;stroke:#FFFFFF;stroke-width:2;stroke-miterlimit:10;}
	.st3{fill:#289CA2;stroke:#FFFFFF;stroke-miterlimit:10;}
</style>
<g id="Capa_2">
	<path class="st0" d="M3.5,36c0.3,0.7,0.7,1.3,1,2c6.7,6.3,13.3,12.7,20,19c4.7,0,9.3,0,14,0c6.7-6.3,13.3-12.7,20-19
		c0.3-0.7,0.7-1.3,1-2c-2.7-9-5.3-18-8-27c-6,0-12,0-18,0c-7,0-14,0-21,0C9.5,18,6.5,27,3.5,36z"/>
</g>
<g>
	<g>
		<polygon class="st1" points="56.2,38 50.8,21.2 53.6,8.8 62.8,38 		"/>
		<path class="st0" d="M53.7,12.6L61.5,37h-4.6l-5-15.8L53.7,12.6 M53.4,4.9l-1.6,7.3l-1.9,8.5l-0.1,0.5l0.2,0.5l5,15.8l0.4,1.4h1.5
			h4.6h2.7l-0.8-2.6L55.7,12L53.4,4.9L53.4,4.9z"/>
	</g>
	<path class="st2" d="M41,6.6V1h-7.2v5.6H17.6h-0.4h-6.2L1.4,37h6.1c0,0,0,0,0,0c11.9,0,23.8,0,35.7,0l2.4-7.9h0l7.1-22.4H41z"/>
</g>
<path class="st3" d="M31.5,44.7c-6.6,0-17.1-1-29-6.7c3,4.1,6.2,8.3,9.8,12.6c4,4.8,7.9,9.1,11.7,12.9c2.5,12.5,5,25,7.5,37.5
	c2.5-12.5,5-25,7.5-37.5c3.8-3.8,7.7-8.1,11.7-12.9c3.6-4.3,6.8-8.5,9.8-12.6C48.6,43.7,38,44.7,31.5,44.7z"/>
</svg>
