<?xml version="1.0" encoding="utf-8"?>
<!-- Generator: Adobe Illustrator 22.0.1, SVG Export Plug-In . SVG Version: 6.00 Build 0)  -->
<svg version="1.1" xmlns="http://www.w3.org/2000/svg" xmlns:xlink="http://www.w3.org/1999/xlink" x="0px" y="0px"
	 viewBox="0 0 80 80" style="enable-background:new 0 0 80 80;" xml:space="preserve">
<style type="text/css">
	.st0{display:none;}
	.st1{display:inline;}
	.st2{fill:#FFFFFF;}
	.st3{fill:#C1272D;}
	.st4{fill:#444442;}
	.st5{fill:#FCD421;stroke:#FFFFFF;stroke-miterlimit:10;}
	.st6{fill:#29ABE2;}
</style>
<g id="Capa_2" class="st0">
	<rect class="st1" width="80" height="80"/>
</g>
<g id="Capa_4">
	<polygon class="st2" points="63.5,15.5 63.5,75.5 8.5,75.5 8.5,3 51,3 	"/>
	<path class="st3" d="M28.6,13H16.4c-0.8,0-1.4-0.6-1.4-1.4v-0.2c0-0.8,0.6-1.4,1.4-1.4h12.2c0.8,0,1.4,0.6,1.4,1.4v0.2
		C30,12.4,29.4,13,28.6,13z"/>
	<g>
		<path class="st4" d="M56.5,18h-41c-0.3,0-0.5-0.2-0.5-0.5l0,0c0-0.3,0.2-0.5,0.5-0.5h41c0.3,0,0.5,0.2,0.5,0.5l0,0
			C57,17.8,56.8,18,56.5,18z"/>
		<path class="st4" d="M56.5,23h-41c-0.3,0-0.5-0.2-0.5-0.5l0,0c0-0.3,0.2-0.5,0.5-0.5h41c0.3,0,0.5,0.2,0.5,0.5l0,0
			C57,22.8,56.8,23,56.5,23z"/>
		<path class="st4" d="M56.5,28h-41c-0.3,0-0.5-0.2-0.5-0.5l0,0c0-0.3,0.2-0.5,0.5-0.5h41c0.3,0,0.5,0.2,0.5,0.5l0,0
			C57,27.8,56.8,28,56.5,28z"/>
		<path class="st4" d="M56.5,33h-41c-0.3,0-0.5-0.2-0.5-0.5l0,0c0-0.3,0.2-0.5,0.5-0.5h41c0.3,0,0.5,0.2,0.5,0.5l0,0
			C57,32.8,56.8,33,56.5,33z"/>
		<path class="st4" d="M56.5,38h-41c-0.3,0-0.5-0.2-0.5-0.5l0,0c0-0.3,0.2-0.5,0.5-0.5h41c0.3,0,0.5,0.2,0.5,0.5l0,0
			C57,37.8,56.8,38,56.5,38z"/>
		<path class="st4" d="M56.5,43h-41c-0.3,0-0.5-0.2-0.5-0.5l0,0c0-0.3,0.2-0.5,0.5-0.5h41c0.3,0,0.5,0.2,0.5,0.5l0,0
			C57,42.8,56.8,43,56.5,43z"/>
		<path class="st4" d="M56.5,48h-41c-0.3,0-0.5-0.2-0.5-0.5l0,0c0-0.3,0.2-0.5,0.5-0.5h41c0.3,0,0.5,0.2,0.5,0.5l0,0
			C57,47.8,56.8,48,56.5,48z"/>
		<path class="st4" d="M56.5,53h-41c-0.3,0-0.5-0.2-0.5-0.5l0,0c0-0.3,0.2-0.5,0.5-0.5h41c0.3,0,0.5,0.2,0.5,0.5l0,0
			C57,52.8,56.8,53,56.5,53z"/>
	</g>
	<path class="st3" d="M41,60H29c-0.5,0-1-0.5-1-1l0,0c0-0.5,0.4-1,1-1h12c0.5,0,1,0.5,1,1l0,0C42,59.5,41.5,60,41,60z"/>
	<circle class="st5" cx="62" cy="62" r="17"/>
	<path class="st6" d="M61,67c0,0.1,0.3,0.8,1,1c0.7,0.2,1.6-0.2,2-1c0.7-5.3,1.3-10.7,2-16c-0.5-1.8-2.2-3-4-3c-1.8,0-3.5,1.2-4,3
		C59,56.3,60,61.7,61,67z"/>
	<circle class="st6" cx="63" cy="73" r="3"/>
</g>
</svg>
