<?xml version="1.0" encoding="utf-8"?>
<!-- Generator: Adobe Illustrator 22.0.1, SVG Export Plug-In . SVG Version: 6.00 Build 0)  -->
<svg version="1.1" id="Capa_1" xmlns="http://www.w3.org/2000/svg" xmlns:xlink="http://www.w3.org/1999/xlink" x="0px" y="0px"
	 viewBox="0 0 981.2 764.9" style="enable-background:new 0 0 981.2 764.9;" xml:space="preserve">
<style type="text/css">
	.st0{fill:#88BF57;}
	.st1{fill:#EEAE4A;}
	.st2{fill:#A36F3F;}
	.st3{fill:#426B1C;}
	.st4{fill:#ED4032;}
	.st5{fill:#DAE7EF;}
	.st6{fill:#FFFFFF;}
	.st7{fill:#B33023;}
	.st8{fill:#8B251C;}
	.st9{fill:#ECBCB8;}
	.st10{fill:#44100E;}
</style>
<path class="st0" d="M612.5,242.2c2.9-9.6,5.6-21.8,6.7-36c1.4-18.5-0.4-34.3-2.7-46c-2.6-6.5-8-17.6-18.7-28
	c-10-9.7-20.3-14.8-26.7-17.3c-0.1-3-1-18.6-14-30.7c-14.3-13.3-32-11.6-34.7-11.3c0-1.3-1.1-19.5-16.7-28.7
	c-12.1-7.1-27.8-5.8-39.3,3.3c-13.4-9.6-30.7-10.3-43.3-2c-13.8,9.1-15.8,25-16,27.3c-16.4-0.9-31.5,7.2-38.7,20.7
	c-7.6,14.3-2.9,28.6-2,31.3c-24.7,1.1-45.3,16.1-51.3,36.7c-5.4,18.6,3.1,34.8,5.3,38.7c-10,5.9-16.2,16.6-16,28
	c0.2,15.5,12,24.4,13.3,25.3c31.6,45.6,63.1,91.1,94.7,136.7c68.9-12.4,137.8-24.9,206.7-37.3C617,316,614.7,279.1,612.5,242.2z"/>
<path class="st1" d="M550.5,648.6c-48.5-17.5-37-172.8,25.8-346.8c16.9-46.9,36.6-93,59.8-137.1c18.2-34.7,38.6-68.8,63.5-99.1
	c14.7-17.8,30.9-36.2,52.8-45.1c8.3-3.4,17.9-5.2,26.3-1.8c6.5,2.6,11.5,8.1,15.2,14c11.4,18,13,40.1,13.6,60.8
	c0.6,17.9-0.4,35.8-2.3,53.6c-4.6,45.6-14.5,90.6-26.7,134.7c-7.8,28.1-16.7,55.9-26.6,83.4C689.2,539.2,599,666.1,550.5,648.6z"/>
<path class="st2" d="M682,136.8c-1.4,3.5-2,7.2-1.3,10.9c1.7,7.8,9.8,11.9,17,8.3c6-3,8.4-10.4,13.8-14.4c6.8-5,16.3-2.2,24.7-1.1
	c15.6,2,32.6-3.4,42.5-15.7c5.1-6.4,7.9-16.4,2.4-22.4c-4.5-4.9-12.9-4.6-17.8-0.2c-3.8,3.4-5.7,8.7-9.8,11.9
	c-7,5.5-17.1,2.7-25.9,1.5c-16.6-2.3-35.6,3.4-43.9,18C683,134.6,682.4,135.7,682,136.8z"/>
<path class="st2" d="M651,220.4c-1.6,3.9-2.3,8.1-1.4,12.2c1.9,8.8,11.3,13.4,19.6,9.3c7-3.4,9.7-11.7,15.9-16.1
	c7.9-5.6,18.8-2.5,28.5-1.2c18,2.3,37.5-3.8,48.9-17.6c5.9-7.2,9.1-18.4,2.7-25.1c-5.1-5.4-14.9-5.1-20.5-0.2
	c-4.4,3.8-6.6,9.7-11.3,13.3c-8.1,6.2-19.7,3-29.9,1.7c-19.2-2.6-41,3.8-50.6,20.1C652.2,217.9,651.5,219.2,651,220.4z"/>
<path class="st2" d="M622,304.9c-1.6,3.9-2.3,8.1-1.4,12.2c1.9,8.8,11.3,13.4,19.6,9.3c7-3.4,9.7-11.7,15.9-16.1
	c7.9-5.6,18.8-2.5,28.5-1.2c18,2.3,37.5-3.8,48.9-17.6c5.9-7.2,9.1-18.4,2.7-25.1c-5.1-5.4-14.9-5.1-20.5-0.2
	c-4.4,3.8-6.6,9.7-11.3,13.3c-8.1,6.2-19.7,3-29.9,1.7c-19.2-2.6-41,3.8-50.6,20.1C623.2,302.4,622.5,303.7,622,304.9z"/>
<path class="st3" d="M242.2,222.4c8.3,1,25.4,4.1,42.5,16.5c14.2,10.3,22.1,22.4,26,29.5c-7.5,5-15,10-22.5,15
	c-2.2-5.3-9.2-20-25.5-29c-7.9-4.3-15.3-5.9-20.5-6.5c-8,0.4-14.4-6.3-14-13.5C228.6,227.7,234.8,222,242.2,222.4z"/>
<path class="st4" d="M435.2,357.4c2.5-9.7,2.8-25,0-39.5c-1.2-6.4-6.2-28.5-24.5-49.5c-1.8-2-23.9-26.7-49-30.5
	c-3.5-0.5-6.2-0.5-7-0.5c-14.8,0.2-25.9,8.2-31.5,13c-2.9,3.2-7,7.4-12.5,11.5c-1.5,1.1-5.6,4.1-12,7.5c-6.2,3.3-16.2,7.8-30,11
	c-3.4,0.8-7.5,2.1-12,4c-0.8,0.3-5.8,2.6-11,6c-1.6,1.1-14.5,9.8-20,20c-10.9,20.2,6.2,47.3,7,48.5c25.3,19.7,50.7,39.3,76,59
	C374.7,417.7,426.4,391.4,435.2,357.4z"/>
<g>
	<g>
		<path class="st5" d="M621.9,387.3c-12.8,5-26.8,9.8-41.9,14.3c-18.4,5.4-35.7,9.3-51.5,12.2c-0.2-1.7-0.5-3.3-0.7-5
			c-28.9,0.3-57.8,0.7-86.7,1c-5.2-32.9-10.3-65.8-15.5-98.7c-2.3-7.3-4.6-19.4-0.3-32.1c3.5-10.2,11.5-21.7,19.9-27.6
			c0,0,4.5-3.1,9.4-8.3c4.6-4.8,5.4-7,5.7-8.6c1-4.9-1.4-9-2-9.9c-2.6-4.4-6.7-6.2-8-6.6c19.7-5.4,35.5-9.4,48.3-12.2
			c0.4,2.8,0.8,5.5,1.3,8.3c12.9-1.6,29.2-3.1,49.5-4.6c-1.1,0.9-4.3,3.9-5.3,8.9c-0.2,1.1-1.1,5.7,1.4,10c0.8,1.4,2.3,3.2,8.2,6.2
			c6.4,3.2,11.6,4.7,11.6,4.7c9.9,2.7,21.3,10.9,28,19.4c8.3,10.6,10.1,22.8,10.4,30.4C609.8,321.8,615.8,354.5,621.9,387.3z"/>
	</g>
</g>
<path class="st6" d="M550.2,210.2l-104.8,12.5c-11.4,1.4-21.8-6.8-23.2-18.2v0c-1.4-11.4,6.8-21.8,18.2-23.2l104.8-12.5
	c11.4-1.4,21.8,6.8,23.2,18.2v0C569.8,198.5,561.7,208.8,550.2,210.2z"/>
<g>
	<rect x="166.2" y="358.9" class="st7" width="681" height="74"/>
	<path class="st8" d="M824.4,455.2c-211.7-0.4-423.5-0.9-635.2-1.3c-1.4-7-2.9-14-4.3-21h643.6C827.1,440.3,825.8,447.8,824.4,455.2
		z"/>
	<path class="st8" d="M867.5,358.6c-114.2,22.6-228.3,45.2-342.5,67.8c-19.7,3.9-38.6-7.9-42.2-26.4l-0.2-0.9
		c-3.6-18.4,9.3-36.5,29-40.4l348.8-68.9L867.5,358.6z"/>
	<path class="st8" d="M718.6,748.3c-140.2-0.1-280.4-0.3-420.6-0.4c-37.9,0-70.1-27.7-75.8-65.1l-38.1-249.9h644
		c-12.1,84-24.2,168.1-36.4,252.1C786.6,721.4,755.4,748.4,718.6,748.3z"/>
	<path class="st7" d="M706.5,717.6c-55.2-0.3-110.4-0.5-165.6-0.8c-89.3-0.5-178.5-1-267.8-1.5c-10.1,1-28,1.1-40.2-10.3
		c-9.3-8.7-10.4-19.5-13.7-43.8c-3.7-27.5-8.3-54.8-12.4-82.2c-3.1-20.6-6.2-41.1-9.3-61.7c-0.8-5.2-7.8-60.8-9.2-60.8
		c203.4,0.3,406.7,0.5,610.1,0.8c-10.4,66.6-20.7,133.1-31.1,199.7c-1.6,10-7.1,25.6-20.7,39.3C732.9,710,716.6,715.3,706.5,717.6z"
		/>
	<path class="st9" d="M373.2,461.9c14,0.2,28,0.4,42,0.7c0,10.2,0,20.4,0,30.7c-14.2,0-28.4,0-42.7,0
		C372.7,482.8,373,472.4,373.2,461.9z"/>
	<path class="st9" d="M487.2,461.9c14,0.2,28,0.4,42,0.7c0,10.2,0,20.4,0,30.7c-14.2,0-28.4,0-42.7,0
		C486.7,482.8,487,472.4,487.2,461.9z"/>
	<path class="st9" d="M603.8,461.9c14,0.2,28,0.4,42,0.7c0,10.2,0,20.4,0,30.7c-14.2,0-28.4,0-42.7,0
		C603.4,482.8,603.6,472.4,603.8,461.9z"/>
	<path class="st9" d="M383.8,561.2c13.1,0.2,26.3,0.4,39.4,0.7c0,10.2,0,20.4,0,30.7c-13.3,0-26.7,0-40,0
		C383.4,582.1,383.6,571.7,383.8,561.2z"/>
	<path class="st9" d="M487.1,561.2c13,0.2,26,0.4,39,0.7c0,10.2,0,20.4,0,30.7c-13.2,0-26.4,0-39.7,0
		C486.7,582.1,486.9,571.7,487.1,561.2z"/>
	<path class="st9" d="M595.8,561.2c13.6,0.2,27.1,0.4,40.7,0.7c0,10.2,0,20.4,0,30.7c-13.8,0-27.6,0-41.3,0
		C595.4,582.1,595.6,571.7,595.8,561.2z"/>
	<path class="st9" d="M703.8,561.2c13.1,0.2,26.3,0.4,39.4,0.7c-1.7,10-3.3,20-5,30c-11.7,0.2-23.3,0.4-35,0.7
		C703.4,582.1,703.6,571.7,703.8,561.2z"/>
	<path class="st9" d="M260.1,461.9c13.1,0.2,26.3,0.4,39.4,0.7c0,10.2,0,20.4,0,30.7c-11.9-0.1-23.7-0.1-35.6-0.2
		C262.7,482.7,261.4,472.3,260.1,461.9z"/>
	<path class="st9" d="M400.1,656.3c11.5,0.2,23,0.4,34.5,0.7c0,10.2,0,20.4,0,30.7c-11.7,0-23.3,0-35,0
		C399.7,677.1,399.9,666.7,400.1,656.3z"/>
	<path class="st9" d="M490.4,656.3c11.5,0.2,23,0.4,34.5,0.7c0,10.2,0,20.4,0,30.7c-11.7,0-23.3,0-35,0
		C490,677.1,490.2,666.7,490.4,656.3z"/>
	<path class="st9" d="M583.1,656.3c11.5,0.2,23,0.4,34.5,0.7c0,10.2,0,20.4,0,30.7c-11.7,0-23.3,0-35,0
		C582.7,677.1,582.9,666.7,583.1,656.3z"/>
	<path class="st9" d="M276.1,561.2c13.1,0.2,26.3,0.4,39.4,0.7c0,10.2,0,20.4,0,30.7c-11.9-0.1-23.7-0.1-35.6-0.2
		C278.7,582,277.4,571.6,276.1,561.2z"/>
	<path class="st9" d="M291.1,656.3c13.1,0.2,26.3,0.4,39.4,0.7c0,10.2,0,20.4,0,30.7c-11.9-0.1-23.7-0.1-35.6-0.2
		C293.7,677,292.4,666.6,291.1,656.3z"/>
	<path class="st9" d="M720.3,461.9c13.1,0.2,26.3,0.4,39.4,0.7c-1.7,10-3.3,20-5,30c-11.7,0.2-23.3,0.4-35,0.7
		C719.9,482.8,720.1,472.4,720.3,461.9z"/>
	<path class="st9" d="M688.3,656.3c13.1,0.2,26.3,0.4,39.4,0.7c-1.7,10-3.3,20-5,30c-11.7,0.2-23.3,0.4-35,0.7
		C687.9,677.1,688.1,666.7,688.3,656.3z"/>
</g>
<circle class="st10" cx="519.2" cy="392.9" r="18.5"/>
</svg>
