<?xml version="1.0" encoding="utf-8"?>
<!-- Generator: Adobe Illustrator 22.0.1, SVG Export Plug-In . SVG Version: 6.00 Build 0)  -->
<svg version="1.1" xmlns="http://www.w3.org/2000/svg" xmlns:xlink="http://www.w3.org/1999/xlink" x="0px" y="0px"
	 viewBox="0 0 80 80" style="enable-background:new 0 0 80 80;" xml:space="preserve">
<style type="text/css">
	.st0{display:none;}
	.st1{display:inline;}
	.st2{fill:#9C2F1E;}
	.st3{fill:#DCDCDC;}
	.st4{fill:#F2F2F2;}
	.st5{fill:#CF3017;}
	.st6{opacity:0.11;}
	.st7{fill:#E5BF00;}
	.st8{fill:#FFFFFF;}
	.st9{fill:#E5BF00;stroke:#FFFFFF;stroke-width:0.75;stroke-miterlimit:10;}
</style>
<g id="Capa_2" class="st0">
	<rect class="st1" width="80" height="80"/>
</g>
<g id="Capa_4">
	<g>
		<path class="st2" d="M68.2,40.9H11.9c-2.5,0-4.6-2.1-4.6-4.6V18.1c0-2.8,2.3-5.1,5.1-5.1h55.7c2.5,0,4.6,2.1,4.6,4.6v18.8
			C72.7,38.9,70.7,40.9,68.2,40.9z"/>
		<path class="st3" d="M12.2,38.2h53.1c1.8,0,3.3-1.5,3.3-3.3V22.2c0-1.8-1.5-3.3-3.3-3.3H12.2c-1.8,0-3.3,1.5-3.3,3.3v12.8
			C8.9,36.8,10.3,38.2,12.2,38.2z"/>
		<path class="st4" d="M15.3,42.5h53.1c1.8,0,3.3-1.5,3.3-3.3V26.5c0-1.8-1.5-3.3-3.3-3.3H15.3c-1.8,0-3.3,1.5-3.3,3.3v12.7
			C12,41.1,13.5,42.5,15.3,42.5z"/>
		<path class="st5" d="M77.9,34.3c-0.6,4.4-1.1,8.8-1.7,13.2c-0.9,6.1-1.8,12.1-2.7,18.2c-0.2,1.2-0.7,2.3-1.5,3.2
			c-1.1,1.3-2.8,2.1-4.6,2.1H12.7c-0.4,0-0.8,0-1.2-0.1c-0.2,0-0.3-0.1-0.5-0.1c-2.2-0.6-3.9-2.4-4.4-4.7c0,0,0-0.1,0-0.1
			c0-0.2-0.1-0.3-0.1-0.5L1.9,28.7c-0.5-3.7,2.4-7.1,6.1-7.1h15.2l9.5,6.4H72c0.2,0,3.2-0.3,5,2.1C78.2,31.9,78,33.9,77.9,34.3z"/>
		<path class="st6" d="M77.9,34.3c-0.6,4.4-1.1,8.8-1.7,13.2c-0.9,6.1-1.8,12.1-2.7,18.2c-0.2,1.2-0.7,2.3-1.5,3.2
			c-1.1,1.3-2.8,2.1-4.6,2.1H12.7c-0.2,0-0.3,0-0.5,0C28.5,56.7,44.8,42.4,61.1,28H72c0.2,0,3.2-0.3,5,2.1
			C78.2,31.9,78,33.9,77.9,34.3z"/>
		<g>
			<g>
				<polygon class="st7" points="56.7,58.5 53.2,48.7 54.8,42.3 60.6,58.5 				"/>
				<path class="st8" d="M54.8,43.6l5.2,14.5H57l-3.4-9.4L54.8,43.6 M54.7,41l-0.6,2.4l-1.3,5.1l-0.1,0.2l0.1,0.2l3.4,9.4l0.2,0.5
					H57h3.1h1.1l-0.4-1l-5.2-14.5L54.7,41L54.7,41z"/>
			</g>
			<path class="st9" d="M46.2,40v-3.3h-4.9V40h-11H30h-4.2l-6.5,18.1h4.1c0,0,0,0,0,0c8.1,0,16.2,0,24.2,0l1.7-4.7h0L54.2,40H46.2z"
				/>
		</g>
	</g>
</g>
</svg>
