<?xml version="1.0" encoding="utf-8"?>
<!-- Generator: Adobe Illustrator 22.0.1, SVG Export Plug-In . SVG Version: 6.00 Build 0)  -->
<svg version="1.1" id="Capa_1" xmlns="http://www.w3.org/2000/svg" xmlns:xlink="http://www.w3.org/1999/xlink" x="0px" y="0px"
	 viewBox="0 0 568 568" style="enable-background:new 0 0 568 568;" xml:space="preserve">
<style type="text/css">
	.st0{fill:#CCCCCC;}
	.st1{fill:#FFFFFF;}
	.st2{fill:#FBB03B;}
</style>
<g>
	<g>
		<path class="st0" d="M284,554c-37.9,0-74.6-7.7-109-22.9c-33.2-14.7-62.8-35.6-87.7-62.2c-2.7-2.9-5.5-5.9-8.2-9.1
			c-1-1.1-1.9-2.2-2.8-3.3C36.1,408.2,14,346.9,14,284c0-72.1,28.1-139.9,79.1-190.9S211.9,14,284,14s139.9,28.1,190.9,79.1
			S554,211.9,554,284c0,61.9-21.5,122.5-60.6,170.4c-0.8,1-1.6,1.9-2.4,2.9c-2,2.3-4,4.7-6,6.9c-25,27.9-55,50-89.1,65.5
			C360.7,545.8,323,554,284,554z"/>
		<path class="st1" d="M284,28c141.4,0,256,114.6,256,256c0,61.3-21.5,117.5-57.4,161.6c-0.7,0.9-1.5,1.8-2.3,2.7
			c-1.9,2.2-3.8,4.4-5.7,6.6C427.8,507.1,359.7,540,284,540c-73.5,0-139.9-31-186.5-80.7c-2.6-2.8-5.2-5.7-7.7-8.6
			c-0.9-1-1.8-2.1-2.7-3.2C50.2,403.2,28,346.2,28,284C28,142.6,142.6,28,284,28 M284,0c-38.3,0-75.5,7.5-110.6,22.3
			c-33.8,14.3-64.2,34.8-90.3,60.9s-46.5,56.4-60.9,90.3C7.5,208.5,0,245.7,0,284c0,33.7,5.9,66.7,17.4,98.1
			c11.2,30.3,27.3,58.4,48.1,83.3c0.9,1.1,1.8,2.2,3,3.5c2.8,3.3,5.7,6.5,8.6,9.6c26.3,28,57.3,50,92.3,65.4
			c36.2,16,74.8,24.1,114.7,24.1c41.1,0,80.7-8.6,117.8-25.5c35.8-16.3,67.3-39.5,93.7-68.9c2.1-2.3,4.2-4.8,6.3-7.3
			c0.8-0.9,1.6-2,2.5-3.1c20.2-24.8,35.9-52.5,46.8-82.5c11.2-31,16.9-63.6,16.9-96.8c0-38.3-7.5-75.5-22.3-110.6
			c-14.3-33.8-34.8-64.2-60.9-90.3c-26.1-26.1-56.4-46.5-90.3-60.9C359.5,7.5,322.3,0,284,0L284,0z"/>
	</g>
	<path class="st2" d="M474.6,454.9C427.8,507.1,359.7,540,284,540c-73.5,0-139.9-31-186.5-80.7c-3.8-35.5,26.1-79.2,43.3-83.9
		c2.1-0.6,15.8-3.8,27.7-13.8c0.8-0.6,1.4-1.2,2.3-2c7-6.8,10.8-16.7,12.2-26.5c2.5-17.5-1.4-35.2-3.2-52.5
		c-2.3-22.1-3.6-44.4-2.9-66.6c0.4-14.4,0.8-24,3.8-37c2.8-11.9,7.5-31.4,22.8-50c5.9-7.1,12.4-13.8,19.9-19.1
		c15-10.4,35.4-13.2,53.2-14.3c18.2-1.1,36.5,0.8,54,5.8c15.2,4.3,28.4,15.6,38.2,27.6c15.3,18.6,20,38.1,22.8,50
		c3,13,3.3,22.6,3.8,37c0.7,22.2-0.6,44.5-2.9,66.6c-1.8,17.4-5.7,35-3.2,52.5c1.4,9.8,5.2,19.7,12.2,26.5c0.7,0.7,1.5,1.4,2.3,2
		c8.2,6.6,18.5,9,27.6,13.8C446.3,383.3,475.1,421.3,474.6,454.9z"/>
	<path class="st1" d="M376,241c-0.2,4.2-1.5,8.2-2.8,12.1c-2.2,6.5-6.4,21.4-15.1,21.9c-1.7,0.1-3.1-0.5-4-1
		c1.1,0.6-1.5,10.3-1.8,11.3c-1.1,3.7-3,7.3-4.8,10.7c-3.9,7.4-8.8,14.3-14.4,20.5c-12,13.2-29.9,27.5-48.4,27.5h-0.3
		c-18.6,0-36.5-14.3-48.4-27.5c-5.6-6.2-10.4-13.1-14.3-20.5c-1.8-3.4-3.6-7-4.8-10.7c-0.3-1-2.9-10.7-1.8-11.3
		c-0.9,0.5-2.3,1.1-4,1c-8.7-0.4-12.9-15.4-15.1-21.9c-1.3-3.9-2.6-8-2.8-12.1c-0.2-4.3,1.1-11.4,5.9-13c3.3-1.1,6.7,1.1,8,2
		c-1.6-15.3,3.9-32.3,15.7-42.7c13.8-12.1,37.9-12.8,55.4-13.3c20.5-0.7,52.1-1,68.4,13.3c11.7,10.3,17.2,27.3,15.7,42.7
		c1.3-0.9,4.7-3.1,8-2C374.8,229.6,376.2,236.7,376,241z"/>
	<path class="st2" d="M222,187c1.5-1.5,5.9-5.7,13-7c7.4-1.4,13.1,1.1,15,2c21.4,11.5,38.9,20.9,51.5,27.8c17,9.2,25.5,14,26.3,14.4
		c7.1,3.9,14.1,8.8,21.5,12.1c2.2,1,4.6,1.7,6.9,1.3c3.3-0.6,6.1-3.4,7.7-6.2c2.8-4.9,4.1-11.4,5.3-16.9c1.2-5.3,2.3-11,1.8-16.5
		c-2.2-25.5-51.6-56.9-99-52c-21.6,2.2-52.5,13-54,29C217.6,179.6,219.6,183.7,222,187z"/>
</g>
</svg>
