<?xml version="1.0" encoding="utf-8"?>
<!-- Generator: Adobe Illustrator 22.0.1, SVG Export Plug-In . SVG Version: 6.00 Build 0)  -->
<svg version="1.1" id="Capa_1" xmlns="http://www.w3.org/2000/svg" xmlns:xlink="http://www.w3.org/1999/xlink" x="0px" y="0px"
	 viewBox="0 0 568 568" style="enable-background:new 0 0 568 568;" xml:space="preserve">
<style type="text/css">
	.st0{fill:#FBB03B;}
	.st1{fill:#00A9A9;}
	.st2{fill:#FFFFFF;}
	.st3{fill:#FCEE21;}
</style>
<g>
	<path class="st0" d="M475.2,293.5H94.9c-21.9,0-39.7,17.8-39.7,39.7v214c0,4,3.2,7.3,7.3,7.3h444.4c3.8,0,6.8-3.1,6.8-6.8V332
		C513.7,310.8,496.5,293.5,475.2,293.5z"/>
	<path class="st1" d="M513.7,330.1V423c-21.5-3.5-34.8-20.3-54.2-28.6c-13.8-5.9-30-5.9-43.7,0.1c-10.5,4.6-19.3,12.2-28.9,18.5
		c-9.6,6.2-21,11.2-32.3,9.2c-14.1-2.5-24-14.7-36-22.4c-18.2-11.7-42.8-12.8-61.9-2.6c-9.6,5.1-17.7,12.7-26.9,18.5
		c-9.2,5.8-20.6,9.7-31,6.4c-9.2-2.9-15.8-10.9-23.3-17c-21-17-52.6-19.2-75.8-5.5C84.7,408.5,73.6,423,55.3,424v-92.8
		c0-20.8,16.9-37.7,37.7-37.7h384.2C497.3,293.5,513.7,309.9,513.7,330.1z"/>
	<path class="st2" d="M55.3,424c18.3-1,29.4-15.5,44.4-24.3c23.2-13.8,54.8-11.5,75.8,5.5c7.5,6.1,14.1,14.1,23.3,17
		c10.4,3.3,21.8-0.7,31-6.4s17.3-13.4,26.9-18.5c19.1-10.2,43.7-9.2,61.9,2.6c12,7.7,21.9,20,36,22.4c11.3,2,22.7-3,32.3-9.2
		s18.4-13.9,28.9-18.5c13.7-6,30-6,43.7-0.1c19.3,8.3,32.6,25.1,54.2,28.6c0,10.7,0,21.4,0,32.2c-14.5,1.9-26.4-2.3-37.8-11.4
		c-8.3-6.6-16.1-14.4-26.1-17.9c-9.2-3.2-19.7-2.4-28.3,2.2c-6.9,3.7-12.3,9.5-18.5,14.2c-22.5,17.1-56,18.1-79.5,2.3
		c-11.7-7.9-22.1-19.8-36.2-20.7c-16.9-1-29.6,14.1-43.9,23.1c-21.1,13.2-49.9,12.8-70.7-0.9c-14.3-9.4-27.2-25.3-44.2-23.4
		c-13.1,1.4-22.3,12.9-32.9,20.7c-11.4,8.4-26.3,13.6-40.4,11.7C55.3,444.8,55.3,434.4,55.3,424z"/>
	<path class="st2" d="M178.6,307.7h-50.3c-4,0-7.2-3.2-7.2-7.2V153.2c0-4,3.2-7.2,7.2-7.2h50.3c4,0,7.2,3.2,7.2,7.2v147.3
		C185.7,304.5,182.5,307.7,178.6,307.7z"/>
	<path class="st2" d="M309.1,307.7h-50.4c-3.9,0-7.1-3.2-7.1-7.1V153.2c0-3.9,3.2-7.1,7.1-7.1h50.4c3.9,0,7.1,3.2,7.1,7.1v147.3
		C316.2,304.5,313,307.7,309.1,307.7z"/>
	<path class="st2" d="M440.8,307.7h-50.5c-3.9,0-7.1-3.2-7.1-7.1V153.1c0-3.9,3.2-7.1,7.1-7.1h50.5c3.9,0,7.1,3.2,7.1,7.1v147.5
		C447.9,304.5,444.7,307.7,440.8,307.7z"/>
	<path class="st3" d="M153.4,27.6c2.3-1.7,9.8,5.1,10.8,6c2.5,2.3,8.8,8.5,14.4,20.3c1.4,3,5.5,12.2,7.2,25.1c1,7.7,1.7,13.2,0,20.3
		c-0.9,3.7-3.1,12.3-10.8,19.2c-5.7,5.1-11.7,6.8-13.2,7.2c-6.7,1.7-12.4,0.8-15.6,0c-9.6-2.5-15-8.7-16.8-10.8
		c-1.2-1.4-5.3-6.5-7.2-14.4c-0.7-3-2.2-9.4,0-16.8c2.3-7.8,7.7-12.8,12-16.8c4.2-3.9,5.6-4,9.6-8.4c4.7-5.2,6.6-9.4,7.2-10.8
		c0.7-1.7,1.9-4.5,2.4-8.4C154.3,32.4,151.9,28.7,153.4,27.6z"/>
	<path class="st3" d="M283.9,27.6c2.3-1.7,9.8,5.1,10.8,6c2.5,2.3,8.8,8.5,14.4,20.3c1.4,3,5.5,12.2,7.2,25.1c1,7.7,1.7,13.2,0,20.3
		c-0.9,3.7-3.1,12.3-10.8,19.2c-5.7,5.1-11.7,6.8-13.2,7.2c-6.7,1.7-12.4,0.8-15.6,0c-9.6-2.5-15-8.7-16.8-10.8
		c-1.2-1.4-5.3-6.5-7.2-14.4c-0.7-3-2.2-9.4,0-16.8c2.3-7.8,7.7-12.8,12-16.8c4.2-3.9,5.6-4,9.6-8.4c4.7-5.2,6.6-9.4,7.2-10.8
		c0.7-1.7,1.9-4.5,2.4-8.4C284.8,32.4,282.4,28.7,283.9,27.6z"/>
	<path class="st3" d="M414.4,27.6c2.3-1.7,9.8,5.1,10.8,6c2.5,2.3,8.8,8.5,14.4,20.3c1.4,3,5.5,12.2,7.2,25.1c1,7.7,1.7,13.2,0,20.3
		c-0.9,3.7-3.1,12.3-10.8,19.2c-5.7,5.1-11.7,6.8-13.2,7.2c-6.7,1.7-12.4,0.8-15.6,0c-9.6-2.5-15-8.7-16.8-10.8
		c-1.2-1.4-5.3-6.5-7.2-14.4c-0.7-3-2.2-9.4,0-16.8c2.3-7.8,7.7-12.8,12-16.8c4.2-3.9,5.6-4,9.6-8.4c4.7-5.2,6.6-9.4,7.2-10.8
		c0.7-1.7,1.9-4.5,2.4-8.4C415.3,32.4,412.8,28.7,414.4,27.6z"/>
</g>
</svg>
