<?xml version="1.0" encoding="utf-8"?>
<!-- Generator: Adobe Illustrator 22.0.1, SVG Export Plug-In . SVG Version: 6.00 Build 0)  -->
<svg version="1.1" id="Capa_1" xmlns="http://www.w3.org/2000/svg" xmlns:xlink="http://www.w3.org/1999/xlink" x="0px" y="0px"
	 viewBox="0 0 981.2 764.9" style="enable-background:new 0 0 981.2 764.9;" xml:space="preserve">
<style type="text/css">
	.st0{fill:#C8FF9B;}
	.st1{fill:#302019;}
	.st2{fill:#515321;}
	.st3{fill:#72792E;}
	.st4{fill:#84822F;}
	.st5{fill:#707487;}
	.st6{fill:#FFDCA0;}
	.st7{fill:#D2B98F;}
	.st8{fill:#A1937B;}
	.st9{fill:#374045;}
	.st10{fill:#474747;stroke:#212121;stroke-width:3;stroke-miterlimit:10;}
	.st11{fill:#FFF5BA;stroke:#212121;stroke-width:4;stroke-miterlimit:10;}
	.st12{fill:#C18338;}
	.st13{fill:#4E342E;}
	.st14{fill:#E8A752;}
	.st15{fill:none;stroke:#131D2E;stroke-width:3;stroke-linecap:round;stroke-miterlimit:10;}
	.st16{fill-rule:evenodd;clip-rule:evenodd;fill:#36404D;}
	.st17{fill:#8BB7F0;}
	.st18{fill:#4F79BF;}
</style>
<ellipse class="st0" cx="492.8" cy="655.7" rx="486" ry="110.2"/>
<g>
	<path class="st1" d="M98.6,315.7c-0.2-0.1-0.5-0.2-0.7-0.2c-3.2-0.5-6.7,2.9-8.6,4.7c-0.6,0.6,9.1,13.2,10.3,14.7
		c3.7,4.6,7.7,9.1,11.9,13.4c8.4,8.7,17.6,16.8,27.4,24.3c3.7,2.9,7.6,5.6,12,7.4c6.5,2.6,13.6,3.7,20.2,6.1
		c7,2.6,13.9,5.5,20.5,8.8c13.1,6.5,25.4,14.4,36.6,23.4c4.2,3.4,8.3,7,11.3,11.3c4.1,5.9,5.9,12.8,6.4,19.7
		c0.8,12.9-1.9,26.3-2.8,39.2c-0.9,13.4-1.8,26.8-2.7,40.3c-2.2,34.4-3.3,68.9-6.2,103.2c-1.4,15.8-2.7,31.6-4.2,47.4
		c-0.1,0.6-0.1,1.3,0.2,1.8c0.3,0.5,0.8,0.8,1.3,1c12.1,6.5,27.9,6.9,40.4,1.1c0.6-0.3,1.1-0.6,1.5-1c0.4-0.5,0.4-1.2,0.4-1.8
		c0.3-44.3,0.6-88.6,0.8-132.9c0.1-22.5,0.3-44.9,0.4-67.4c0.1-21.4-1.3-43.2,1.2-64.5c1.6-13.6,3.7-29.8,11.4-41.8
		c2.7-4.3,6.6-7.8,10.5-11.2c7.2-6.4,14.4-12.8,21.5-19.3c4.1-3.7,9.8-7.6,12.8-12.3c0.9-1.5,1.9-4.4,3.8-10.2
		c1.9-5.6,2.4-8.4,2.4-11.5c0-1.9-0.1-6.5-1.6-6.8c-3.8-0.8-8.9,14.1-10.1,16.4c-3.5,6.9-8,13.5-14.3,18.6c-3.1,2.5-6.6,4.6-9,7.6
		c-1.1,1.4-2.4,3.1-4.2,2.8c-1.4-0.2-2.2-1.6-2.2-2.9c0-1.3,0.7-2.4,1.3-3.6c5.4-10.1,6.8-21.2,10.7-31.7c1.3-3.5,2.1-5.2,3.2-8.8
		c1.7-5.5,1.3-6.3,1.1-6.7c-1.2-1.9-4-1.7-12.7-2.5c-10.1-1-12.3-1.9-13.9-0.4c-1.6,1.5-0.6,6.2-0.6,8.2c-0.1,3.7-0.2,7.5-0.4,11.2
		c-0.4,7.4-1.1,14.9-2.7,22.2c-1.4,6.6-3.4,13-5.5,19.4c-0.5,1.5-1.4,3.3-3.1,3.1c-1.1-0.1-1.8-1.1-2.4-2c-2.3-3.5-5-7.2-6.8-10.9
		c-1.6-3.4-0.6-7.1-1.8-10.7c-1.5-4.8-2.5-9.7-2.5-14.6c0-3.4,0.5-6.7,0.2-10c-0.3-3.3-1.7-6.8-4.6-8.8c-2.9-2.1-7.6-2.2-10,0.4
		c-1.9,2.1-1.7,5.1-1.4,7.9c0.8,8.2,1.7,16.4,2.5,24.7c0.6,6.2,1.8,11.6,4.9,17.2c3.6,6.5,4.6,14.1,4.8,21.4c0.2,6.5-0.6,13-2,19.3
		c-1.3,5.9-3,11.7-4.8,17.5c-0.8,2.6-1.6,5.2-2.4,7.8c-0.1,0.3-0.2,0.6-0.4,0.8c-0.4,0.3-1.1,0.1-1.6-0.1
		c-6.9-3.1-12.7-7.9-18.5-12.6c-4.8-3.8-9.6-7.5-14.6-11.1c-6.7-4.8-13.5-9.4-20-14.4c-4.8-3.6-9.4-7.5-13.8-11.5
		c-4.3-3.9-8.5-8-12-12.5c-3.2-4.1-6.9-9-8.9-13.7c-0.6-1.3-0.6-2.1-1-5.2c-0.8-5.5-0.8-4.6-1-6.8c-0.3-3.4,0-3.8-0.4-8.1
		c-0.4-4.5-0.8-5.4-1.6-6.3c-1.9-1.9-4.8-1.8-5-1.8c-2.5,0.1-4,1.6-4.5,2c-1,1-1.1,1.8-2.2,6.4c-1.2,4.9-2.5,10-0.6,14.9
		c0.8,2,2.2,3.8,3.6,5.5c3.7,4.7,7.4,9.4,11.1,14.1c-0.7-0.6-1.4-1.2-2.1-1.8c1.5,2.7,3.9,4.8,5.8,7.3c1.9,2.5,3.2,5.7,1.8,8.5
		c-1.6,3.2-6.4,4.3-10.1,3.2s-6.6-3.7-9.3-6.4c-5.8-5.8-11.3-11.9-17.2-17.6c-2.1-2-4.3-4-6.2-6.2c-1.6-1.8-3-3.7-4.5-5.6
		c-2.5-3.3-5.1-6.6-7.7-9.9c-1.6-2.1-3.2-4.1-4.8-6.2C101.4,318.7,100.3,316.5,98.6,315.7z"/>
	<path class="st2" d="M178.2,324.4c3.3,4.1,6.2,8.8,10,12.5c3.1,3,7,5.3,11.3,5.7c5.7,0.5,11.3-2.6,14.9-7.1c1-1.3,2.7-4.4,4.5-4.6
		c2.1-0.2,3.9,2.8,5,4.2c4.3,5.3,10.4,8.6,16.8,10.9c3.3,1.2,6.7,2.1,10.2,1.9c5-0.2,9.7-2.5,13.4-5.9c2.1-1.9,3.5-4.4,4.9-6.7
		c1.1-1.8,2.7-6.3,5.1-3.9c3.3,3.4,7.5,6,12,7.6c5.2,1.8,10.7,2.2,16.2,2.5c2.7,0.2,5.3,0.3,7.9-0.2c4.3-0.9,8-3.9,10.7-7.4
		c2-2.6,3.4-5.6,4.7-8.6c1.7-4,3.4-0.4,5.6,1.7c2.5,2.5,5.1,4.8,7.9,7c4.3,3.4,9.6,6.5,15,5.4c3.7-0.7,6.8-3.5,8.7-6.8
		c1.9-3.3,2.7-7.1,3-10.9c0.4-4.8,0.1-9.6-1-14.3c-0.6-2.4-1.3-4.8-2.3-7c-0.9-2-2.9-3.9-2.9-6.1c5.2,2,9.5,3.4,15.3,3.3
		c5-0.1,10-0.6,14.6-2.5c4.6-1.9,8.7-5.2,10.9-9.7c3.7-7.8,0.7-17-3-24.7c-12.3-25.2-32.9-46.9-58.9-57.9
		c-40.9-17.3-79.6-2.5-121.5,13.5c-31.5,12-60,22.9-64,45C148.6,286.5,176.7,322.5,178.2,324.4z"/>
	<path class="st3" d="M39,222.8c-7.2,4.8-13.7,10.2-18.5,16.6c-1.8,2.4-3.5,5-3.8,8c-0.9,6.7,4.9,12.5,10.8,15.9
		c6.3,3.7,13.3,6.1,20.4,7.1c6.2,0.9,13-1.4,19.1,0c-1.2,3.2-6.9,6.3-9.5,9.1c-3.3,3.5-6.1,7.4-8.5,11.6c-1.9,3.3-3.5,7.2-2.6,10.9
		c0.6,2.7,2.5,4.9,4.5,6.7c5.8,5.2,13.3,7.8,20.9,9c3.4,0.5,11.2-1.6,13.4,2.1c2.4,4-2.8,9.9,3.7,13.3c1.3,0.7,2.9,0.9,4.4,1.2
		c5.5,0.8,11,1.6,16.6,1.3c4.8-0.3,9.6-1.5,14.2-2.9c4.8-1.4,9.5-3.1,13.6-5.8c3.8-2.5,5.6-7.5,9.4-9.6c2.7,4.2,2.5,10.3,3.7,15.1
		c1.3,5.2,4,10.7,9.1,12.6c5.2,1.9,11.2-0.6,14.9-4.8c3.7-4.1,5.6-9.5,7.4-14.8c2.9-8.5,5.9-17.3,5.2-26.2c-0.8-9.6,7.8-6,15.2-5.7
		c1.4,0.1,2.8,0.1,4.1-0.3c1.4-0.4,2.6-1.4,3.7-2.3c3.1-2.5,6.2-5,7.9-8.6c1.6-3.4,0.5-8,2.1-10.8c-1.2,2.2,14.8,10,16.4,10.6
		c4.9,1.9,10.9,2.3,15.1-0.9c3.1-2.5,4.6-6.4,5.6-10.3c0.5-2,1-4.1,1.3-6.2c0.2-1.8-0.6-5.4,0-7c1.5-3.6,6.8-2.2,10.1-2.2
		c5.9,0.1,11.8-3.1,14.9-8.1c2.9-4.7,5.3-13.6,9.9-5c1.5,2.9,3.8,5.3,6,7.6c1.3,1.3,2.5,2.7,4.1,3.5c1.9,1,4.1,1.3,6.2,1.3
		c3.2,0.1,17.7-3,19.6,0.5c1.1,2-7.9,14.9-8.8,17.7c-1.8,5.8-0.6,13.3,5,15.8c2.2,1,4.7,0.9,7.1,0.8c9.5-0.4,19.2-1.7,27.9-5.5
		c5.5-2.4,10.6-5.8,14.6-10.2c4.9-5.4,3.4-9,11.7-7.2c7.7,1.7,15.4,3.2,23.3,2.5c9.6-0.8,19.4-5.3,24.2-13.7
		c3.6-6.4,3.9-14.1,3.6-21.4c-0.1-2.9-0.3-5.9-1.4-8.6c-1.8-4.3-6-5.4-8.7-8.5c3.4-4.7,7.3-9,6.6-15.2c-0.4-3.9-2.5-7.4-4.9-10.5
		c-4.5-5.9-10.2-10.9-16.6-14.7c-4.3-2.6-17.1-2.7-19.5-7.3c-1.6-3.1,14.4-15.5,17.3-19.3c1.7-2.3,3.3-4.7,3.9-7.6
		c0.5-2.8-0.3-6-2.6-7.7c-1.4-1-3.1-1.4-4.7-1.7c-11.7-2-22.1,2.6-33.4,2.8c7-5.5,14.9-12.4,12.7-22.5c-0.9-4-3.3-7.5-5.7-10.8
		c-6.7-9.4-14.4-19.4-25.6-22.2c1,0.3,1.9,0.6,2.9,0.9c-3.9-1.2-7.8-2.4-11.9-2.4c-4,0-7.3,2.1-10.8,3.7c0.7-6.2,0.3-12.9-2.9-18.5
		c-3.1-5.3-9.2-9.3-15.3-8.4c-3.7,0.5-7,2.7-10.1,4.8c-10.6,7.1-21.1,14.2-32,20.8c-5.9,3.6-11.9,7.1-17.9,10.7
		c-3.7,2.2-12.6,10-16.8,10c-55,33.5-110.1,66.8-165.2,100C64.3,208.6,50.8,214.9,39,222.8z"/>
	<path class="st4" d="M56.4,212.5c-5.3,3.5-11.4,5.3-16.2,9.6c-4.9,4.4-8.6,10.7-8,17.3c0.3,3.3,1.8,6.7,4.6,8.5
		c2.5,1.6,5.6,1.8,8.5,1.8c18.7-0.1,35.6-7.2,50.5-18.1c-5.5,4.5-9.6,10.7-11.4,17.7c-0.7,2.6-1,5.5-0.3,8.1
		c0.8,2.8,2.7,5.1,4.8,7.1c5.5,4.9,13,7.5,20.3,7c3.3-0.2,6.6-1.1,9.6-2.4c2.9-1.3,6.8-6.3,9.4-6.8c4.9-1.1,7.2,5.9,10.5,8.7
		c0.6,0.5,3.5,3,8,5c2.4,1.1,6.2,2.8,11.5,3c5.6,0.2,9.8-1.3,11.5-2c3.4-1.4,8.6-3.5,11-8.5c1-2.1,0.7-5.2,3-6.4
		c2.7-1.4,7.9,1.6,11.4,0.1c4.4-1.9,6.6-6.8,8.3-11.3c2.6-6.8,5.3-14.2,3.8-21.3c-1.9-8.8,2.2-6.2,8-4.1c0,0,4.8,1.7,11,3
		c6.4,1.3,9.7,2,14,1c5.5-1.2,9.1-4.4,11-6c1.7-1.4,4.5-3.9,6.5-8c2.4-4.8,1.8-8.1,3.5-8.5c1.8-0.4,2.7,3.4,7.5,6.5
		c2.6,1.7,3.1,1.1,9.5,3.5c6.3,2.4,6.1,3.1,9.5,4c4.4,1.2,7.9,0.9,12.5,0.5c5.9-0.5,9.9-0.8,14-3.5c2.8-1.8,2.8-2.9,4.5-3
		c3.6-0.2,4.5,4.8,11.5,9c3.2,1.9,6.1,2.7,7.5,3c1.5,0.3,3.7,0.8,6.5,0.5c1.4-0.1,5.6-0.6,9-3.5c2.9-2.5,3.5-6,7.3-7.4
		c4.2-1.6,11,0.4,15.4,0.5c5.1,0.2,10.6-0.4,14.6-3.7c5.3-4.3,6.5-12.3,4.3-18.7c-2.2-6.5-7.1-11.6-12.4-15.9
		c-3.1-2.5-6.8-4.9-10.7-4.1c-7.8,1.5-2.2-5.3-0.3-8.9c1.9-3.5,2.9-7.4,3.1-11.4c0.1-2.9-0.4-6.2-2.6-8.1c-1.4-1.2-3.2-1.7-5-2.2
		c-3-0.7-14.7-1.5-16.4-3.8c-3.1-4.4,4.4-16.9,6.5-20.8c2.5-4.4,5.5-9.5,3.5-14.1c-1.8-4.3-7-5.8-11.6-6.3
		c-6.2-0.7-12.5-0.5-18.7,0.7c-7,1.3-6.1-5-5-9.5c1.8-7.5,2.8-15.1,2.2-22.8c-0.2-3.7-1-7.7-4-9.8c-3.8-2.7-9.1-0.8-13.3,1.1
		c-6.5,3-11.6,7.2-17.3,11.1c1.5-7.1,0.2-15.2-7.1-18.8c-10.3-5.1-6.4-14.5-4.2-24c1.4-6.3,1.9-13.5-2.1-18.5
		c-3.7-4.6-10.1-5.9-16-6.1c-14.7-0.4-29.1,4.2-42.8,9.7c-4.4,1.8-9.1,3.9-11.6,8c-4.8,7.8-6.8,8.9-15.9,10.6
		c-8.6,1.6-16.3,7.9-19.5,16.1c-0.9,2.3-1.5,4.9-1.1,7.3c1.3,9.1,7.8,14.6-6.3,9.7c-5.1-1.8-11.2-1.4-15.3,2.3
		c-2.7,2.5-5.1,10.8-7.6,5.9c-2.4-4.9,0.1-10.9-3.8-16c-3.6-4.8-9.8-7-15.7-8c-21-3.3-43.5,7.1-54.7,25.2c-6,9.8-8.4,23.4-1,32.2
		c3,3.5,8.1,5,10.8,8.8c3.4,4.7-2.2,4.7-5.8,4.5c-4-0.2-8.1,0.3-12.1,0.8c-5.6,0.7-19.6-0.8-19,7.8c0.2,2,1,3.8,2.1,5.4
		c3.4,5.1,8.7,8.4,14.3,10.7c1.2,0.5,15.3,6,15.3,5.9c-5.8,4.7-14.8,4-21.5,7.1c-3,1.4-6.1,2.9-8.4,5.3c-2.3,2.4-3.6,6.1-2.4,9.2
		c3.3,8.2,0.9,8-7.4,9.5c-8.1,1.5-16,3.6-23.8,6.1c-1.4,0.5-2.9,1-4,2c-2.5,2.3-2.2,6.7-0.2,9.5c2,2.8,5.3,4.4,8.5,5.7
		c6.7,2.8,13.6,5.1,20.7,6.6C42,211.6,50.2,209.9,56.4,212.5z"/>
</g>
<g>
	<rect x="406.9" y="409.5" class="st5" width="14.9" height="209.6"/>
	<rect x="770.5" y="409.5" class="st5" width="14.9" height="209.6"/>
	<path class="st6" d="M799.2,448.1H394.9c-6.6,0-12-5.4-12-12V417c0-6.6,5.4-12,12-12h404.3c6.6,0,12,5.4,12,12v19.1
		C811.2,442.7,805.8,448.1,799.2,448.1z"/>
	<path class="st6" d="M799.2,504H394.9c-6.6,0-12-5.4-12-12v-19.1c0-6.6,5.4-12,12-12h404.3c6.6,0,12,5.4,12,12V492
		C811.2,498.6,805.8,504,799.2,504z"/>
	<path class="st7" d="M815.5,552.9h-437c-6.2,0-11.3-5.1-11.3-11.3V541c0-6.2,5.1-11.3,11.3-11.3h437c6.2,0,11.3,5.1,11.3,11.3v0.6
		C826.8,547.8,821.7,552.9,815.5,552.9z"/>
	<ellipse class="st8" cx="414.9" cy="426.2" rx="8.3" ry="7.7"/>
	<ellipse class="st8" cx="414.9" cy="482.6" rx="8.3" ry="7.7"/>
	<ellipse class="st8" cx="777.5" cy="426.2" rx="8.3" ry="7.7"/>
	<ellipse class="st8" cx="777.5" cy="482.6" rx="8.3" ry="7.7"/>
	<path class="st5" d="M429.9,627.5h-31.7c-3.8,0-6.9-3.1-6.9-6.9v-0.4c0-3.8,3.1-6.9,6.9-6.9h31.7c3.8,0,6.9,3.1,6.9,6.9v0.4
		C436.8,624.4,433.7,627.5,429.9,627.5z"/>
	<path class="st5" d="M794.5,627.5h-31.7c-3.8,0-6.9-3.1-6.9-6.9v-0.4c0-3.8,3.1-6.9,6.9-6.9h31.7c3.8,0,6.9,3.1,6.9,6.9v0.4
		C801.4,624.4,798.3,627.5,794.5,627.5z"/>
</g>
<g>
	<path class="st9" d="M871.1,505c9.7,0.1,19.3,0.2,29,0.3c3.5,33.1,7,66.3,10.6,99.4c-16.6-0.1-33.1-0.1-49.7-0.2
		C864.3,571.3,867.7,538.2,871.1,505z"/>
	<rect x="853.8" y="599.5" class="st10" width="63.9" height="12"/>
	<rect x="876.4" y="211.9" class="st9" width="18.6" height="331.6"/>
	<path class="st10" d="M901.3,505.4h-31c-2.5,0-4.6-2.1-4.6-4.6v-0.6c0-2.5,2.1-4.6,4.6-4.6h31c2.5,0,4.6,2.1,4.6,4.6v0.6
		C905.9,503.3,903.8,505.4,901.3,505.4z"/>
	<path class="st10" d="M898.3,413.9h-25.1c-2.5,0-4.6-2.1-4.6-4.6v-0.6c0-2.5,2.1-4.6,4.6-4.6h25.1c2.5,0,4.6,2.1,4.6,4.6v0.6
		C902.9,411.9,900.8,413.9,898.3,413.9z"/>
	<path class="st11" d="M912.2,221c2-29.6,4-59.2,6-88.8c-22.7-0.1-45.4-0.2-68.1-0.3c3.5,29.9,7.1,59.7,10.6,89.6
		C877.9,221.4,895.1,221.2,912.2,221z"/>
	<rect x="857.2" y="212.5" class="st10" width="58.5" height="10.9"/>
	<path class="st10" d="M851.9,126.5c-0.1-2.6,0.3-4.6,0.9-6.2c3-8,13.1-13.2,25.4-13.8c0.2-7.6,0.4-15.2,0.5-22.9
		c-0.2-4.7,3.5-7.9,6.2-7.6c2.5,0.3,5.1,3.5,4.7,7.6c0.1,7.6,0.1,15.1,0.2,22.7c1.8-0.1,11.7-0.7,19.8,6.6
		c5.7,5.1,7.3,11.3,7.8,13.6C895.5,126.5,873.7,126.5,851.9,126.5z"/>
	<rect x="847.5" y="124.7" class="st10" width="74.2" height="9.2"/>
</g>
<g>
	<path class="st12" d="M171.2,675.8c-3.2,3-5.8,7.5-8.1,11c-4.3,6.5-7.8,13.6-10.5,20.9c-1.2,3.3-2.6,6.7-2.8,10.1
		c-0.4,5.8,0,11.6-0.1,17.4c-0.2,7.1,1.2,13,7.1,17.3c8.3,0.2,16.5,0.4,24.8,0.6c-0.5-4.1-2.5-8-6.1-10.2c-4.4-2.7-9.9-1.4-8.5-8
		c0.8-3.7,3.1-7.1,4.9-10.4c3-5.5,6.6-10.5,10.3-15.5c4.1-5.5,8.3-11,12.9-16.1c2.4-2.7,5-5.3,7.7-7.8c1.6-1.5,6.4-4,6.2-6.7
		c-0.2-2.4-5.2-3.7-9.9-5c-3.3-0.9-7.2-1.9-12.5-1.8c-4.5,0.1-9.7-0.2-13.5,2.6C172.3,674.8,171.8,675.3,171.2,675.8z"/>
	<path class="st12" d="M292.9,654.2c-0.3,28.1-0.6,56.2-0.9,84.4c0.8,1.6,1.7,2.2,2.3,2.3c1,0.3,1.6-0.2,2.9,0
		c1.1,0.2,1.8,0.8,2.6,1.5c2.4,2,3.5,4.7,3.5,4.7c0,0-1.4-2.4-1.5-2.3c-0.1,0,0.9,2.1,2.9,6.2l0,0l0,0l0.7,1.7
		c-12.2,0.1-24.4,0.2-36.5,0.3c-0.9-28.3-1.8-56.6-2.6-84.9C275.2,663.4,284.1,658.8,292.9,654.2z"/>
	<path class="st13" d="M266.7,548.2c3.1-0.4,7.5,16,7.9,17.6c4.1,15.6,4.6,28.2,4.7,32.8c0.2,9.7,0.4,17-2,26.7
		c-1.8,7-4.5,13-7,18.7c-3,6.8-4.6,10.3-7.6,14.1c-5.7,7.1-12.1,10.5-13.4,11.1c-6.4,3.2-12.2,3.8-18.4,4.1
		c-24.3,1.3-29.1-2.4-49.9-1.2c-7.9,0.5-11.4,1.3-20.4,1.2c-11-0.1-16.4-0.2-19-0.6c-5.5-0.8-8.4-1.9-11.1,0
		c-2.7,1.9-1.3,5.1-4.4,10c-1.4,2.3-2.6,3.1-5.7,6c-2.6,2.4-6.2,5.9-10.3,10.7c-1.8-3.4-2.9-6.2-3.5-8.2c-1-3.1-0.8-3.6-1.9-6.8
		c-0.7-1.9-1.2-2.9-1.4-4.7c-0.1-0.8,0-1,0-3.9c0-2.1,0-2.1,0-3.9c0-2.9,0-4.4,0.2-6.2c0.1-1.6,0.3-3.2,0.8-5.3
		c0.4-1.4,0.9-2.9,1.9-5.7c0.5-1.4,1-2.7,1.8-4.3c0.7-1.4,1.1-2.4,1.8-3.5c1.1-1.8,2.1-3,3.9-5.1c1.6-1.8,2.4-2.7,3.5-3.7
		c1.4-1.2,1.7-1.2,4.7-3.3c2.5-1.8,2.3-1.9,3.9-2.9c1.9-1.3,2.6-1.5,5.1-2.9c3-1.8,3-2.1,4.9-3.1c2.4-1.4,2.9-1.2,8.2-3.1
		c3.2-1.2,3.1-1.3,8.2-3.3c2-0.8,4.2-1.6,6.6-2.5c3.1-1.1,5.8-2.2,9.3-3.3c2.7-0.9,2.4-0.7,7.6-2.3c4.4-1.4,4.4-1.4,8-2.5
		c1.4-0.4,3.5-1.1,7.8-2.3c5.5-1.7,5.9-1.7,7-2.1c3.5-1.2,3.4-1.5,6.8-2.7c3.5-1.3,3.6-0.9,7.6-2.3c2.8-1,2.5-1,7.2-2.7
		c3.1-1.1,3.6-1.2,5.3-2c0.7-0.3,2.8-1.2,5.4-2.7c1.1-0.6,1.7-1,7.6-5.1c3.5-2.4,3.8-2.6,4.5-3.1c2.8-2.1,4.2-3.1,5.4-4.5
		c0.9-1,1.2-1.5,4.7-7.6c3-5.4,3.4-5.9,3.7-6.4c2.1-3.6,2.2-3.5,4.1-6.6c1-1.6,1.8-3.2,3.3-5.7C266.1,548.4,266.4,548.2,266.7,548.2
		z"/>
	<path class="st13" d="M327.8,537.8c0.6-0.8,17.7,7.4,19.5,8.1c3.3,1.4,6.5,2.7,9.8,4c1.8,0.8,5.8,1.6,6.9,3.3
		c0.4,0.6,0.5,1.3,0.5,2c0.4,4.5,0.9,9.6-2.5,13.2c-1.6,1.7-3.7,2.6-6,3.1c-7.8,1.6-16.7,0.9-24.7,1.1c-5.2,0.1-10.3,0.2-15.5,0.2
		c-2.9,0-5.9,0.1-8.8,0.1c-1.3,0-8.2-0.8-8.9,0C308.1,561.3,318,549.5,327.8,537.8z"/>
	<path class="st14" d="M116.5,649.7c-1.3,0.6-0.7,3.9-0.4,8c0,0,0.1,1.9-1.1,16.8c-1,12.3-1.6,16.1-9.6,34.4
		c-3.8,8.6-2.3,20.5-1.9,29.7c0.3,6.6,2.8,10.9,8,14.8c7.4,0,16.6,1.4,23.8-0.2c-0.3-3-0.9-6.2-2.5-8.8c-0.8-1.3-2.1-2.6-3.5-3.3
		c-3-1.4-4.8,0.8-6.8-2.4c-2.1-3.3-0.7-8.7,0.9-11.8c2-3.9,5.2-7.1,8.4-10.2c7.6-7.6,15.3-15.2,23.1-22.6c3.9-3.7,7.8-7.5,11.7-11.1
		c4.4-4,8.5-2.1,14.3-1.6c13.5,1.3,26.9,2.4,40.4,3.3c6.7,0.4,13.5,0.8,20.3,1.2c2.4,0.1,5.5-0.5,6.9,1.4c1.8,2.5,1,7.8,1.1,10.7
		c0.3,4.8,0.6,9.5,1,14.3c0.6,6.7,1.2,13.3,2.1,20c0.7,6.1,1.2,13.5,6.2,18c5.8,5.1,15.4,3.6,22.5,3.1c4.8-0.3,7.3-0.5,4.1-5.8
		c-1.3-2.2-3.4-4.1-5.8-5.2c-2.8-1.2-5.3-0.2-6.5-4.1c-0.6-1.9-0.5-4-0.3-6c1-14.4,1-29-0.1-43.4c-0.9-11.5,11.4-17.7,18.6-24.9
		c10.4-10.5,13.4-23.6,16.9-37.4c2.4-9.1,4.2-18.3,5.9-27.5c1.4-7.3,5.8-18.8,4-26c-7.4-0.2-8.8-0.6-8.8-0.9c0-0.7,6.4-0.3,12.4-3.9
		c6.1-3.6,8.8-9.5,9.9-11.9c0.6-1.3,4.6-10.2,1.9-19.7c-0.4-1.6-1.3-4.7-3.9-7.8c-1.7-2.1-3.4-3.3-4.1-3.7c-2.6-1.7-4.9-2.3-6.5-2.7
		c-4.3-1.1-5-0.1-6.6-1.2c-1.9-1.3-2-3.5-2.9-10.3c-1.2-8.4-0.4-1.2-1.9-12.4c-1.4-10.6-1.5-11.9-1.7-11.5
		c-13.1,20.4-26.2,40.7-39.3,61.1c-0.2,19.1-0.4,38.3-0.6,57.4c-0.2,16.8,0.2,32-12,45.3c-7.2,7.8-17.1,13-27.5,14.4
		c-6.3,0.9-12.8,0.4-19.2,0.3c-15.4-0.3-30.8,1.3-46.1,0.2c-4.1-0.3-13.6-1.3-24.2-4.7c-5.6-1.8-8.6-2.8-12.3-5.4
		C120.2,652.4,117.9,649,116.5,649.7z"/>
	<path d="M357.4,550.1c0-0.1,1.7,0.6,1.9,0.7c0.7,0.2,1.3,0.5,2,0.7c1.3,0.4,2.5,0.9,3.8,1.3c0.1,0,0.1,0,0.2,0.1c0,0,0,0.1,0,0.2
		c-0.2,3-0.4,5.9-0.5,8.9c-3.5-0.6-5.6-2.1-6.6-3c-0.6-0.6-1.3-1.1-1.7-2C355,554,357,550.7,357.4,550.1z"/>
	<path d="M325.6,539.1c0,2.1-1.2,3.9-3,4.9c-0.7,0.4-1.5,0.6-1.9,0.7c-0.8,0.2-1.9,0.4-3.1,0.1c-1.6-0.4-3.5-1.6-3.8-3.4
		c0-0.1,0-0.3-0.1-0.6c-0.1-0.9-0.2-2.5,0.5-4c0.6-1.2,1.4-2,1.9-2.3c1-0.8,2.3-1.2,3.6-1.2C322.9,533.4,325.6,536,325.6,539.1z"/>
</g>
<g>
	<g>
		<g>
			<line class="st15" x1="706.8" y1="393.2" x2="706.7" y2="403.2"/>
			<line class="st16" x1="706.8" y1="393.2" x2="706.7" y2="403.2"/>
		</g>
		<g>
			<line class="st15" x1="706.4" y1="402.8" x2="701.6" y2="405.4"/>
			<line class="st16" x1="706.4" y1="402.8" x2="701.6" y2="405.4"/>
		</g>
		<g>
			<line class="st15" x1="707.1" y1="402.9" x2="710.2" y2="406.5"/>
			<line class="st16" x1="707.1" y1="402.9" x2="710.2" y2="406.5"/>
		</g>
	</g>
	<g>
		<g>
			<line class="st15" x1="721.1" y1="393.6" x2="720.9" y2="403.6"/>
			<line class="st16" x1="721.1" y1="393.6" x2="720.9" y2="403.6"/>
		</g>
		<g>
			<line class="st15" x1="720.7" y1="403.2" x2="715.8" y2="405.8"/>
			<line class="st16" x1="720.7" y1="403.2" x2="715.8" y2="405.8"/>
		</g>
		<g>
			<line class="st15" x1="721.3" y1="403.3" x2="724.5" y2="406.9"/>
			<line class="st16" x1="721.3" y1="403.3" x2="724.5" y2="406.9"/>
		</g>
	</g>
	<g>
		<path class="st17" d="M718,394.7c-9.6,0-18.7-3.3-25.5-9.3c-11.6-10.2-15.7-27.4-10.1-42.8l0.3-0.7l-0.4-0.6
			c-1.4-2-3.6-6.2-2.9-11.2c0.9-7.4,7.4-12.3,13-13.9c1.5-0.4,3.1-0.6,4.8-0.6c6.7,0,13,3.5,15.8,8.7c1.3,2.5,1.8,5.4,1.5,8.5
			l-0.1,0.7l0.4,0.5c1.8,2,3.7,3.9,5.8,5.7c1.7,1.5,3.2,2.6,4.1,3.3c3.9,3,23.4,17.2,48,35.1c-2.1,0-12.3,0.1-12.3,0.1l9.9,5.2
			c-8.7,0-17.4,0-26.2,0.1l-0.7,0l-0.4,0.6c-1.3,1.7-2.9,3.3-4.6,4.6C733,392.5,725.7,394.7,718,394.7z"/>
		<path class="st18" d="M697.1,314.1v3c6.2,0,12,3.2,14.4,7.9c1.2,2.2,1.6,4.8,1.4,7.7l-0.1,1.3l0.9,1c1.8,2,3.8,4,5.9,5.8
			c1.8,1.6,3.2,2.7,4.2,3.4c3.7,2.8,21.5,15.8,44.3,32.5c-0.6,0-1.2,0-1.8,0l-11.9,0.1l9.8,5.2c-6.7,0-13.4,0-20.2,0l-1.5,0
			l-0.9,1.2c-1.3,1.6-2.7,3.1-4.3,4.3c-4.9,3.7-11.9,5.8-19.3,5.8c-9.2,0-18-3.2-24.5-8.9c-11.2-9.8-15.1-26.3-9.7-41.1l0.5-1.4
			l-0.9-1.3c-1.3-1.8-3.3-5.6-2.7-10.2c0.8-6.7,6.8-11.2,11.9-12.6c1.4-0.4,2.9-0.6,4.4-0.6L697.1,314.1 M697.1,314.1
			c-1.7,0-3.5,0.2-5.2,0.7c-6.4,1.7-13.1,7.2-14.1,15.1c-0.8,6,2.2,10.8,3.2,12.3c-5.8,16-1.6,33.8,10.5,44.4
			c7.6,6.6,17.3,9.7,26.5,9.7c8,0,15.6-2.3,21.1-6.4c2.3-1.7,3.9-3.5,4.9-4.8c10.7,0,21.5,0,32.2-0.1c-3.3-1.8-6.6-3.5-9.9-5.3
			c3.6,0,7.3-0.1,10.9-0.1c-27.6-20.1-47.7-34.8-51.6-37.8c-0.8-0.6-2.3-1.7-4-3.3c-2.5-2.2-4.4-4.1-5.7-5.6
			c0.2-2.1,0.2-5.7-1.7-9.3C711.1,317.7,704.1,314.1,697.1,314.1L697.1,314.1z"/>
	</g>
	<g>
		<path class="st17" d="M755.4,391.1c-0.5-0.1-1-0.1-1.4-0.3c-1-0.3-2-0.5-3.4-0.7c-1.2-0.2-2.7-0.5-4.9-0.9
			c-2.5-0.5-4.7-1.1-10.2-2.6c-9.6-2.6-14.9-4-17.4-5c-5.6-2.3-8.2-3.3-10.8-5.8c-1.9-1.8-6.1-6.8-6-13.1
			c0.2-8.4,8.4-16.6,17.1-17.2c0.3,0,0.7,0,1,0c10.6,0,18.6,12.2,20.8,15.9c0.4,0.6,0.6,1.1,1.1,2.1c0.7,1.4,1.9,3.8,4.7,8.9
			l0.2,0.4c1.1,2,2.9,5.5,5,9.6c0,0,0.9,1.7,3.7,7.8C755.2,390.6,755.3,390.9,755.4,391.1z"/>
		<g>
			<path class="st18" d="M719.4,347L719.4,347c9.8,0,17.4,11.6,19.5,15.1c0.4,0.6,0.6,1,1.1,2.1c0.7,1.4,1.9,3.8,4.7,8.9l0.2,0.4
				c1.1,2,2.9,5.5,5,9.5l0,0c0,0.1,0.7,1.5,2.8,5.9c-0.6-0.1-1.2-0.2-1.9-0.3c-1.2-0.2-2.7-0.5-4.8-0.9c-2.5-0.5-4.7-1.1-10.2-2.5
				c-9.2-2.5-14.8-4-17.2-5c-5.4-2.2-7.9-3.2-10.3-5.5c-1.7-1.7-5.7-6.3-5.5-12c0.2-7.5,7.8-15.2,15.7-15.8
				C718.9,347,719.2,347,719.4,347 M719.4,344c-0.4,0-0.7,0-1.1,0c-9,0.6-18.2,9.2-18.5,18.7c-0.2,7.6,5.4,13.2,6.4,14.2
				c2.8,2.8,5.6,3.9,11.3,6.2c2.5,1,7.6,2.4,17.6,5.1c5.7,1.5,7.8,2.1,10.3,2.6c4.7,1,6.4,1,8.2,1.6c0.9,0.3,1.8,0.3,2.8,0.5
				c0.4,0.1,0.7,0.1,0.9,0.1c0.2,0,0.3,0,0.4-0.1c0.2-0.2-0.1-0.6-0.5-1.3c-0.1-0.1-0.1-0.2-0.1-0.2c0,0,0,0,0,0c0,0,0-0.1-0.8-1.8
				c-2.9-6.2-3.7-7.8-3.8-7.8c-2.3-4.4-4.2-8-5.3-10c-4.8-9.1-4.9-9.5-5.8-11.1C740.4,358.7,731.8,344,719.4,344L719.4,344z"/>
		</g>
	</g>
	<g>
		<ellipse cx="695.9" cy="328.9" rx="3.9" ry="3.9"/>
	</g>
	<path d="M684.6,338.1c-1,0.4-2.4,0.2-3.4,0.2c-2.8,0-5.6-0.1-8.4-0.2c0-1.1,0.4-1.9,0.6-2.4c0.5-1,1.1-1.5,1.7-2.2
		c1.1-1,2.6-2.1,4-2.7c0.8-0.3,2-0.4,2.7,0.1c0.8,0.5,1,1.5,1.7,2.1c0.4,0.4,0.9,0.6,1.4,1C686.1,335.1,686.3,337.5,684.6,338.1z"/>
</g>
</svg>
