<?xml version="1.0" encoding="utf-8"?>
<!-- Generator: Adobe Illustrator 22.0.1, SVG Export Plug-In . SVG Version: 6.00 Build 0)  -->
<svg version="1.1" id="Capa_1" xmlns="http://www.w3.org/2000/svg" xmlns:xlink="http://www.w3.org/1999/xlink" x="0px" y="0px"
	 viewBox="0 0 981.2 764.9" style="enable-background:new 0 0 981.2 764.9;" xml:space="preserve">
<style type="text/css">
	.st0{fill:#EBEDEF;}
	.st1{fill:#D74214;}
	.st2{fill:#0276BB;}
	.st3{fill:#36464E;}
	.st4{fill:#455B65;}
	.st5{fill:#8FA3AD;}
	.st6{fill:#FFFFFF;}
	.st7{fill:#CDD7DB;}
	.st8{fill:#7FCDF5;}
</style>
<g>
	<g>
		<path class="st0" d="M718.7,121.7H277.5c-13.6,0-24.7-11.1-24.7-24.7V64.7c0-13.6,11.1-24.7,24.7-24.7h441.1
			c13.6,0,24.7,11.1,24.7,24.7v32.4C743.3,110.6,732.2,121.7,718.7,121.7z"/>
		<path class="st1" d="M718.7,121.7H606.2V40h112.5c13.6,0,24.7,11.1,24.7,24.7v32.4C743.3,110.6,732.2,121.7,718.7,121.7z"/>
		<path class="st2" d="M390,121.7H277.5c-13.6,0-24.7-11.1-24.7-24.7V64.7c0-13.6,11.1-24.7,24.7-24.7H390V121.7z"/>
	</g>
	<path class="st3" d="M101.6,742.2H267c6.6,0,12-5.4,12-12V612.5c0-6.6-5.4-12-12-12H101.6c-6.6,0-12,5.4-12,12v117.7
		C89.6,736.8,95,742.2,101.6,742.2z"/>
	<path class="st3" d="M729,742.2h165.4c6.6,0,12-5.4,12-12V612.5c0-6.6-5.4-12-12-12H729c-6.6,0-12,5.4-12,12v117.7
		C717,736.8,722.4,742.2,729,742.2z"/>
	<path class="st4" d="M934.9,526.3c-0.5,25-0.9,50.2-4.9,74.9c-2.1,13.1-6.3,30-19.2,36c-12.3,5.8-28.8,0.2-41.7,0.3
		c-16,0.1-31.9,0.2-47.9,0.3c-38.7,0.2-77.6,0.5-115.8,7c-24.8,4.2-49.1,11-73.8,15c-32.5,5.2-65.6,5.4-98.5,5.5
		c-51.1,0.3-102.4,0.5-153.2-5.4c-48-5.6-95.4-16.8-143.6-20.5c-46.3-3.6-94-0.5-140.4-0.3c-4.9,0-10.2,0-14.4-2.7
		c-3.6-2.3-6-6.2-8-10.1c-11.2-22.4-11.6-48.1-11.1-72.8c0.5-24.3-1.1-47.9-1.8-72c-1.3-43.4,13.4-85.4,46-113.6
		c12.7-10.9,24.3-23.3,34.5-36.7h713.5c26.9,36,67,58.9,76,107.8C936,467.8,935.5,497.2,934.9,526.3z"/>
	<path class="st5" d="M596.2,613.5H403c-9.6,0-18.5-5.4-23.1-14.1c-18.3-34.2-36.7-68.5-55-102.7c-9.8-18.2,3-40.6,23.2-40.5
		c100,0.3,200,0.6,300,0.9c19.8,0.1,32.5,21.8,23.3,40c-17.3,33.9-34.5,67.9-51.8,101.8C615.1,607.9,606.1,613.5,596.2,613.5z"/>
	<path class="st6" d="M113.7,457.2c27.5-0.3,55-0.4,82.4-0.5c16.3,0,32.7,0,49,0c1.3,0,2.6,0,3.8,0.6c0.9,0.5,1.6,1.3,2.3,2.1
		c13.3,15.9,24.6,33.8,32,53.4c5.8,15.4,11,33.3-4.4,44.4c-1.9,1.4-4,2.6-6.2,3.3c-4.9,1.5-10.3,0.5-15.3,0.6
		c-5.2,0.1-10.4,0-15.7,0c-11.3,0-22.7,0-34,0c-22.7,0-45.3,0-68,0c-8.7,0-17.8-0.7-26.5,0c-1.3,0.1-10.5,0.7-17.4-6.7
		c-5.8-6.2-6-13.8-6-15.5c-0.2-20.5-0.4-41-0.5-61.6c0.1-1.7,0.9-9,6.8-14.6C103.3,455.9,112.5,457,113.7,457.2z"/>
	<path class="st6" d="M880.5,457.2c-27.5-0.3-55-0.4-82.4-0.5c-16.3,0-32.7,0-49,0c-1.3,0-2.6,0-3.8,0.6c-0.9,0.5-1.6,1.3-2.3,2.1
		c-13.3,15.9-24.6,33.8-32,53.4c-5.8,15.4-11,33.3,4.4,44.4c1.9,1.4,4,2.6,6.2,3.3c4.9,1.5,10.3,0.5,15.3,0.6c5.2,0.1,10.4,0,15.7,0
		c11.3,0,22.7,0,34,0c22.7,0,45.3,0,68,0c8.7,0,17.8-0.7,26.5,0c1.3,0.1,10.5,0.7,17.4-6.7c5.8-6.2,6-13.8,6-15.5
		c0.2-20.5,0.4-41,0.5-61.6c-0.1-1.7-0.9-9-6.8-14.6C890.9,455.9,881.8,457,880.5,457.2z"/>
	<path class="st7" d="M847.5,320.8c2.2,3.6,4.6,7.1,7.2,10.5H141.2c4.3-5.6,8.3-11.4,12.1-17.4c20.7-32.7,35.1-69.4,54.6-102.9
		c7.2-12.3,13.5-23.2,22.9-37.1c17.4-25.9,24.1-31,28.3-33.7c24.3-15.9,61.7-15.2,89.7-17c94.1-5.9,188.4-4.2,282.6-1.5
		c9.1,0.3,19.1,0.4,29.4,1c34.7,1.8,73,7.8,93.6,35.4c27.3,36.6,51.5,81.8,72.4,122.8C833.4,294.2,839.6,308,847.5,320.8z"/>
	<path class="st8" d="M212.5,258.8c11.5-21.2,24.9-41.2,36.9-62.1c8.9-15.4,20.2-30.5,36.4-37.2c10.3-4.3,21.6-4.7,32.7-5.1
		c47.3,0,94.6-3.6,141.9-4.2c8.9-0.1,32.2-0.4,62,0c31.6,0.4,32.3,1.1,58.8,1.1c39.6,0.1,78.7-0.3,118,6.6c7.6,1.3,15.4,3,21.9,7.2
		c7,4.6,11.9,11.9,16.5,19.1c23.5,36.6,40.2,78,63.9,113.7c5.8,8.8,11.1,19.3,8.6,29.7c-2.4,9.8-11.3,16.6-20.7,19.2
		s-19.4,1.5-29,0.5c-174.5-18.8-353-24.3-526.8-1.2c-9.5,1.3-19.3,2.1-28.7-0.6c-12.3-3.5-22.2-16.1-20.8-29.2
		c0.7-6.6,4-12.5,7.2-18.2C198.4,285.1,205.4,271.9,212.5,258.8z"/>
	<path class="st4" d="M611.3,507.4H383.1c-4.1,0-7.5-3.4-7.5-7.5V498c0-4.1,3.4-7.5,7.5-7.5h228.2c4.1,0,7.5,3.4,7.5,7.5v1.9
		C618.8,504,615.5,507.4,611.3,507.4z"/>
	<path class="st4" d="M597.1,544.5H397.3c-4.1,0-7.5-3.4-7.5-7.5v-1.9c0-4.1,3.4-7.5,7.5-7.5h199.7c4.1,0,7.5,3.4,7.5,7.5v1.9
		C604.6,541.1,601.2,544.5,597.1,544.5z"/>
	<path class="st4" d="M581.3,583.8H413.1c-4.1,0-7.5-3.4-7.5-7.5v-1.9c0-4.1,3.4-7.5,7.5-7.5h168.2c4.1,0,7.5,3.4,7.5,7.5v1.9
		C588.8,580.5,585.4,583.8,581.3,583.8z"/>
</g>
</svg>
