<?xml version="1.0" encoding="utf-8"?>
<!-- Generator: Adobe Illustrator 22.0.1, SVG Export Plug-In . SVG Version: 6.00 Build 0)  -->
<svg version="1.1" xmlns="http://www.w3.org/2000/svg" xmlns:xlink="http://www.w3.org/1999/xlink" x="0px" y="0px"
	 viewBox="0 0 80 80" style="enable-background:new 0 0 80 80;" xml:space="preserve">
<style type="text/css">
	.st0{display:none;}
	.st1{display:inline;}
	.st2{fill:#FFFFFF;}
	.st3{fill:#616164;}
	.st4{fill:#7AC943;}
	.st5{fill:none;stroke:#636264;stroke-width:2;stroke-linecap:round;stroke-miterlimit:10;}
	.st6{fill:#FBC93B;}
	.st7{fill:#333333;}
	.st8{fill:#FBC93B;stroke:#333333;stroke-linecap:round;stroke-linejoin:round;stroke-miterlimit:10;}
</style>
<g id="Capa_2" class="st0">
	<rect class="st1" width="80" height="80"/>
</g>
<g id="Capa_4">
	<g>
		<path class="st2" d="M22.3,76.5c-5.8,0-10.5-4.7-10.5-10.5V14c0-5.8,4.7-10.5,10.5-10.5h37c5.8,0,10.5,4.7,10.5,10.5v52
			c0,5.8-4.7,10.5-10.5,10.5H22.3z"/>
		<path class="st3" d="M59.3,5c5,0,9,4,9,9v52c0,5-4,9-9,9h-37c-5,0-9-4-9-9V14c0-5,4-9,9-9H59.3 M59.3,2h-37c-6.6,0-12,5.4-12,12
			v52c0,6.6,5.4,12,12,12h37c6.6,0,12-5.4,12-12V14C71.3,7.4,65.9,2,59.3,2L59.3,2z"/>
	</g>
	<g>
		<g>
			<path class="st4" d="M36.6,37.9c-1.4-0.1-2.8-0.3-4.1-0.6l-0.7-0.2l-0.4-6.6l1.3,0.4c0.8,0.2,1.7,0.4,2.7,0.6
				c0.6,0.1,1.1,0.2,1.7,0.3l0.4-5.2c-0.6-0.2-1.1-0.4-1.7-0.6c-0.9-0.4-1.7-0.8-2.4-1.4c-0.7-0.6-1.4-1.3-1.8-2.1
				c-0.5-0.9-0.8-1.9-0.8-3.1c-0.1-1,0.1-2,0.4-2.9c0.3-1,0.9-1.8,1.6-2.6c0.7-0.8,1.7-1.4,2.8-1.9c0.9-0.4,2-0.7,3.2-0.9l0.3-4
				l5.2-0.3L43.9,11c0.3,0,0.6,0.1,0.9,0.1c0.6,0.1,1.3,0.2,1.9,0.3l0.8,0.1l0.4,6.3l-1.3-0.4c-0.6-0.2-1.3-0.3-2-0.4
				c-0.4-0.1-0.7-0.1-1.1-0.1l-0.3,4.5c0.6,0.2,1.2,0.4,1.8,0.6c0.9,0.3,1.8,0.8,2.5,1.3c0.8,0.6,1.5,1.3,2,2.1
				c0.5,0.9,0.9,1.9,0.9,3.2c0.1,1.4-0.1,2.6-0.6,3.7c-0.5,1.1-1.1,2-2,2.8c-0.8,0.8-1.9,1.4-3,1.8c-0.9,0.3-1.9,0.6-2.9,0.8
				l-0.4,4.9l-5.2,0.3L36.6,37.9z M42.2,31.5c0,0,0.1,0,0.1,0c0.3-0.1,0.6-0.3,0.8-0.5c0.2-0.2,0.3-0.4,0.4-0.5
				c0.1-0.2,0.1-0.4,0.1-0.7c0-0.6-0.3-0.9-0.4-1c-0.1-0.1-0.3-0.3-0.6-0.4L42.2,31.5z M38.2,17.2c-0.3,0.1-0.4,0.3-0.5,0.3
				c-0.3,0.3-0.4,0.6-0.3,1.1c0,0.3,0.1,0.5,0.4,0.7c0.1,0.1,0.2,0.2,0.3,0.2L38.2,17.2z"/>
			<path class="st2" d="M43.2,7.8l-0.3,4.1c0.6,0,1.3,0.1,1.9,0.1c0.6,0.1,1.2,0.2,1.8,0.3l0.2,4.1c-0.7-0.2-1.4-0.3-2.1-0.5
				c-0.7-0.1-1.5-0.2-2.2-0.2L42,22c0.8,0.3,1.7,0.5,2.5,0.9c0.8,0.3,1.6,0.7,2.3,1.2c0.7,0.5,1.3,1.1,1.7,1.8
				c0.5,0.7,0.7,1.6,0.8,2.7c0.1,1.2-0.1,2.3-0.5,3.3c-0.4,0.9-1,1.8-1.7,2.4c-0.8,0.7-1.7,1.2-2.7,1.6c-1.1,0.4-2.2,0.7-3.5,0.8
				l-0.4,4.8l-3.2,0.2l0.4-4.8c-1.7,0-3.3-0.2-5-0.6l-0.3-4.5c0.9,0.2,1.8,0.5,2.7,0.7c1,0.2,1.9,0.3,2.8,0.4l0.5-7
				c-0.8-0.2-1.6-0.5-2.4-0.8c-0.8-0.3-1.5-0.7-2.1-1.2c-0.6-0.5-1.2-1.1-1.6-1.8c-0.4-0.7-0.7-1.6-0.7-2.7
				c-0.1-0.9,0.1-1.7,0.3-2.6c0.3-0.8,0.7-1.6,1.4-2.2c0.6-0.7,1.5-1.2,2.5-1.7c1-0.5,2.3-0.8,3.7-0.9L40,8L43.2,7.8 M39.3,15.9
				c-1.1,0.2-1.9,0.5-2.4,1c-0.4,0.5-0.6,1.1-0.6,1.8c0,0.6,0.3,1,0.7,1.4c0.4,0.4,1,0.7,1.8,1L39.3,15.9 M41.1,32.8
				c0.6-0.1,1.2-0.3,1.6-0.5c0.4-0.2,0.8-0.4,1.1-0.7c0.3-0.3,0.5-0.6,0.6-0.9c0.1-0.3,0.2-0.7,0.1-1c0-0.7-0.3-1.3-0.8-1.7
				c-0.5-0.4-1.2-0.8-2.2-1L41.1,32.8 M45.3,5.7L43,5.8L39.9,6l-1.7,0.1L38,7.8l-0.2,2.4c-1,0.2-1.9,0.5-2.7,0.9
				c-1.3,0.6-2.3,1.3-3.1,2.1c-0.8,0.9-1.5,1.9-1.8,3c-0.4,1.1-0.5,2.2-0.4,3.3c0.1,1.4,0.4,2.6,1,3.6c0.5,1,1.2,1.8,2.1,2.4
				c0.8,0.6,1.6,1.1,2.6,1.5c0.3,0.1,0.7,0.3,1,0.4l-0.3,3.3c-0.2,0-0.4-0.1-0.6-0.1c-0.9-0.2-1.8-0.4-2.6-0.6l-2.7-0.8l0.2,2.8
				l0.3,4.5l0.1,1.5l1.5,0.3c1.1,0.2,2.2,0.4,3.3,0.5l-0.2,2.8l-0.2,2.3l2.3-0.1l3.2-0.2l1.7-0.1l0.1-1.7l0.3-3.3
				c0.8-0.2,1.6-0.4,2.3-0.7c1.3-0.5,2.4-1.2,3.3-2c1-0.9,1.7-1.9,2.2-3.2c0.5-1.2,0.7-2.6,0.6-4.2c-0.1-1.4-0.4-2.6-1.1-3.7
				c-0.6-1-1.3-1.8-2.2-2.4c-0.8-0.6-1.7-1.1-2.7-1.5c-0.4-0.1-0.7-0.3-1.1-0.4l0.2-2.7c0,0,0,0,0,0c0.7,0.1,1.3,0.2,1.9,0.4
				l2.7,0.7l-0.2-2.8l-0.2-4.1l-0.1-1.6l-1.5-0.3c-0.6-0.1-1.3-0.2-1.9-0.3L45.1,8L45.3,5.7L45.3,5.7z"/>
		</g>
	</g>
	<line class="st5" x1="59.7" y1="49" x2="21.9" y2="48.8"/>
	<line class="st5" x1="59.7" y1="55" x2="21.9" y2="54.8"/>
	<line class="st5" x1="59.7" y1="61" x2="21.9" y2="60.8"/>
	<line class="st5" x1="58" y1="67" x2="21.9" y2="66.8"/>
	<g>
		<g>
			<path class="st6" d="M40.4,72.3c-2.3,0-4.2-1.9-4.2-4.2v-5.3c0-2.3,1.9-4.2,4.2-4.2h1.2c0.3,0,0.5,0.2,0.5,0.5v12.7
				c0,0.3-0.2,0.5-0.5,0.5H40.4z"/>
			<g>
				<path class="st7" d="M41.6,59.1v12.7h-1.2c-2,0-3.7-1.7-3.7-3.7v-5.3c0-2,1.7-3.7,3.7-3.7H41.6 M41.6,58.1h-1.2
					c-2.6,0-4.7,2.1-4.7,4.7v5.3c0,2.6,2.1,4.7,4.7,4.7h1.2c0.6,0,1-0.4,1-1V59.1C42.6,58.6,42.2,58.1,41.6,58.1L41.6,58.1z"/>
			</g>
		</g>
		<g>
			<path class="st2" d="M73.8,73.4c-0.3,0-0.5-0.2-0.5-0.5V60.2c0-0.3,0.2-0.5,0.5-0.5H75c2.3,0,4.2,1.9,4.2,4.2v5.3
				c0,2.3-1.9,4.2-4.2,4.2H73.8z"/>
			<g>
				<path class="st7" d="M75,60.2c2,0,3.7,1.7,3.7,3.7v5.3c0,2-1.7,3.7-3.7,3.7h-1.2V60.2H75 M75,59.2h-1.2c-0.6,0-1,0.4-1,1v12.7
					c0,0.6,0.4,1,1,1H75c2.6,0,4.7-2.1,4.7-4.7v-5.3C79.6,61.3,77.5,59.2,75,59.2L75,59.2z"/>
			</g>
		</g>
		<g>
			<path class="st6" d="M57.9,79.3c-2.9,0-5.8-2-9.4-4.5c-1.5-1.1-3-2.2-4.4-3.4c-0.1-0.1-0.2-0.2-0.2-0.4L44,59.1
				c0-0.2,0.1-0.4,0.3-0.5c0.4-0.2,1.1-0.4,2-0.7c0.7-0.3,1.3-0.5,1.8-0.7c1.1-0.4,1.6-0.6,2.5-0.9c1.8-0.6,2.6-0.7,2.9-0.8
				c0.7-0.1,1.4-0.2,2.2-0.2c0.2,0,0.4,0,0.5,0c1.4,0,2.6,0.2,3.3,0.6c0.3,0.1,0.5,0.3,0.8,0.5c1,1,0.9,2.5,0.8,2.9
				c-0.2,1.3-1.3,2.4-2.8,3.1c1.3,0.9,2.7,1.7,4.1,2.6c2.4,1.6,4.9,3.1,7.3,4.6c0.3,0.1,0.9,0.4,1.3,1.1c0.7,1.3-0.1,2.5-0.1,2.5
				c-0.4,0.7-1.1,1-1.5,1.1c-0.6,0.2-1,0.3-1.4,0.3l-0.2,0c-0.7,0.1-1,0.4-1.7,0.9c-0.3,0.2-0.7,0.5-1.1,0.9c-0.7,0.5-1.8,1.3-3.3,2
				c-0.1,0-1.4,0.6-2.8,0.8C58.5,79.3,58.2,79.3,57.9,79.3z"/>
			<g>
				<path class="st7" d="M56.2,55.8c2,0,2.8,0.4,3.1,0.5c0.3,0.1,0.5,0.2,0.7,0.4c0.9,0.9,0.7,2.3,0.7,2.4c-0.2,1.4-1.6,2.6-3.5,3
					c1.6,1.1,3.3,2.1,5,3.2c2.4,1.6,4.9,3.1,7.3,4.6c0.2,0.1,0.8,0.3,1.1,1c0.5,1-0.1,2-0.1,2c-0.4,0.6-0.9,0.8-1.3,1
					c-0.6,0.3-1.1,0.3-1.4,0.3c-1.1,0.2-1.5,0.8-3.1,1.9c-0.7,0.5-1.8,1.3-3.2,1.9c0,0-1.3,0.6-2.6,0.7c-0.3,0-0.6,0.1-0.8,0.1
					c-2.7,0-5.4-1.8-9.1-4.4c-1.1-0.8-2.7-1.9-4.4-3.4c0-4,0.1-7.9,0.1-11.9c0.4-0.2,1.1-0.4,2-0.7c2.5-0.9,3-1.2,4.3-1.6
					c1.6-0.5,2.5-0.7,2.9-0.7c0.8-0.1,1.5-0.2,2.1-0.2C55.9,55.8,56.1,55.8,56.2,55.8 M56.2,54.8c-0.2,0-0.4,0-0.6,0
					c-0.7,0-1.5,0.1-2.2,0.2c-0.3,0.1-1.2,0.2-3,0.8c-0.9,0.3-1.5,0.5-2.6,0.9c-0.5,0.2-1,0.4-1.8,0.7c-0.8,0.3-1.5,0.6-2,0.7
					c-0.4,0.1-0.6,0.5-0.7,0.9L43.4,71c0,0.3,0.1,0.6,0.4,0.8c1.4,1.2,2.9,2.4,4.5,3.5c3.7,2.6,6.6,4.6,9.7,4.6c0.3,0,0.7,0,1-0.1
					c1.4-0.2,2.8-0.8,2.9-0.8c1.6-0.7,2.7-1.5,3.4-2c0.5-0.3,0.9-0.6,1.2-0.9c0.7-0.6,1-0.8,1.5-0.8c0.1,0,0.1,0,0.2,0
					c0.4,0,0.9-0.1,1.5-0.4c0.5-0.2,1.3-0.5,1.8-1.3c0.1-0.2,0.9-1.5,0.2-3c-0.4-0.8-1.1-1.2-1.5-1.4c-2.4-1.5-4.8-3-7.2-4.5
					c-1.1-0.7-2.2-1.4-3.3-2.1c1.3-0.7,2.1-1.8,2.3-3c0.1-0.5,0.2-2.2-1-3.3c-0.3-0.3-0.6-0.5-0.9-0.6
					C58.7,54.9,57.3,54.8,56.2,54.8L56.2,54.8z"/>
			</g>
		</g>
		<g>
			<path class="st2" d="M70.5,72.5c-1.2,0-3-1.5-5.6-3.7c-0.8-0.7-1.7-1.4-2.1-1.7c0,0-0.3-0.2-0.6-0.4l-0.7-0.5
				c-0.5-0.3-1.2-0.8-2.8-1.9c-0.8-0.6-1.6-1-2.1-1.4c-1.9,0.9-3.5,1.3-5.1,1.3c-0.2,0-0.5,0-0.7,0c-1.6-0.1-2.8-0.8-3.9-2.2
				c-0.1-0.1-0.1-0.3-0.1-0.4s0.1-0.3,0.3-0.3c1-0.5,2-1,3-1.4c3.8-1.4,6.9-2.1,9.8-2.1c0.4,0,0.8,0,1.2,0c1.2,0.1,2.3,0.4,3.6,0.7
				c0.3,0.1,0.4,0.1,0.6,0.2c0.2,0.1,0.7,0.2,1.7,0.5c1,0.3,1.6,0.5,2,0.6c0.7,0.2,1.2,0.3,1.6,0.4c0.5,0.1,0.5,0.3,0.4,2.8
				c0,0.2,0,0.6,0,0.6c0,0.4,0,1.3,0.1,2.7c0.1,2,0.2,3.3,0.3,4.1c0.1,1.1,0.2,1.6-0.4,2C70.9,72.5,70.7,72.5,70.5,72.5z"/>
			<g>
				<path class="st7" d="M60,58.3c0.4,0,0.8,0,1.1,0c1.2,0.1,2.3,0.4,3.5,0.7c0.6,0.2,0.3,0.1,2.3,0.7c1,0.3,1.6,0.5,2,0.6
					c0.7,0.2,1.2,0.3,1.7,0.4c0.1,0,0,2.5,0.1,2.8c0,0.2,0,1.1,0.1,2.9c0.1,4.5,0.6,5.3,0.1,5.6C70.7,72,70.6,72,70.5,72
					c-1.6,0-5.9-4.3-7.4-5.4c0,0-0.3-0.2-0.6-0.4c-0.7-0.4-1.1-0.8-3.4-2.4c-1-0.7-1.8-1.2-2.3-1.6c-1.6,0.8-3.3,1.4-5.1,1.4
					c-0.2,0-0.4,0-0.6,0c-1.6-0.1-2.6-0.8-3.5-2c1.2-0.6,2.2-1.1,3-1.3C53.5,59.2,56.8,58.3,60,58.3 M60,57.3
					C60,57.3,60,57.3,60,57.3c-3,0-6.1,0.7-10,2.1c-1,0.4-2.1,0.9-3.1,1.4c-0.3,0.1-0.4,0.4-0.5,0.7c-0.1,0.3,0,0.6,0.2,0.8
					c1.2,1.5,2.4,2.3,4.2,2.4c0.2,0,0.5,0,0.7,0c1.6,0,3.2-0.4,5-1.2c0.5,0.3,1.1,0.7,1.8,1.2c1.5,1,2.3,1.5,2.8,1.9
					c0.3,0.2,0.5,0.3,0.7,0.5c0.3,0.2,0.6,0.4,0.6,0.4c0.5,0.3,1.3,1,2.1,1.7c2.7,2.3,4.6,3.8,5.9,3.8c0.3,0,0.6-0.1,0.8-0.2
					c0.8-0.5,0.7-1.3,0.6-2.4c-0.1-0.8-0.2-2.1-0.2-4.1c0-1.5,0-2.4-0.1-2.7l0-0.2c0-0.1,0-0.2,0-0.4c0-2.7,0-3.1-0.8-3.3
					c-0.4-0.1-1-0.3-1.6-0.4c-0.3-0.1-0.9-0.3-2-0.6c-1.1-0.3-1.5-0.4-1.7-0.5c-0.2-0.1-0.3-0.1-0.6-0.2c-1.2-0.3-2.4-0.6-3.7-0.7
					C60.9,57.3,60.4,57.3,60,57.3L60,57.3z"/>
			</g>
		</g>
		<path class="st8" d="M67.1,74.7c-1.2-0.1-3.3-0.5-5.4-1.9c-1.1-0.7-2-1.5-2.5-2.2"/>
		<path class="st8" d="M63,77.5c-1-0.2-2.5-0.5-4.1-1.6c-1.2-0.8-2.1-1.7-2.6-2.3"/>
	</g>
</g>
</svg>
