<?xml version="1.0" encoding="utf-8"?>
<!-- Generator: Adobe Illustrator 22.0.1, SVG Export Plug-In . SVG Version: 6.00 Build 0)  -->
<svg version="1.1" id="Capa_1" xmlns="http://www.w3.org/2000/svg" xmlns:xlink="http://www.w3.org/1999/xlink" x="0px" y="0px"
	 viewBox="0 0 128 148.1" style="enable-background:new 0 0 128 148.1;" xml:space="preserve">
<style type="text/css">
	.st0{fill:#E5A133;}
	.st1{fill:#0088BC;}
	.st2{fill:#FFFFFF;}
	.st3{fill:#F7D815;}
</style>
<polygon class="st0" points="100,7 100,17 47,17 47,140 37,140 37,7 "/>
<g>
	<polygon class="st1" points="49,88.5 2,88.5 2,67.7 49,67.7 49,50.6 79,77.5 49,104.5 	"/>
	<path class="st2" d="M51,55c8.3,7.5,16.7,15,25,22.5c-8.3,7.5-16.7,15-25,22.5c0-4.5,0-9,0-13.5H4V69.7h47C51,64.8,51,59.9,51,55
		 M47,46.1v9v10.6H4H0v4v16.9v4h4h43v9.5v9l6.7-6l25-22.5l3.3-3l-3.3-3l-25-22.5L47,46.1L47,46.1z"/>
</g>
<g>
	<polygon class="st3" points="77.2,0 77,0 77,0.1 77,148 77,148.1 77.2,148 128,136 128,12.1 	"/>
</g>
<circle class="st2" cx="86.5" cy="78.5" r="5.4"/>
</svg>
