<?xml version="1.0" encoding="utf-8"?>
<!-- Generator: Adobe Illustrator 22.0.1, SVG Export Plug-In . SVG Version: 6.00 Build 0)  -->
<svg version="1.1" xmlns="http://www.w3.org/2000/svg" xmlns:xlink="http://www.w3.org/1999/xlink" x="0px" y="0px"
	 viewBox="0 0 80 80" style="enable-background:new 0 0 80 80;" xml:space="preserve">
<style type="text/css">
	.st0{display:none;}
	.st1{display:inline;}
	.st2{fill:#F2F2F2;}
	.st3{fill:#1A1617;}
	.st4{fill:#3D3D3D;}
	.st5{fill:#F6D5B8;}
	.st6{fill:#E6C6AA;}
	.st7{fill:#383032;}
	.st8{fill:#FFFFFF;}
	.st9{fill:#F23034;}
	.st10{fill:#E6E6E6;}
	.st11{fill:#66FF33;}
</style>
<g id="Capa_2" class="st0">
	<rect class="st1" width="80" height="80"/>
</g>
<g id="Capa_3">
	<g id="Capa_3_1_">
		<ellipse class="st2" cx="39" cy="38" rx="39" ry="38"/>
		<path class="st3" d="M54.8,23.2c0.5,0.9,0.5,2.4,0,4.2c-0.6,2.2-1.9,3.7-3.3,3.9c-0.7,3.1-2.1,5.9-3.9,8c2.4,1.9,4.4,3.9,5.8,6.4
			c3.6,1.1,7,3,10.6,4.5c0.9,0.4,0.7,0.3,1.1,1.1c1.6,3.7,2.8,7.4,4.2,11.1c-7,8.8-18,14.5-30.3,14.5c-12.4,0-23.4-5.7-30.4-14.6
			c1.6-3.4,2.6-7.5,4.3-11c0.5-1,0.3-0.8,1.3-1.2c3.4-1.4,6.6-3.1,10.3-4.2c1.6-2.7,3.7-4.9,6.2-6.3c-1.9-2.1-3.3-4.9-4.1-8.2
			c-1.4,0-3-1.6-3.6-3.9c-0.5-1.8-0.5-3.3,0-4.2c0.3-0.5,0.6-0.7,1-0.8C22,15,24.6,9.8,29.9,6.7C37.4,1.1,47,1.6,52.8,9.4
			C55.6,13.1,56,18.5,54.8,23.2z"/>
		<path class="st4" d="M38.9,3.1c-3.1,0.3-6.1,1.6-8.9,3.6c-5.4,3.1-7.9,8.2-5.8,15.6c0.8-0.2,1.8,0.6,2.2,1.4
			c0.1,0.2,0.2,0.5,0.2,0.7c0,1,0.2,2,0.4,2.9c0.1,0.3,0.6,0.6,0.6,0.2c-0.3-1.6-0.1-3.5-0.3-5.1L27,21c0.9-3.7,2.8-6.8,5.3-8.8
			c2.2,2.3,4.8,4.3,8.2,4.6c5.9,0.6,9.3,2.5,11,5.5c-0.3,1.5-0.1,3.4-0.3,5.1c-0.1,0.4,0.5,0.1,0.6-0.2c0.2-0.9,0.2-1.9,0.2-2.8
			c-0.1-0.3-0.1-0.7,0.1-1c0.7-1.1,2.2-1.7,3-0.2c1.2-4.6,0.8-10.1-2-13.7c-2.8-3.8-6.6-5.9-10.6-6.3L38.9,3.1L38.9,3.1z"/>
		<path class="st5" d="M23.6,22.6c-0.2,0.1-0.3,0.3-0.5,0.5c-0.5,0.9-0.5,2.4,0,4.2c0.4,1.6,1.3,2.8,2.2,3.4
			c0.4,0.3,0.9,0.4,1.4,0.4c0.7,3.2,2.1,6,4.1,8.2c-0.2,0.7-0.5,1.6-0.7,2.5c2.6,3.8,5.6,6.1,8.9,6.1c3.5,0,6.6-2.5,9.3-6.7
			c-0.2-0.9-0.5-1.7-0.6-2.1c1.8-2.1,3.2-4.8,3.9-8c0.4,0,0.8-0.2,1.1-0.4c1-0.6,1.8-1.9,2.2-3.4c0.5-1.8,0.5-3.3,0-4.2
			c-0.1-0.2-0.3-0.4-0.4-0.5c-0.8-0.7-2-0.1-2.5,0.8c-0.2,0.3-0.2,0.7-0.1,1c0,1,0,1.9-0.2,2.8c-0.1,0.3-0.6,0.6-0.6,0.2
			c0.3-1.6,0.1-3.5,0.3-5.1c-1.8-3.1-5.1-4.9-11-5.5c-3.4-0.4-6-2.3-8.2-4.6c-2.4,2.1-4.3,5.2-5.3,8.8l0.3,1.4
			c0.3,1.5,0.1,3.4,0.3,5.1c0.1,0.4-0.5,0.1-0.6-0.2c-0.2-0.9-0.3-1.9-0.4-2.9c0-0.2-0.1-0.5-0.2-0.7c-0.4-0.8-1.4-1.6-2.2-1.4
			C24,22.4,23.8,22.5,23.6,22.6z"/>
		<path class="st6" d="M26.6,30.6c-0.3-1.3-0.4-2.5-0.5-3.8c0-0.8,0-1.7,0.1-2.5c-0.1-0.1-0.1-0.2-0.2-0.3c-0.3-0.3-0.8-0.7-1.2-0.6
			c-0.3,0-0.6,0.3-0.7,0.5c-0.6,1-0.2,2.6,0.1,3.6c0.3,0.9,0.7,1.7,1.4,2.4C25.9,30.1,26.2,30.4,26.6,30.6z M51.6,30.6
			c0.3-1.3,0.4-2.5,0.5-3.8c0-0.8,0-1.7-0.1-2.5c0.1-0.1,0.1-0.2,0.2-0.3c0.3-0.3,0.8-0.7,1.2-0.6c0.3,0,0.6,0.3,0.7,0.5
			c0.6,1,0.2,2.6-0.1,3.6c-0.3,0.9-0.7,1.7-1.4,2.4C52.3,30.1,52,30.4,51.6,30.6z"/>
		<path class="st7" d="M30.8,39.5C26,52.7,36.3,65,38.6,76.8c-0.4,0-0.8,0-1.2,0l-15.5-19l4.4-3.4c-1-1.3-2.8-1.9-3.6-3.3
			c0.7-1.7,0.7-3.7,1.8-5.3C26.2,43.1,28.2,41,30.8,39.5z M48.5,39.9c2,1.7,3.7,3.6,5,5.7c0.2,0.1,0.4,0.1,0.5,0.2l0,0
			c1.1,1.6,1,3.6,1.8,5.3c-0.8,1.4-2.6,2-3.6,3.3l4.4,3.4l-15.5,19c-0.4,0-0.8,0-1.2,0c2.4-11.8,12.6-24.2,7.8-37.3
			C48,39.6,48.3,39.8,48.5,39.9z"/>
		<path class="st6" d="M47.7,39.3c0,0-3.4,3.7-8.5,3.7c-3.6,0-8.4-3.5-8.4-3.5l-0.1,0.6c0.9,1,1.9,1.9,3.1,2.5
			c1.7,1,3.5,1.6,5.6,1.9c2,0.3,4.1,0.4,6.3,0.3c0.9-1,1.8-2.1,2.7-3.5C48.1,40.4,47.8,39.7,47.7,39.3z"/>
		<path class="st8" d="M39,48c-3.3,0-6.3-2.2-8.9-6.1c0.2-0.9,0.4-1.8,0.7-2.5c-3.1,8.5,0.1,16.7,3.4,24.6c1.8,4.3,3.6,8.6,4.4,12.7
			H39c0.3,0,0.7,0,1,0c0.8-3.9,2.4-7.8,4-11.8c3.4-8.2,7-16.7,3.8-25.6c0.2,0.1,0.3,0.2,0.5,0.3c-0.2-0.2-0.4-0.3-0.6-0.5
			c0.2,0.4,0.4,1.1,0.6,2.1c-0.8,1.3-1.7,2.5-2.7,3.5C43.6,46.9,41.4,48,39,48z"/>
		<path class="st9" d="M39.1,48.7L35,55.1l1.4,1.9l-2.2,7c1.8,4.3,3.6,8.6,4.4,12.7H39c0.3,0,0.7,0,1,0c0.8-3.8,2.4-7.8,4-11.7
			c0.2-0.6-2.3-7.9-2.3-7.9l1.4-2.4L39.1,48.7z"/>
		<path class="st10" d="M39.1,48.9l-6.4,8.5L30,51.2c0.8,4.4,2.5,8.7,4.3,13l2.1-6.9L35,55.4L39.1,48.9z M45.5,57.5L39,48.9l4,6
			l-1.4,2.4c0,0,2.3,6.4,2.4,7.7c1.9-4.6,3.9-9.4,4.7-14.2L45.5,57.5z"/>
		<path class="st6" d="M40.3,16.9c-3.4-0.4-6-2.3-8.2-4.6c-2.4,2.1-4.3,5.2-5.3,8.8c1.7-2.6,2.9-5.9,5.2-7.8
			c3.2,6.4,14.3,4,19.2,9.2C49.6,19.4,46.2,17.5,40.3,16.9z"/>
	</g>
	<path class="st11" d="M80,65.9c0,0.9-0.7,1.6-1.7,1.6l-10.8,0.1v10.9c0,0.9-0.8,1.6-1.7,1.6h-6.5c-0.9,0-1.7-0.7-1.7-1.6V67.6
		l-10.7,0.1c-0.9,0-1.7-0.7-1.7-1.5v-6c0-0.8,0.7-1.6,1.7-1.6l10.8-0.1V47.6c0-0.9,0.8-1.6,1.7-1.6h6.5c0.9,0,1.7,0.7,1.7,1.6v10.9
		l10.7-0.1c0.9,0,1.7,0.7,1.7,1.5L80,65.9z"/>
</g>
</svg>
