<?xml version="1.0" encoding="utf-8"?>
<!-- Generator: Adobe Illustrator 22.0.1, SVG Export Plug-In . SVG Version: 6.00 Build 0)  -->
<svg version="1.1" id="Capa_1" xmlns="http://www.w3.org/2000/svg" xmlns:xlink="http://www.w3.org/1999/xlink" x="0px" y="0px"
	 viewBox="0 0 568 568" style="enable-background:new 0 0 568 568;" xml:space="preserve">
<style type="text/css">
	.st0{display:none;fill:#808080;}
	.st1{display:none;fill:#FF424F;}
	.st2{display:none;fill:#FBC93B;}
	.st3{fill:#FFFFFF;}
	.st4{fill:#0071BC;}
	.st5{fill:none;stroke:#E6E6E6;stroke-width:14;stroke-linecap:round;stroke-miterlimit:10;}
	.st6{fill:#F2F2F2;}
	.st7{fill:none;stroke:#00FF00;stroke-width:13;stroke-linecap:round;stroke-miterlimit:10;}
	.st8{fill:none;}
	.st9{fill:#FFDB00;}
	.st10{opacity:0.4;fill:#FF8C00;enable-background:new    ;}
</style>
<rect x="-14" y="-9" class="st0" width="591" height="592"/>
<circle class="st1" cx="756" cy="-28" r="30"/>
<circle class="st2" cx="660" cy="-28" r="30"/>
<path class="st3" d="M-414,279L-414,279c-0.1,0-0.1,0-0.2,0C-414.1,279-414.1,279-414,279z"/>
<path class="st3" d="M-414.2,279c-0.1,0-0.1,0-0.2,0v0C-414.3,279-414.3,279-414.2,279z"/>
<g id="Capa_3">
	<g>
		<path class="st4" d="M350.2,513.3H58.8c-10.1,0-18.8-8.1-18.8-18.2V119.6c0-9.4,8.1-16.8,17.5-16.8h79.4V75.8H63.5
			c-28.3,0-51.1,22.2-51.1,49.8v363.4c0,28.3,23.6,51.1,52.5,51.1h337.8c2.7,0,5.4,0,8.1-0.7C387.9,536.8,367.1,527.4,350.2,513.3z
			 M407.4,75.8h-70v26.9h76c7.4,0,14.1,6.1,14.1,13.5v222.1c9.4,0,18.8,2,27.6,4.7V122.3C455.2,96.7,433.7,75.8,407.4,75.8z"/>
	</g>
	<line class="st5" x1="223.7" y1="186.9" x2="361.7" y2="186.9"/>
	<line class="st5" x1="199.5" y1="257.5" x2="358.3" y2="257.5"/>
	<line class="st5" x1="199.5" y1="385.4" x2="348.9" y2="385.4"/>
	<line class="st5" x1="219.7" y1="324.8" x2="358.3" y2="324.8"/>
	<line class="st5" x1="109.3" y1="452.7" x2="322" y2="452.7"/>
	<ellipse class="st6" cx="133.5" cy="193.6" rx="51.8" ry="50.5"/>
	<ellipse class="st6" cx="133.5" cy="321.5" rx="51.8" ry="50.5"/>
	<path class="st4" d="M313.9,30.7h-34.3C272.2,13.2,256,1.8,237.2,1.8c-18.8,0-34.3,11.4-41.7,28.9h-35c-5.4,0-10.1,4.7-10.1,10.8
		v64.6c0,6.1,4.7,10.8,10.1,10.8h152.8c5.4,0,10.1-4.7,10.1-10.8V40.8C324,35.5,319.3,30.7,313.9,30.7z M237.2,73.1
		c-10.8,0-20.2-9.4-20.2-21.5s8.7-21.5,20.2-21.5c10.8,0,20.2,9.4,20.2,21.5S248.6,73.1,237.2,73.1z"/>
	<line class="st7" x1="109.3" y1="197" x2="130.2" y2="210.4"/>
	<line class="st7" x1="157.8" y1="170.1" x2="130.2" y2="210.4"/>
	<line class="st7" x1="109.3" y1="324.8" x2="130.2" y2="338.3"/>
	<line class="st7" x1="157.8" y1="297.9" x2="130.2" y2="338.3"/>
	<line class="st8" x1="136.9" y1="102.8" x2="136.9" y2="75.8"/>
</g>
<g id="Capa_4">
	<g>
		<path class="st9" d="M301.8,436.7c1.8-2.9,3.9-5.5,5.6-7c40.3-36,81-71.7,121.3-107.7c1.8-1.5,3.2-2.6,4.9-2.6
			c1.4,0,2.5,1.1,3.9,2.2c41,36.4,82.4,72.4,123.4,108.8c2.1,1.8,4.6,4,5.3,7c1.1,3.7,2.5,8.5,1.8,12.1c-0.7,4.4-3.9,8.5-6.3,11.8
			c-0.4,0.7-0.7,1.5-1.4,1.5c-0.7,0.4-1.8-0.4-2.5-1.1c-8.4-7-16.1-15.1-24.5-22c-9.8-8.5-20-16.9-30.1-25.4
			c-20-16.5-39.6-33.4-59.2-50.7c-1.1-0.7-10.5-9.9-10.9-9.9c-35.7,33.4-73.6,63.2-110,95.5c-4.2,3.7-8.8,7.7-13,11.8
			c-0.7,0.7-1.4,1.1-2.1,1.5c-1.1,0.4-2.5-0.4-3.5-1.1c-2.5-2.6-4.6-7.3-5.6-11C297.6,445.5,299.4,440.7,301.8,436.7z"/>
		<path class="st9" d="M522.3,399.6l-36.8-7.3v-57.7c0-4,2.8-7.3,6.3-7.3h24.5c3.5,0,6.3,3.3,6.3,7.3v65H522.3z"/>
		<path class="st9" d="M433.6,372.4l-96.4,81.2v99.2c0,5.1,3.2,9.2,7.4,9.2h66.6v-72.4h44.5V562h59.2c8.1,0,14.7-8.1,14.7-18v-90.4
			L433.6,372.4z"/>
		<path class="st10" d="M566.1,437.4c-1.1-2.9-3.2-5.1-5.3-7c-13-11.4-25.9-22.8-38.5-34.2v-61.7c0-4-2.8-7.3-6.3-7.3h-24.5
			c-3.5,0-6.3,3.3-6.3,7.3v29.4c-16.1-14-31.9-27.9-47.7-42.3c-1.1-1.1-2.5-2.2-3.9-2.2h-0.4V354c1.8,1.1,9.8,8.8,10.5,9.6
			c19.3,17.3,39.2,33.8,59.2,50.7c10.2,8.5,20,16.9,30.1,25.4c8.4,7,16.1,15.1,24.5,22c0.7,0.7,1.4,1.1,2.5,1.1
			c0.4,0,1.1-0.7,1.4-1.1c2.5-3.3,5.6-7.3,6.3-11.8C568.5,445.9,567.1,441.1,566.1,437.4z"/>
		<path class="st10" d="M433.6,372.4v81.2v36h22.1V562h59.2c8.1,0,14.7-8.1,14.7-18v-90.4L433.6,372.4z"/>
	</g>
</g>
</svg>
