<?xml version="1.0" encoding="utf-8"?>
<!-- Generator: Adobe Illustrator 24.0.2, SVG Export Plug-In . SVG Version: 6.00 Build 0)  -->
<svg version="1.1" id="Capa_1" xmlns="http://www.w3.org/2000/svg" xmlns:xlink="http://www.w3.org/1999/xlink" x="0px" y="0px"
	 viewBox="0 0 80 80" style="enable-background:new 0 0 80 80;" xml:space="preserve">
<style type="text/css">
	.st0{display:none;}
	.st1{display:inline;}
	.st2{fill:#FFFFFF;}
	.st3{fill:#616164;}
	.st4{fill:none;stroke:#636264;stroke-width:2;stroke-linecap:round;stroke-miterlimit:10;}
	.st5{fill:#C9131A;}
	.st6{fill:#C9131A;stroke:#FFFFFF;stroke-width:0.5;stroke-miterlimit:10;}
	.st7{fill:#3FA9F5;}
</style>
<g id="Capa_2_1_" class="st0">
	<rect class="st1" width="80" height="80"/>
</g>
<g id="Capa_4">
	<g>
		<path class="st2" d="M22.3,76.5c-5.8,0-10.5-4.7-10.5-10.5V14c0-5.8,4.7-10.5,10.5-10.5h37c5.8,0,10.5,4.7,10.5,10.5v52
			c0,5.8-4.7,10.5-10.5,10.5H22.3z"/>
		<path class="st3" d="M59.3,5c5,0,9,4,9,9v52c0,5-4,9-9,9h-37c-5,0-9-4-9-9V14c0-5,4-9,9-9H59.3 M59.3,2h-37c-6.6,0-12,5.4-12,12
			v52c0,6.6,5.4,12,12,12h37c6.6,0,12-5.4,12-12V14C71.3,7.4,65.9,2,59.3,2L59.3,2z"/>
	</g>
	<line class="st4" x1="21.9" y1="39.7" x2="59.7" y2="40"/>
	<path class="st4" d="M21.9,45.7C32.3,45.8,42.6,45.9,53,46"/>
	<line class="st4" x1="50.3" y1="52" x2="22" y2="51.7"/>
	<g>
		<g>
			<polygon class="st5" points="55.6,31.2 52.4,21.1 53.8,14.8 58.9,31.2 			"/>
			<path class="st2" d="M53.8,15.8L58.6,31h-2.8l-3.1-9.9L53.8,15.8 M53.7,13.8l-0.4,1.8L52.2,21v0.1v0.1l3.1,9.9l0.1,0.3h0.4h2.8
				h0.7l-0.2-0.6l-4.8-15.2L53.7,13.8L53.7,13.8z"/>
		</g>
		<path class="st6" d="M45.9,12V8.5h-4.4V12h-10h-0.3h-3.9l-5.9,19h3.8l0,0c7.4,0,14.7,0,22.1,0l1.5-5l0,0l4.4-14H45.9z"/>
	</g>
	<line class="st4" x1="52.5" y1="58" x2="22" y2="57.7"/>
	<line class="st4" x1="50.3" y1="64" x2="22" y2="63.7"/>
</g>
<g>
	<g>
		<path class="st7" d="M65.4,77.4c-0.2,0-0.4,0-0.7,0h-0.4v-4.3h1.5c5.4-0.8,9.6-5.3,9.6-10.3c0-4-2.8-6.8-3.9-7.7l-1.1,2.5l-7.5-8
			l11.2-2.9l-1.2,3.9c4.7,3.2,7.4,9,6.6,14.5C78.5,72.1,72.4,77.4,65.4,77.4z"/>
		<path class="st2" d="M73.6,47.2c-0.4,1.2-0.7,2.4-1.1,3.6c4.8,3.1,7.4,8.8,6.6,14.3C78.2,71.7,72.4,77,65.4,77c-0.2,0-0.4,0-0.7,0
			c0-1.2,0-2.4,0-3.6c0.4,0,0.7,0,1.1,0c5.9-0.8,10-5.7,10-10.7c0-4.9-3.9-8-4.4-8.3c-0.4,0.8-0.7,1.6-1.1,2.4
			c-2.2-2.4-4.4-4.8-6.6-7.2C66.9,48.8,70.2,48,73.6,47.2 M74.7,46.2l-1.3,0.3l-8.3,2l-1.6,0.4l-1.3,0.3l0.9,0.9l6.6,7.2l0.8,0.8
			l0.5-1l0.6-1.2l0.1-0.3c1.2,1.2,3.4,3.7,3.4,7.1c0,4.8-4,9.2-9.3,10h-1.1H64v0.8v3.6v0.7h0.7c0.2,0,0.5,0,0.7,0
			c7.2,0,13.5-5.4,14.5-12.6c0.8-5.6-1.8-11.4-6.5-14.7l0.9-3L74.7,46.2L74.7,46.2z"/>
	</g>
	<g>
		<path class="st7" d="M52.4,74.7c-4.7-3.3-7.4-9.3-6.6-15c1-7.2,7.1-12.7,14.1-12.7c0.2,0,0.4,0,0.7,0H61v4.4h-1.5
			c-5.4,0.8-9.6,5.6-9.6,10.8c0,4.2,2.8,7,3.9,8l1.1-2.5l7.4,8.3l-11.2,2.8L52.4,74.7z"/>
		<path class="st2" d="M60,47.4c0.2,0,0.4,0,0.7,0c0,1.2,0,2.5,0,3.7c-0.4,0-0.7,0-1.1,0c-5.9,0.9-10,5.9-10,11.1
			c0,5,3.9,8.3,4.4,8.6c0.4-0.8,0.7-1.6,1.1-2.5c2.2,2.5,4.4,4.9,6.6,7.4c-3.3,0.8-6.6,1.6-10,2.5c0.4-1.2,0.7-2.5,1.1-3.7
			c-4.8-3.2-7.4-9.1-6.6-14.8C47.2,52.8,53,47.4,60,47.4 M60,46.6c-7.2,0-13.5,5.6-14.5,13c-0.8,5.7,1.8,11.8,6.5,15.2l-0.4,1.3
			L51,77.9l-0.3,1.3l1.3-0.3l10-2.5l1.1-0.2l-0.8-1l-6.6-7.4l-0.8-0.9L54.4,68l-0.5,1.1l-0.2,0.4c-1.2-1.2-3.4-3.8-3.4-7.4
			c0-5,4-9.5,9.3-10.3h1.1h0.8V51v-3.7v-0.7h-0.7C60.4,46.6,60.2,46.6,60,46.6L60,46.6z"/>
	</g>
</g>
</svg>
