<?xml version="1.0" encoding="utf-8"?>
<!-- Generator: Adobe Illustrator 22.0.1, SVG Export Plug-In . SVG Version: 6.00 Build 0)  -->
<svg version="1.1" id="Capa_1" xmlns="http://www.w3.org/2000/svg" xmlns:xlink="http://www.w3.org/1999/xlink" x="0px" y="0px"
	 viewBox="0 0 568 568" style="enable-background:new 0 0 568 568;" xml:space="preserve">
<style type="text/css">
	.st0{display:none;fill:#808080;}
	.st1{fill:#FFFFFF;}
	.st2{fill:#FF424F;}
	.st3{fill:#FBC93B;}
</style>
<rect x="-14" y="-9" class="st0" width="591" height="592"/>
<g>
	<path class="st1" d="M8.1,531.9h554.7c2.8,0,5,2.2,5,5v26.8c0,2.8-2.2,5-5,5H8.1c-2.8,0-5-2.2-5-5v-26.8
		C3.1,534.2,5.3,531.9,8.1,531.9z"/>
</g>
<g>
	<path class="st1" d="M2,561.7V7c0-2.8,2.2-5,5-5h26.8c2.8,0,5,2.2,5,5c0,116,0,232.1,0,348.1c0,68.9,0,137.7,0,206.6
		c0,0.3,0,2.1-1.5,3.5c-0.9,0.9-2.2,1.5-3.5,1.5H7C4.2,566.7,2,564.5,2,561.7z"/>
</g>
<circle class="st1" cx="134" cy="217" r="30"/>
<circle class="st1" cx="111" cy="332" r="30"/>
<circle class="st1" cx="202" cy="415" r="30"/>
<circle class="st1" cx="214" cy="302" r="30"/>
<circle class="st2" cx="492" cy="344" r="30"/>
<circle class="st2" cx="419" cy="385" r="30"/>
<circle class="st3" cx="492" cy="46" r="30"/>
<circle class="st3" cx="391" cy="76" r="30"/>
<circle class="st3" cx="402" cy="174" r="30"/>
<circle class="st3" cx="498" cy="144" r="30"/>
</svg>
