<?xml version="1.0" encoding="utf-8"?>
<!-- Generator: Adobe Illustrator 22.0.1, SVG Export Plug-In . SVG Version: 6.00 Build 0)  -->
<svg version="1.1" xmlns="http://www.w3.org/2000/svg" xmlns:xlink="http://www.w3.org/1999/xlink" x="0px" y="0px"
	 viewBox="0 0 80 80" style="enable-background:new 0 0 80 80;" xml:space="preserve">
<style type="text/css">
	.st0{display:none;}
	.st1{display:inline;}
	.st2{fill:#FFFFFF;}
	.st3{fill:none;stroke:#FFFFFF;stroke-width:3;stroke-miterlimit:10;}
	.st4{fill:none;stroke:#FFFFFF;stroke-width:3;stroke-linecap:round;stroke-linejoin:round;stroke-miterlimit:10;}
	.st5{fill:#F1F10F;}
	.st6{opacity:0.61;fill:#F1C40F;}
	.st7{display:inline;fill:#F1F10F;}
	.st8{display:inline;opacity:0.61;fill:#F1C40F;}
</style>
<g id="Capa_2" class="st0">
	<rect class="st1" width="80" height="80"/>
</g>
<g id="Capa_5">
	<g>
		<path class="st2" d="M23.5,76.5V73c0-0.8,0.7-1.5,1.5-1.5h30c0.8,0,1.5,0.7,1.5,1.5v3.5H23.5z"/>
		<path class="st2" d="M55,72c0.6,0,1,0.4,1,1v3H24v-3c0-0.6,0.4-1,1-1H55 M55,71H25c-1.1,0-2,0.9-2,2v4h34v-4
			C57,71.9,56.1,71,55,71L55,71z"/>
	</g>
	<g>
		<ellipse class="st2" cx="40" cy="70.5" rx="7.5" ry="6"/>
		<path class="st2" d="M40,65c3.9,0,7,2.5,7,5.5S43.9,76,40,76s-7-2.5-7-5.5S36.1,65,40,65 M40,64c-4.4,0-8,2.9-8,6.5s3.6,6.5,8,6.5
			s8-2.9,8-6.5S44.4,64,40,64L40,64z"/>
	</g>
	<g>
		<path class="st2" d="M37.5,76.5V30c0-0.8,0.7-1.5,1.5-1.5h2c0.8,0,1.5,0.7,1.5,1.5v46.5H37.5z"/>
		<path class="st2" d="M41,29c0.6,0,1,0.4,1,1v46h-4V30c0-0.6,0.4-1,1-1H41 M41,28h-2c-1.1,0-2,0.9-2,2v47h6V30
			C43,28.9,42.1,28,41,28L41,28z"/>
	</g>
	<g>
		<path class="st2" d="M40,35.4c-1.2,0-2.4-0.4-3.3-1.1c-1.1-0.8-1.9-2.1-2.1-3.6c-0.2-1.4-0.1-1.7,0-1.8c0.2-0.3,1.2-0.3,1.6-0.4
			l0.2,0c1.3-0.1,2.6-0.1,3.9-0.1c1.4,0,2.8,0.1,4.2,0.2c0.4,0,0.8,0.1,0.9,0.3c0.1,0.1,0.2,0.4,0.2,0.6c0,0.2,0,0.3,0,0.5
			c-0.1,1.9-1.2,3.8-2.9,4.7C41.9,35.2,41,35.4,40,35.4C40,35.4,40,35.4,40,35.4z"/>
		<path class="st2" d="M40.2,29c1.4,0,2.8,0.1,4.1,0.2c0.4,0,0.6,0.1,0.6,0.1c0,0,0,0.1,0.1,0.3c0,0.2,0,0.3,0,0.5
			c0,1.7-1.1,3.5-2.6,4.3c-0.7,0.4-1.5,0.6-2.4,0.6c-1.1,0-2.2-0.3-3-1c-1-0.8-1.7-1.9-1.9-3.3c-0.1-0.9-0.1-1.2-0.1-1.4
			c0.3-0.1,1-0.2,1.2-0.2l0.2,0C37.7,29,39,29,40.2,29 M40.2,28c-1.3,0-2.6,0-3.9,0.1c-0.6,0-1.7,0.1-2.1,0.5
			c-0.4,0.5-0.2,1.6-0.1,2.2c0.2,1.5,1.1,3,2.3,3.9c1,0.8,2.3,1.2,3.6,1.2c1,0,2-0.2,2.9-0.7c1.8-1,3.1-3.1,3.1-5.2
			c0-0.2,0-0.4,0-0.6c0-0.3-0.1-0.6-0.3-0.9c-0.3-0.4-0.8-0.4-1.3-0.5C43,28,41.6,28,40.2,28L40.2,28z"/>
	</g>
	<g>
		<circle class="st2" cx="40" cy="19" r="4.5"/>
		<path class="st2" d="M40,15c2.2,0,4,1.8,4,4s-1.8,4-4,4s-4-1.8-4-4S37.8,15,40,15 M40,14c-2.8,0-5,2.2-5,5s2.2,5,5,5s5-2.2,5-5
			S42.8,14,40,14L40,14z"/>
	</g>
	<g>
		<path class="st2" d="M40,14.2c-1.4,0-2.5-1.1-2.5-2.5c0-0.2,0-0.4,0.1-0.6l0,0l0-0.1l0.1-0.2l0,0c0,0,2.3-5.1,2.3-5.1
			s2.3,5.1,2.3,5.1l0,0l0.1,0.2l0,0.1l0,0c0.1,0.2,0.1,0.4,0.1,0.6C42.5,13.1,41.4,14.2,40,14.2z"/>
		<path class="st2" d="M40,6.7l1.7,3.8l0.1,0.4l0,0.2l0.1,0.1c0,0.1,0,0.3,0,0.4c0,1.1-0.9,2-2,2s-2-0.9-2-2c0-0.1,0-0.3,0-0.4
			l0.1-0.1l0-0.3l0.1-0.4L40,6.7 M40,4.3l-2.8,6.1c-0.1,0.1-0.1,0.3-0.1,0.4c0,0,0,0,0,0C37,11.1,37,11.4,37,11.7c0,1.7,1.3,3,3,3
			s3-1.3,3-3c0-0.3,0-0.6-0.1-0.9c0,0,0,0,0,0c0-0.1,0-0.3-0.1-0.4L40,4.3L40,4.3z"/>
	</g>
	<g>
		<circle class="st2" cx="20" cy="19" r="2.5"/>
		<path class="st2" d="M20,17c1.1,0,2,0.9,2,2s-0.9,2-2,2s-2-0.9-2-2S18.9,17,20,17 M20,16c-1.7,0-3,1.3-3,3s1.3,3,3,3s3-1.3,3-3
			S21.7,16,20,16L20,16z"/>
	</g>
	<g>
		<circle class="st2" cx="60" cy="19" r="2.5"/>
		<path class="st2" d="M60,17c1.1,0,2,0.9,2,2s-0.9,2-2,2s-2-0.9-2-2S58.9,17,60,17 M60,16c-1.7,0-3,1.3-3,3s1.3,3,3,3s3-1.3,3-3
			S61.7,16,60,16L60,16z"/>
	</g>
	<path class="st3" d="M19.5,19.5c2.9-1.3,5.5-3.1,8.7-3.8c3.7-0.8,6.2,1.2,9.3,2.8"/>
	<path class="st3" d="M61,19.5c-2.9-1.3-5.5-3.1-8.7-3.8c-3.7-0.8-6.2,1.2-9.3,2.8"/>
	<polygon class="st4" points="11,49 20.2,26 30.5,49 	"/>
	<path class="st5" d="M20.3,58C12.4,58,8,53.5,6.5,47c0,0,0,0,0,0C6.7,47,34,47,34,47C33.5,52.5,28.1,58,20.3,58z"/>
	<path class="st6" d="M34,47c-0.3,1.6-1.2,4.9-4.1,7.6c-2.4,2.3-5.9,3.4-9.1,3.7c-3.9,0.3-6.6-1.1-9.7-3.2c4.3-1.7,8.7-3.3,13-5
		C27.3,49,30.7,48,34,47z"/>
	<polygon class="st4" points="51,49 60.2,26 70.5,49 	"/>
	<path class="st5" d="M60.3,58c-7.8,0-12.2-4.5-13.7-11c0,0,0,0,0,0c0.2,0,27.5,0,27.5,0C73.5,52.5,68.1,58,60.3,58z"/>
	<path class="st6" d="M74,47c-0.3,1.6-1.2,4.9-4.1,7.6c-2.4,2.3-5.9,3.4-9.1,3.7c-3.9,0.3-6.6-1.1-9.7-3.2c4.3-1.7,8.7-3.3,13-5
		C67.3,49,70.7,48,74,47z"/>
</g>
<g id="Capa_4">
</g>
<g id="Capa_3" class="st0">
	<path class="st7" d="M39.6,26.8c-3.4,0-6.2,2.8-6.2,6.2c0,0.7,0.1,1.4,0.3,2c0.8,2.4,3.1,4.2,5.9,4.2c0.2,0,0.5,0,0.7,0
		c3.1-0.4,5.5-3,5.5-6.2C45.8,29.6,43,26.8,39.6,26.8z M40.4,33.4c-1.1,0-1.9-0.9-1.9-1.9c0-1.1,0.9-1.9,1.9-1.9
		c1.1,0,1.9,0.9,1.9,1.9C42.3,32.5,41.4,33.4,40.4,33.4z"/>
	
		<rect x="34.5" y="34.2" transform="matrix(0.4978 -0.8673 0.8673 0.4978 -14.6959 50.7662)" class="st7" width="3.9" height="7.8"/>
	<polygon class="st7" points="38.3,40.8 31.7,52.3 26.3,49.2 27.1,47.8 29.9,47.6 28.7,45.1 29,44.4 31.8,44.3 30.6,41.8 31,41.1 
		33.8,40.9 32.5,38.4 32.5,38.4 32.5,38.4 32.5,38.4 32.9,37.7 	"/>
	<polygon class="st7" points="27.5,53.4 26.3,49.2 31.7,52.3 	"/>
	<path class="st8" d="M42.6,27.6l-1.3,2.2c0.6,0.3,1.1,1,1.1,1.8c0,1.1-0.9,2-2,2c-0.4,0-0.8-0.1-1.1-0.3l-1.9,3.3l-1.1,1.9l-0.6,1
		l-0.2,0.4L29,50.9l0,0l-1.5,2.5l0,0.1l4-1.1l0.1,0.1l6.4-11.1l0.8,0.5l1.4-2.5c3.1-0.4,5.5-3,5.5-6.2
		C45.9,30.7,44.6,28.6,42.6,27.6z"/>
</g>
</svg>
