<?xml version="1.0" encoding="utf-8"?>
<!-- Generator: Adobe Illustrator 24.0.2, SVG Export Plug-In . SVG Version: 6.00 Build 0)  -->
<svg version="1.1" id="Capa_1" xmlns="http://www.w3.org/2000/svg" xmlns:xlink="http://www.w3.org/1999/xlink" x="0px" y="0px"
	 viewBox="0 0 80 80" style="enable-background:new 0 0 80 80;" xml:space="preserve">
<style type="text/css">
	.st0{display:none;}
	.st1{display:inline;}
	.st2{fill:#1E1E1E;}
	.st3{fill:#FFFFFF;}
	.st4{fill:#1E1E1E;stroke:#FFFFFF;stroke-width:2;stroke-miterlimit:10;}
	.st5{fill:#289CA2;stroke:#FFFFFF;stroke-miterlimit:10;}
</style>
<g id="Capa_2_1_" class="st0">
	<rect class="st1" width="80" height="80"/>
</g>
<g id="Capa_4">
	<g>
		<g>
			<polygon class="st2" points="67.3,37 61.3,21.5 64.3,10.4 74.5,37 			"/>
			<path class="st3" d="M64.4,13.7L73,36h-5.1l-5.6-14.5L64.4,13.7 M64.1,7.2l-1.6,6L60.4,21l-0.2,0.6l0.2,0.6L66,36.7l0.5,1.3h1.4
				H73h2.9l-1-2.7L66.3,13L64.1,7.2L64.1,7.2z"/>
		</g>
		<path class="st4" d="M50.3,8.1V3h-8v5.1H24.4h-0.5H17L6.4,36h6.8l0,0c13.2,0,26.4,0,39.6,0l2.7-7.3l0,0l7.9-20.6H50.3z"/>
	</g>
	<path class="st4" d="M40.5,47.7c-7.6,0-19.7-1-33.5-6.7c1.7,2,3.5,4.1,5.4,6.2c0.7,0.7,3.1,3.5,5.9,6.4c6,6.2,8.2,7.6,13.5,12.9
		c2.1,2.1,5.1,5.2,8.7,9.4c1.8-2.1,4.8-5.4,8.7-9.4c5.7-5.8,8.5-7.9,13.5-12.9c2.7-2.7,6.8-7,11.3-12.6
		C60.2,46.7,48.1,47.7,40.5,47.7z"/>
	<path class="st5" d="M44.5,81.5"/>
</g>
</svg>
