<?xml version="1.0" encoding="utf-8"?>
<!-- Generator: Adobe Illustrator 22.0.1, SVG Export Plug-In . SVG Version: 6.00 Build 0)  -->
<svg version="1.1" id="Capa_1" xmlns="http://www.w3.org/2000/svg" xmlns:xlink="http://www.w3.org/1999/xlink" x="0px" y="0px"
	 viewBox="0 0 981.2 764.9" style="enable-background:new 0 0 981.2 764.9;" xml:space="preserve">
<style type="text/css">
	.st0{display:none;}
	.st1{fill:#007839;}
	.st2{fill:#FFFFFF;}
	.st3{fill:#323435;}
	.st4{fill:#6E7274;}
	.st5{fill:#004E1A;}
</style>
<g class="st0">
	
		<image style="display:inline;overflow:visible;" width="233" height="361" xlink:href="F09D27.jpg"  transform="matrix(2.4737 0 0 -2.1481 199.3829 745.965)">
	</image>
</g>
<path class="st1" d="M322.5,337.9c102,0,204,0,306,0c73.2,40.9,117,119.1,112.7,201c-6.2,115.4-104.7,173.3-111.3,177
	c-102.2-0.4-204.4-0.9-306.7-1.3c-7.9-4.5-102.4-60.2-111-171.7C205.8,460.5,248.9,380.6,322.5,337.9z"/>
<path class="st2" d="M335.2,373.9c61.3,0,122.7,0,184,0c11.2,14.8,26,37.9,36,69c12.9,39.9,12.1,74.5,10,95
	c-104.3,0.3-208.7,0.7-313,1c-0.7-17.5,0.6-48,15-82C287,410.3,320.2,384.3,335.2,373.9z"/>
<path class="st2" d="M567.2,374.9c17-0.3,34-0.7,51-1c14,9.7,41.6,31.6,61,70c20.5,40.6,20.9,78,20,95c-30.7,0-61.3,0-92,0
	c1.2-21,0.6-51.2-8-86C590.8,419.1,577.8,392.7,567.2,374.9z"/>
<path class="st3" d="M551.2,138.9c13.7-3,27.3-6,41-9c0.3,14.4,0.1,26.6-0.2,35.6c-0.9,24.9-2.8,33.2-3.6,36.9
	c-5,24.1-16.9,40.4-36.3,55.1c-10.4,7.9-22,18.3-34,23.6c-6.7,3-16.7,1.2-24.1,1.1c-9-0.1-18-0.3-27-0.4c-4-0.1-12,1-14.8-2.1
	c-0.5-0.6,52.5-33.9,57-36.8c14.9-9.6,29.1-21.4,36.4-37.5c5.1-11.2,5.5-23.7,6.3-34.9C552.7,157.5,552,146.6,551.2,138.9z"/>
<path class="st4" d="M131.3,186.7c229.1-44.1,458.2-88.2,687.3-132.4c2.4,10.5,4.7,20.9,7.1,31.4c-230.5,44.6-461,89.1-691.6,133.7
	C133.2,208.6,132.2,197.7,131.3,186.7z"/>
<circle class="st3" cx="428.7" cy="85.9" r="27.5"/>
<circle class="st3" cx="507.7" cy="69.9" r="27.5"/>
<circle class="st3" cx="587.7" cy="54.9" r="27.5"/>
<circle class="st3" cx="667.7" cy="39.9" r="27.5"/>
<circle class="st3" cx="351.7" cy="100.9" r="27.5"/>
<path class="st5" d="M311,622.8c117-11.1,234.1-22.2,351.1-33.3c3.5-0.3,6,3.4,4.3,6.6c-15.3,27.6-30.6,55.2-45.9,82.8
	c-0.8,1.4-2.3,2.3-3.9,2.3c-86.8,0.4-173.6,0.9-260.4,1.3c-1.3,0-2.5-0.5-3.3-1.5c-14.9-16.9-29.9-33.9-44.8-50.8
	C305.7,627.5,307.4,623.2,311,622.8z"/>
<rect x="323.3" y="277" class="st3" width="301.5" height="36"/>
</svg>
