<?xml version="1.0" encoding="utf-8"?>
<!-- Generator: Adobe Illustrator 22.0.1, SVG Export Plug-In . SVG Version: 6.00 Build 0)  -->
<svg version="1.1" xmlns="http://www.w3.org/2000/svg" xmlns:xlink="http://www.w3.org/1999/xlink" x="0px" y="0px"
	 viewBox="0 0 80 80" style="enable-background:new 0 0 80 80;" xml:space="preserve">
<style type="text/css">
	.st0{display:none;}
	.st1{display:inline;}
	.st2{fill:#F67773;}
	.st3{fill:#0F79B8;}
	.st4{fill:#FFA93D;}
	.st5{fill:#8AA800;}
	.st6{fill:none;stroke:#FFFFFF;}
	.st7{fill:#F67773;stroke:#F67773;}
	.st8{fill:#FFFF00;stroke:#FFFF00;}
	.st9{fill:#2E3192;stroke:#2E3192;}
	.st10{fill:#0071BC;}
	.st11{fill:#EB9D3C;}
	.st12{fill:#809C00;}
	.st13{fill:#D96965;}
</style>
<g id="Capa_2" class="st0">
	<rect class="st1" width="80" height="80"/>
</g>
<g id="Capa_3">
	<rect x="6.7" y="52.1" class="st2" width="12.5" height="19.9"/>
	<rect x="24" y="41.8" class="st3" width="12.5" height="30.2"/>
	<rect x="41.3" y="49.2" class="st4" width="12.5" height="22.8"/>
	<rect x="58.7" y="10.3" class="st5" width="12.5" height="61.7"/>
	<path class="st6" d="M6.9,48.3c4.5-5.6,9-11.2,13.6-16.8c6.3,0.7,12.7,1.3,19,2c5,4,9,9,14,13c0.4-12.2,1.8-25.3,2.2-37.5l16.2-5.4
		"/>
	<path class="st7" d="M7.8,47.7c0.4,0.6,0.4,1.3,0,1.6s-1,0.1-1.4-0.4c-0.4-0.6-0.4-1.3,0-1.6C6.8,46.9,7.4,47.1,7.8,47.7z"/>
	<path class="st8" d="M20.9,31.3c0.3,0.6,0.1,1.2-0.3,1.4c-0.5,0.2-1.1-0.2-1.3-0.8c-0.3-0.6-0.1-1.2,0.3-1.4S20.6,30.7,20.9,31.3z"
		/>
	<path class="st9" d="M40.7,33.8c0.2,0.6-0.1,1.2-0.6,1.2c-0.5,0-1.1-0.5-1.2-1.1c-0.2-0.6,0.1-1.2,0.6-1.2
		C40,32.6,40.5,33.1,40.7,33.8z"/>
	<path class="st7" d="M54.6,46.2c0.3,0.6,0.2,1.3-0.2,1.5C54,47.9,53.4,47.6,53,47c-0.3-0.6-0.2-1.3,0.2-1.5
		C53.7,45.3,54.3,45.6,54.6,46.2z"/>
	<path class="st9" d="M57,8.5c0.3,0.6,0.2,1.3-0.2,1.5c-0.4,0.2-1.1-0.1-1.4-0.7c-0.3-0.6-0.2-1.3,0.2-1.5C56.1,7.6,56.7,7.9,57,8.5
		z"/>
	<path class="st8" d="M71.9,3.3c0.2,0.6,0,1.2-0.5,1.3c-0.5,0.1-1.1-0.4-1.3-1s0-1.2,0.5-1.3C71.1,2.2,71.7,2.7,71.9,3.3z"/>
	<path class="st10" d="M36.5,41.8V72H24v0c3.9-10.1,7.8-20.1,11.7-30.2H36.5z"/>
	<path class="st11" d="M53.8,49.3V72H41.3v-0.6C45.5,64,49.7,56.7,53.8,49.3z"/>
	<path class="st12" d="M71.1,10.3V72H59c4-20.6,8-41.1,11.9-61.7H71.1z"/>
	<path class="st13" d="M19.2,52.1V72H6.7v-1.1c4.1-6.3,8.1-12.5,12.2-18.8H19.2z"/>
</g>
</svg>
