<?xml version="1.0" encoding="utf-8"?>
<!-- Generator: Adobe Illustrator 22.0.1, SVG Export Plug-In . SVG Version: 6.00 Build 0)  -->
<svg version="1.1" id="Capa_1" xmlns="http://www.w3.org/2000/svg" xmlns:xlink="http://www.w3.org/1999/xlink" x="0px" y="0px"
	 viewBox="0 0 568 568" style="enable-background:new 0 0 568 568;" xml:space="preserve">
<style type="text/css">
	.st0{fill:#8C6239;}
	.st1{fill:url(#SVGID_1_);}
	.st2{fill:#FBB03B;}
</style>
<g>
	<path class="st0" d="M372.9,396.7c1.9,3.5,12.4,24.2,3.8,44.8c-9.6,23-39.1,37-70.4,29.4c-39.8,0.3-65.5-21.5-65.3-39.7
		c0.2-15.6,19.4-27.3,23-29.4c12.2-34.1,24.3-77.8,30.7-129.3c4.9-39.5,5.3-75,3.8-105c11.1-10.7,22.2-21.3,33.3-32
		c6.8,2.6,13.7,5.1,20.5,7.7c8.8,36.4,16.7,79.9,20.5,129.3C376.5,319,375.7,360.9,372.9,396.7z"/>
	<linearGradient id="SVGID_1_" gradientUnits="userSpaceOnUse" x1="96.2501" y1="125.9755" x2="551.0846" y2="125.9755">
		<stop  offset="0" style="stop-color:#8CC63F"/>
		<stop  offset="0.1541" style="stop-color:#87C33F"/>
		<stop  offset="0.326" style="stop-color:#7ABA3E"/>
		<stop  offset="0.5066" style="stop-color:#64AB3D"/>
		<stop  offset="0.693" style="stop-color:#44963B"/>
		<stop  offset="0.8822" style="stop-color:#1D7B39"/>
		<stop  offset="1" style="stop-color:#006837"/>
	</linearGradient>
	<path class="st1" d="M550.9,133c-1.5,3.4-3.3,5.9-5.1,7.7c-9.9,9.9-28.4,10.3-47.4,2.6c-5.5-11.5-11.1-23-16.6-34.6
		c-6,11.5-11.9,23-17.9,34.6H352.5c-6.8-2.6-13.7-5.1-20.5-7.7c-11.1,10.7-22.2,21.3-33.3,32c-26,25.6-52.1,51.2-78.1,76.8
		c-1.3,1.5-3.5,3.4-6.4,3.8c-6.5,0.9-12.2-6.2-15.4-10.2c-2.7-3.5-11.8-16-14.1-41c-0.9-9.3-2.3-26.6,5.1-47.4
		c7.5-21.2,20.1-34.6,26.9-41c-1.8,1.3-8.5,5.9-17.9,5.1c-8.2-0.6-13.6-4.9-15.4-6.4c-6-11.5-11.9-23-17.9-34.6
		c-5.5,11.5-11.1,23-16.6,34.6h-42.2c-1.5-0.4-4.1-1.4-6.4-3.8c-3-3.2-3.6-6.9-3.8-9c-1.1-8.4,2.7-16,5.1-20.5
		c8-15,12-22.5,17.9-29.4c24.6-28.5,57.4-36.5,66.6-38.4c11.8-2.4,20.9-2.5,28.2-2.6c12.3-0.1,34.8,0.1,60.2,11.5
		c6.7,3,21.8,10,35.8,24.3c7.7,7.9,13.4,16.2,15.4,19.2c4.6,6.8,7.9,13,10.2,17.9c11.1-10.5,37-31.6,75.5-37.1
		c57.7-8.3,103,24.5,116.5,39.7c6.3,7.1,13.7,19.5,17.9,28.2c2.4,4.9,4.4,10,5.1,16.6C551.2,127.7,551.1,130.9,550.9,133z"/>
	<path class="st2" d="M477.9,543.9c-0.7,1.7-1.6,3.4-2.7,5c-5.4,7.7-14.6,12.1-24,13.7c-19.1,3.4-41.4,0.5-61.1,0.5
		c-19.3,0-38.6,0-57.9,0c-43.8,0-87.5,0-131.3,0c-28.7,0-57.5,0-86.2,0c-10.7,0-25.2,2.5-35.7,0c-4.1-1-13.9-4-21.1-12.8
		c-21.1-26-0.1-70.3,16.8-93c20.2-27.2,49.8-49.8,82.9-59.5c17.8-5.2,36.4-7.4,55-8.3c4.9-0.2,55.7,0.3,55.8-0.5
		c-2.2,13.4,1.3,19.8,3.9,23c12.6,15,51.9,10.2,97.4-15.4c53.2,18,92.5,61.3,107.4,113.8C480.4,521.4,482.2,533.7,477.9,543.9z"/>
</g>
</svg>
