<?xml version="1.0" encoding="utf-8"?>
<!-- Generator: Adobe Illustrator 22.0.1, SVG Export Plug-In . SVG Version: 6.00 Build 0)  -->
<svg version="1.1" xmlns="http://www.w3.org/2000/svg" xmlns:xlink="http://www.w3.org/1999/xlink" x="0px" y="0px"
	 viewBox="0 0 80 80" style="enable-background:new 0 0 80 80;" xml:space="preserve">
<style type="text/css">
	.st0{display:none;}
	.st1{display:inline;}
	.st2{opacity:0.82;}
	.st3{fill:#F2F2F2;}
	.st4{fill:#0071BC;}
	.st5{fill:#E6E6E6;}
	.st6{fill:#F8F100;}
	.st7{fill:#8CC63F;}
	.st8{fill:#B3B3B3;}
	.st9{fill:#8C6239;}
	.st10{fill:url(#SVGID_1_);}
	.st11{fill:#FBB03B;}
</style>
<g id="Capa_2" class="st0">
	<rect class="st1" width="80" height="80"/>
</g>
<g id="Capa_3">
</g>
<g id="Capa_4">
	<g class="st2">
		<path d="M6.5,46C4,46,2,44,2,41.5V13.4c0-2.5,2-4.5,4.5-4.5h39c2.5,0,4.5,2,4.5,4.5v28.1c0,2.5-2,4.5-4.5,4.5H6.5z"/>
		<path class="st3" d="M45.5,10.9c1.4,0,2.5,1.1,2.5,2.5v28.1c0,1.4-1.1,2.5-2.5,2.5h-39C5.1,44,4,42.9,4,41.5V13.4
			c0-1.4,1.1-2.5,2.5-2.5H45.5 M45.5,6.9h-39C2.9,6.9,0,9.8,0,13.4v28.1C0,45.1,2.9,48,6.5,48h39c3.6,0,6.5-2.9,6.5-6.5V13.4
			C52,9.8,49.1,6.9,45.5,6.9L45.5,6.9z"/>
	</g>
	<g>
		<path class="st4" d="M50.1,11v8.8H0.9V11c0-2,1.8-3.6,4-3.6h41.2C48.3,7.4,50.1,9,50.1,11z"/>
	</g>
	<g>
		<path class="st3" d="M45.5,10.9c1.4,0,2.5,1.1,2.5,2.5v28.1c0,1.4-1.1,2.5-2.5,2.5h-39C5.1,44,4,42.9,4,41.5V13.4
			c0-1.4,1.1-2.5,2.5-2.5H45.5 M45.5,6.9h-39C2.9,6.9,0,9.8,0,13.4v28.1C0,45.1,2.9,48,6.5,48h39c3.6,0,6.5-2.9,6.5-6.5V13.4
			C52,9.8,49.1,6.9,45.5,6.9L45.5,6.9z"/>
	</g>
	<g>
		<rect x="8.4" y="22.7" class="st5" width="7.2" height="5.2"/>
	</g>
	<g>
		<rect x="8.4" y="36.5" class="st6" width="7.2" height="5.2"/>
	</g>
	<g>
		<rect x="8.4" y="29.6" class="st5" width="7.2" height="5.2"/>
	</g>
	<g>
		<rect x="17.5" y="22.7" class="st6" width="7.2" height="5.2"/>
	</g>
	<g>
		<rect x="17.5" y="36.5" class="st5" width="7.2" height="5.2"/>
	</g>
	<g>
		<rect x="17.5" y="29.6" class="st5" width="7.2" height="5.2"/>
	</g>
	<g>
		<rect x="27.3" y="22.7" class="st5" width="7.2" height="5.2"/>
	</g>
	<g>
		<rect x="27.3" y="36.5" class="st5" width="7.2" height="5.2"/>
	</g>
	<g>
		<rect x="27.3" y="29.6" class="st6" width="7.2" height="5.2"/>
	</g>
	<g>
		<g>
			<g>
				<rect x="36.4" y="22.7" class="st7" width="7.2" height="5.2"/>
			</g>
			<g>
				<rect x="36.4" y="36.5" class="st7" width="7.2" height="5.2"/>
			</g>
			<g>
				<rect x="36.4" y="29.6" class="st7" width="7.2" height="5.2"/>
			</g>
		</g>
	</g>
	<path class="st8" d="M14.9,15.8h-0.5c-1.5,0-2.7-1.2-2.7-2.7V4.7c0-1.5,1.2-2.7,2.7-2.7h0.5c1.5,0,2.7,1.2,2.7,2.7v8.4
		C17.5,14.6,16.3,15.8,14.9,15.8z"/>
	<path class="st8" d="M37.6,15.8h-0.5c-1.5,0-2.7-1.2-2.7-2.7V4.7c0-1.5,1.2-2.7,2.7-2.7h0.5c1.5,0,2.7,1.2,2.7,2.7v8.4
		C40.3,14.6,39.1,15.8,37.6,15.8z"/>
</g>
<g id="Capa_5">
	<g>
		<path class="st9" d="M62,65.9c0.2,0.4,1.3,2.8,0.4,5.1c-1,2.6-4,4.2-7.2,3.4c-3.7,0.3-6.4-2.1-6.7-4.5c-0.2-1.8,1-3.4,1.4-3.8
			c1.5-3.4,3.2-8.2,4.1-14.3c0.7-4.7,0.6-8.8,0.4-12c1.1-1.2,2.3-2.4,3.4-3.7c0.7,0.3,1.4,0.6,2.1,0.9c0.9,4.2,1.7,9.1,2.1,14.8
			C62.4,57,62.3,61.8,62,65.9z"/>
		<linearGradient id="SVGID_1_" gradientUnits="userSpaceOnUse" x1="33.8076" y1="34.9754" x2="80.1795" y2="34.9754">
			<stop  offset="0" style="stop-color:#8CC63F"/>
			<stop  offset="0.1541" style="stop-color:#87C33F"/>
			<stop  offset="0.326" style="stop-color:#7ABA3E"/>
			<stop  offset="0.5066" style="stop-color:#64AB3D"/>
			<stop  offset="0.693" style="stop-color:#44963B"/>
			<stop  offset="0.8822" style="stop-color:#1D7B39"/>
			<stop  offset="1" style="stop-color:#006837"/>
		</linearGradient>
		<path class="st10" d="M80.2,35.8c-0.1,0.4-0.3,0.7-0.5,0.9c-1,1.1-2.9,1.2-4.8,0.3c-0.6-1.3-1.1-2.6-1.7-3.9
			c-0.6,1.3-1.2,2.6-1.8,3.9H59.9c-0.7-0.3-1.4-0.6-2.1-0.9c-1.1,1.2-2.3,2.4-3.4,3.7c-2.7,2.9-5.3,5.9-8,8.8
			c-0.1,0.2-0.4,0.4-0.7,0.4c-0.7,0.1-1.2-0.7-1.6-1.2c-0.3-0.4-1.2-1.8-1.4-4.7c-0.1-1.1-0.2-3,0.5-5.4c0.8-2.4,2-4,2.7-4.7
			c-0.2,0.1-0.9,0.7-1.8,0.6c-0.8-0.1-1.4-0.6-1.6-0.7c-0.6-1.3-1.2-2.6-1.8-3.9c-0.6,1.3-1.1,2.6-1.7,3.9h-4.3
			c-0.2,0-0.4-0.2-0.7-0.4c-0.3-0.4-0.4-0.8-0.4-1c-0.1-1,0.3-1.8,0.5-2.3c0.8-1.7,1.2-2.6,1.8-3.4c2.5-3.3,5.8-4.2,6.8-4.4
			c1.2-0.3,2.1-0.3,2.9-0.3c1.3,0,3.6,0,6.1,1.3c0.7,0.3,2.2,1.1,3.7,2.8c0.8,0.9,1.4,1.9,1.6,2.2c0.5,0.8,0.8,1.5,1,2
			c1.1-1.2,3.8-3.6,7.7-4.2c5.9-0.9,10.5,2.8,11.9,4.5c0.6,0.8,1.4,2.2,1.8,3.2c0.2,0.6,0.5,1.1,0.5,1.9
			C80.2,35.2,80.2,35.5,80.2,35.8z"/>
		<path class="st11" d="M74,80H19c-0.2-2.6,1.7-5.7,3.3-7.5c2.6-2.9,6.3-5.4,10.6-6.4c0.1,0,0.3-0.1,0.4-0.1
			c0.9-0.2,1.8-0.4,2.5-0.5c1.9-0.3,4-0.3,4-0.3c1,0,2.4,0,4.2-0.1c1.9,0,4.2,0,7-0.1c0.2,0.2,0.5,0.6,1,1.1c3.2,2.7,6.6,0.3,11,1.1
			c0,0,7.3,1.3,10.6,11.1C73.7,78.6,73.9,79.3,74,80z"/>
	</g>
</g>
</svg>
