<?xml version="1.0" encoding="utf-8"?>
<!-- Generator: Adobe Illustrator 22.0.1, SVG Export Plug-In . SVG Version: 6.00 Build 0)  -->
<svg version="1.1" xmlns="http://www.w3.org/2000/svg" xmlns:xlink="http://www.w3.org/1999/xlink" x="0px" y="0px"
	 viewBox="0 0 199 198" style="enable-background:new 0 0 199 198;" xml:space="preserve">
<style type="text/css">
	.st0{display:none;}
	.st1{display:inline;}
	.st2{fill:#339966;}
	.st3{fill:none;}
	.st4{fill:#FFFFFF;}
	.st5{fill:#327ECC;}
	.st6{fill:#1A1A1A;}
	.st7{fill:#3289AE;}
	.st8{fill:#333333;}
</style>
<g id="Capa_3" class="st0">
	<g class="st1">
		<rect x="0.5" y="0.5" width="198" height="197"/>
		<path d="M198,1v196H1V1H198 M199,0H0v198h199V0L199,0z"/>
	</g>
</g>
<g id="Capa_2">
	<circle class="st2" cx="98.1" cy="93" r="87.5"/>
	<g>
		<rect x="34.7" y="49.3" class="st3" width="140.3" height="95.5"/>
		<path class="st4" d="M34.3,55.5H49L60,95c2.5,8.9,4.3,16.6,6.9,25.5h0.5c2.6-8.9,4.4-16.6,6.9-25.5l10.9-39.5h14.2L75.1,134H58.6
			L34.3,55.5z"/>
		<path class="st4" d="M105.3,55.5h26.4c16.3,0,28.9,5.8,28.9,23.3c0,16.9-12.6,24.5-28.9,24.5h-12.5V134h-13.9V55.5z M130.3,92.2
			c10.8,0,16.6-4.5,16.6-13.4c0-9-5.9-12.1-16.6-12.1h-11.1v25.5H130.3z M129.1,99.6l10.1-8.3l24.5,42.7H148L129.1,99.6z"/>
	</g>
	<g>
		<g>
			<path class="st5" d="M122.6,189.1c-10.8,0-19.5-8.7-19.5-19.5v-27.1c0-10.8,8.7-19.5,19.5-19.5h41.8c10.8,0,19.5,8.7,19.5,19.5
				v27.1c0,10.8-8.7,19.5-19.5,19.5H122.6z"/>
			<path class="st6" d="M164.4,126c9.1,0,16.5,7.4,16.5,16.5v27.1c0,9.1-7.4,16.5-16.5,16.5h-41.9c-9.1,0-16.5-7.4-16.5-16.5v-27.1
				c0-9.1,7.4-16.5,16.5-16.5H164.4 M164.4,120h-41.9c-12.4,0-22.5,10.1-22.5,22.5v27.1c0,12.4,10.1,22.5,22.5,22.5h41.9
				c12.4,0,22.5-10.1,22.5-22.5v-27.1C186.9,130.1,176.9,120,164.4,120L164.4,120z"/>
		</g>
		<g>
			<path class="st7" d="M169.5,195l-0.7-0.4l-0.4-0.1c-2.3-0.5-4.2-1.5-5.7-2.9c-1.6-1.4-2.3-2.8-3.1-4.5c-0.9-1.8-1.9-3.8-4-5.6
				c-4-3.5-9.1-3.6-11.8-3.7h-0.1c-2.7,0.1-7.8,0.2-11.8,3.7c-2.1,1.8-3.1,3.8-4,5.6c-0.8,1.6-1.5,3.1-3.1,4.5
				c-1.5,1.4-3.4,2.3-5.7,2.9l-0.4,0.1l-0.7,0.4H103c-6.1,0-11-5-11-11.2v-39c0-6.2,4.9-11.2,11-11.2h81c6.1,0,11,5,11,11.2v39
				c0,6.2-4.9,11.2-11,11.2H169.5z"/>
			<path class="st8" d="M184,136.6c4.4,0,8,3.7,8,8.2v39c0,4.5-3.6,8.2-8,8.2h-13.7l-0.4-0.2l-0.9-0.2c-1.8-0.4-3.2-1.1-4.4-2.2
				c-1.1-1-1.6-2-2.4-3.5c-0.9-1.9-2.1-4.3-4.7-6.6c-4.9-4.2-10.6-4.4-13.7-4.4l-0.1,0l-0.1,0c-3.1,0.1-8.9,0.2-13.7,4.4
				c-2.6,2.2-3.7,4.6-4.7,6.6c-0.8,1.5-1.2,2.5-2.4,3.6c-1.1,1-2.6,1.7-4.4,2.2l-0.9,0.2l-0.4,0.2H103c-4.4,0-8-3.7-8-8.2v-39
				c0-4.5,3.6-8.2,8-8.2H184 M184,130.6h-81c-7.7,0-14,6.4-14,14.2v39c0,7.8,6.3,14.2,14,14.2h15.9c0.3-0.2,0.7-0.4,1-0.6
				c1.9-0.5,4.6-1.4,7-3.5c3.9-3.5,3.6-7.1,7-10c3.2-2.8,7.3-2.9,9.9-3c2.6,0.1,6.7,0.2,9.9,3c3.4,2.9,3.1,6.6,7,10
				c2.4,2.1,5.1,3.1,7,3.5c0.3,0.2,0.7,0.4,1,0.6H184c7.7,0,14-6.4,14-14.2v-39C198,137,191.7,130.6,184,130.6L184,130.6z"/>
		</g>
		<ellipse class="st8" cx="119" cy="161.7" rx="13.7" ry="13.9"/>
		<ellipse class="st4" cx="119" cy="161.4" rx="8.5" ry="8.6"/>
		<ellipse class="st8" cx="168" cy="161.7" rx="13.7" ry="13.9"/>
		<ellipse class="st4" cx="168" cy="161.4" rx="8.5" ry="8.6"/>
	</g>
	<g>
	</g>
	<g>
	</g>
	<g>
	</g>
	<g>
	</g>
	<g>
	</g>
	<g>
	</g>
	<g>
	</g>
	<g>
	</g>
	<g>
	</g>
	<g>
	</g>
	<g>
	</g>
	<g>
	</g>
	<g>
	</g>
	<g>
	</g>
	<g>
	</g>
</g>
</svg>
