<?xml version="1.0" encoding="utf-8"?>
<!-- Generator: Adobe Illustrator 22.0.1, SVG Export Plug-In . SVG Version: 6.00 Build 0)  -->
<svg version="1.1" xmlns="http://www.w3.org/2000/svg" xmlns:xlink="http://www.w3.org/1999/xlink" x="0px" y="0px"
	 viewBox="0 0 80 80" style="enable-background:new 0 0 80 80;" xml:space="preserve">
<style type="text/css">
	.st0{display:none;}
	.st1{display:inline;}
	.st2{fill:#FFA500;}
	.st3{opacity:0.61;fill:#FF8C00;}
	.st4{fill:#FFFFFF;}
	.st5{fill:#1A1617;}
	.st6{fill:#3D3D3D;}
	.st7{fill:#F6D5B8;}
	.st8{fill:#E6C6AA;}
	.st9{fill:#383032;}
</style>
<g id="Capa_2" class="st0">
	<rect class="st1" width="80" height="80"/>
</g>
<g id="Capa_4">
	<g>
		<path class="st2" d="M0.9,28.5c0.4-0.7,1-1.3,1.5-1.7C12.5,18,22.7,9.3,32.9,0.6C33.3,0.3,33.7,0,34.1,0c0.3,0,0.6,0.3,0.9,0.5
			C45.4,9.4,55.8,18.2,66.1,27c0.5,0.5,1.1,1,1.3,1.7c0.3,0.9,0.6,2,0.5,3c-0.2,1.1-1,2.1-1.6,2.9c-0.1,0.1-0.2,0.3-0.4,0.3
			c-0.2,0.1-0.4-0.1-0.6-0.2c-2.1-1.7-4.1-3.6-6.2-5.4c-2.5-2.1-5-4.1-7.6-6.2c-5-4.1-10-8.1-14.9-12.3C36.5,10.6,34,8.3,34,8.4
			c-9,8.1-18.6,15.3-27.8,23.1c-1.1,0.9-2.2,1.9-3.3,2.8c-0.2,0.2-0.4,0.3-0.6,0.4c-0.3,0.1-0.6-0.1-0.8-0.3
			c-0.6-0.6-1.2-1.8-1.4-2.7C-0.2,30.7,0.2,29.5,0.9,28.5z"/>
		<path class="st2" d="M56.4,19.5l-9.3-1.8V3.6c0-1,0.7-1.8,1.6-1.8h6.2c0.9,0,1.6,0.8,1.6,1.8V19.5z"/>
		<path class="st2" d="M34,12.9L9.8,32.6v24.2c0,1.2,0.8,2.2,1.9,2.2h16.8V41.4h11.2V59h14.9c2,0,3.7-2,3.7-4.4v-22L34,12.9z"/>
		<path class="st3" d="M67.5,28.7c-0.2-0.7-0.8-1.3-1.3-1.7c-3.3-2.8-6.5-5.5-9.7-8.3V3.6c0-1-0.7-1.8-1.6-1.8h-6.2
			c-0.9,0-1.6,0.8-1.6,1.8v7.1c-4-3.4-8-6.8-12-10.3C34.8,0.3,34.5,0,34.1,0H34v8.4c0.4,0.3,2.4,2.2,2.7,2.3
			c4.9,4.2,9.9,8.2,14.9,12.3c2.5,2,5,4.1,7.6,6.2c2.1,1.7,4.1,3.6,6.2,5.4c0.2,0.2,0.4,0.3,0.6,0.2c0.1,0,0.2-0.2,0.4-0.3
			c0.6-0.8,1.4-1.8,1.6-2.9C68.1,30.8,67.8,29.6,67.5,28.7z"/>
		<path class="st3" d="M34,12.9v19.8v8.8h5.6V59h14.9c2,0,3.7-2,3.7-4.4v-22L34,12.9z"/>
		<ellipse class="st4" cx="37.3" cy="51" rx="0.8" ry="1"/>
	</g>
	<path class="st5" d="M47.1,56.7c-0.1,0.1-0.3,0.1-0.7,0.2c-2.2,0.7-4.4,1.5-6.6,2.5c-1.4,0.6-1.2,0.4-1.8,1.6
		c-1.5,3.2-3,6.6-4.1,9.9c3.6,3.5,8.2,6.2,13.3,7.7c1.9,0.5,3.9,0.9,6,1.2c1.1,0.1,2.2,0.2,3.4,0.2h0.7c1.1,0,2.2-0.1,3.3-0.2
		c2-0.3,4.1-0.7,6-1.2c5.2-1.5,9.7-4.2,13.3-7.7c-1.1-3.2-2.5-6.6-4.1-9.9c-0.6-1.3-0.5-1-1.8-1.6c-2.2-1-4.4-1.8-6.6-2.5
		c-0.3-0.1-0.5-0.1-0.6-0.2l0-0.1c-0.4-0.7-0.9-1.3-1.5-1.8c2.7,0.2,4.8-0.4,6.2-1.9c1.3-1.5,1.4-2.5,1.5-4.3
		c0.1-3.4-0.2-7.2-1.2-10.6c-1-3.4-2.8-6.5-5.5-8.9C63.8,26.8,60.7,25,57,25c-2.6,0-4.9,0.4-6.5,2.7c-1.6-0.2-2.4,0.5-3.5,1.4
		c-2.8,2.4-4.5,5.5-5.5,8.9c-1,3.5-1.3,7.2-1.2,10.6c0.1,1.8,0.1,2.8,1.5,4.3c1.5,1.6,3.8,2.2,6.8,1.9h0C48,55.4,47.5,56,47.1,56.7z
		"/>
	<path class="st6" d="M48.5,54.8c0.6-0.6,1.3-1.1,2-1.6l0.4-1.7c-1.4-1.5-2.4-3.4-3-5.7c-1.1,0-2.2-1.1-2.6-2.7
		c-0.3-1.3-0.4-2.3,0-2.9c0.7-1.1,1.8-0.4,2.3,0.4c0.4-3.3,2-6.2,4.2-8c1.6,1.6,3.5,3,5.9,3.2c4.7,0.5,7.2,2,8.4,4.5
		c0.5-0.7,1.6-1.2,2.2-0.2c0.4,0.6,0.4,1.7,0,2.9C68,44.7,67,45.8,66,45.9c-0.5,2.2-1.5,4.1-2.8,5.5l0,0.2l0.4,1.8
		c0.7,0.4,1.3,0.9,1.9,1.5c2.7,0.2,4.9-0.4,6.2-1.9c1.3-1.5,1.4-2.5,1.5-4.3c0.1-3.4-0.2-7.2-1.2-10.6c-1-3.4-2.8-6.5-5.5-8.9
		C63.8,26.8,60.7,25,57,25c-2.6,0-4.9,0.4-6.5,2.7c-1.6-0.2-2.4,0.5-3.5,1.4c-2.8,2.4-4.5,5.5-5.5,8.9c-1,3.5-1.3,7.2-1.2,10.6
		c0.1,1.8,0.1,2.8,1.5,4.3C43.2,54.5,45.6,55.1,48.5,54.8z"/>
	<path class="st7" d="M66.2,40.4c0.5-0.7,1.6-1.2,2.2-0.2c0.4,0.6,0.4,1.7,0,2.9C68,44.7,67,45.8,66,45.9c-0.5,2.2-1.5,4.1-2.8,5.5
		l0,0.2l0.4,1.7l0,0c0,0.1,0.1,0.2,0.1,0.3l0,0.1c0.1,0.5,0.3,1,0.4,1.5c0.8,4.2-0.8,8.1-2.8,12.2c-1.1,1-2.7,1.9-4.2,1.8
		c-1.5,0.1-3.2-0.8-4.2-1.9c-1.8-3.8-3.4-7.5-2.9-11.4c0.1-0.8,0.3-1.6,0.6-2.3l0.1-0.3l0.4-1.7c-1.4-1.5-2.4-3.4-3-5.7
		c-1.1,0-2.2-1.1-2.6-2.7c-0.3-1.3-0.4-2.3,0-2.9c0.7-1.1,1.8-0.4,2.3,0.4c0.4-3.3,2-6.2,4.2-8c1.6,1.6,3.5,3,5.9,3.2
		C62.6,36.4,65.1,37.9,66.2,40.4z"/>
	<path class="st8" d="M47.9,45.5c-0.2-0.9-0.3-1.8-0.3-2.7c0-0.6,0-1.1,0.1-1.7c-0.1-0.1-0.1-0.1-0.2-0.2c-0.2-0.2-0.6-0.4-0.9-0.4
		c-0.2,0-0.4,0.2-0.5,0.4c-0.4,0.7-0.1,1.8,0.1,2.5c0.2,0.6,0.5,1.2,1,1.7C47.4,45.2,47.6,45.4,47.9,45.5z M66,45.5
		c0.2-0.9,0.3-1.8,0.3-2.7c0-0.6,0-1.1-0.1-1.7c0.1-0.1,0.1-0.1,0.2-0.2c0.2-0.2,0.6-0.4,0.9-0.4c0.2,0,0.4,0.2,0.5,0.4
		c0.4,0.7,0.1,1.8-0.1,2.5c-0.2,0.6-0.5,1.2-1,1.7C66.6,45.2,66.3,45.4,66,45.5z"/>
	<path class="st8" d="M63.6,53.2l-0.4-1.7l0-0.2c-1.7,1.8-3.8,2.9-6.2,2.9c-2.3,0-4.4-1-6-2.8L50.8,52c0.7,0.8,1.5,1.5,2.3,2
		c1.2,0.7,2.5,1.1,3.9,1.4c1.5,0.2,3.1,0.3,4.8,0.2c0.4,0,0.4-0.1,0.5,0.3c1.4,5-1,13.2-9.5,11.4c1.1,1.1,2.7,1.9,4.2,1.8
		c1.5,0.1,3.1-0.7,4.2-1.8C63.4,62.9,65.3,58.1,63.6,53.2z"/>
	<path class="st8" d="M66.2,40.4c-1.1-2.5-3.6-4.1-8.4-4.5c-2.5-0.2-4.3-1.6-5.9-3.2c-2.2,1.8-3.8,4.6-4.2,8
		c1.3-2.4,2.3-5.1,4.1-6.7C54.3,39.1,62.6,35.8,66.2,40.4z"/>
	<path class="st9" d="M67,56.7c0.3,0.6,0.5,1.2,0.7,1.8c0.2,0.6,0.3,1.2,0.4,1.9c0,0.2,0.1,0.3,0,0.4c0,0.1,0,0.2-0.2,0.3
		c-0.2,0.3-0.5,0.6-0.8,0.9c-0.3,0.3-0.7,0.5-1,0.7l1.4,1.3l1.4,1.3l-6,6.9l-6,6.9l-6-6.9l-6-6.9l1.4-1.3l1.4-1.3
		c-0.4-0.2-0.7-0.5-1-0.7c-0.3-0.3-0.6-0.5-0.8-0.9c-0.1-0.1-0.2-0.2-0.2-0.3c0-0.1,0-0.2,0-0.4c0.1-0.6,0.2-1.3,0.4-1.9
		c0.2-0.6,0.4-1.2,0.7-1.8c0.4-0.7,0.9-1.4,1.5-1.9c0.6-0.6,1.2-1.1,1.9-1.5c-1.5,4.2-0.4,8.1,1.4,12.1c1.8,4,4.2,8,5.1,12.5
		c1-4.5,3.4-8.5,5.1-12.5c1.8-4,2.9-7.9,1.4-12.1c0.7,0.5,1.3,1,1.9,1.6C66,55.4,66.5,56,67,56.7z"/>
	<path class="st4" d="M57,77.8c0.8-3.7,2.6-7.2,4.2-10.5c-1.1,1-2.7,1.9-4.2,1.8c-1.5,0.1-3.1-0.7-4.2-1.8c0,0,0,0-0.1-0.1
		C54.4,70.6,56.2,74,57,77.8z"/>
</g>
</svg>
