<?xml version="1.0" encoding="utf-8"?>
<!-- Generator: Adobe Illustrator 22.0.1, SVG Export Plug-In . SVG Version: 6.00 Build 0)  -->
<svg version="1.1" xmlns="http://www.w3.org/2000/svg" xmlns:xlink="http://www.w3.org/1999/xlink" x="0px" y="0px"
	 viewBox="0 0 80 80" style="enable-background:new 0 0 80 80;" xml:space="preserve">
<style type="text/css">
	.st0{display:none;}
	.st1{display:inline;}
	.st2{fill:#FFA500;}
	.st3{opacity:0.61;fill:#FF8C00;}
	.st4{fill:#FFFFFF;}
	.st5{fill:#1A1617;}
	.st6{fill:#3D3D3D;}
	.st7{fill:#F6D5B8;}
	.st8{fill:#E6C6AA;}
	.st9{fill:#383032;}
	.st10{fill:#F23034;}
	.st11{fill:#E6E6E6;}
</style>
<g id="Capa_2" class="st0">
	<rect class="st1" width="80" height="80"/>
</g>
<g id="Capa_4">
	<g>
		<path class="st2" d="M0.9,28.5c0.4-0.7,1-1.3,1.5-1.7C12.5,18,22.7,9.3,32.9,0.6C33.3,0.3,33.7,0,34.1,0c0.3,0,0.6,0.3,0.9,0.5
			C45.4,9.4,55.8,18.2,66.1,27c0.5,0.5,1.1,1,1.3,1.7c0.3,0.9,0.6,2,0.5,3c-0.2,1.1-1,2.1-1.6,2.9c-0.1,0.1-0.2,0.3-0.4,0.3
			c-0.2,0.1-0.4-0.1-0.6-0.2c-2.1-1.7-4.1-3.6-6.2-5.4c-2.5-2.1-5-4.1-7.6-6.2c-5-4.1-10-8.1-14.9-12.3C36.5,10.6,34,8.3,34,8.4
			c-9,8.1-18.6,15.3-27.8,23.1c-1.1,0.9-2.2,1.9-3.3,2.8c-0.2,0.2-0.4,0.3-0.6,0.4c-0.3,0.1-0.6-0.1-0.8-0.3
			c-0.6-0.6-1.2-1.8-1.4-2.7C-0.2,30.7,0.2,29.5,0.9,28.5z"/>
		<path class="st2" d="M56.4,19.5l-9.3-1.8V3.6c0-1,0.7-1.8,1.6-1.8h6.2c0.9,0,1.6,0.8,1.6,1.8V19.5z"/>
		<path class="st2" d="M34,12.9L9.8,32.6v24.2c0,1.2,0.8,2.2,1.9,2.2h16.8V41.4h11.2V59h14.9c2,0,3.7-2,3.7-4.4v-22L34,12.9z"/>
		<path class="st3" d="M67.5,28.7c-0.2-0.7-0.8-1.3-1.3-1.7c-3.3-2.8-6.5-5.5-9.7-8.3V3.6c0-1-0.7-1.8-1.6-1.8h-6.2
			c-0.9,0-1.6,0.8-1.6,1.8v7.1c-4-3.4-8-6.8-12-10.3C34.8,0.3,34.5,0,34.1,0H34v8.4c0.4,0.3,2.4,2.2,2.7,2.3
			c4.9,4.2,9.9,8.2,14.9,12.3c2.5,2,5,4.1,7.6,6.2c2.1,1.7,4.1,3.6,6.2,5.4c0.2,0.2,0.4,0.3,0.6,0.2c0.1,0,0.2-0.2,0.4-0.3
			c0.6-0.8,1.4-1.8,1.6-2.9C68.1,30.8,67.8,29.6,67.5,28.7z"/>
		<path class="st3" d="M34,12.9v19.8v8.8h5.6V59h14.9c2,0,3.7-2,3.7-4.4v-22L34,12.9z"/>
		<ellipse class="st4" cx="37.3" cy="51" rx="0.8" ry="1"/>
	</g>
	<path class="st5" d="M69,40.6c0.4,0.7,0.4,1.8,0,3.1c-0.4,1.6-1.5,2.7-2.5,2.8c-0.5,2.3-1.6,4.3-2.9,5.8c1.8,1.4,3.3,2.9,4.4,4.7
		c2.7,0.8,5.3,2.2,8,3.3c0.7,0.3,0.5,0.2,0.8,0.8c1.2,2.7,2.1,5.4,3.2,8.1C74.7,75.8,66.4,80,57,80c-9.4,0-17.7-4.2-23-10.7
		c1.2-2.5,2-5.5,3.3-8.1c0.4-0.7,0.2-0.6,1-0.9c2.6-1.1,5-2.3,7.8-3.1c1.2-2,2.8-3.6,4.7-4.6c-1.4-1.5-2.5-3.6-3.1-6
		c-1.1,0-2.3-1.2-2.7-2.8c-0.4-1.3-0.4-2.4,0-3.1c0.2-0.4,0.5-0.5,0.7-0.6c-1.6-5.4,0.3-9.2,4.4-11.5c5.7-4.1,13-3.7,17.4,2
		C69.6,33.3,69.9,37.2,69,40.6z"/>
	<path class="st6" d="M56.9,25.9c-2.3,0.2-4.6,1.2-6.8,2.7c-4.1,2.3-6,6-4.4,11.5c0.6-0.1,1.3,0.4,1.7,1c0.1,0.1,0.2,0.4,0.1,0.5
		c0,0.7,0.1,1.4,0.3,2.1c0.1,0.2,0.5,0.4,0.4,0.1c-0.2-1.2,0-2.6-0.3-3.7l-0.2-1c0.7-2.7,2.1-5,4-6.5c1.7,1.7,3.6,3.1,6.2,3.4
		c4.5,0.5,7,1.8,8.4,4.1c-0.2,1.1-0.1,2.5-0.3,3.7c-0.1,0.3,0.4,0.1,0.4-0.1c0.2-0.7,0.1-1.4,0.2-2.1c-0.1-0.3-0.1-0.5,0.1-0.8
		c0.5-0.8,1.6-1.2,2.3-0.2c0.9-3.4,0.6-7.4-1.5-10.1c-2.1-2.8-5-4.3-8-4.7H56.9z"/>
	<path class="st7" d="M45.4,40.2c-0.1,0.1-0.2,0.2-0.3,0.4c-0.4,0.7-0.4,1.8,0,3.1c0.3,1.1,0.9,2.1,1.7,2.5c0.3,0.2,0.7,0.3,1,0.3
		c0.5,2.4,1.6,4.4,3.1,6c-0.2,0.5-0.3,1.2-0.5,1.8c1.9,2.8,4.2,4.5,6.7,4.5c2.6,0,5-1.8,7-4.9c-0.2-0.7-0.3-1.2-0.5-1.5
		c1.4-1.5,2.4-3.6,2.9-5.8c0.3,0,0.6-0.1,0.8-0.3c0.7-0.5,1.4-1.4,1.7-2.5c0.4-1.3,0.4-2.4,0-3.1c-0.1-0.2-0.2-0.3-0.3-0.4
		c-0.6-0.5-1.5-0.1-1.9,0.6c-0.1,0.2-0.1,0.5-0.1,0.8c0,0.7,0,1.4-0.2,2.1c-0.1,0.2-0.5,0.4-0.4,0.1c0.2-1.2,0-2.6,0.3-3.7
		C65,37.8,62.5,36.5,58,36c-2.6-0.3-4.5-1.7-6.2-3.4c-1.8,1.5-3.3,3.8-4,6.5l0.2,1c0.2,1.1,0.1,2.5,0.3,3.7c0.1,0.3-0.4,0.1-0.4-0.1
		c-0.2-0.7-0.3-1.4-0.3-2.1c0-0.2,0-0.4-0.1-0.5c-0.3-0.6-1-1.1-1.7-1C45.6,40.1,45.5,40.1,45.4,40.2z"/>
	<path class="st8" d="M47.6,46c-0.2-0.9-0.3-1.9-0.4-2.8c0-0.6,0-1.2,0.1-1.8c-0.1-0.1-0.1-0.1-0.2-0.2c-0.2-0.2-0.6-0.5-0.9-0.4
		c-0.3,0-0.4,0.2-0.5,0.4c-0.4,0.7-0.1,1.9,0.1,2.7c0.2,0.6,0.5,1.3,1.1,1.8C47.1,45.7,47.3,45.9,47.6,46z M66.5,46
		c0.2-0.9,0.3-1.9,0.4-2.8c0-0.6,0-1.2-0.1-1.8c0.1-0.1,0.1-0.1,0.2-0.2c0.2-0.2,0.6-0.5,0.9-0.4c0.3,0,0.4,0.2,0.5,0.4
		c0.4,0.7,0.1,1.9-0.1,2.7c-0.2,0.6-0.5,1.3-1.1,1.8C67.1,45.7,66.8,45.9,66.5,46z"/>
	<path class="st9" d="M50.8,52.6c-3.7,9.7,4.1,18.7,5.9,27.4c-0.3,0-0.6,0-0.9,0L44.1,66l3.4-2.5c-0.7-1-2.1-1.4-2.7-2.4
		c0.6-1.3,0.5-2.7,1.3-3.9C47.3,55.3,48.8,53.7,50.8,52.6z M64.2,52.9c1.5,1.2,2.8,2.6,3.8,4.2c0.1,0,0.3,0.1,0.4,0.1l0,0
		c0.8,1.2,0.8,2.6,1.3,3.9c-0.6,1-2,1.5-2.7,2.4l3.4,2.5L58.6,80c-0.3,0-0.6,0-0.9,0c1.8-8.7,9.6-17.7,5.9-27.4
		C63.9,52.7,64,52.8,64.2,52.9z"/>
	<path class="st8" d="M63.6,52.4c0,0-2.6,2.7-6.4,2.7c-2.7,0-6.3-2.6-6.3-2.6l-0.1,0.5c0.7,0.8,1.5,1.4,2.3,1.8
		c1.3,0.7,2.7,1.2,4.2,1.4c1.5,0.2,3.1,0.3,4.8,0.2c0.7-0.7,1.4-1.6,2-2.5C63.9,53.3,63.7,52.7,63.6,52.4z"/>
	<path class="st4" d="M57,58.9c-2.5,0-4.8-1.6-6.7-4.5c0.2-0.7,0.3-1.3,0.5-1.8c-2.4,6.3,0.1,12.3,2.6,18.1c1.4,3.2,2.7,6.3,3.4,9.4
		H57c0.2,0,0.5,0,0.7,0c0.6-2.8,1.8-5.7,3.1-8.6c2.6-6,5.3-12.3,2.9-18.8c0.1,0.1,0.3,0.1,0.4,0.2c-0.2-0.1-0.3-0.2-0.5-0.4
		c0.1,0.3,0.3,0.8,0.5,1.5c-0.6,1-1.3,1.8-2,2.5C60.5,58,58.8,58.9,57,58.9z"/>
	<path class="st10" d="M57,59.4l-3.1,4.7l1,1.4l-1.6,5.2c1.4,3.2,2.7,6.3,3.4,9.3H57c0.2,0,0.5,0,0.7,0c0.6-2.8,1.8-5.7,3.1-8.6
		C61,71,59,65.6,59,65.6l1-1.7L57,59.4z"/>
	<path class="st11" d="M57,59.5l-4.9,6.2l-2.1-4.5c0.6,3.2,1.9,6.4,3.2,9.5l1.6-5.1l-1-1.4L57,59.5z M61.9,65.8L57,59.5l3,4.4
		l-1,1.7c0,0,1.7,4.7,1.8,5.7c1.5-3.4,3-6.9,3.6-10.4L61.9,65.8z"/>
	<path class="st8" d="M58,36c-2.6-0.3-4.5-1.7-6.2-3.4c-1.8,1.5-3.3,3.8-4,6.5c1.3-1.9,2.2-4.4,4-5.7c2.4,4.7,10.8,2.9,14.6,6.7
		C65,37.8,62.5,36.5,58,36z"/>
</g>
</svg>
