<?xml version="1.0" encoding="utf-8"?>
<!-- Generator: Adobe Illustrator 22.0.1, SVG Export Plug-In . SVG Version: 6.00 Build 0)  -->
<svg version="1.1" id="Capa_1" xmlns="http://www.w3.org/2000/svg" xmlns:xlink="http://www.w3.org/1999/xlink" x="0px" y="0px"
	 viewBox="0 0 568 568" style="enable-background:new 0 0 568 568;" xml:space="preserve">
<style type="text/css">
	.st0{display:none;fill:#808080;}
	.st1{display:none;fill:#FF424F;}
	.st2{display:none;fill:#FBC93B;}
	.st3{fill:#FFDB00;}
	.st4{opacity:0.4;fill:#FF8C00;enable-background:new    ;}
	.st5{fill:#FFFFFF;}
</style>
<rect x="-14" y="-9" class="st0" width="591" height="592"/>
<circle class="st1" cx="756" cy="-28" r="30"/>
<circle class="st2" cx="660" cy="-28" r="30"/>
<g id="Capa_4">
	<g>
		<path class="st3" d="M169.2,181c2.6-4,5.8-7.6,8.4-9.6c60.3-49.4,121-98.3,181.3-147.8c2.6-2,4.7-3.5,7.3-3.5c2.1,0,3.7,1.5,5.8,3
			c61.3,49.9,123.1,99.3,184.4,149.3c3.1,2.5,6.8,5.5,7.9,9.6c1.6,5,3.7,11.6,2.6,16.6c-1,6.1-5.8,11.6-9.4,16.1c-0.5,1-1,2-2.1,2
			c-1,0.5-2.6-0.5-3.7-1.5c-12.6-9.6-24.1-20.7-36.7-30.3c-14.7-11.6-29.9-23.2-45.1-34.8c-29.9-22.7-59.2-45.9-88.5-69.6
			c-1.6-1-15.7-13.6-16.2-13.6c-53.4,45.9-110,86.7-164.5,131.1c-6.3,5-13.1,10.6-19.4,16.1c-1,1-2.1,1.5-3.1,2
			c-1.6,0.5-3.7-0.5-5.2-1.5c-3.7-3.5-6.8-10.1-8.4-15.1C162.9,193.1,165.5,186.6,169.2,181z"/>
		<path class="st3" d="M498.7,130.1l-55-10.1V40.9c0-5.5,4.2-10.1,9.4-10.1h36.7c5.2,0,9.4,4.5,9.4,10.1v89.3H498.7z"/>
		<path class="st3" d="M366.2,92.8L222.1,204.2v136.2c0,7.1,4.7,12.6,11,12.6h99.6v-99.3h66.5V353h88.5c12.1,0,22-11.1,22-24.7
			V204.2L366.2,92.8z"/>
		<path class="st4" d="M564.2,182.1c-1.6-4-4.7-7.1-7.9-9.6c-19.4-15.6-38.8-31.3-57.6-46.9V40.9c0-5.5-4.2-10.1-9.4-10.1h-36.7
			c-5.2,0-9.4,4.5-9.4,10.1v40.3c-24.1-19.2-47.7-38.3-71.3-58c-1.6-1.5-3.7-3-5.8-3h-0.5v47.4c2.6,1.5,14.7,12.1,15.7,13.1
			c28.8,23.7,58.7,46.4,88.5,69.6c15.2,11.6,29.9,23.2,45.1,34.8c12.6,9.6,24.1,20.7,36.7,30.3c1,1,2.1,1.5,3.7,1.5
			c0.5,0,1.6-1,2.1-1.5c3.7-4.5,8.4-10.1,9.4-16.1C567.9,193.6,565.8,187.1,564.2,182.1z"/>
		<path class="st4" d="M366.2,92.8v111.4v49.4h33V353h88.5c12.1,0,22-11.1,22-24.7V204.2L366.2,92.8z"/>
	</g>
</g>
<g>
	<ellipse class="st5" cx="190.1" cy="240.8" rx="106.9" ry="106.8"/>
	<path class="st5" d="M363.7,500.5c-2.3,15-15.7,23.3-18.8,25.1c-7,4-13.9,5.2-18.8,5.4H55.6c-4.9-0.2-11.8-1.4-18.8-5.4
		c-3.1-1.8-16.5-10.1-18.8-25.1c-0.6-3.8-0.3-6.9,0-9v-36.8c0.4-7.7,1.9-19.3,7.2-32.3c4.5-11,10-18.9,13.4-23.3
		c9.7-12.5,19.9-19.3,26-23.3c5.4-3.6,15.6-10.2,30.5-14.4c15.6-4.4,27.8-3.8,30.5-3.6c3.3,0.2,6.1,0.6,8.1,0.9
		c37.3,16.6,77.2,16.5,114.4,0c2-0.3,4.8-0.7,8.1-0.9c2.7-0.2,14.9-0.8,30.5,3.6c14.9,4.2,25,10.8,30.5,14.4
		c6.1,4,16.3,10.9,26,23.3c3.5,4.5,9,12.4,13.4,23.3c5.3,13,6.8,24.6,7.2,32.3v36.8C364,493.6,364.2,496.7,363.7,500.5z"/>
</g>
<path class="st5" d="M226,405L226,405c-0.1,0-0.1,0-0.2,0C225.9,405,225.9,405,226,405z"/>
<path class="st5" d="M225.8,405c-0.1,0-0.1,0-0.2,0v0C225.7,405,225.8,405,225.8,405z"/>
</svg>
