<?xml version="1.0" encoding="utf-8"?>
<!-- Generator: Adobe Illustrator 22.0.1, SVG Export Plug-In . SVG Version: 6.00 Build 0)  -->
<svg version="1.1" id="Capa_1" xmlns="http://www.w3.org/2000/svg" xmlns:xlink="http://www.w3.org/1999/xlink" x="0px" y="0px"
	 viewBox="0 0 199 198" style="enable-background:new 0 0 199 198;" xml:space="preserve">
<style type="text/css">
	.st0{display:none;opacity:0.94;}
	.st1{display:inline;}
	.st2{opacity:0.35;}
	.st3{opacity:0.5;fill:#666666;enable-background:new    ;}
	.st4{opacity:0.5;fill:#4D4D4D;enable-background:new    ;}
	.st5{opacity:0.5;}
	.st6{fill:none;}
	.st7{fill:#CCCCCC;}
</style>
<g id="Capa_3" class="st0">
	<g class="st1">
		<rect x="0.5" y="0.5" width="198" height="197"/>
		<path d="M198,1v196H1V1H198 M199,0H0v198h199V0L199,0z"/>
	</g>
</g>
<g id="Capa_2_1_" class="st2">
	<circle class="st3" cx="100.5" cy="101.5" r="87.5"/>
	<path class="st4" d="M159.3,36.7L41.9,166.5c-17.4-16-28.3-38.9-28.3-64.5c0-48.3,39.2-87.5,87.5-87.5
		C123.4,14.5,143.8,22.9,159.3,36.7z"/>
	<g class="st5">
		<rect x="37.7" y="58.3" class="st6" width="140.3" height="95.5"/>
		<path class="st7" d="M37.3,64.5H52L63,104c2.5,8.9,4.3,16.6,6.9,25.5h0.5c2.6-8.9,4.4-16.6,6.9-25.5l10.9-39.5h14.2L78.1,143H61.6
			L37.3,64.5z"/>
		<path class="st7" d="M108.3,64.5h26.4c16.3,0,28.9,5.8,28.9,23.3c0,16.9-12.6,24.5-28.9,24.5h-12.5V143h-13.9
			C108.3,143,108.3,64.5,108.3,64.5z M133.3,101.2c10.8,0,16.6-4.5,16.6-13.4c0-9-5.9-12.1-16.6-12.1h-11.1v25.5H133.3z
			 M132.1,108.6l10.1-8.3l24.5,42.7H151L132.1,108.6z"/>
	</g>
</g>
</svg>
