<?xml version="1.0" encoding="utf-8"?>
<!-- Generator: Adobe Illustrator 22.0.1, SVG Export Plug-In . SVG Version: 6.00 Build 0)  -->
<svg version="1.1" xmlns="http://www.w3.org/2000/svg" xmlns:xlink="http://www.w3.org/1999/xlink" x="0px" y="0px"
	 viewBox="0 0 175 175" style="enable-background:new 0 0 175 175;" xml:space="preserve">
<style type="text/css">
	.st0{fill:#339966;}
	.st1{fill:none;}
	.st2{fill:#FFFFFF;}
</style>
<g id="Capa_3">
</g>
<g id="Capa_2">
	<circle class="st0" cx="87.5" cy="87.5" r="87.5"/>
	<g>
		<rect x="24.1" y="43.8" class="st1" width="140.3" height="95.5"/>
		<path class="st2" d="M23.7,50h14.7l11,39.5c2.5,8.9,4.3,16.6,6.9,25.5h0.5c2.6-8.9,4.4-16.6,6.9-25.5L74.7,50h14.2l-24.3,78.5
			H48.1L23.7,50z"/>
		<path class="st2" d="M94.7,50h26.4c16.3,0,28.9,5.8,28.9,23.3c0,16.9-12.6,24.5-28.9,24.5h-12.5v30.7H94.7V50z M119.7,86.7
			c10.8,0,16.6-4.5,16.6-13.4c0-9-5.9-12.1-16.6-12.1h-11.1v25.5H119.7z M118.5,94.1l10.1-8.3l24.5,42.7h-15.6L118.5,94.1z"/>
	</g>
	<g>
	</g>
	<g>
	</g>
	<g>
	</g>
	<g>
	</g>
	<g>
	</g>
	<g>
	</g>
	<g>
	</g>
	<g>
	</g>
	<g>
	</g>
	<g>
	</g>
	<g>
	</g>
	<g>
	</g>
	<g>
	</g>
	<g>
	</g>
	<g>
	</g>
</g>
</svg>
